<?xml version="1.0" encoding="UTF-8" standalone="no"?>
<!-- Created with Inkscape (http://www.inkscape.org/) -->

<svg
   xmlns:dc="http://purl.org/dc/elements/1.1/"
   xmlns:cc="http://creativecommons.org/ns#"
   xmlns:rdf="http://www.w3.org/1999/02/22-rdf-syntax-ns#"
   xmlns:svg="http://www.w3.org/2000/svg"
   xmlns="http://www.w3.org/2000/svg"
   xmlns:sodipodi="http://sodipodi.sourceforge.net/DTD/sodipodi-0.dtd"
   xmlns:inkscape="http://www.inkscape.org/namespaces/inkscape"
   width="45.720001mm"
   height="128.54166mm"
   viewBox="0 0 45.720002 128.5417"
   version="1.1"
   id="svg4541"
   sodipodi:docname="B.svg"
   inkscape:version="0.92.5 (2060ec1f9f, 2020-04-08)">
  <defs
     id="defs4535" />
  <sodipodi:namedview
     id="base"
     pagecolor="#ffffff"
     bordercolor="#666666"
     borderopacity="1.0"
     inkscape:pageopacity="0.0"
     inkscape:pageshadow="2"
     inkscape:zoom="4"
     inkscape:cx="129.21218"
     inkscape:cy="279.14322"
     inkscape:document-units="mm"
     inkscape:current-layer="layer4"
     showgrid="true"
     fit-margin-top="0"
     fit-margin-left="0"
     fit-margin-right="0"
     fit-margin-bottom="0"
     inkscape:window-width="1600"
     inkscape:window-height="845"
     inkscape:window-x="0"
     inkscape:window-y="0"
     inkscape:window-maximized="1"
     units="mm">
    <inkscape:grid
       type="xygrid"
       id="grid76" />
  </sodipodi:namedview>
  <metadata
     id="metadata4538">
    <rdf:RDF>
      <cc:Work
         rdf:about="">
        <dc:format>image/svg+xml</dc:format>
        <dc:type
           rdf:resource="http://purl.org/dc/dcmitype/StillImage" />
        <dc:title />
      </cc:Work>
    </rdf:RDF>
  </metadata>
  <g
     inkscape:groupmode="layer"
     id="layer1"
     inkscape:label="Background"
     style="display:inline;opacity:1">
    <rect
       style="fill:#ffffff;stroke-width:0.37211871"
       id="rect111"
       width="45.839062"
       height="128.32292"
       x="0"
       y="0.21873982" />
  </g>
  <g
     inkscape:groupmode="layer"
     id="layer4"
     inkscape:label="graphics"
     transform="translate(0,28.00003)"
     style="display:inline">
    <text
       xml:space="preserve"
       style="font-style:normal;font-variant:normal;font-weight:normal;font-stretch:normal;font-size:4.58611107px;line-height:1.25;font-family:'Arial Black';-inkscape-font-specification:'Arial Black, Normal';font-variant-ligatures:normal;font-variant-caps:normal;font-variant-numeric:normal;text-align:center;letter-spacing:0px;word-spacing:0px;writing-mode:lr-tb;text-anchor:middle;fill:#000000;fill-opacity:1;stroke:none;stroke-width:0.26458332"
       x="11.90625"
       y="-21.166708"
       id="text115"><tspan
         sodipodi:role="line"
         id="tspan113"
         x="11.90625"
         y="-17.054897"
         style="stroke-width:0.26458332" /></text>
    <g
       aria-label="KRT"
       style="font-style:normal;font-variant:normal;font-weight:normal;font-stretch:normal;font-size:3.52777767px;line-height:1.25;font-family:'Arial Black';-inkscape-font-specification:'Arial Black, Normal';font-variant-ligatures:normal;font-variant-caps:normal;font-variant-numeric:normal;font-feature-settings:normal;text-align:center;letter-spacing:0px;word-spacing:0px;writing-mode:lr-tb;text-anchor:middle;fill:#000000;fill-opacity:1;stroke:none;stroke-width:0.26458332"
       id="text123"
       transform="translate(-12.170835,-117.47517)">
      <path
         d="m 14.418414,95.635115 h 0.780314 v 0.954291 l 0.81821,-0.954291 h 1.036974 l -0.91984,0.952569 0.961181,1.572686 h -0.961181 l -0.532268,-1.038696 -0.403076,0.422024 v 0.616672 h -0.780314 z"
         style="fill:#000000;stroke-width:0.26458332"
         id="path227"
         inkscape:connector-curvature="0" />
      <path
         d="m 17.363971,98.16037 v -2.525255 h 1.300523 q 0.361735,0 0.552938,0.06201 0.191203,0.06201 0.308336,0.230821 0.117133,0.167087 0.117133,0.408244 0,0.210151 -0.08957,0.363457 -0.08957,0.151585 -0.246325,0.246325 -0.09991,0.06029 -0.273885,0.09991 0.139527,0.04651 0.203261,0.09302 0.04306,0.03101 0.124023,0.132636 0.08268,0.101631 0.110243,0.156752 l 0.377238,0.732083 H 18.96594 l -0.416857,-0.771701 q -0.07924,-0.149862 -0.141248,-0.194648 -0.08441,-0.05857 -0.191203,-0.05857 h -0.0689 v 1.024916 z m 0.783759,-1.502062 h 0.329006 q 0.0534,0 0.206706,-0.03445 0.07752,-0.0155 0.125746,-0.07924 0.04995,-0.06373 0.04995,-0.146416 0,-0.122301 -0.07751,-0.187758 -0.07751,-0.06546 -0.29111,-0.06546 H 18.14773 Z"
         style="fill:#000000;stroke-width:0.26458332"
         id="path229"
         inkscape:connector-curvature="0" />
      <path
         d="m 19.889226,95.635115 h 2.371948 v 0.623562 h -0.795817 v 1.901693 h -0.780314 v -1.901693 h -0.795817 z"
         style="fill:#000000;stroke-width:0.26458332"
         id="path231"
         inkscape:connector-curvature="0" />
    </g>
    <g
       aria-label="Ω"
       style="font-style:normal;font-variant:normal;font-weight:normal;font-stretch:normal;font-size:3.52777767px;line-height:1.25;font-family:'Arial Black';-inkscape-font-specification:'Arial Black, Normal';font-variant-ligatures:normal;font-variant-caps:normal;font-variant-numeric:normal;font-feature-settings:normal;text-align:center;letter-spacing:0px;word-spacing:0px;writing-mode:lr-tb;text-anchor:middle;fill:#000000;fill-opacity:1;stroke:none;stroke-width:0.26458332"
       id="text107"
       transform="matrix(2.52226,0,0,2.4814703,-16.867486,28.084873)" />
    <g
       aria-label="B"
       style="font-style:normal;font-variant:normal;font-weight:normal;font-stretch:normal;font-size:3.52777767px;line-height:1.25;font-family:'Arial Black';-inkscape-font-specification:'Arial Black, Normal';font-variant-ligatures:normal;font-variant-caps:normal;font-variant-numeric:normal;font-feature-settings:normal;text-align:center;letter-spacing:0px;word-spacing:0px;writing-mode:lr-tb;text-anchor:middle;fill:#0000ff;fill-opacity:1;stroke:none;stroke-width:0.26458332"
       id="text93">
      <path
         d="m 11.135046,-22.569431 h 1.46072 q 0.36518,0 0.559828,0.180867 0.19637,0.180868 0.19637,0.447863 0,0.223931 -0.139526,0.384128 -0.09302,0.106798 -0.272162,0.16881 0.272162,0.06546 0.399631,0.225653 0.129191,0.158475 0.129191,0.399632 0,0.19637 -0.0913,0.353122 -0.0913,0.156752 -0.24977,0.248047 -0.09819,0.05684 -0.296278,0.08268 -0.26355,0.03445 -0.349677,0.03445 h -1.347032 z m 0.787204,0.990465 h 0.339342 q 0.18259,0 0.253214,-0.06201 0.07235,-0.06373 0.07235,-0.18259 0,-0.110243 -0.07235,-0.172255 -0.07062,-0.06201 -0.248047,-0.06201 H 11.92225 Z m 0,0.992187 h 0.397908 q 0.201539,0 0.284221,-0.07062 0.08268,-0.07235 0.08268,-0.192925 0,-0.111966 -0.08268,-0.179145 -0.08096,-0.0689 -0.285943,-0.0689 H 11.92225 Z"
         style="stroke-width:0.26458332;fill:#0000ff"
         id="path95"
         inkscape:connector-curvature="0" />
    </g>
    <g
       aria-label="1"
       style="font-style:normal;font-variant:normal;font-weight:normal;font-stretch:normal;font-size:3.52777767px;line-height:1.25;font-family:'Arial Black';-inkscape-font-specification:'Arial Black, Normal';font-variant-ligatures:normal;font-variant-caps:normal;font-variant-numeric:normal;font-feature-settings:normal;text-align:center;letter-spacing:0px;word-spacing:0px;writing-mode:lr-tb;text-anchor:middle;fill:#008000;fill-opacity:1;stroke:none;stroke-width:0.26458332"
       id="text83"
       transform="translate(0.52916667)">
      <path
         d="m 5.5851888,-6.0079415 v 2.5683186 H 4.8754992 V -5.122552 q -0.1722548,0.1309137 -0.3341743,0.2118734 -0.1601969,0.08096 -0.4030761,0.1550293 v -0.5753309 q 0.3582899,-0.1154107 0.5563829,-0.2773302 0.198093,-0.1619195 0.3100586,-0.3996311 z"
         style="fill:#008000;stroke-width:0.26458332"
         id="path206"
         inkscape:connector-curvature="0" />
    </g>
    <g
       aria-label="2"
       style="font-style:normal;font-variant:normal;font-weight:normal;font-stretch:normal;font-size:3.52777767px;line-height:1.25;font-family:'Arial Black';-inkscape-font-specification:'Arial Black, Normal';font-variant-ligatures:normal;font-variant-caps:normal;font-variant-numeric:normal;font-feature-settings:normal;text-align:center;letter-spacing:0px;word-spacing:0px;writing-mode:lr-tb;text-anchor:middle;fill:#008000;fill-opacity:1;stroke:none;stroke-width:0.26458332"
       id="text87">
      <path
         d="M 6.3792832,12.699959 H 4.2743299 q 0.036174,-0.311781 0.2187636,-0.585666 0.1843126,-0.275608 0.689019,-0.649401 0.3083361,-0.229099 0.3944635,-0.347955 0.086127,-0.118855 0.086127,-0.225653 0,-0.115411 -0.086127,-0.196371 -0.084405,-0.08268 -0.213596,-0.08268 -0.1343587,0 -0.2204861,0.08441 -0.084405,0.08441 -0.1136881,0.298001 l -0.7027995,-0.05684 q 0.041341,-0.296279 0.1515842,-0.461643 0.1102431,-0.167087 0.3100586,-0.254937 0.2015381,-0.08957 0.5563829,-0.08957 0.3703478,0 0.575331,0.0844 0.2067057,0.08441 0.3238389,0.260105 0.1188558,0.173977 0.1188558,0.391018 0,0.230821 -0.1360813,0.440972 Q 6.0916177,11.518291 5.7350503,11.769783 5.523177,11.9162 5.45083,11.974766 q -0.070625,0.05857 -0.1670871,0.153307 h 1.0955403 z"
         style="fill:#008000;stroke-width:0.26458332"
         id="path203" />
    </g>
    <g
       aria-label="3"
       style="font-style:normal;font-variant:normal;font-weight:normal;font-stretch:normal;font-size:3.52777767px;line-height:1.25;font-family:'Arial Black';-inkscape-font-specification:'Arial Black, Normal';font-variant-ligatures:normal;font-variant-caps:normal;font-variant-numeric:normal;font-feature-settings:normal;text-align:center;letter-spacing:0px;word-spacing:0px;writing-mode:lr-tb;text-anchor:middle;fill:#008000;fill-opacity:1;stroke:none;stroke-width:0.26458332"
       id="text91">
      <path
         d="M 5.1387045,26.647774 4.4755236,26.528918 q 0.082682,-0.316948 0.3169488,-0.485758 0.235989,-0.16881 0.6666259,-0.16881 0.4943712,0 0.7148573,0.184313 0.2204861,0.184313 0.2204861,0.463365 0,0.163642 -0.089572,0.296278 -0.089573,0.132637 -0.27044,0.232544 0.1464165,0.03617 0.2239312,0.08441 0.125746,0.07751 0.1946479,0.204983 0.070624,0.125746 0.070624,0.301446 0,0.220486 -0.1154107,0.423747 -0.1154107,0.201538 -0.3324517,0.311781 -0.217041,0.108521 -0.5701633,0.108521 -0.3445095,0 -0.544325,-0.08096 Q 4.7631891,28.323813 4.633998,28.168784 4.5065295,28.012032 4.4376276,27.776043 l 0.7010769,-0.09302 q 0.041341,0.211874 0.1274685,0.294556 0.08785,0.08096 0.2222087,0.08096 0.1412489,0 0.2342664,-0.103353 0.09474,-0.103353 0.09474,-0.275608 0,-0.1757 -0.091295,-0.272162 -0.089572,-0.09646 -0.2446017,-0.09646 -0.082682,0 -0.2273763,0.04134 l 0.036173,-0.501261 q 0.058567,0.0086 0.091295,0.0086 0.1378038,0 0.2290988,-0.08785 0.093018,-0.08785 0.093018,-0.208429 0,-0.11541 -0.068902,-0.184312 -0.068902,-0.0689 -0.1894802,-0.0689 -0.1240235,0 -0.2015381,0.07579 -0.077515,0.07407 -0.1050754,0.261827 z"
         style="fill:#008000;stroke-width:0.26458332"
         id="path200" />
    </g>
    <g
       aria-label="4"
       style="font-style:normal;font-variant:normal;font-weight:normal;font-stretch:normal;font-size:3.52777767px;line-height:1.25;font-family:'Arial Black';-inkscape-font-specification:'Arial Black, Normal';font-variant-ligatures:normal;font-variant-caps:normal;font-variant-numeric:normal;font-feature-settings:normal;text-align:center;letter-spacing:0px;word-spacing:0px;writing-mode:lr-tb;text-anchor:middle;fill:#008000;fill-opacity:1;stroke:none;stroke-width:0.26458332"
       id="text95">
      <path
         d="M 5.5979356,44.573291 H 4.3198052 V 43.996237 L 5.5979356,42.47695 H 6.20944 v 1.552016 h 0.3169488 v 0.544325 H 6.20944 v 0.471978 H 5.5979356 Z m 0,-0.544325 v -0.794095 l -0.6752387,0.794095 z"
         style="fill:#008000;stroke-width:0.26458332"
         id="path197" />
    </g>
    <g
       aria-label="5"
       style="font-style:normal;font-variant:normal;font-weight:normal;font-stretch:normal;font-size:3.52777767px;line-height:1.25;font-family:'Arial Black';-inkscape-font-specification:'Arial Black, Normal';font-variant-ligatures:normal;font-variant-caps:normal;font-variant-numeric:normal;font-feature-settings:normal;text-align:center;letter-spacing:0px;word-spacing:0px;writing-mode:lr-tb;text-anchor:middle;fill:#000000;fill-opacity:1;stroke:none;stroke-width:0.26458332"
       id="text99">
      <path
         d="m 4.7425185,58.593451 h 1.6657036 v 0.559828 H 5.2799534 l -0.060289,0.37896 q 0.1171333,-0.05512 0.2308214,-0.08268 0.1154107,-0.02756 0.2273763,-0.02756 0.3789605,0 0.6149495,0.229099 0.2359891,0.229099 0.2359891,0.577054 0,0.244601 -0.1223009,0.470255 -0.1205784,0.225654 -0.3445096,0.34451 -0.2222086,0.118855 -0.5701633,0.118855 -0.2497694,0 -0.4289143,-0.04651 Q 4.88549,61.067029 4.759744,60.974012 4.6357205,60.879272 4.5582059,60.760416 4.4806913,60.64156 4.4290148,60.464138 l 0.7096897,-0.07751 q 0.025838,0.170532 0.1205783,0.260105 0.09474,0.08785 0.2256538,0.08785 0.1464165,0 0.2411566,-0.110243 0.096463,-0.111966 0.096463,-0.332452 0,-0.225654 -0.096463,-0.330729 -0.096463,-0.105076 -0.2566596,-0.105076 -0.1016303,0 -0.1963704,0.04995 -0.070625,0.03617 -0.1550293,0.130914 l -0.5977241,-0.08613 z"
         style="fill:#008000;stroke-width:0.26458332"
         id="path194" />
    </g>
    <g
       aria-label="6"
       style="font-style:normal;font-variant:normal;font-weight:normal;font-stretch:normal;font-size:3.52777767px;line-height:1.25;font-family:'Arial Black';-inkscape-font-specification:'Arial Black, Normal';font-variant-ligatures:normal;font-variant-caps:normal;font-variant-numeric:normal;font-feature-settings:normal;text-align:center;letter-spacing:0px;word-spacing:0px;writing-mode:lr-tb;text-anchor:middle;fill:#000000;fill-opacity:1;stroke:none;stroke-width:0.26458332"
       id="text103">
      <path
         d="m 6.2907442,74.772304 -0.6976318,0.08613 q -0.027561,-0.146417 -0.093018,-0.206706 -0.063734,-0.06029 -0.1584744,-0.06029 -0.1705322,0 -0.2652724,0.172254 -0.068902,0.124024 -0.1016303,0.530545 0.125746,-0.127468 0.2583822,-0.187758 0.1326362,-0.06201 0.3066135,-0.06201 0.3376193,0 0.5701633,0.241156 0.2342664,0.241157 0.2342664,0.611505 0,0.249769 -0.1188557,0.456475 -0.1171333,0.206706 -0.3272841,0.313504 -0.2084283,0.105075 -0.5236545,0.105075 -0.3789605,0 -0.6080593,-0.129191 Q 4.5371906,76.5138 4.3993868,76.231302 4.2633055,75.947082 4.2633055,75.480271 q 0,-0.683851 0.2876655,-1.0008 0.2876655,-0.318671 0.7975396,-0.318671 0.3014458,0 0.4754231,0.07062 0.1756999,0.0689 0.2911106,0.203261 0.1154107,0.134359 0.1756999,0.337619 z m -1.2919108,1.124824 q 0,0.204983 0.1033529,0.322116 0.1033528,0.115411 0.2532145,0.115411 0.1378038,0 0.2308214,-0.105075 0.093018,-0.105076 0.093018,-0.313504 0,-0.213596 -0.096463,-0.325562 -0.096463,-0.111965 -0.2394342,-0.111965 -0.1464165,0 -0.2463243,0.10852 -0.098185,0.108521 -0.098185,0.310059 z"
         style="fill:#008000;stroke-width:0.26458332"
         id="path191" />
    </g>
    <g
       aria-label="MODE"
       style="font-style:normal;font-variant:normal;font-weight:normal;font-stretch:normal;font-size:3.52777767px;line-height:1.25;font-family:'Arial Black';-inkscape-font-specification:'Arial Black, Normal';font-variant-ligatures:normal;font-variant-caps:normal;font-variant-numeric:normal;font-feature-settings:normal;text-align:center;letter-spacing:0px;word-spacing:0px;writing-mode:lr-tb;text-anchor:middle;fill:#000000;fill-opacity:1;stroke:none;stroke-width:0.26458332"
       id="text176">
      <path
         d="m 1.0843441,91.269491 h 1.0266385 l 0.3961859,1.536513 0.3944634,-1.536513 h 1.0231934 v 2.525255 H 3.2874826 V 91.868938 L 2.7931114,93.794746 H 2.216058 L 1.7234093,91.868938 v 1.925808 H 1.0843441 Z"
         style="fill:#0000ff;stroke-width:0.26458332"
         id="path209" />
      <path
         d="m 4.3244564,92.533841 q 0,-0.618394 0.3445095,-0.962904 0.3445096,-0.344509 0.9594591,-0.344509 0.6304524,0 0.9715169,0.339342 0.3410644,0.337619 0.3410644,0.947401 0,0.442695 -0.1498616,0.726915 -0.1481391,0.282498 -0.4306369,0.440972 -0.2807753,0.156752 -0.701077,0.156752 -0.4271918,0 -0.7079671,-0.136081 Q 4.672411,93.565648 4.4984337,93.271092 4.3244564,92.976536 4.3244564,92.533841 Z m 0.7803141,0.0034 q 0,0.382405 0.1412489,0.549492 0.1429715,0.167087 0.3875732,0.167087 0.251492,0 0.3892958,-0.163642 0.1378038,-0.163642 0.1378038,-0.587388 0,-0.356568 -0.144694,-0.52021 -0.1429714,-0.165364 -0.3892958,-0.165364 -0.235989,0 -0.3789605,0.167087 -0.1429714,0.167087 -0.1429714,0.552938 z"
         style="fill:#0000ff;stroke-width:0.26458332"
         id="path211" />
      <path
         d="m 7.3716432,91.269491 h 1.1592746 q 0.342787,0 0.5529378,0.09302 0.2118734,0.09302 0.3496772,0.266995 0.1378038,0.173977 0.1998156,0.404799 0.062012,0.230821 0.062012,0.489203 0,0.404799 -0.093018,0.62873 -0.091295,0.222209 -0.2549371,0.373793 -0.163642,0.149862 -0.3513997,0.199815 -0.2566596,0.0689 -0.4650879,0.0689 H 7.3716432 Z m 0.7803141,0.571886 v 1.379761 h 0.1912028 q 0.2446018,0 0.3479547,-0.0534 0.1033528,-0.05512 0.1619194,-0.18948 0.058567,-0.136081 0.058567,-0.43925 0,-0.401353 -0.1309137,-0.549493 -0.1309136,-0.148139 -0.434082,-0.148139 z"
         style="fill:#0000ff;stroke-width:0.26458332"
         id="path213" />
      <path
         d="m 10.103603,91.269491 h 2.091173 v 0.539158 H 10.88564 v 0.401354 h 1.214396 v 0.515041 H 10.88564 v 0.497817 h 1.347032 v 0.571885 h -2.129069 z"
         style="fill:#0000ff;stroke-width:0.26458332"
         id="path215" />
    </g>
    <g
       aria-label="A"
       style="font-style:normal;font-variant:normal;font-weight:normal;font-stretch:normal;font-size:3.52777767px;line-height:1.25;font-family:'Arial Black';-inkscape-font-specification:'Arial Black, Normal';font-variant-ligatures:normal;font-variant-caps:normal;font-variant-numeric:normal;font-feature-settings:normal;text-align:center;letter-spacing:0px;word-spacing:0px;writing-mode:lr-tb;text-anchor:middle;fill:#ff0000;fill-opacity:1;stroke:none;stroke-width:0.26458332"
       id="text252">
      <path
         d="m 18.696361,93.377882 h -0.888834 l -0.122301,0.416857 h -0.79754 l 0.949124,-2.525255 h 0.850939 l 0.949124,2.525255 h -0.816488 z m -0.163642,-0.546047 -0.279052,-0.907783 -0.27733,0.907783 z"
         style="fill:#ff0000;stroke-width:0.26458332"
         id="path280"
         inkscape:connector-curvature="0" />
    </g>
    <g
       aria-label="B"
       style="font-style:normal;font-variant:normal;font-weight:normal;font-stretch:normal;font-size:3.52777767px;line-height:1.25;font-family:'Arial Black';-inkscape-font-specification:'Arial Black, Normal';font-variant-ligatures:normal;font-variant-caps:normal;font-variant-numeric:normal;font-feature-settings:normal;text-align:center;letter-spacing:0px;word-spacing:0px;writing-mode:lr-tb;text-anchor:middle;fill:#ff0000;fill-opacity:1;stroke:none;stroke-width:0.26458332"
       id="text256">
      <path
         d="m 27.992261,91.401778 h 1.460721 q 0.36518,0 0.559828,0.180867 0.19637,0.180868 0.19637,0.447862 0,0.223932 -0.139526,0.384129 -0.09302,0.106798 -0.272163,0.168809 0.272163,0.06546 0.399632,0.225654 0.129191,0.158474 0.129191,0.399631 0,0.196371 -0.09129,0.353122 -0.0913,0.156752 -0.24977,0.248047 -0.09819,0.05684 -0.296278,0.08268 -0.26355,0.03445 -0.349677,0.03445 h -1.347033 z m 0.787205,0.990464 h 0.339342 q 0.18259,0 0.253214,-0.06201 0.07235,-0.06373 0.07235,-0.18259 0,-0.110243 -0.07235,-0.172255 -0.07062,-0.06201 -0.248047,-0.06201 h -0.344509 z m 0,0.992188 h 0.397908 q 0.201538,0 0.284221,-0.07062 0.08268,-0.07235 0.08268,-0.192925 0,-0.111965 -0.08268,-0.179145 -0.08096,-0.0689 -0.285943,-0.0689 h -0.396186 z"
         style="fill:#ff0000;stroke-width:0.26458332"
         id="path277" />
    </g>
    <g
       aria-label="C"
       style="font-style:normal;font-variant:normal;font-weight:normal;font-stretch:normal;font-size:3.52777767px;line-height:1.25;font-family:'Arial Black';-inkscape-font-specification:'Arial Black, Normal';font-variant-ligatures:normal;font-variant-caps:normal;font-variant-numeric:normal;font-feature-settings:normal;text-align:center;letter-spacing:0px;word-spacing:0px;writing-mode:lr-tb;text-anchor:middle;fill:#ff0000;fill-opacity:1;stroke:none;stroke-width:0.26458332"
       id="text260"
       transform="translate(0.52916667)">
      <path
         d="m 40.255079,92.895226 0.683852,0.206706 q -0.0689,0.287666 -0.217041,0.480591 -0.148139,0.192925 -0.368625,0.29111 -0.218764,0.09819 -0.558106,0.09819 -0.411689,0 -0.673516,-0.118856 -0.260105,-0.120578 -0.449585,-0.422024 -0.18948,-0.301446 -0.18948,-0.771702 0,-0.627007 0.332452,-0.962904 0.334174,-0.337619 0.943956,-0.337619 0.477145,0 0.749308,0.192925 0.273885,0.192926 0.406521,0.592557 l -0.689019,0.153306 q -0.03617,-0.11541 -0.07579,-0.168809 -0.06546,-0.08957 -0.160197,-0.137804 -0.09474,-0.04823 -0.211873,-0.04823 -0.265273,0 -0.406522,0.213595 -0.106797,0.158475 -0.106797,0.497817 0,0.420301 0.127468,0.577053 0.127469,0.155029 0.35829,0.155029 0.223931,0 0.337619,-0.125745 0.115411,-0.125746 0.167087,-0.365181 z"
         style="fill:#ff0000;stroke-width:0.26458332"
         id="path274"
         inkscape:connector-curvature="0" />
    </g>
    <g
       aria-label="***MULTIPLY***"
       style="font-style:normal;font-variant:normal;font-weight:normal;font-stretch:normal;font-size:3.52777767px;line-height:1.25;font-family:'Arial Black';-inkscape-font-specification:'Arial Black, Normal';font-variant-ligatures:normal;font-variant-caps:normal;font-variant-numeric:normal;font-feature-settings:normal;text-align:center;letter-spacing:0px;word-spacing:0px;writing-mode:lr-tb;text-anchor:middle;fill:#0000ff;fill-opacity:1;stroke:none;stroke-width:0.26458332"
       id="text52">
      <path
         d="m 11.352802,-6.0079417 h 0.380683 l -0.03101,0.2601047 q -0.01033,0.09474 -0.04306,0.2153184 0.06546,-0.032728 0.08613,-0.044786 0.07235,-0.039619 0.110243,-0.056844 l 0.239434,-0.1136881 0.118856,0.3634575 -0.265272,0.055122 q -0.07235,0.01378 -0.215319,0.018948 0.09646,0.075792 0.153307,0.1378038 l 0.179145,0.1946479 -0.310059,0.2325439 -0.127468,-0.2325439 q -0.02756,-0.049954 -0.08957,-0.1946479 -0.06718,0.1584744 -0.08957,0.1946479 l -0.129191,0.2325439 -0.318672,-0.2325439 0.192926,-0.1946479 q 0.08096,-0.08096 0.158474,-0.1378038 -0.07924,-0.00689 -0.208428,-0.031006 l -0.266995,-0.043064 0.124023,-0.3634575 0.239434,0.1085205 q 0.0379,0.017225 0.187758,0.1067979 -0.03273,-0.144694 -0.04134,-0.2153184 z"
         style="fill:#0000ff;stroke-width:0.26458332"
         id="path54" />
      <path
         d="m 13.314784,-6.0079417 h 0.380683 l -0.03101,0.2601047 q -0.01033,0.09474 -0.04306,0.2153184 0.06546,-0.032728 0.08613,-0.044786 0.07235,-0.039619 0.110243,-0.056844 l 0.239434,-0.1136881 0.118856,0.3634575 -0.265273,0.055122 q -0.07235,0.01378 -0.215318,0.018948 0.09646,0.075792 0.153307,0.1378038 l 0.179145,0.1946479 -0.310059,0.2325439 -0.127469,-0.2325439 q -0.02756,-0.049954 -0.08957,-0.1946479 -0.06718,0.1584744 -0.08957,0.1946479 l -0.129192,0.2325439 -0.318671,-0.2325439 0.192925,-0.1946479 q 0.08096,-0.08096 0.158475,-0.1378038 -0.07924,-0.00689 -0.208428,-0.031006 l -0.266995,-0.043064 0.124023,-0.3634575 0.239434,0.1085205 q 0.0379,0.017225 0.187758,0.1067979 -0.03273,-0.144694 -0.04134,-0.2153184 z"
         style="fill:#0000ff;stroke-width:0.26458332"
         id="path56" />
      <path
         d="m 15.276766,-6.0079417 h 0.380683 l -0.03101,0.2601047 q -0.01033,0.09474 -0.04306,0.2153184 0.06546,-0.032728 0.08613,-0.044786 0.07235,-0.039619 0.110243,-0.056844 l 0.239434,-0.1136881 0.118855,0.3634575 -0.265272,0.055122 q -0.07235,0.01378 -0.215318,0.018948 0.09646,0.075792 0.153306,0.1378038 l 0.179145,0.1946479 -0.310058,0.2325439 -0.127469,-0.2325439 q -0.02756,-0.049954 -0.08957,-0.1946479 -0.06718,0.1584744 -0.08957,0.1946479 l -0.129191,0.2325439 -0.318671,-0.2325439 0.192925,-0.1946479 q 0.08096,-0.08096 0.158475,-0.1378038 -0.07924,-0.00689 -0.208429,-0.031006 l -0.266995,-0.043064 0.124024,-0.3634575 0.239434,0.1085205 q 0.0379,0.017225 0.187758,0.1067979 -0.03273,-0.144694 -0.04134,-0.2153184 z"
         style="fill:#0000ff;stroke-width:0.26458332"
         id="path58" />
      <path
         d="m 16.708203,-5.964878 h 1.026638 l 0.396186,1.5365125 0.394464,-1.5365125 h 1.023193 v 2.5252549 h -0.637343 v -1.9258083 l -0.494371,1.9258083 h -0.577053 l -0.492649,-1.9258083 v 1.9258083 h -0.639065 z"
         style="fill:#0000ff;stroke-width:0.26458332"
         id="path60" />
      <path
         d="m 21.68981,-5.964878 h 0.778592 v 1.5055066 q 0,0.2239312 -0.07062,0.4237468 -0.0689,0.198093 -0.218763,0.3479546 -0.148139,0.1481391 -0.311781,0.2084283 -0.227377,0.084405 -0.546048,0.084405 -0.184313,0 -0.403076,-0.025838 -0.217041,-0.025838 -0.363458,-0.1016303 -0.146416,-0.077515 -0.268717,-0.2187636 -0.120578,-0.1412489 -0.165365,-0.2911105 -0.07235,-0.2411567 -0.07235,-0.4271919 V -5.964878 h 0.778592 v 1.5416802 q 0,0.2067057 0.113688,0.3238389 0.115411,0.1154107 0.318671,0.1154107 0.201538,0 0.315227,-0.1136881 0.11541,-0.1154107 0.11541,-0.3255615 z"
         style="fill:#0000ff;stroke-width:0.26458332"
         id="path62" />
      <path
         d="m 22.985167,-5.964878 h 0.780314 v 1.9034152 h 1.217841 v 0.6218397 h -1.998155 z"
         style="fill:#0000ff;stroke-width:0.26458332"
         id="path64" />
      <path
         d="m 24.981599,-5.964878 h 2.371949 v 0.6235622 h -0.795817 v 1.9016927 h -0.780315 v -1.9016927 h -0.795817 z"
         style="fill:#0000ff;stroke-width:0.26458332"
         id="path66" />
      <path
         d="m 27.737675,-5.964878 h 0.782037 v 2.5252549 h -0.782037 z"
         style="fill:#0000ff;stroke-width:0.26458332"
         id="path68" />
      <path
         d="m 29.076096,-5.964878 h 1.297078 q 0.423747,0 0.633898,0.201538 0.211873,0.2015381 0.211873,0.5736084 0,0.3824056 -0.230821,0.5977241 -0.229099,0.2153184 -0.701077,0.2153184 h -0.427192 v 0.937066 h -0.783759 z m 0.783759,1.0765923 h 0.191203 q 0.225653,0 0.316948,-0.077515 0.09129,-0.079237 0.09129,-0.2015381 0,-0.1188557 -0.07924,-0.201538 -0.07924,-0.082682 -0.298001,-0.082682 h -0.222208 z"
         style="fill:#0000ff;stroke-width:0.26458332"
         id="path70" />
      <path
         d="m 31.627188,-5.964878 h 0.780314 v 1.9034152 h 1.217842 v 0.6218397 h -1.998156 z"
         style="fill:#0000ff;stroke-width:0.26458332"
         id="path72" />
      <path
         d="m 33.453088,-5.964878 h 0.866442 l 0.509874,0.8526611 0.509874,-0.8526611 h 0.861274 L 35.2187,-4.4972674 v 1.0576443 h -0.782037 v -1.0576443 z"
         style="fill:#0000ff;stroke-width:0.26458332"
         id="path74" />
      <path
         d="m 36.973976,-6.0079417 h 0.380683 l -0.03101,0.2601047 q -0.01033,0.09474 -0.04306,0.2153184 0.06546,-0.032728 0.08613,-0.044786 0.07235,-0.039619 0.110243,-0.056844 l 0.239434,-0.1136881 0.118856,0.3634575 -0.265273,0.055122 q -0.07235,0.01378 -0.215318,0.018948 0.09646,0.075792 0.153307,0.1378038 l 0.179145,0.1946479 -0.310059,0.2325439 -0.127468,-0.2325439 q -0.02756,-0.049954 -0.08957,-0.1946479 -0.06718,0.1584744 -0.08957,0.1946479 l -0.129191,0.2325439 -0.318672,-0.2325439 0.192926,-0.1946479 q 0.08096,-0.08096 0.158474,-0.1378038 -0.07924,-0.00689 -0.208428,-0.031006 l -0.266995,-0.043064 0.124023,-0.3634575 0.239434,0.1085205 q 0.0379,0.017225 0.187758,0.1067979 -0.03273,-0.144694 -0.04134,-0.2153184 z"
         style="fill:#0000ff;stroke-width:0.26458332"
         id="path76" />
      <path
         d="m 38.935959,-6.0079417 h 0.380683 l -0.03101,0.2601047 q -0.01033,0.09474 -0.04306,0.2153184 0.06546,-0.032728 0.08613,-0.044786 0.07235,-0.039619 0.110243,-0.056844 l 0.239434,-0.1136881 0.118856,0.3634575 -0.265273,0.055122 q -0.07235,0.01378 -0.215318,0.018948 0.09646,0.075792 0.153306,0.1378038 l 0.179145,0.1946479 -0.310058,0.2325439 -0.127469,-0.2325439 q -0.02756,-0.049954 -0.08957,-0.1946479 -0.06718,0.1584744 -0.08957,0.1946479 l -0.129191,0.2325439 -0.318671,-0.2325439 0.192925,-0.1946479 q 0.08096,-0.08096 0.158475,-0.1378038 -0.07924,-0.00689 -0.208429,-0.031006 l -0.266994,-0.043064 0.124023,-0.3634575 0.239434,0.1085205 q 0.0379,0.017225 0.187758,0.1067979 -0.03273,-0.144694 -0.04134,-0.2153184 z"
         style="fill:#0000ff;stroke-width:0.26458332"
         id="path78" />
      <path
         d="m 40.897939,-6.0079417 h 0.380684 l -0.03101,0.2601047 q -0.01034,0.09474 -0.04306,0.2153184 0.06546,-0.032728 0.08613,-0.044786 0.07235,-0.039619 0.110243,-0.056844 l 0.239435,-0.1136881 0.118855,0.3634575 -0.265272,0.055122 q -0.07235,0.01378 -0.215318,0.018948 0.09646,0.075792 0.153306,0.1378038 l 0.179145,0.1946479 -0.310058,0.2325439 -0.127469,-0.2325439 q -0.02756,-0.049954 -0.08957,-0.1946479 -0.06718,0.1584744 -0.08957,0.1946479 l -0.129191,0.2325439 -0.318671,-0.2325439 0.192925,-0.1946479 q 0.08096,-0.08096 0.158474,-0.1378038 -0.07924,-0.00689 -0.208428,-0.031006 l -0.266995,-0.043064 0.124024,-0.3634575 0.239434,0.1085205 q 0.0379,0.017225 0.187758,0.1067979 -0.03273,-0.144694 -0.04134,-0.2153184 z"
         style="fill:#0000ff;stroke-width:0.26458332"
         id="path80" />
    </g>
    <g
       aria-label="SINGULARITY"
       style="font-style:normal;font-variant:normal;font-weight:normal;font-stretch:normal;font-size:3.52777767px;line-height:1.25;font-family:'Arial Black';-inkscape-font-specification:'Arial Black, Normal';font-variant-ligatures:normal;font-variant-caps:normal;font-variant-numeric:normal;font-feature-settings:normal;text-align:center;letter-spacing:0px;word-spacing:0px;writing-mode:lr-tb;text-anchor:middle;fill:#0000ff;fill-opacity:1;stroke:none;stroke-width:0.26458332"
       id="text67">
      <path
         d="m 13.025742,11.864524 0.742418,-0.04651 q 0.02412,0.180868 0.09819,0.275608 0.120578,0.153307 0.344509,0.153307 0.167087,0 0.25666,-0.07752 0.0913,-0.07924 0.0913,-0.18259 0,-0.09818 -0.08613,-0.1757 -0.08613,-0.07751 -0.399631,-0.146416 -0.51332,-0.115411 -0.732083,-0.306614 -0.220486,-0.191203 -0.220486,-0.487481 0,-0.194648 0.111965,-0.366903 0.113688,-0.173977 0.339342,-0.272162 0.227376,-0.09991 0.62184,-0.09991 0.484036,0 0.73725,0.180868 0.254937,0.179145 0.303169,0.571885 l -0.735528,0.04306 q -0.02928,-0.170532 -0.124024,-0.248047 -0.09302,-0.07751 -0.258382,-0.07751 -0.136081,0 -0.204983,0.05857 -0.0689,0.05684 -0.0689,0.139527 0,0.06029 0.05684,0.10852 0.05512,0.04995 0.261827,0.09302 0.511597,0.110243 0.732083,0.223931 0.222209,0.111966 0.322117,0.279053 0.10163,0.167087 0.10163,0.373793 0,0.242879 -0.134359,0.447862 -0.134358,0.204983 -0.375515,0.311781 -0.241157,0.105075 -0.608059,0.105075 -0.644233,0 -0.89228,-0.248046 -0.248047,-0.248047 -0.280775,-0.630453 z"
         style="fill:#0000ff;stroke-width:0.26458332"
         id="path69" />
      <path
         d="m 15.740477,10.174705 h 0.782036 v 2.525255 h -0.782036 z"
         style="fill:#0000ff;stroke-width:0.26458332"
         id="path71" />
      <path
         d="m 17.087509,10.174705 h 0.728638 l 0.950846,1.396986 v -1.396986 h 0.735528 v 2.525255 h -0.735528 l -0.945679,-1.386651 v 1.386651 h -0.733805 z"
         style="fill:#0000ff;stroke-width:0.26458332"
         id="path73" />
      <path
         d="M 21.290525,11.785287 V 11.25991 h 1.205784 v 1.076592 q -0.346232,0.235989 -0.613227,0.322117 -0.265273,0.0844 -0.630453,0.0844 -0.449585,0 -0.733805,-0.153306 -0.282498,-0.153307 -0.43925,-0.456475 -0.155029,-0.303169 -0.155029,-0.69591 0,-0.413411 0.170532,-0.718302 0.170532,-0.306614 0.499539,-0.465088 0.25666,-0.122301 0.690742,-0.122301 0.418579,0 0.625284,0.07579 0.208429,0.07579 0.34451,0.235989 0.137804,0.158475 0.206706,0.403076 l -0.752754,0.134359 q -0.04651,-0.142971 -0.158474,-0.218763 -0.110243,-0.07579 -0.282498,-0.07579 -0.25666,0 -0.409966,0.179144 -0.151584,0.177423 -0.151584,0.563274 0,0.409966 0.153306,0.585666 0.15503,0.1757 0.430637,0.1757 0.130914,0 0.24977,-0.0379 0.118855,-0.0379 0.272162,-0.129191 v -0.237712 z"
         style="fill:#0000ff;stroke-width:0.26458332"
         id="path75" />
      <path
         d="m 24.602985,10.174705 h 0.778591 v 1.505507 q 0,0.223931 -0.07062,0.423746 -0.0689,0.198093 -0.218764,0.347955 -0.148139,0.148139 -0.311781,0.208428 -0.227376,0.0844 -0.546047,0.0844 -0.184313,0 -0.403076,-0.02584 -0.217041,-0.02584 -0.363458,-0.101631 -0.146417,-0.07751 -0.268717,-0.218763 -0.120579,-0.141249 -0.165365,-0.291111 -0.07235,-0.241156 -0.07235,-0.427191 v -1.505507 h 0.778591 v 1.54168 q 0,0.206706 0.113689,0.323839 0.11541,0.115411 0.318671,0.115411 0.201538,0 0.315226,-0.113688 0.115411,-0.115411 0.115411,-0.325562 z"
         style="fill:#0000ff;stroke-width:0.26458332"
         id="path77" />
      <path
         d="m 25.898341,10.174705 h 0.780314 v 1.903415 h 1.217841 v 0.62184 h -1.998155 z"
         style="fill:#0000ff;stroke-width:0.26458332"
         id="path79" />
      <path
         d="m 29.805078,12.283103 h -0.888834 l -0.122301,0.416857 h -0.79754 l 0.949124,-2.525255 h 0.850939 l 0.949123,2.525255 h -0.816487 z m -0.163642,-0.546047 -0.279052,-0.907783 -0.27733,0.907783 z"
         style="fill:#0000ff;stroke-width:0.26458332"
         id="path81" />
      <path
         d="m 31.005694,12.69996 v -2.525255 h 1.300524 q 0.361735,0 0.552938,0.06201 0.191202,0.06201 0.308336,0.230821 0.117133,0.167087 0.117133,0.408244 0,0.210151 -0.08957,0.363457 -0.08957,0.151585 -0.246324,0.246325 -0.09991,0.06029 -0.273885,0.09991 0.139526,0.04651 0.203261,0.09302 0.04306,0.03101 0.124023,0.132636 0.08268,0.10163 0.110243,0.156752 l 0.377238,0.732083 h -0.881944 l -0.416857,-0.771702 q -0.07924,-0.149861 -0.141249,-0.194647 -0.0844,-0.05857 -0.191203,-0.05857 h -0.0689 v 1.024916 z m 0.783759,-1.502062 h 0.329007 q 0.0534,0 0.206706,-0.03445 0.07751,-0.0155 0.125746,-0.07924 0.04995,-0.06373 0.04995,-0.146417 0,-0.1223 -0.07752,-0.187757 -0.07751,-0.06546 -0.291111,-0.06546 h -0.342787 z"
         style="fill:#0000ff;stroke-width:0.26458332"
         id="path83" />
      <path
         d="M 33.770383,10.174705 H 34.55242 V 12.69996 H 33.770383 Z"
         style="fill:#0000ff;stroke-width:0.26458332"
         id="path85" />
      <path
         d="m 34.934827,10.174705 h 2.371948 v 0.623562 h -0.795817 v 1.901693 h -0.780314 v -1.901693 h -0.795817 z"
         style="fill:#0000ff;stroke-width:0.26458332"
         id="path87" />
      <path
         d="m 37.404959,10.174705 h 0.866442 l 0.509874,0.852661 0.509874,-0.852661 h 0.861274 l -0.981852,1.46761 v 1.057645 h -0.782037 v -1.057645 z"
         style="fill:#0000ff;stroke-width:0.26458332"
         id="path89" />
    </g>
    <g
       aria-label="CBRT-COMPRESS"
       style="font-style:normal;font-variant:normal;font-weight:normal;font-stretch:normal;font-size:3.52777767px;line-height:1.25;font-family:'Arial Black';-inkscape-font-specification:'Arial Black, Normal';font-variant-ligatures:normal;font-variant-caps:normal;font-variant-numeric:normal;font-feature-settings:normal;text-align:center;letter-spacing:0px;word-spacing:0px;writing-mode:lr-tb;text-anchor:middle;fill:#0000ff;fill-opacity:1;stroke:none;stroke-width:0.26458332"
       id="text79">
      <path
         d="m 11.847003,75.697312 0.683852,0.206706 q -0.0689,0.287665 -0.217041,0.480591 -0.148139,0.192925 -0.368625,0.29111 -0.218764,0.09819 -0.558106,0.09819 -0.411689,0 -0.673516,-0.118856 -0.260105,-0.120579 -0.449585,-0.422024 -0.18948,-0.301446 -0.18948,-0.771702 0,-0.627007 0.332451,-0.962904 0.334175,-0.337619 0.943957,-0.337619 0.477145,0 0.749308,0.192925 0.273885,0.192925 0.406521,0.592556 l -0.689019,0.153307 q -0.03617,-0.11541 -0.07579,-0.168809 -0.06546,-0.08957 -0.160197,-0.137804 -0.09474,-0.04823 -0.211873,-0.04823 -0.265273,0 -0.406522,0.213596 -0.106798,0.158475 -0.106798,0.497817 0,0.420301 0.127469,0.577053 0.127468,0.155029 0.35829,0.155029 0.223931,0 0.337619,-0.125746 0.115411,-0.125746 0.167087,-0.36518 z"
         style="fill:#0000ff;stroke-width:0.26458332"
         id="path82" />
      <path
         d="m 12.911538,74.203863 h 1.46072 q 0.36518,0 0.559828,0.180868 0.196371,0.180867 0.196371,0.447862 0,0.223932 -0.139527,0.384128 -0.09302,0.106798 -0.272162,0.16881 0.272162,0.06546 0.399631,0.225654 0.129191,0.158474 0.129191,0.399631 0,0.19637 -0.0913,0.353122 -0.09129,0.156752 -0.249769,0.248047 -0.09819,0.05684 -0.296279,0.08268 -0.263549,0.03445 -0.349677,0.03445 h -1.347032 z m 0.787204,0.990465 h 0.339342 q 0.18259,0 0.253215,-0.06201 0.07235,-0.06373 0.07235,-0.18259 0,-0.110243 -0.07235,-0.172255 -0.07062,-0.06201 -0.248047,-0.06201 h -0.34451 z m 0,0.992188 h 0.397909 q 0.201538,0 0.28422,-0.07062 0.08268,-0.07235 0.08268,-0.192925 0,-0.111966 -0.08268,-0.179145 -0.08096,-0.0689 -0.285943,-0.0689 h -0.396186 z"
         style="fill:#0000ff;stroke-width:0.26458332"
         id="path84" />
      <path
         d="m 15.664169,76.729118 v -2.525255 h 1.300524 q 0.361735,0 0.552937,0.06201 0.191203,0.06201 0.308337,0.230822 0.117133,0.167087 0.117133,0.408243 0,0.210151 -0.08957,0.363458 -0.08957,0.151584 -0.246324,0.246324 -0.09991,0.06029 -0.273885,0.09991 0.139526,0.04651 0.203261,0.09302 0.04306,0.031 0.124023,0.132636 0.08268,0.10163 0.110243,0.156752 l 0.377238,0.732082 h -0.881944 l -0.416857,-0.771701 q -0.07924,-0.149862 -0.141249,-0.194648 -0.08441,-0.05857 -0.191203,-0.05857 h -0.0689 v 1.024916 z m 0.783759,-1.502061 h 0.329007 q 0.0534,0 0.206706,-0.03445 0.07751,-0.0155 0.125746,-0.07924 0.04995,-0.06374 0.04995,-0.146417 0,-0.122301 -0.07752,-0.187758 -0.07751,-0.06546 -0.291111,-0.06546 h -0.342787 z"
         style="fill:#0000ff;stroke-width:0.26458332"
         id="path86" />
      <path
         d="m 18.189424,74.203863 h 2.371948 v 0.623563 h -0.795817 v 1.901692 h -0.780314 v -1.901692 h -0.795817 z"
         style="fill:#0000ff;stroke-width:0.26458332"
         id="path88" />
      <path
         d="m 20.494193,75.537115 h 1.019748 v 0.542603 h -1.019748 z"
         style="fill:#0000ff;stroke-width:0.26458332"
         id="path90" />
      <path
         d="m 23.531044,75.697312 0.683852,0.206706 q -0.0689,0.287665 -0.217041,0.480591 -0.148139,0.192925 -0.368625,0.29111 -0.218764,0.09819 -0.558106,0.09819 -0.411689,0 -0.673516,-0.118856 -0.260105,-0.120579 -0.449585,-0.422024 -0.18948,-0.301446 -0.18948,-0.771702 0,-0.627007 0.332451,-0.962904 0.334175,-0.337619 0.943957,-0.337619 0.477145,0 0.749308,0.192925 0.273885,0.192925 0.406521,0.592556 l -0.689019,0.153307 q -0.03617,-0.11541 -0.07579,-0.168809 -0.06546,-0.08957 -0.160197,-0.137804 -0.09474,-0.04823 -0.211873,-0.04823 -0.265273,0 -0.406522,0.213596 -0.106798,0.158475 -0.106798,0.497817 0,0.420301 0.127469,0.577053 0.127468,0.155029 0.35829,0.155029 0.223931,0 0.337619,-0.125746 0.115411,-0.125746 0.167087,-0.36518 z"
         style="fill:#0000ff;stroke-width:0.26458332"
         id="path92" />
      <path
         d="m 24.495671,75.468213 q 0,-0.618394 0.34451,-0.962904 0.344509,-0.344509 0.959459,-0.344509 0.630452,0 0.971517,0.339342 0.341064,0.337619 0.341064,0.947401 0,0.442695 -0.149862,0.726915 -0.148139,0.282498 -0.430636,0.440972 -0.280776,0.156752 -0.701077,0.156752 -0.427192,0 -0.707968,-0.136081 -0.279052,-0.136081 -0.45303,-0.430637 -0.173977,-0.294556 -0.173977,-0.737251 z m 0.780314,0.0034 q 0,0.382405 0.141249,0.549492 0.142972,0.167087 0.387573,0.167087 0.251492,0 0.389296,-0.163642 0.137804,-0.163642 0.137804,-0.587388 0,-0.356568 -0.144694,-0.52021 -0.142971,-0.165364 -0.389296,-0.165364 -0.235989,0 -0.37896,0.167087 -0.142972,0.167087 -0.142972,0.552938 z"
         style="fill:#0000ff;stroke-width:0.26458332"
         id="path94" />
      <path
         d="m 27.52391,74.203863 h 1.026638 l 0.396186,1.536513 0.394464,-1.536513 h 1.023193 v 2.525255 H 29.727048 V 74.80331 l -0.494371,1.925808 H 28.655624 L 28.162975,74.80331 v 1.925808 H 27.52391 Z"
         style="fill:#0000ff;stroke-width:0.26458332"
         id="path96" />
      <path
         d="m 30.858763,74.203863 h 1.297078 q 0.423747,0 0.633898,0.201539 0.211873,0.201538 0.211873,0.573608 0,0.382405 -0.230821,0.597724 -0.229099,0.215318 -0.701077,0.215318 h -0.427192 v 0.937066 h -0.783759 z m 0.783759,1.076593 h 0.191203 q 0.225654,0 0.316949,-0.07752 0.09129,-0.07924 0.09129,-0.201538 0,-0.118856 -0.07924,-0.201538 -0.07924,-0.08268 -0.298,-0.08268 h -0.222209 z"
         style="fill:#0000ff;stroke-width:0.26458332"
         id="path98" />
      <path
         d="m 33.420191,76.729118 v -2.525255 h 1.300523 q 0.361735,0 0.552938,0.06201 0.191203,0.06201 0.308336,0.230822 0.117133,0.167087 0.117133,0.408243 0,0.210151 -0.08957,0.363458 -0.08957,0.151584 -0.246325,0.246324 -0.09991,0.06029 -0.273885,0.09991 0.139527,0.04651 0.203261,0.09302 0.04306,0.031 0.124023,0.132636 0.08268,0.10163 0.110243,0.156752 l 0.377238,0.732082 H 35.02216 l -0.416857,-0.771701 q -0.07924,-0.149862 -0.141248,-0.194648 -0.08441,-0.05857 -0.191203,-0.05857 h -0.0689 v 1.024916 z m 0.783759,-1.502061 h 0.329006 q 0.0534,0 0.206706,-0.03445 0.07751,-0.0155 0.125746,-0.07924 0.04995,-0.06374 0.04995,-0.146417 0,-0.122301 -0.07752,-0.187758 -0.07751,-0.06546 -0.29111,-0.06546 H 34.20395 Z"
         style="fill:#0000ff;stroke-width:0.26458332"
         id="path100" />
      <path
         d="m 36.152151,74.203863 h 2.091173 v 0.539158 h -1.309136 v 0.401353 h 1.214396 v 0.515042 h -1.214396 v 0.497817 h 1.347032 v 0.571885 h -2.129069 z"
         style="fill:#0000ff;stroke-width:0.26458332"
         id="path102" />
      <path
         d="m 38.56544,75.893683 0.742418,-0.04651 q 0.02412,0.180867 0.09818,0.275608 0.120579,0.153306 0.34451,0.153306 0.167087,0 0.25666,-0.07751 0.0913,-0.07924 0.0913,-0.18259 0,-0.09819 -0.08613,-0.1757 -0.08613,-0.07751 -0.399631,-0.146417 -0.513319,-0.115411 -0.732083,-0.306613 -0.220486,-0.191203 -0.220486,-0.487481 0,-0.194648 0.111966,-0.366903 0.113688,-0.173977 0.339342,-0.272162 0.227376,-0.09991 0.621839,-0.09991 0.484036,0 0.737251,0.180867 0.254937,0.179145 0.303168,0.571886 l -0.735528,0.04306 q -0.02928,-0.170532 -0.124023,-0.248047 -0.09302,-0.07751 -0.258382,-0.07751 -0.136081,0 -0.204983,0.05857 -0.0689,0.05684 -0.0689,0.139526 0,0.06029 0.05684,0.108521 0.05512,0.04995 0.261827,0.09302 0.511597,0.110243 0.732083,0.223932 0.222208,0.111965 0.322116,0.279052 0.101631,0.167087 0.101631,0.373793 0,0.242879 -0.134359,0.447862 -0.134359,0.204984 -0.375516,0.311782 -0.241156,0.105075 -0.608059,0.105075 -0.644233,0 -0.89228,-0.248047 -0.248046,-0.248047 -0.280775,-0.630452 z"
         style="fill:#0000ff;stroke-width:0.26458332"
         id="path104" />
      <path
         d="m 41.11309,75.893683 0.742418,-0.04651 q 0.02412,0.180867 0.09819,0.275608 0.120578,0.153306 0.344509,0.153306 0.167087,0 0.25666,-0.07751 0.0913,-0.07924 0.0913,-0.18259 0,-0.09819 -0.08613,-0.1757 -0.08613,-0.07751 -0.399631,-0.146417 -0.51332,-0.115411 -0.732083,-0.306613 -0.220486,-0.191203 -0.220486,-0.487481 0,-0.194648 0.111965,-0.366903 0.113688,-0.173977 0.339342,-0.272162 0.227376,-0.09991 0.62184,-0.09991 0.484036,0 0.73725,0.180867 0.254937,0.179145 0.303169,0.571886 l -0.735528,0.04306 q -0.02928,-0.170532 -0.124024,-0.248047 -0.09302,-0.07751 -0.258382,-0.07751 -0.136081,0 -0.204983,0.05857 -0.0689,0.05684 -0.0689,0.139526 0,0.06029 0.05684,0.108521 0.05512,0.04995 0.261827,0.09302 0.511597,0.110243 0.732083,0.223932 0.222209,0.111965 0.322117,0.279052 0.10163,0.167087 0.10163,0.373793 0,0.242879 -0.134359,0.447862 -0.134358,0.204984 -0.375515,0.311782 -0.241157,0.105075 -0.608059,0.105075 -0.644233,0 -0.89228,-0.248047 -0.248047,-0.248047 -0.280775,-0.630452 z"
         style="fill:#0000ff;stroke-width:0.26458332"
         id="path106" />
    </g>
    <g
       aria-label="V/Oct-&gt;Hz/V"
       style="font-style:normal;font-variant:normal;font-weight:normal;font-stretch:normal;font-size:3.52777767px;line-height:1.25;font-family:'Arial Black';-inkscape-font-specification:'Arial Black, Normal';font-variant-ligatures:normal;font-variant-caps:normal;font-variant-numeric:normal;font-feature-settings:normal;text-align:center;letter-spacing:0px;word-spacing:0px;writing-mode:lr-tb;text-anchor:middle;fill:#000000;fill-opacity:1;stroke:none;stroke-width:0.26458332"
       id="text94">
      <path
         d="m 15.111929,58.659598 h 0.816488 l 0.568441,1.817287 0.559828,-1.817287 h 0.792372 l -0.937066,2.525255 h -0.845771 z"
         style="fill:#0000ff;stroke-width:0.26458332"
         id="path97" />
      <path
         d="m 18.47951,58.616534 h 0.35829 l -0.633897,2.60966 h -0.354845 z"
         style="fill:#0000ff;stroke-width:0.26458332"
         id="path99" />
      <path
         d="m 18.987662,59.923948 q 0,-0.618395 0.34451,-0.962904 0.344509,-0.34451 0.959459,-0.34451 0.630452,0 0.971516,0.339342 0.341065,0.337619 0.341065,0.947401 0,0.442695 -0.149862,0.726915 -0.148139,0.282498 -0.430637,0.440972 -0.280775,0.156752 -0.701077,0.156752 -0.427191,0 -0.707967,-0.136081 -0.279052,-0.136081 -0.45303,-0.430637 -0.173977,-0.294556 -0.173977,-0.73725 z m 0.780314,0.0034 q 0,0.382405 0.141249,0.549492 0.142971,0.167088 0.387573,0.167088 0.251492,0 0.389296,-0.163642 0.137804,-0.163642 0.137804,-0.587389 0,-0.356568 -0.144694,-0.52021 -0.142972,-0.165364 -0.389296,-0.165364 -0.235989,0 -0.37896,0.167087 -0.142972,0.167087 -0.142972,0.552938 z"
         style="fill:#0000ff;stroke-width:0.26458332"
         id="path101" />
      <path
         d="m 23.342263,60.469995 0.666625,0.07579 q -0.05512,0.208429 -0.180867,0.361735 -0.125746,0.151585 -0.322116,0.235989 -0.194648,0.08441 -0.496094,0.08441 -0.291111,0 -0.485759,-0.0534 -0.192925,-0.05512 -0.332451,-0.1757 -0.139527,-0.1223 -0.218764,-0.285942 -0.07924,-0.163642 -0.07924,-0.434082 0,-0.282498 0.09646,-0.470256 0.07062,-0.137804 0.192925,-0.246324 0.122301,-0.110243 0.251492,-0.163642 0.204983,-0.0844 0.525377,-0.0844 0.447862,0 0.682129,0.160197 0.235989,0.160197 0.330729,0.468533 l -0.659736,0.08785 q -0.03101,-0.117134 -0.113688,-0.1757 -0.08096,-0.06029 -0.218764,-0.06029 -0.173977,0 -0.282497,0.125746 -0.106798,0.124023 -0.106798,0.377238 0,0.225653 0.106798,0.342787 0.106798,0.117133 0.272162,0.117133 0.137804,0 0.230822,-0.07062 0.09474,-0.07062 0.141249,-0.217041 z"
         style="fill:#0000ff;stroke-width:0.26458332"
         id="path103" />
      <path
         d="m 25.176776,58.659598 v 0.695909 h 0.385851 v 0.511597 h -0.385851 v 0.6494 q 0,0.117133 0.02239,0.155029 0.03445,0.05857 0.120578,0.05857 0.07752,0 0.217041,-0.04479 l 0.05168,0.484036 q -0.260105,0.05684 -0.485759,0.05684 -0.261827,0 -0.38585,-0.06718 -0.124024,-0.06718 -0.184313,-0.20326 -0.05857,-0.137804 -0.05857,-0.444418 v -0.644232 h -0.258382 v -0.511597 h 0.258382 V 59.01961 Z"
         style="fill:#0000ff;stroke-width:0.26458332"
         id="path105" />
      <path
         d="m 25.762442,59.99285 h 1.019748 v 0.542602 h -1.019748 z"
         style="fill:#0000ff;stroke-width:0.26458332"
         id="path107" />
      <path
         d="m 27.04574,60.991927 1.958536,-0.814765 V 59.667288 L 27.04574,58.854246 v 0.611504 l 1.19028,0.458198 -1.19028,0.45992 z"
         style="fill:#0000ff;stroke-width:0.26458332"
         id="path109" />
      <path
         d="m 29.450417,58.659598 h 0.780314 v 0.883667 h 0.852661 v -0.883667 h 0.783759 v 2.525255 h -0.783759 v -1.021471 h -0.852661 v 1.021471 h -0.780314 z"
         style="fill:#0000ff;stroke-width:0.26458332"
         id="path111" />
      <path
         d="m 32.259892,59.355507 h 1.69671 v 0.409966 l -0.923286,0.940511 h 0.98013 v 0.478869 H 32.19099 V 60.7301 l 0.875054,-0.895725 h -0.806152 z"
         style="fill:#0000ff;stroke-width:0.26458332"
         id="path113" />
      <path
         d="m 34.721412,58.616534 h 0.35829 l -0.633898,2.60966 h -0.354845 z"
         style="fill:#0000ff;stroke-width:0.26458332"
         id="path115" />
      <path
         d="m 35.077981,58.659598 h 0.816487 l 0.568441,1.817287 0.559828,-1.817287 h 0.792372 l -0.937066,2.525255 h -0.845771 z"
         style="fill:#0000ff;stroke-width:0.26458332"
         id="path117" />
    </g>
    <g
       aria-label="INVERT-PHASE"
       style="font-style:normal;font-variant:normal;font-weight:normal;font-stretch:normal;font-size:3.52777767px;line-height:1.25;font-family:'Arial Black';-inkscape-font-specification:'Arial Black, Normal';font-variant-ligatures:normal;font-variant-caps:normal;font-variant-numeric:normal;font-feature-settings:normal;text-align:center;letter-spacing:0px;word-spacing:0px;writing-mode:lr-tb;text-anchor:middle;fill:#0000ff;fill-opacity:1;stroke:none;stroke-width:0.26458332"
       id="text105">
      <path
         d="m 12.18531,42.453867 h 0.782036 v 2.525255 H 12.18531 Z"
         style="fill:#0000ff;stroke-width:0.26458332"
         id="path108" />
      <path
         d="m 13.532342,42.453867 h 0.728638 l 0.950846,1.396986 v -1.396986 h 0.735528 v 2.525255 h -0.735528 l -0.945679,-1.386651 v 1.386651 h -0.733805 z"
         style="fill:#0000ff;stroke-width:0.26458332"
         id="path110" />
      <path
         d="m 16.216071,42.453867 h 0.816488 l 0.56844,1.817288 0.559828,-1.817288 h 0.792372 l -0.937066,2.525255 h -0.845771 z"
         style="fill:#0000ff;stroke-width:0.26458332"
         id="path112" />
      <path
         d="m 19.208136,42.453867 h 2.091173 v 0.539158 h -1.309136 v 0.401353 h 1.214396 v 0.515042 h -1.214396 v 0.497816 h 1.347032 v 0.571886 h -2.129069 z"
         style="fill:#0000ff;stroke-width:0.26458332"
         id="path114" />
      <path
         d="m 21.767843,44.979122 v -2.525255 h 1.300523 q 0.361735,0 0.552938,0.06201 0.191203,0.06201 0.308336,0.230821 0.117133,0.167087 0.117133,0.408244 0,0.210151 -0.08957,0.363458 -0.08957,0.151584 -0.246324,0.246324 -0.09991,0.06029 -0.273886,0.09991 0.139527,0.04651 0.203261,0.09302 0.04306,0.03101 0.124023,0.132637 0.08268,0.10163 0.110244,0.156751 l 0.377237,0.732083 h -0.881944 l -0.416856,-0.771701 q -0.07924,-0.149862 -0.141249,-0.194648 -0.0844,-0.05857 -0.191203,-0.05857 h -0.0689 v 1.024916 z m 0.783759,-1.502061 h 0.329007 q 0.0534,0 0.206705,-0.03445 0.07752,-0.0155 0.125746,-0.07924 0.04995,-0.06373 0.04995,-0.146416 0,-0.122301 -0.07751,-0.187758 -0.07751,-0.06546 -0.29111,-0.06546 h -0.342787 z"
         style="fill:#0000ff;stroke-width:0.26458332"
         id="path116" />
      <path
         d="m 24.293098,42.453867 h 2.371948 v 0.623563 h -0.795817 v 1.901692 H 25.088915 V 43.07743 h -0.795817 z"
         style="fill:#0000ff;stroke-width:0.26458332"
         id="path118" />
      <path
         d="m 26.597866,43.787119 h 1.019748 v 0.542603 h -1.019748 z"
         style="fill:#0000ff;stroke-width:0.26458332"
         id="path120" />
      <path
         d="m 27.950066,42.453867 h 1.297079 q 0.423746,0 0.633897,0.201538 0.211874,0.201538 0.211874,0.573609 0,0.382405 -0.230822,0.597724 -0.229099,0.215318 -0.701077,0.215318 h -0.427192 v 0.937066 h -0.783759 z m 0.783759,1.076593 h 0.191203 q 0.225654,0 0.316949,-0.07751 0.0913,-0.07924 0.0913,-0.201538 0,-0.118856 -0.07924,-0.201538 -0.07924,-0.08268 -0.298001,-0.08268 h -0.222209 z"
         style="fill:#0000ff;stroke-width:0.26458332"
         id="path122" />
      <path
         d="m 30.504604,42.453867 h 0.780314 v 0.883667 h 0.852661 v -0.883667 h 0.783759 v 2.525255 h -0.783759 v -1.021471 h -0.852661 v 1.021471 h -0.780314 z"
         style="fill:#0000ff;stroke-width:0.26458332"
         id="path124" />
      <path
         d="M 34.993564,44.562266 H 34.10473 l -0.122301,0.416856 h -0.79754 l 0.949124,-2.525255 h 0.850938 l 0.949124,2.525255 h -0.816487 z m -0.163642,-0.546048 -0.279053,-0.907783 -0.27733,0.907783 z"
         style="fill:#0000ff;stroke-width:0.26458332"
         id="path126" />
      <path
         d="m 36.047763,44.143687 0.742418,-0.04651 q 0.02412,0.180867 0.09819,0.275607 0.120578,0.153307 0.344509,0.153307 0.167087,0 0.25666,-0.07751 0.0913,-0.07924 0.0913,-0.18259 0,-0.09819 -0.08613,-0.175699 -0.08613,-0.07751 -0.399631,-0.146417 -0.513319,-0.115411 -0.732082,-0.306613 -0.220486,-0.191203 -0.220486,-0.487481 0,-0.194648 0.111965,-0.366903 0.113688,-0.173977 0.339342,-0.272163 0.227376,-0.09991 0.62184,-0.09991 0.484036,0 0.73725,0.180867 0.254937,0.179145 0.303169,0.571886 l -0.735528,0.04306 q -0.02928,-0.170533 -0.124024,-0.248047 -0.09302,-0.07751 -0.258382,-0.07751 -0.136081,0 -0.204983,0.05857 -0.0689,0.05684 -0.0689,0.139526 0,0.06029 0.05684,0.108521 0.05512,0.04995 0.261827,0.09302 0.511597,0.110243 0.732083,0.223931 0.222209,0.111966 0.322117,0.279053 0.10163,0.167087 0.10163,0.373793 0,0.242879 -0.134359,0.447862 -0.134359,0.204983 -0.375515,0.311781 -0.241157,0.105076 -0.60806,0.105076 -0.644232,0 -0.892279,-0.248047 -0.248047,-0.248047 -0.280776,-0.630452 z"
         style="fill:#0000ff;stroke-width:0.26458332"
         id="path128" />
      <path
         d="m 38.72977,42.453867 h 2.091173 v 0.539158 h -1.309137 v 0.401353 h 1.214396 v 0.515042 h -1.214396 v 0.497816 h 1.347033 v 0.571886 H 38.72977 Z"
         style="fill:#0000ff;stroke-width:0.26458332"
         id="path130" />
    </g>
  </g>
</svg>
