<?xml version="1.0" encoding="UTF-8" standalone="no"?>
<!-- Created with Inkscape (http://www.inkscape.org/) -->

<svg
   xmlns:dc="http://purl.org/dc/elements/1.1/"
   xmlns:cc="http://creativecommons.org/ns#"
   xmlns:rdf="http://www.w3.org/1999/02/22-rdf-syntax-ns#"
   xmlns:svg="http://www.w3.org/2000/svg"
   xmlns="http://www.w3.org/2000/svg"
   xmlns:sodipodi="http://sodipodi.sourceforge.net/DTD/sodipodi-0.dtd"
   xmlns:inkscape="http://www.inkscape.org/namespaces/inkscape"
   width="45.720001mm"
   height="128.54166mm"
   viewBox="0 0 45.720002 128.5417"
   version="1.1"
   id="svg4541"
   sodipodi:docname="B.svg"
   inkscape:version="0.92.5 (2060ec1f9f, 2020-04-08)">
  <defs
     id="defs4535" />
  <sodipodi:namedview
     id="base"
     pagecolor="#ffffff"
     bordercolor="#666666"
     borderopacity="1.0"
     inkscape:pageopacity="0.0"
     inkscape:pageshadow="2"
     inkscape:zoom="4"
     inkscape:cx="83.462178"
     inkscape:cy="278.09431"
     inkscape:document-units="mm"
     inkscape:current-layer="layer1"
     showgrid="true"
     fit-margin-top="0"
     fit-margin-left="0"
     fit-margin-right="0"
     fit-margin-bottom="0"
     inkscape:window-width="1600"
     inkscape:window-height="845"
     inkscape:window-x="0"
     inkscape:window-y="0"
     inkscape:window-maximized="1"
     units="mm">
    <inkscape:grid
       type="xygrid"
       id="grid76" />
  </sodipodi:namedview>
  <metadata
     id="metadata4538">
    <rdf:RDF>
      <cc:Work
         rdf:about="">
        <dc:format>image/svg+xml</dc:format>
        <dc:type
           rdf:resource="http://purl.org/dc/dcmitype/StillImage" />
        <dc:title></dc:title>
      </cc:Work>
    </rdf:RDF>
  </metadata>
  <g
     inkscape:groupmode="layer"
     id="layer1"
     inkscape:label="Background"
     style="display:inline;opacity:1">
    <rect
       style="fill:#ffffff;stroke-width:0.37211871"
       id="rect111"
       width="45.839062"
       height="128.32292"
       x="0"
       y="0.21873982" />
  </g>
  <g
     inkscape:groupmode="layer"
     id="layer4"
     inkscape:label="graphics"
     transform="translate(0,28.00003)"
     style="display:inline">
    <text
       xml:space="preserve"
       style="font-style:normal;font-variant:normal;font-weight:normal;font-stretch:normal;font-size:4.58611107px;line-height:1.25;font-family:'Arial Black';-inkscape-font-specification:'Arial Black, Normal';font-variant-ligatures:normal;font-variant-caps:normal;font-variant-numeric:normal;text-align:center;letter-spacing:0px;word-spacing:0px;writing-mode:lr-tb;text-anchor:middle;fill:#000000;fill-opacity:1;stroke:none;stroke-width:0.26458332"
       x="11.90625"
       y="-21.166708"
       id="text115"><tspan
         sodipodi:role="line"
         id="tspan113"
         x="11.90625"
         y="-17.054897"
         style="stroke-width:0.26458332" /></text>
    <g
       aria-label="KRT"
       style="font-style:normal;font-variant:normal;font-weight:normal;font-stretch:normal;font-size:3.52777767px;line-height:1.25;font-family:'Arial Black';-inkscape-font-specification:'Arial Black, Normal';font-variant-ligatures:normal;font-variant-caps:normal;font-variant-numeric:normal;font-feature-settings:normal;text-align:center;letter-spacing:0px;word-spacing:0px;writing-mode:lr-tb;text-anchor:middle;fill:#000000;fill-opacity:1;stroke:none;stroke-width:0.26458332"
       id="text123"
       transform="translate(-12.170835,-117.47517)">
      <path
         d="m 14.418414,95.635115 h 0.780314 v 0.954291 l 0.81821,-0.954291 h 1.036974 l -0.91984,0.952569 0.961181,1.572686 h -0.961181 l -0.532268,-1.038696 -0.403076,0.422024 v 0.616672 h -0.780314 z"
         style="fill:#000000;stroke-width:0.26458332"
         id="path227"
         inkscape:connector-curvature="0" />
      <path
         d="m 17.363971,98.16037 v -2.525255 h 1.300523 q 0.361735,0 0.552938,0.06201 0.191203,0.06201 0.308336,0.230821 0.117133,0.167087 0.117133,0.408244 0,0.210151 -0.08957,0.363457 -0.08957,0.151585 -0.246325,0.246325 -0.09991,0.06029 -0.273885,0.09991 0.139527,0.04651 0.203261,0.09302 0.04306,0.03101 0.124023,0.132636 0.08268,0.101631 0.110243,0.156752 l 0.377238,0.732083 H 18.96594 l -0.416857,-0.771701 q -0.07924,-0.149862 -0.141248,-0.194648 -0.08441,-0.05857 -0.191203,-0.05857 h -0.0689 v 1.024916 z m 0.783759,-1.502062 h 0.329006 q 0.0534,0 0.206706,-0.03445 0.07752,-0.0155 0.125746,-0.07924 0.04995,-0.06373 0.04995,-0.146416 0,-0.122301 -0.07751,-0.187758 -0.07751,-0.06546 -0.29111,-0.06546 H 18.14773 Z"
         style="fill:#000000;stroke-width:0.26458332"
         id="path229"
         inkscape:connector-curvature="0" />
      <path
         d="m 19.889226,95.635115 h 2.371948 v 0.623562 h -0.795817 v 1.901693 h -0.780314 v -1.901693 h -0.795817 z"
         style="fill:#000000;stroke-width:0.26458332"
         id="path231"
         inkscape:connector-curvature="0" />
    </g>
    <g
       aria-label="Ω"
       style="font-style:normal;font-variant:normal;font-weight:normal;font-stretch:normal;font-size:3.52777767px;line-height:1.25;font-family:'Arial Black';-inkscape-font-specification:'Arial Black, Normal';font-variant-ligatures:normal;font-variant-caps:normal;font-variant-numeric:normal;font-feature-settings:normal;text-align:center;letter-spacing:0px;word-spacing:0px;writing-mode:lr-tb;text-anchor:middle;fill:#000000;fill-opacity:1;stroke:none;stroke-width:0.26458332"
       id="text107"
       transform="matrix(2.52226,0,0,2.4814703,-16.867486,28.084873)" />
    <g
       aria-label="LINK"
       style="font-style:normal;font-variant:normal;font-weight:normal;font-stretch:normal;font-size:3.52777767px;line-height:1.25;font-family:'Arial Black';-inkscape-font-specification:'Arial Black, Normal';font-variant-ligatures:normal;font-variant-caps:normal;font-variant-numeric:normal;font-feature-settings:normal;text-align:center;letter-spacing:0px;word-spacing:0px;writing-mode:lr-tb;text-anchor:middle;fill:#000000;fill-opacity:1;stroke:none;stroke-width:0.26458332"
       id="text124">
      <path
         d="m 2.071364,91.137205 h 0.7803141 v 1.903416 H 4.0695193 V 93.66246 H 2.071364 Z"
         style="fill:#00ff00;stroke-width:0.26458332"
         id="path347"
         inkscape:connector-curvature="0" />
      <path
         d="M 4.45537,91.137205 H 5.2374066 V 93.66246 H 4.45537 Z"
         style="fill:#00ff00;stroke-width:0.26458332"
         id="path349"
         inkscape:connector-curvature="0" />
      <path
         d="m 5.8024022,91.137205 h 0.7286377 l 0.9508463,1.396987 V 91.137205 H 8.2174141 V 93.66246 H 7.4818862 L 6.5362075,92.275809 V 93.66246 H 5.8024022 Z"
         style="fill:#00ff00;stroke-width:0.26458332"
         id="path351"
         inkscape:connector-curvature="0" />
      <path
         d="m 8.739346,91.137205 h 0.7803141 v 0.954292 L 10.33787,91.137205 h 1.036974 l -0.91984,0.952569 0.961181,1.572686 H 10.455004 L 9.9227363,92.623764 9.5196601,93.045788 V 93.66246 H 8.739346 Z"
         style="fill:#00ff00;stroke-width:0.26458332"
         id="path353"
         inkscape:connector-curvature="0" />
    </g>
    <g
       aria-label="MIX"
       style="font-style:normal;font-variant:normal;font-weight:normal;font-stretch:normal;font-size:3.52777767px;line-height:1.25;font-family:'Arial Black';-inkscape-font-specification:'Arial Black, Normal';font-variant-ligatures:normal;font-variant-caps:normal;font-variant-numeric:normal;font-feature-settings:normal;text-align:center;letter-spacing:0px;word-spacing:0px;writing-mode:lr-tb;text-anchor:middle;fill:#000000;fill-opacity:1;stroke:none;stroke-width:0.26458332"
       id="text139">
      <path
         d="m 15.311891,91.071059 h 1.026638 l 0.396186,1.536512 0.394463,-1.536512 h 1.023194 v 2.525254 h -0.637343 v -1.925808 l -0.494371,1.925808 h -0.577054 l -0.492648,-1.925808 v 1.925808 h -0.639065 z"
         style="fill:#ff6600;stroke-width:0.26458332"
         id="path340"
         inkscape:connector-curvature="0" />
      <path
         d="m 18.681194,91.071059 h 0.782037 v 2.525254 h -0.782037 z"
         style="fill:#ff6600;stroke-width:0.26458332"
         id="path342"
         inkscape:connector-curvature="0" />
      <path
         d="m 19.849081,91.071059 h 0.859551 l 0.447863,0.776869 0.434082,-0.776869 h 0.850938 l -0.785481,1.223008 0.859551,1.302246 h -0.876777 l -0.497816,-0.811319 -0.499539,0.811319 h -0.871609 l 0.871609,-1.316026 z"
         style="fill:#ff6600;stroke-width:0.26458332"
         id="path344"
         inkscape:connector-curvature="0" />
    </g>
    <g
       aria-label="G1"
       style="font-style:normal;font-variant:normal;font-weight:normal;font-stretch:normal;font-size:3.52777767px;line-height:1.25;font-family:'Arial Black';-inkscape-font-specification:'Arial Black, Normal';font-variant-ligatures:normal;font-variant-caps:normal;font-variant-numeric:normal;font-feature-settings:normal;text-align:center;letter-spacing:0px;word-spacing:0px;writing-mode:lr-tb;text-anchor:middle;fill:#000000;fill-opacity:1;stroke:none;stroke-width:0.26458332"
       id="text167">
      <path
         d="m 5.2982123,-4.3542957 v -0.525377 h 1.2057834 v 1.0765923 q -0.3462321,0.235989 -0.6132269,0.3221164 -0.2652724,0.084405 -0.6304525,0.084405 -0.4495849,0 -0.7338053,-0.1533067 Q 4.2440132,-3.7031727 4.0872613,-4.0063411 3.932232,-4.3095095 3.932232,-4.7022503 q 0,-0.4134115 0.1705323,-0.7183024 0.1705322,-0.3066135 0.4995388,-0.4650879 0.2566596,-0.1223009 0.6907416,-0.1223009 0.4185791,0 0.6252848,0.075792 0.2084283,0.075792 0.3445096,0.235989 0.1378038,0.1584744 0.2067057,0.4030762 L 5.7167914,-5.1587255 Q 5.6702827,-5.3016969 5.5583171,-5.377489 5.448074,-5.4532811 5.2758192,-5.4532811 q -0.2566596,0 -0.4099663,0.1791449 -0.1515842,0.1774224 -0.1515842,0.5632731 0,0.4099664 0.1533067,0.5856662 0.1550293,0.1756999 0.4306369,0.1756999 0.1309137,0 0.2497695,-0.037896 0.1188558,-0.037896 0.2721625,-0.1291911 v -0.2377116 z"
         style="fill:#ffff00;stroke-width:0.26458332"
         id="path287"
         inkscape:connector-curvature="0" />
      <path
         d="m 8.4435844,-6.0079415 v 2.5683186 H 7.7338948 V -5.122552 q -0.1722548,0.1309137 -0.3341743,0.2118734 -0.1601969,0.08096 -0.4030761,0.1550293 v -0.5753309 q 0.3582899,-0.1154107 0.5563829,-0.2773302 0.1980929,-0.1619195 0.3100585,-0.3996311 z"
         style="fill:#ffff00;stroke-width:0.26458332"
         id="path289"
         inkscape:connector-curvature="0" />
    </g>
    <g
       aria-label="G2"
       style="font-style:normal;font-variant:normal;font-weight:normal;font-stretch:normal;font-size:3.52777767px;line-height:1.25;font-family:'Arial Black';-inkscape-font-specification:'Arial Black, Normal';font-variant-ligatures:normal;font-variant-caps:normal;font-variant-numeric:normal;font-feature-settings:normal;text-align:center;letter-spacing:0px;word-spacing:0px;writing-mode:lr-tb;text-anchor:middle;fill:#000000;fill-opacity:1;stroke:none;stroke-width:0.26458332"
       id="text171">
      <path
         d="m 5.2320665,11.785288 v -0.525377 h 1.2057833 v 1.076592 q -0.346232,0.235989 -0.6132269,0.322117 -0.2652724,0.0844 -0.6304525,0.0844 -0.4495849,0 -0.7338053,-0.153306 -0.2824978,-0.153307 -0.4392497,-0.456475 -0.1550293,-0.303169 -0.1550293,-0.69591 0,-0.413411 0.1705323,-0.718302 0.1705322,-0.306614 0.4995388,-0.465088 0.2566596,-0.122301 0.6907416,-0.122301 0.4185791,0 0.6252848,0.07579 0.2084283,0.07579 0.3445096,0.235989 0.1378038,0.158475 0.2067057,0.403076 l -0.7527534,0.134359 q -0.046509,-0.142971 -0.1584743,-0.218763 -0.1102431,-0.07579 -0.2824979,-0.07579 -0.2566596,0 -0.4099663,0.179145 -0.1515842,0.177423 -0.1515842,0.563274 0,0.409966 0.1533067,0.585666 0.1550293,0.1757 0.430637,0.1757 0.1309136,0 0.2497694,-0.0379 0.1188558,-0.0379 0.2721625,-0.129192 v -0.237711 z"
         style="fill:#ffff00;stroke-width:0.26458332"
         id="path282"
         inkscape:connector-curvature="0" />
      <path
         d="M 8.8408038,12.699961 H 6.7358506 q 0.036174,-0.311781 0.2187635,-0.585667 0.1843126,-0.275607 0.6890191,-0.6494 0.308336,-0.229099 0.3944634,-0.347955 0.086127,-0.118855 0.086127,-0.225653 0,-0.115411 -0.086127,-0.196371 -0.084405,-0.08268 -0.2135959,-0.08268 -0.1343587,0 -0.2204861,0.08441 -0.084405,0.08441 -0.1136881,0.298 L 6.787527,10.937794 q 0.041341,-0.296278 0.1515842,-0.461642 0.110243,-0.167087 0.3100586,-0.254937 0.2015381,-0.08957 0.5563829,-0.08957 0.3703477,0 0.5753309,0.08441 0.2067057,0.08441 0.323839,0.260105 0.1188558,0.173977 0.1188558,0.391018 0,0.230821 -0.1360813,0.440972 -0.1343587,0.210151 -0.4909261,0.461643 -0.2118734,0.146417 -0.2842204,0.204983 -0.070624,0.05857 -0.1670871,0.153307 h 1.0955403 z"
         style="fill:#ffff00;stroke-width:0.26458332"
         id="path284"
         inkscape:connector-curvature="0" />
    </g>
    <g
       aria-label="G3"
       style="font-style:normal;font-variant:normal;font-weight:normal;font-stretch:normal;font-size:3.52777767px;line-height:1.25;font-family:'Arial Black';-inkscape-font-specification:'Arial Black, Normal';font-variant-ligatures:normal;font-variant-caps:normal;font-variant-numeric:normal;font-feature-settings:normal;text-align:center;letter-spacing:0px;word-spacing:0px;writing-mode:lr-tb;text-anchor:middle;fill:#000000;fill-opacity:1;stroke:none;stroke-width:0.26458332"
       id="text175">
      <path
         d="m 5.49665,27.395704 v -0.525377 h 1.2057834 v 1.076593 q -0.3462321,0.235989 -0.613227,0.322116 -0.2652723,0.08441 -0.6304524,0.08441 -0.449585,0 -0.7338053,-0.153307 Q 4.4424509,28.046827 4.285699,27.743659 4.1306697,27.440491 4.1306697,27.04775 q 0,-0.413412 0.1705322,-0.718303 0.1705323,-0.306613 0.4995389,-0.465088 0.2566596,-0.1223 0.6907416,-0.1223 0.4185791,0 0.6252848,0.07579 0.2084283,0.07579 0.3445095,0.235989 0.1378039,0.158474 0.2067058,0.403076 l -0.7527534,0.134359 q -0.046509,-0.142972 -0.1584744,-0.218764 -0.110243,-0.07579 -0.2824978,-0.07579 -0.2566596,0 -0.4099663,0.179145 -0.1515842,0.177422 -0.1515842,0.563273 0,0.409966 0.1533067,0.585666 0.1550293,0.1757 0.4306369,0.1757 0.1309137,0 0.2497695,-0.0379 0.1188557,-0.0379 0.2721625,-0.129191 V 27.3957 Z"
         style="fill:#ffff00;stroke-width:0.26458332"
         id="path277"
         inkscape:connector-curvature="0" />
      <path
         d="M 7.7325169,26.515482 7.0693361,26.396627 q 0.082682,-0.316949 0.3169487,-0.485759 0.2359891,-0.168809 0.666626,-0.168809 0.4943712,0 0.7148573,0.184312 0.2204861,0.184313 0.2204861,0.463365 0,0.163642 -0.089573,0.296279 -0.089572,0.132636 -0.27044,0.232544 0.1464166,0.03617 0.2239312,0.0844 0.125746,0.07751 0.1946479,0.204984 0.070624,0.125746 0.070624,0.301445 0,0.220487 -0.1154107,0.423747 -0.1154107,0.201538 -0.3324517,0.311781 -0.217041,0.108521 -0.5701633,0.108521 -0.3445096,0 -0.5443251,-0.08096 -0.198093,-0.08096 -0.327284,-0.235989 Q 7.1003419,27.87974 7.03144,27.643751 l 0.7010769,-0.09302 q 0.041341,0.211873 0.1274686,0.294555 0.08785,0.08096 0.2222086,0.08096 0.1412489,0 0.2342665,-0.103353 0.09474,-0.103353 0.09474,-0.275608 0,-0.175699 -0.091295,-0.272162 -0.089572,-0.09646 -0.2446018,-0.09646 -0.082682,0 -0.2273763,0.04134 l 0.036173,-0.501261 q 0.058567,0.0086 0.091295,0.0086 0.1378038,0 0.2290988,-0.08785 0.093018,-0.08785 0.093018,-0.208428 0,-0.115411 -0.068902,-0.184313 -0.068902,-0.0689 -0.1894803,-0.0689 -0.1240234,0 -0.2015381,0.07579 -0.077515,0.07407 -0.1050754,0.261827 z"
         style="fill:#ffff00;stroke-width:0.26458332"
         id="path279"
         inkscape:connector-curvature="0" />
    </g>
    <g
       aria-label="F1"
       style="font-style:normal;font-variant:normal;font-weight:normal;font-stretch:normal;font-size:3.52777767px;line-height:1.25;font-family:'Arial Black';-inkscape-font-specification:'Arial Black, Normal';font-variant-ligatures:normal;font-variant-caps:normal;font-variant-numeric:normal;font-feature-settings:normal;text-align:center;letter-spacing:0px;word-spacing:0px;writing-mode:lr-tb;text-anchor:middle;fill:#000000;fill-opacity:1;stroke:none;stroke-width:0.26458332"
       id="text179">
      <path
         d="m 17.223404,-5.9648778 h 1.929254 v 0.5426025 h -1.145495 v 0.4409722 h 0.978407 v 0.5098742 h -0.978407 v 1.031806 h -0.783759 z"
         style="fill:#ffff00;stroke-width:0.26458332"
         id="path272"
         inkscape:connector-curvature="0" />
      <path
         d="m 21.049183,-6.0079415 v 2.5683186 h -0.70969 V -5.122552 q -0.172255,0.1309137 -0.334174,0.2118734 -0.160197,0.08096 -0.403076,0.1550293 v -0.5753309 q 0.35829,-0.1154107 0.556382,-0.2773302 0.198093,-0.1619195 0.310059,-0.3996311 z"
         style="fill:#ffff00;stroke-width:0.26458332"
         id="path274"
         inkscape:connector-curvature="0" />
    </g>
    <g
       aria-label="F2"
       style="font-style:normal;font-variant:normal;font-weight:normal;font-stretch:normal;font-size:3.52777767px;line-height:1.25;font-family:'Arial Black';-inkscape-font-specification:'Arial Black, Normal';font-variant-ligatures:normal;font-variant-caps:normal;font-variant-numeric:normal;font-feature-settings:normal;text-align:center;letter-spacing:0px;word-spacing:0px;writing-mode:lr-tb;text-anchor:middle;fill:#000000;fill-opacity:1;stroke:none;stroke-width:0.26458332"
       id="text183">
      <path
         d="m 17.157259,10.108559 h 1.929254 v 0.542602 h -1.145495 v 0.440973 h 0.978408 v 0.509874 h -0.978408 v 1.031806 h -0.783759 z"
         style="fill:#ffff00;stroke-width:0.26458332"
         id="path267"
         inkscape:connector-curvature="0" />
      <path
         d="M 21.446403,12.633814 H 19.34145 q 0.03617,-0.311781 0.218763,-0.585666 0.184313,-0.275608 0.689019,-0.649401 0.308336,-0.229099 0.394464,-0.347954 0.08613,-0.118856 0.08613,-0.225654 0,-0.115411 -0.08613,-0.196371 -0.0844,-0.08268 -0.213596,-0.08268 -0.134359,0 -0.220486,0.0844 -0.0844,0.08441 -0.113688,0.298001 l -0.7028,-0.05684 q 0.04134,-0.296279 0.151584,-0.461643 0.110243,-0.167087 0.310059,-0.254937 0.201538,-0.08957 0.556383,-0.08957 0.370348,0 0.575331,0.08441 0.206706,0.08441 0.323839,0.260105 0.118856,0.173977 0.118856,0.391018 0,0.230822 -0.136082,0.440972 -0.134358,0.210151 -0.490926,0.461643 -0.211873,0.146417 -0.28422,0.204983 -0.07062,0.05857 -0.167087,0.153307 h 1.09554 z"
         style="fill:#ffff00;stroke-width:0.26458332"
         id="path269"
         inkscape:connector-curvature="0" />
    </g>
    <g
       aria-label="F3"
       style="font-style:normal;font-variant:normal;font-weight:normal;font-stretch:normal;font-size:3.52777767px;line-height:1.25;font-family:'Arial Black';-inkscape-font-specification:'Arial Black, Normal';font-variant-ligatures:normal;font-variant-caps:normal;font-variant-numeric:normal;font-feature-settings:normal;text-align:center;letter-spacing:0px;word-spacing:0px;writing-mode:lr-tb;text-anchor:middle;fill:#000000;fill-opacity:1;stroke:none;stroke-width:0.26458332"
       id="text187">
      <path
         d="m 17.223404,25.785122 h 1.929254 v 0.542603 h -1.145495 v 0.440972 h 0.978407 v 0.509874 h -0.978407 v 1.031806 h -0.783759 z"
         style="fill:#ffff00;stroke-width:0.26458332"
         id="path262"
         inkscape:connector-curvature="0" />
      <path
         d="m 20.139677,26.515482 -0.66318,-0.118855 q 0.08268,-0.316949 0.316948,-0.485759 0.235989,-0.168809 0.666626,-0.168809 0.494372,0 0.714858,0.184312 0.220486,0.184313 0.220486,0.463365 0,0.163642 -0.08957,0.296279 -0.08957,0.132636 -0.27044,0.232544 0.146417,0.03617 0.223931,0.0844 0.125746,0.07751 0.194648,0.204984 0.07062,0.125746 0.07062,0.301445 0,0.220487 -0.115411,0.423747 -0.115411,0.201538 -0.332452,0.311781 -0.217041,0.108521 -0.570163,0.108521 -0.344509,0 -0.544325,-0.08096 -0.198093,-0.08096 -0.327284,-0.235989 -0.127469,-0.156752 -0.19637,-0.392741 l 0.701076,-0.09302 q 0.04134,0.211873 0.127469,0.294555 0.08785,0.08096 0.222209,0.08096 0.141249,0 0.234266,-0.103353 0.09474,-0.103353 0.09474,-0.275608 0,-0.175699 -0.09129,-0.272162 -0.08957,-0.09646 -0.244602,-0.09646 -0.08268,0 -0.227376,0.04134 l 0.03617,-0.501261 q 0.05857,0.0086 0.09129,0.0086 0.137804,0 0.229099,-0.08785 0.09302,-0.08785 0.09302,-0.208428 0,-0.115411 -0.0689,-0.184313 -0.0689,-0.0689 -0.18948,-0.0689 -0.124023,0 -0.201538,0.07579 -0.07751,0.07407 -0.105076,0.261827 z"
         style="fill:#ffff00;stroke-width:0.26458332"
         id="path264"
         inkscape:connector-curvature="0" />
    </g>
    <g
       aria-label="IN1"
       style="font-style:normal;font-variant:normal;font-weight:normal;font-stretch:normal;font-size:3.52777767px;line-height:1.25;font-family:'Arial Black';-inkscape-font-specification:'Arial Black, Normal';font-variant-ligatures:normal;font-variant-caps:normal;font-variant-numeric:normal;font-feature-settings:normal;text-align:center;letter-spacing:0px;word-spacing:0px;writing-mode:lr-tb;text-anchor:middle;fill:#000000;fill-opacity:1;stroke:none;stroke-width:0.26458332"
       id="text294">
      <path
         d="m 3.1828528,42.453867 h 0.7820366 v 2.525255 H 3.1828528 Z"
         style="fill:#00ff00;stroke-width:0.26458332"
         id="path370"
         inkscape:connector-curvature="0" />
      <path
         d="m 4.5298851,42.453867 h 0.7286377 l 0.9508463,1.396986 V 42.453867 H 6.944897 v 2.525255 H 6.2093691 L 5.2636904,43.592471 v 1.386651 H 4.5298851 Z"
         style="fill:#00ff00;stroke-width:0.26458332"
         id="path372"
         inkscape:connector-curvature="0" />
      <path
         d="m 8.9396071,42.410804 v 2.568318 H 8.2299174 v -1.682929 q -0.1722547,0.130914 -0.3341742,0.211873 -0.160197,0.08096 -0.4030762,0.15503 v -0.575331 q 0.3582899,-0.115411 0.5563829,-0.27733 0.198093,-0.16192 0.3100586,-0.399631 z"
         style="fill:#00ff00;stroke-width:0.26458332"
         id="path374"
         inkscape:connector-curvature="0" />
    </g>
    <g
       aria-label="IN2"
       style="font-style:normal;font-variant:normal;font-weight:normal;font-stretch:normal;font-size:3.52777767px;line-height:1.25;font-family:'Arial Black';-inkscape-font-specification:'Arial Black, Normal';font-variant-ligatures:normal;font-variant-caps:normal;font-variant-numeric:normal;font-feature-settings:normal;text-align:center;letter-spacing:0px;word-spacing:0px;writing-mode:lr-tb;text-anchor:middle;fill:#000000;fill-opacity:1;stroke:none;stroke-width:0.26458332"
       id="text298">
      <path
         d="m 3.3566456,58.656271 h 0.7820367 v 2.525255 H 3.3566456 Z"
         style="fill:#00ff00;stroke-width:0.26458332"
         id="path363"
         inkscape:connector-curvature="0" />
      <path
         d="m 4.703678,58.656271 h 0.7286376 l 0.9508464,1.396986 v -1.396986 h 0.7355278 v 2.525255 H 6.383162 L 5.4374833,59.794875 v 1.386651 H 4.703678 Z"
         style="fill:#00ff00;stroke-width:0.26458332"
         id="path365"
         inkscape:connector-curvature="0" />
      <path
         d="M 9.5767653,61.181526 H 7.471812 q 0.036174,-0.311781 0.2187635,-0.585666 0.1843126,-0.275608 0.6890191,-0.649401 0.308336,-0.229098 0.3944634,-0.347954 0.086127,-0.118856 0.086127,-0.225654 0,-0.115411 -0.086127,-0.19637 -0.084405,-0.08268 -0.2135959,-0.08268 -0.1343587,0 -0.2204861,0.08441 -0.084405,0.0844 -0.1136881,0.298001 L 7.5234884,59.41936 q 0.041341,-0.296278 0.1515842,-0.461643 0.1102431,-0.167087 0.3100586,-0.254937 0.2015381,-0.08957 0.5563829,-0.08957 0.3703477,0 0.5753309,0.0844 0.2067057,0.08441 0.323839,0.260105 0.1188558,0.173977 0.1188558,0.391018 0,0.230822 -0.1360813,0.440973 -0.1343587,0.21015 -0.4909261,0.461642 -0.2118733,0.146417 -0.2842204,0.204984 -0.070624,0.05857 -0.1670871,0.153306 h 1.0955404 z"
         style="fill:#00ff00;stroke-width:0.26458332"
         id="path367"
         inkscape:connector-curvature="0" />
    </g>
    <g
       aria-label="IN3"
       style="font-style:normal;font-variant:normal;font-weight:normal;font-stretch:normal;font-size:3.52777767px;line-height:1.25;font-family:'Arial Black';-inkscape-font-specification:'Arial Black, Normal';font-variant-ligatures:normal;font-variant-caps:normal;font-variant-numeric:normal;font-feature-settings:normal;text-align:center;letter-spacing:0px;word-spacing:0px;writing-mode:lr-tb;text-anchor:middle;fill:#000000;fill-opacity:1;stroke:none;stroke-width:0.26458332"
       id="text302">
      <path
         d="m 3.3071199,74.203863 h 0.7820366 v 2.525255 H 3.3071199 Z"
         style="fill:#00ff00;stroke-width:0.26458332"
         id="path356"
         inkscape:connector-curvature="0" />
      <path
         d="m 4.6541522,74.203863 h 0.7286377 l 0.9508463,1.396987 v -1.396987 h 0.7355279 v 2.525255 H 6.3336362 L 5.3879576,75.342467 v 1.386651 H 4.6541522 Z"
         style="fill:#00ff00;stroke-width:0.26458332"
         id="path358"
         inkscape:connector-curvature="0" />
      <path
         d="M 8.154369,74.934224 7.4911881,74.815368 Q 7.5738704,74.498419 7.8081369,74.329609 8.044126,74.1608 8.4747629,74.1608 q 0.4943712,0 0.7148573,0.184312 0.2204861,0.184313 0.2204861,0.463366 0,0.163642 -0.089573,0.296278 -0.089572,0.132636 -0.27044,0.232544 0.1464166,0.03617 0.2239312,0.08441 0.125746,0.07751 0.1946479,0.204983 0.070624,0.125746 0.070624,0.301446 0,0.220486 -0.1154106,0.423746 -0.1154107,0.201538 -0.3324518,0.311782 -0.217041,0.10852 -0.5701632,0.10852 -0.3445096,0 -0.5443251,-0.08096 Q 7.7788536,76.610263 7.6496625,76.455233 7.522194,76.298481 7.4532921,76.062492 l 0.7010769,-0.09302 q 0.041341,0.211873 0.1274685,0.294555 0.08785,0.08096 0.2222087,0.08096 0.1412489,0 0.2342665,-0.103353 0.09474,-0.103353 0.09474,-0.275607 0,-0.1757 -0.091295,-0.272163 -0.089573,-0.09646 -0.2446018,-0.09646 -0.082682,0 -0.2273763,0.04134 l 0.036173,-0.501262 q 0.058567,0.0086 0.091295,0.0086 0.1378038,0 0.2290989,-0.08785 0.093018,-0.08785 0.093018,-0.208428 0,-0.115411 -0.068902,-0.184313 -0.068902,-0.0689 -0.1894802,-0.0689 -0.1240234,0 -0.2015381,0.07579 -0.077515,0.07407 -0.1050754,0.261828 z"
         style="fill:#00ff00;stroke-width:0.26458332"
         id="path360"
         inkscape:connector-curvature="0" />
    </g>
    <g
       aria-label="OUT1"
       style="font-style:normal;font-variant:normal;font-weight:normal;font-stretch:normal;font-size:3.52777767px;line-height:1.25;font-family:'Arial Black';-inkscape-font-specification:'Arial Black, Normal';font-variant-ligatures:normal;font-variant-caps:normal;font-variant-numeric:normal;font-feature-settings:normal;text-align:center;letter-spacing:0px;word-spacing:0px;writing-mode:lr-tb;text-anchor:middle;fill:#d45500;fill-opacity:1;stroke:none;stroke-width:0.26458332"
       id="text379">
      <path
         d="m 13.821198,43.718217 q 0,-0.618394 0.34451,-0.962904 0.344509,-0.344509 0.959459,-0.344509 0.630452,0 0.971517,0.339341 0.341064,0.33762 0.341064,0.947402 0,0.442694 -0.149862,0.726915 -0.148139,0.282498 -0.430637,0.440972 -0.280775,0.156752 -0.701076,0.156752 -0.427192,0 -0.707968,-0.136081 -0.279052,-0.136082 -0.45303,-0.430637 -0.173977,-0.294556 -0.173977,-0.737251 z m 0.780314,0.0034 q 0,0.382406 0.141249,0.549493 0.142972,0.167087 0.387573,0.167087 0.251492,0 0.389296,-0.163642 0.137804,-0.163642 0.137804,-0.587389 0,-0.356567 -0.144694,-0.520209 -0.142972,-0.165365 -0.389296,-0.165365 -0.235989,0 -0.37896,0.167088 -0.142972,0.167087 -0.142972,0.552937 z"
         style="fill:#d45500;stroke-width:0.26458332"
         id="path444"
         inkscape:connector-curvature="0" />
      <path
         d="m 18.50136,42.453867 h 0.778592 v 1.505507 q 0,0.223931 -0.07063,0.423747 -0.0689,0.198093 -0.218763,0.347954 -0.148139,0.148139 -0.311781,0.208429 -0.227377,0.0844 -0.546048,0.0844 -0.184313,0 -0.403076,-0.02584 -0.217041,-0.02584 -0.363458,-0.10163 -0.146416,-0.07751 -0.268717,-0.218764 -0.120579,-0.141249 -0.165365,-0.29111 -0.07235,-0.241157 -0.07235,-0.427192 v -1.505507 h 0.778592 v 1.54168 q 0,0.206706 0.113688,0.323839 0.115411,0.115411 0.318671,0.115411 0.201538,0 0.315226,-0.113688 0.115411,-0.115411 0.115411,-0.325562 z"
         style="fill:#d45500;stroke-width:0.26458332"
         id="path446"
         inkscape:connector-curvature="0" />
      <path
         d="m 19.619294,42.453867 h 2.371948 v 0.623563 h -0.795817 v 1.901692 H 20.415111 V 43.07743 h -0.795817 z"
         style="fill:#d45500;stroke-width:0.26458332"
         id="path448"
         inkscape:connector-curvature="0" />
      <path
         d="m 23.820587,42.410804 v 2.568318 h -0.70969 v -1.682929 q -0.172255,0.130914 -0.334174,0.211873 -0.160197,0.08096 -0.403076,0.15503 v -0.575331 q 0.35829,-0.115411 0.556383,-0.27733 0.198093,-0.16192 0.310058,-0.399631 z"
         style="fill:#d45500;stroke-width:0.26458332"
         id="path450"
         inkscape:connector-curvature="0" />
    </g>
    <g
       aria-label="OUT2"
       style="font-style:normal;font-variant:normal;font-weight:normal;font-stretch:normal;font-size:3.52777767px;line-height:1.25;font-family:'Arial Black';-inkscape-font-specification:'Arial Black, Normal';font-variant-ligatures:normal;font-variant-caps:normal;font-variant-numeric:normal;font-feature-settings:normal;text-align:center;letter-spacing:0px;word-spacing:0px;writing-mode:lr-tb;text-anchor:middle;fill:#000000;fill-opacity:1;stroke:none;stroke-width:0.26458332"
       id="text383">
      <path
         d="m 13.631358,59.827077 q 0,-0.618394 0.344509,-0.962904 0.34451,-0.344509 0.959459,-0.344509 0.630453,0 0.971517,0.339341 0.341065,0.33762 0.341065,0.947402 0,0.442694 -0.149862,0.726915 -0.148139,0.282498 -0.430637,0.440972 -0.280775,0.156752 -0.701077,0.156752 -0.427192,0 -0.707967,-0.136081 -0.279053,-0.136082 -0.45303,-0.430637 -0.173977,-0.294556 -0.173977,-0.737251 z m 0.780314,0.0034 q 0,0.382406 0.141249,0.549493 0.142971,0.167087 0.387573,0.167087 0.251492,0 0.389296,-0.163642 0.137804,-0.163642 0.137804,-0.587389 0,-0.356567 -0.144694,-0.520209 -0.142972,-0.165365 -0.389296,-0.165365 -0.235989,0 -0.378961,0.167088 -0.142971,0.167087 -0.142971,0.552937 z"
         style="fill:#d45500;stroke-width:0.26458332"
         id="path435"
         inkscape:connector-curvature="0" />
      <path
         d="m 18.31152,58.562727 h 0.778591 v 1.505507 q 0,0.223931 -0.07062,0.423747 -0.0689,0.198093 -0.218764,0.347954 -0.148139,0.148139 -0.311781,0.208429 -0.227376,0.0844 -0.546047,0.0844 -0.184313,0 -0.403077,-0.02584 -0.217041,-0.02584 -0.363457,-0.10163 -0.146417,-0.07751 -0.268718,-0.218764 -0.120578,-0.141249 -0.165364,-0.29111 -0.07235,-0.241157 -0.07235,-0.427192 v -1.505507 h 0.778591 v 1.54168 q 0,0.206706 0.113689,0.323839 0.11541,0.115411 0.318671,0.115411 0.201538,0 0.315226,-0.113688 0.115411,-0.115411 0.115411,-0.325562 z"
         style="fill:#d45500;stroke-width:0.26458332"
         id="path437"
         inkscape:connector-curvature="0" />
      <path
         d="m 19.429453,58.562727 h 2.371948 v 0.623563 h -0.795817 v 1.901692 H 20.22527 V 59.18629 h -0.795817 z"
         style="fill:#d45500;stroke-width:0.26458332"
         id="path439"
         inkscape:connector-curvature="0" />
      <path
         d="m 24.094112,61.087982 h -2.104953 q 0.03617,-0.311781 0.218763,-0.585666 0.184313,-0.275608 0.689019,-0.649401 0.308336,-0.229098 0.394464,-0.347954 0.08613,-0.118856 0.08613,-0.225654 0,-0.115411 -0.08613,-0.19637 -0.08441,-0.08268 -0.213596,-0.08268 -0.134359,0 -0.220486,0.08441 -0.08441,0.0844 -0.113689,0.298001 l -0.702799,-0.05684 q 0.04134,-0.296278 0.151584,-0.461643 0.110243,-0.167087 0.310059,-0.254937 0.201538,-0.08957 0.556383,-0.08957 0.370347,0 0.575331,0.0844 0.206705,0.08441 0.323839,0.260105 0.118855,0.173977 0.118855,0.391018 0,0.230822 -0.136081,0.440973 -0.134359,0.21015 -0.490926,0.461642 -0.211873,0.146417 -0.28422,0.204984 -0.07063,0.05857 -0.167087,0.153306 h 1.09554 z"
         style="fill:#d45500;stroke-width:0.26458332"
         id="path441"
         inkscape:connector-curvature="0" />
    </g>
    <g
       aria-label="OUT3"
       style="font-style:normal;font-variant:normal;font-weight:normal;font-stretch:normal;font-size:3.52777767px;line-height:1.25;font-family:'Arial Black';-inkscape-font-specification:'Arial Black, Normal';font-variant-ligatures:normal;font-variant-caps:normal;font-variant-numeric:normal;font-feature-settings:normal;text-align:center;letter-spacing:0px;word-spacing:0px;writing-mode:lr-tb;text-anchor:middle;fill:#000000;fill-opacity:1;stroke:none;stroke-width:0.26458332"
       id="text387">
      <path
         d="m 13.556616,75.468213 q 0,-0.618394 0.34451,-0.962904 0.344509,-0.344509 0.959459,-0.344509 0.630452,0 0.971517,0.339342 0.341064,0.337619 0.341064,0.947401 0,0.442695 -0.149861,0.726915 -0.148139,0.282498 -0.430637,0.440972 -0.280775,0.156752 -0.701077,0.156752 -0.427192,0 -0.707967,-0.136081 -0.279053,-0.136081 -0.45303,-0.430637 -0.173978,-0.294556 -0.173978,-0.737251 z m 0.780315,0.0034 q 0,0.382405 0.141248,0.549492 0.142972,0.167087 0.387574,0.167087 0.251492,0 0.389295,-0.163642 0.137804,-0.163642 0.137804,-0.587388 0,-0.356568 -0.144694,-0.52021 -0.142971,-0.165364 -0.389296,-0.165364 -0.235989,0 -0.37896,0.167087 -0.142971,0.167087 -0.142971,0.552938 z"
         style="fill:#d45500;stroke-width:0.26458332"
         id="path426"
         inkscape:connector-curvature="0" />
      <path
         d="m 18.236778,74.203863 h 0.778592 v 1.505507 q 0,0.223931 -0.07062,0.423747 -0.0689,0.198093 -0.218764,0.347954 -0.148139,0.14814 -0.311781,0.208429 -0.227376,0.08441 -0.546048,0.08441 -0.184312,0 -0.403076,-0.02584 -0.217041,-0.02584 -0.363457,-0.10163 -0.146417,-0.07751 -0.268718,-0.218763 -0.120578,-0.141249 -0.165364,-0.291111 -0.07235,-0.241157 -0.07235,-0.427192 v -1.505507 h 0.778591 v 1.541681 q 0,0.206705 0.113688,0.323839 0.115411,0.11541 0.318672,0.11541 0.201538,0 0.315226,-0.113688 0.11541,-0.115411 0.11541,-0.325561 z"
         style="fill:#d45500;stroke-width:0.26458332"
         id="path428"
         inkscape:connector-curvature="0" />
      <path
         d="m 19.354712,74.203863 h 2.371948 v 0.623563 h -0.795817 v 1.901692 h -0.780314 v -1.901692 h -0.795817 z"
         style="fill:#d45500;stroke-width:0.26458332"
         id="path430"
         inkscape:connector-curvature="0" />
      <path
         d="m 22.6465,74.934224 -0.663181,-0.118856 q 0.08268,-0.316949 0.316949,-0.485759 0.235989,-0.168809 0.666626,-0.168809 0.494371,0 0.714857,0.184312 0.220486,0.184313 0.220486,0.463366 0,0.163642 -0.08957,0.296278 -0.08957,0.132636 -0.27044,0.232544 0.146416,0.03617 0.223931,0.08441 0.125746,0.07751 0.194648,0.204983 0.07062,0.125746 0.07062,0.301446 0,0.220486 -0.11541,0.423746 -0.115411,0.201538 -0.332452,0.311782 -0.217041,0.10852 -0.570163,0.10852 -0.34451,0 -0.544325,-0.08096 -0.198093,-0.08096 -0.327284,-0.235989 -0.127469,-0.156752 -0.196371,-0.392741 l 0.701077,-0.09302 q 0.04134,0.211873 0.127469,0.294555 0.08785,0.08096 0.222208,0.08096 0.141249,0 0.234267,-0.103353 0.09474,-0.103353 0.09474,-0.275607 0,-0.1757 -0.09129,-0.272163 -0.08957,-0.09646 -0.244602,-0.09646 -0.08268,0 -0.227376,0.04134 l 0.03617,-0.501262 q 0.05857,0.0086 0.0913,0.0086 0.137804,0 0.229099,-0.08785 0.09302,-0.08785 0.09302,-0.208428 0,-0.115411 -0.0689,-0.184313 -0.0689,-0.0689 -0.189481,-0.0689 -0.124023,0 -0.201538,0.07579 -0.07751,0.07407 -0.105075,0.261828 z"
         style="fill:#d45500;stroke-width:0.26458332"
         id="path432"
         inkscape:connector-curvature="0" />
    </g>
    <g
       aria-label="B"
       style="font-style:normal;font-variant:normal;font-weight:normal;font-stretch:normal;font-size:3.52777767px;line-height:1.25;font-family:'Arial Black';-inkscape-font-specification:'Arial Black, Normal';font-variant-ligatures:normal;font-variant-caps:normal;font-variant-numeric:normal;font-feature-settings:normal;text-align:center;letter-spacing:0px;word-spacing:0px;writing-mode:lr-tb;text-anchor:middle;fill:#000000;fill-opacity:1;stroke:none;stroke-width:0.26458332"
       id="text93">
      <path
         d="m 11.135046,-22.569431 h 1.46072 q 0.36518,0 0.559828,0.180867 0.19637,0.180868 0.19637,0.447863 0,0.223931 -0.139526,0.384128 -0.09302,0.106798 -0.272162,0.16881 0.272162,0.06546 0.399631,0.225653 0.129191,0.158475 0.129191,0.399632 0,0.19637 -0.0913,0.353122 -0.0913,0.156752 -0.24977,0.248047 -0.09819,0.05684 -0.296278,0.08268 -0.26355,0.03445 -0.349677,0.03445 h -1.347032 z m 0.787204,0.990465 h 0.339342 q 0.18259,0 0.253214,-0.06201 0.07235,-0.06373 0.07235,-0.18259 0,-0.110243 -0.07235,-0.172255 -0.07062,-0.06201 -0.248047,-0.06201 H 11.92225 Z m 0,0.992187 h 0.397908 q 0.201539,0 0.284221,-0.07062 0.08268,-0.07235 0.08268,-0.192925 0,-0.111966 -0.08268,-0.179145 -0.08096,-0.0689 -0.285943,-0.0689 H 11.92225 Z"
         style="stroke-width:0.26458332"
         id="path95"
         inkscape:connector-curvature="0" />
    </g>
  </g>
</svg>
