<?xml version="1.0" encoding="UTF-8" standalone="no"?>
<!-- Created with Inkscape (http://www.inkscape.org/) -->

<svg
   xmlns:dc="http://purl.org/dc/elements/1.1/"
   xmlns:cc="http://creativecommons.org/ns#"
   xmlns:rdf="http://www.w3.org/1999/02/22-rdf-syntax-ns#"
   xmlns:svg="http://www.w3.org/2000/svg"
   xmlns="http://www.w3.org/2000/svg"
   xmlns:sodipodi="http://sodipodi.sourceforge.net/DTD/sodipodi-0.dtd"
   xmlns:inkscape="http://www.inkscape.org/namespaces/inkscape"
   width="15.24mm"
   height="128.54166mm"
   viewBox="0 0 15.24 128.5417"
   version="1.1"
   id="svg4541"
   sodipodi:docname="D.svg"
   inkscape:version="0.92.5 (2060ec1f9f, 2020-04-08)">
  <defs
     id="defs4535" />
  <sodipodi:namedview
     id="base"
     pagecolor="#ffffff"
     bordercolor="#666666"
     borderopacity="1.0"
     inkscape:pageopacity="0.0"
     inkscape:pageshadow="2"
     inkscape:zoom="2.8284271"
     inkscape:cx="13.26483"
     inkscape:cy="232.08905"
     inkscape:document-units="mm"
     inkscape:current-layer="layer4"
     showgrid="true"
     fit-margin-top="0"
     fit-margin-left="0"
     fit-margin-right="0"
     fit-margin-bottom="0"
     inkscape:window-width="1600"
     inkscape:window-height="845"
     inkscape:window-x="0"
     inkscape:window-y="0"
     inkscape:window-maximized="1"
     units="mm">
    <inkscape:grid
       type="xygrid"
       id="grid76" />
  </sodipodi:namedview>
  <metadata
     id="metadata4538">
    <rdf:RDF>
      <cc:Work
         rdf:about="">
        <dc:format>image/svg+xml</dc:format>
        <dc:type
           rdf:resource="http://purl.org/dc/dcmitype/StillImage" />
        <dc:title />
      </cc:Work>
    </rdf:RDF>
  </metadata>
  <g
     inkscape:groupmode="layer"
     id="layer1"
     inkscape:label="Background"
     style="display:inline;opacity:1">
    <rect
       style="fill:#ffffff;stroke-width:0.21715553"
       id="rect111"
       width="15.610416"
       height="128.32292"
       x="0"
       y="0.21873982" />
    <text
       xml:space="preserve"
       style="font-style:normal;font-variant:normal;font-weight:normal;font-stretch:normal;font-size:3.52777767px;line-height:1.25;font-family:'Arial Black';-inkscape-font-specification:'Arial Black, Normal';font-variant-ligatures:normal;font-variant-caps:normal;font-variant-numeric:normal;font-feature-settings:normal;text-align:center;letter-spacing:0px;word-spacing:0px;writing-mode:lr-tb;text-anchor:middle;fill:#000000;fill-opacity:1;stroke:none;stroke-width:0.26458332"
       x="17.197916"
       y="120.60415"
       id="text168"><tspan
         sodipodi:role="line"
         id="tspan166"
         x="17.197916"
         y="123.76708"
         style="stroke-width:0.26458332" /></text>
    <g
       aria-label="ERR"
       style="font-style:normal;font-variant:normal;font-weight:normal;font-stretch:normal;font-size:3.52777767px;line-height:1.25;font-family:'Arial Black';-inkscape-font-specification:'Arial Black, Normal';font-variant-ligatures:normal;font-variant-caps:normal;font-variant-numeric:normal;font-feature-settings:normal;text-align:center;letter-spacing:0px;word-spacing:0px;writing-mode:lr-tb;text-anchor:middle;fill:#000000;fill-opacity:1;stroke:none;stroke-width:0.26458332"
       id="text48">
      <path
         d="m 4.3473596,100.16472 h 2.0911729 v 0.53915 H 5.1293962 v 0.40136 h 1.2143961 v 0.51504 H 5.1293962 v 0.49782 h 1.3470323 v 0.57188 H 4.3473596 Z"
         style="fill:#ff0000;stroke-width:0.26458332"
         id="path61" />
      <path
         d="m 6.9070653,102.68997 v -2.52525 h 1.3005236 q 0.361735,0 0.5529378,0.062 0.1912028,0.062 0.308336,0.23082 0.1171332,0.16709 0.1171332,0.40824 0,0.21015 -0.089572,0.36346 -0.089573,0.15159 -0.2463244,0.24633 -0.099908,0.0603 -0.273885,0.0999 0.1395263,0.0465 0.2032606,0.093 0.043064,0.031 0.1240234,0.13264 0.082682,0.10163 0.1102431,0.15675 l 0.3772379,0.73208 H 8.5090347 l -0.4168565,-0.7717 q -0.079237,-0.14986 -0.141249,-0.19465 -0.084405,-0.0586 -0.1912027,-0.0586 h -0.068902 v 1.02491 z m 0.7837592,-1.50206 h 0.3290067 q 0.053399,0 0.2067057,-0.0345 0.077515,-0.0155 0.125746,-0.0792 0.049954,-0.0637 0.049954,-0.14641 0,-0.12231 -0.077515,-0.18776 -0.077515,-0.0655 -0.2911106,-0.0655 h -0.342787 z"
         style="fill:#ff0000;stroke-width:0.26458332"
         id="path63" />
      <path
         d="m 9.6510839,102.68997 v -2.52525 h 1.3005231 q 0.361735,0 0.552938,0.062 0.191203,0.062 0.308336,0.23082 0.117133,0.16709 0.117133,0.40824 0,0.21015 -0.08957,0.36346 -0.08957,0.15159 -0.246324,0.24633 -0.09991,0.0603 -0.273885,0.0999 0.139526,0.0465 0.20326,0.093 0.04306,0.031 0.124024,0.13264 0.08268,0.10163 0.110243,0.15675 l 0.377238,0.73208 h -0.881945 l -0.416856,-0.7717 q -0.07924,-0.14986 -0.141249,-0.19465 -0.08441,-0.0586 -0.191203,-0.0586 h -0.0689 v 1.02491 z m 0.7837591,-1.50206 h 0.329007 q 0.0534,0 0.206705,-0.0345 0.07752,-0.0155 0.125746,-0.0792 0.04995,-0.0637 0.04995,-0.14641 0,-0.12231 -0.07751,-0.18776 -0.07752,-0.0655 -0.291111,-0.0655 h -0.342787 z"
         style="fill:#ff0000;stroke-width:0.26458332"
         id="path65" />
    </g>
    <g
       aria-label="CVdB"
       style="font-style:normal;font-variant:normal;font-weight:normal;font-stretch:normal;font-size:3.52777767px;line-height:1.25;font-family:'Arial Black';-inkscape-font-specification:'Arial Black, Normal';font-variant-ligatures:normal;font-variant-caps:normal;font-variant-numeric:normal;font-feature-settings:normal;text-align:center;letter-spacing:0px;word-spacing:0px;writing-mode:lr-tb;text-anchor:middle;fill:#008000;fill-opacity:1;stroke:none;stroke-width:0.26458332"
       id="text70">
      <path
         d="m 4.8491407,81.207765 0.6838514,0.206705 q -0.068902,0.287666 -0.217041,0.480591 -0.1481391,0.192925 -0.3686252,0.291111 -0.2187635,0.09819 -0.5581054,0.09819 -0.4116889,0 -0.6735162,-0.118856 -0.2601047,-0.120578 -0.4495849,-0.422024 -0.1894803,-0.301446 -0.1894803,-0.771701 0,-0.627008 0.3324517,-0.962905 0.3341743,-0.337619 0.9439562,-0.337619 0.4771457,0 0.7493082,0.192925 0.2738851,0.192926 0.4065213,0.592557 l -0.6890191,0.153307 q -0.036174,-0.115411 -0.075792,-0.16881 -0.065457,-0.08957 -0.160197,-0.137804 -0.09474,-0.04823 -0.2118733,-0.04823 -0.2652724,0 -0.4065213,0.213596 -0.1067979,0.158474 -0.1067979,0.497816 0,0.420302 0.1274685,0.577053 0.1274685,0.15503 0.3582899,0.15503 0.2239312,0 0.3376194,-0.125746 0.1154107,-0.125746 0.1670871,-0.36518 z"
         style="fill:#008000;stroke-width:0.26458332"
         id="path85" />
      <path
         d="m 5.6621833,79.714316 h 0.8164876 l 0.5684407,1.817288 0.559828,-1.817288 h 0.792372 l -0.937066,2.525255 H 6.6164747 Z"
         style="fill:#008000;stroke-width:0.26458332"
         id="path87" />
      <path
         d="m 10.535271,79.714316 v 2.525255 H 9.8789801 v -0.27044 q -0.1378038,0.172254 -0.2514919,0.232544 -0.1515842,0.07924 -0.3376194,0.07924 -0.3737928,0 -0.5718858,-0.284221 -0.1963705,-0.28422 -0.1963705,-0.690741 0,-0.454753 0.217041,-0.695909 0.2187636,-0.241157 0.5546604,-0.241157 0.163642,0 0.2962782,0.05512 0.1343587,0.05512 0.2377116,0.165365 V 79.714316 Z M 9.8324713,81.31973 q 0,-0.215318 -0.091295,-0.320394 -0.091295,-0.106798 -0.2308214,-0.106798 -0.1223009,0 -0.2049832,0.101631 -0.082682,0.10163 -0.082682,0.341064 0,0.223931 0.084405,0.329007 0.086127,0.103353 0.2118733,0.103353 0.1343588,0 0.2239312,-0.105076 0.089572,-0.105075 0.089572,-0.342787 z"
         style="fill:#008000;stroke-width:0.26458332"
         id="path89" />
      <path
         d="m 11.010694,79.714316 h 1.46072 q 0.365181,0 0.559828,0.180867 0.196371,0.180868 0.196371,0.447863 0,0.223931 -0.139527,0.384128 -0.09302,0.106798 -0.272162,0.168809 0.272162,0.06546 0.399631,0.225654 0.129191,0.158475 0.129191,0.399631 0,0.196371 -0.0913,0.353123 -0.0913,0.156751 -0.249769,0.248046 -0.09819,0.05684 -0.296279,0.08268 -0.263549,0.03445 -0.349677,0.03445 h -1.347032 z m 0.787204,0.990465 h 0.339342 q 0.18259,0 0.253215,-0.06201 0.07235,-0.06373 0.07235,-0.18259 0,-0.110243 -0.07235,-0.172255 -0.07062,-0.06201 -0.248047,-0.06201 h -0.34451 z m 0,0.992187 h 0.397909 q 0.201538,0 0.28422,-0.07062 0.08268,-0.07235 0.08268,-0.192926 0,-0.111965 -0.08268,-0.179145 -0.08096,-0.0689 -0.285943,-0.0689 h -0.396186 z"
         style="fill:#008000;stroke-width:0.26458332"
         id="path91" />
    </g>
    <g
       aria-label="dB"
       style="font-style:normal;font-variant:normal;font-weight:normal;font-stretch:normal;font-size:3.52777767px;line-height:1.25;font-family:'Arial Black';-inkscape-font-specification:'Arial Black, Normal';font-variant-ligatures:normal;font-variant-caps:normal;font-variant-numeric:normal;font-feature-settings:normal;text-align:center;letter-spacing:0px;word-spacing:0px;writing-mode:lr-tb;text-anchor:middle;fill:#000000;fill-opacity:1;stroke:none;stroke-width:0.26458332"
       id="text96">
      <path
         d="m 7.7912521,23.358069 v 2.525255 H 7.1349615 v -0.27044 q -0.1378038,0.172254 -0.251492,0.232544 -0.1515842,0.07924 -0.3376193,0.07924 -0.3737929,0 -0.5718859,-0.284221 -0.1963704,-0.28422 -0.1963704,-0.690741 0,-0.454753 0.217041,-0.695909 0.2187636,-0.241157 0.5546604,-0.241157 0.163642,0 0.2962782,0.05512 0.1343587,0.05512 0.2377115,0.165365 v -0.875054 z m -0.7027994,1.605414 q 0,-0.215318 -0.091295,-0.320394 -0.091295,-0.106798 -0.2308214,-0.106798 -0.1223009,0 -0.2049832,0.101631 -0.082682,0.10163 -0.082682,0.341064 0,0.223931 0.084405,0.329007 0.086127,0.103353 0.2118734,0.103353 0.1343587,0 0.2239312,-0.105076 0.089573,-0.105075 0.089573,-0.342787 z"
         style="stroke-width:0.26458332"
         id="path111" />
      <path
         d="m 8.2666753,23.358069 h 1.4607205 q 0.3651802,0 0.5598282,0.180867 0.19637,0.180868 0.19637,0.447863 0,0.223931 -0.139526,0.384128 -0.09302,0.106798 -0.272163,0.168809 0.272163,0.06546 0.399631,0.225654 0.129191,0.158475 0.129191,0.399631 0,0.196371 -0.09129,0.353123 -0.0913,0.156751 -0.249769,0.248046 -0.09818,0.05684 -0.2962782,0.08268 -0.2635498,0.03445 -0.3496772,0.03445 H 8.2666753 Z m 0.7872043,0.990465 h 0.3393419 q 0.1825901,0 0.2532145,-0.06201 0.072347,-0.06373 0.072347,-0.18259 0,-0.110243 -0.072347,-0.172255 -0.070624,-0.06201 -0.2480468,-0.06201 H 9.0538796 Z m 0,0.992187 h 0.3979085 q 0.2015381,0 0.2842204,-0.07062 0.082682,-0.07235 0.082682,-0.192926 0,-0.111965 -0.082682,-0.179145 -0.08096,-0.0689 -0.2859429,-0.0689 h -0.396186 z"
         style="stroke-width:0.26458332"
         id="path113" />
    </g>
    <g
       aria-label="CVdB"
       style="font-style:normal;font-variant:normal;font-weight:normal;font-stretch:normal;font-size:3.52777767px;line-height:1.25;font-family:'Arial Black';-inkscape-font-specification:'Arial Black, Normal';font-variant-ligatures:normal;font-variant-caps:normal;font-variant-numeric:normal;font-feature-settings:normal;text-align:center;letter-spacing:0px;word-spacing:0px;writing-mode:lr-tb;text-anchor:middle;fill:#000000;fill-opacity:1;stroke:none;stroke-width:0.26458332"
       id="text118">
      <path
         d="m 4.8491455,43.636933 0.6838514,0.206706 q -0.068902,0.287665 -0.217041,0.480591 -0.1481391,0.192925 -0.3686252,0.29111 -0.2187636,0.09819 -0.5581055,0.09819 -0.4116889,0 -0.6735161,-0.118856 Q 3.4556044,44.474091 3.2661241,44.172646 3.0766439,43.8712 3.0766439,43.400944 q 0,-0.627007 0.3324517,-0.962904 0.3341742,-0.337619 0.9439561,-0.337619 0.4771457,0 0.7493083,0.192925 0.2738851,0.192925 0.4065212,0.592556 l -0.6890191,0.153307 q -0.036174,-0.11541 -0.075792,-0.168809 -0.065457,-0.08957 -0.160197,-0.137804 -0.09474,-0.04823 -0.2118734,-0.04823 -0.2652723,0 -0.4065212,0.213596 -0.106798,0.158475 -0.106798,0.497817 0,0.420301 0.1274686,0.577053 0.1274685,0.155029 0.3582899,0.155029 0.2239312,0 0.3376193,-0.125746 0.1154107,-0.125746 0.1670872,-0.36518 z"
         style="stroke-width:0.26458332"
         id="path133" />
      <path
         d="m 5.6621881,42.143484 h 0.8164876 l 0.5684407,1.817288 0.559828,-1.817288 H 8.3993163 L 7.4622504,44.668739 H 6.6164795 Z"
         style="stroke-width:0.26458332"
         id="path135" />
      <path
         d="m 10.535276,42.143484 v 2.525255 H 9.8789849 v -0.27044 q -0.1378038,0.172255 -0.251492,0.232544 -0.1515842,0.07924 -0.3376193,0.07924 -0.3737929,0 -0.5718859,-0.28422 -0.1963704,-0.28422 -0.1963704,-0.690742 0,-0.454752 0.217041,-0.695909 0.2187636,-0.241156 0.5546604,-0.241156 0.163642,0 0.2962782,0.05512 0.1343587,0.05512 0.2377116,0.165365 v -0.875055 z m -0.7027999,1.605415 q 0,-0.215319 -0.091295,-0.320394 -0.091295,-0.106798 -0.2308214,-0.106798 -0.1223009,0 -0.2049832,0.10163 -0.082682,0.101631 -0.082682,0.341065 0,0.223931 0.084405,0.329006 0.086127,0.103353 0.2118733,0.103353 0.1343587,0 0.2239312,-0.105075 0.089572,-0.105076 0.089572,-0.342787 z"
         style="stroke-width:0.26458332"
         id="path137" />
      <path
         d="m 11.010699,42.143484 h 1.46072 q 0.36518,0 0.559828,0.180868 0.196371,0.180867 0.196371,0.447862 0,0.223932 -0.139527,0.384128 -0.09302,0.106798 -0.272162,0.16881 0.272162,0.06546 0.399631,0.225654 0.129191,0.158474 0.129191,0.399631 0,0.19637 -0.0913,0.353122 -0.0913,0.156752 -0.24977,0.248047 -0.09819,0.05684 -0.296278,0.08268 -0.26355,0.03445 -0.349677,0.03445 h -1.347032 z m 0.787204,0.990465 h 0.339342 q 0.18259,0 0.253214,-0.06201 0.07235,-0.06374 0.07235,-0.18259 0,-0.110243 -0.07235,-0.172255 -0.07062,-0.06201 -0.248046,-0.06201 h -0.34451 z m 0,0.992188 h 0.397909 q 0.201538,0 0.28422,-0.07062 0.08268,-0.07235 0.08268,-0.192925 0,-0.111966 -0.08268,-0.179145 -0.08096,-0.0689 -0.285943,-0.0689 h -0.396186 z"
         style="stroke-width:0.26458332"
         id="path139" />
    </g>
    <g
       aria-label=";D"
       transform="rotate(90)"
       style="font-style:normal;font-variant:normal;font-weight:normal;font-stretch:normal;font-size:3.52777767px;line-height:1.25;font-family:'Arial Black';-inkscape-font-specification:'Arial Black, Normal';font-variant-ligatures:normal;font-variant-caps:normal;font-variant-numeric:normal;font-feature-settings:normal;text-align:center;letter-spacing:0px;word-spacing:0px;writing-mode:lr-tb;text-anchor:middle;fill:#000000;fill-opacity:1;stroke:none;stroke-width:0.26458332"
       id="text144">
      <path
         d="m 7.3879317,-13.093585 h 0.7493082 v 0.702799 H 7.3879317 Z m 0,1.133436 h 0.7493082 v 0.577054 q 0,0.318671 -0.1326362,0.502984 -0.1326361,0.184312 -0.45303,0.325561 l -0.163642,-0.306613 q 0.1998155,-0.09302 0.273885,-0.186035 0.075792,-0.0913 0.084405,-0.217041 H 7.3879317 Z"
         style="stroke-width:0.26458332"
         id="path146" />
      <path
         d="m 8.6178307,-13.789494 h 1.1592746 q 0.3427867,0 0.5529377,0.09302 0.211873,0.09302 0.349677,0.266995 0.137804,0.173978 0.199816,0.404799 0.06201,0.230821 0.06201,0.489203 0,0.404799 -0.09302,0.62873 -0.0913,0.222209 -0.254937,0.373793 -0.163642,0.149862 -0.3514,0.199816 -0.2566594,0.0689 -0.4650877,0.0689 H 8.6178307 Z m 0.7803141,0.571886 v 1.37976 h 0.1912028 q 0.2446018,0 0.3479546,-0.0534 0.1033528,-0.05512 0.1619198,-0.18948 0.05857,-0.136081 0.05857,-0.43925 0,-0.401353 -0.130913,-0.549492 -0.1309139,-0.148139 -0.4340823,-0.148139 z"
         style="stroke-width:0.26458332"
         id="path148" />
    </g>
  </g>
  <g
     inkscape:groupmode="layer"
     id="layer4"
     inkscape:label="graphics"
     transform="translate(0,28.00003)"
     style="display:inline">
    <text
       xml:space="preserve"
       style="font-style:normal;font-variant:normal;font-weight:normal;font-stretch:normal;font-size:4.58611107px;line-height:1.25;font-family:'Arial Black';-inkscape-font-specification:'Arial Black, Normal';font-variant-ligatures:normal;font-variant-caps:normal;font-variant-numeric:normal;text-align:center;letter-spacing:0px;word-spacing:0px;writing-mode:lr-tb;text-anchor:middle;fill:#000000;fill-opacity:1;stroke:none;stroke-width:0.26458332"
       x="11.90625"
       y="-21.166708"
       id="text115"><tspan
         sodipodi:role="line"
         id="tspan113"
         x="11.90625"
         y="-17.054897"
         style="stroke-width:0.26458332" /></text>
    <g
       aria-label="KRT"
       style="font-style:normal;font-variant:normal;font-weight:normal;font-stretch:normal;font-size:3.52777767px;line-height:1.25;font-family:'Arial Black';-inkscape-font-specification:'Arial Black, Normal';font-variant-ligatures:normal;font-variant-caps:normal;font-variant-numeric:normal;font-feature-settings:normal;text-align:center;letter-spacing:0px;word-spacing:0px;writing-mode:lr-tb;text-anchor:middle;fill:#0000ff;fill-opacity:1;stroke:none;stroke-width:0.26458332"
       id="text123"
       transform="translate(-12.170835,-117.47517)">
      <path
         d="m 14.418414,95.635115 h 0.780314 v 0.954291 l 0.81821,-0.954291 h 1.036974 l -0.91984,0.952569 0.961181,1.572686 h -0.961181 l -0.532268,-1.038696 -0.403076,0.422024 v 0.616672 h -0.780314 z"
         style="fill:#0000ff;stroke-width:0.26458332"
         id="path227"
         inkscape:connector-curvature="0" />
      <path
         d="m 17.363971,98.16037 v -2.525255 h 1.300523 q 0.361735,0 0.552938,0.06201 0.191203,0.06201 0.308336,0.230821 0.117133,0.167087 0.117133,0.408244 0,0.210151 -0.08957,0.363457 -0.08957,0.151585 -0.246325,0.246325 -0.09991,0.06029 -0.273885,0.09991 0.139527,0.04651 0.203261,0.09302 0.04306,0.03101 0.124023,0.132636 0.08268,0.101631 0.110243,0.156752 l 0.377238,0.732083 H 18.96594 l -0.416857,-0.771701 q -0.07924,-0.149862 -0.141248,-0.194648 -0.08441,-0.05857 -0.191203,-0.05857 h -0.0689 v 1.024916 z m 0.783759,-1.502062 h 0.329006 q 0.0534,0 0.206706,-0.03445 0.07752,-0.0155 0.125746,-0.07924 0.04995,-0.06373 0.04995,-0.146416 0,-0.122301 -0.07751,-0.187758 -0.07751,-0.06546 -0.29111,-0.06546 H 18.14773 Z"
         style="fill:#0000ff;stroke-width:0.26458332"
         id="path229"
         inkscape:connector-curvature="0" />
      <path
         d="m 19.889226,95.635115 h 2.371948 v 0.623562 h -0.795817 v 1.901693 h -0.780314 v -1.901693 h -0.795817 z"
         style="fill:#0000ff;stroke-width:0.26458332"
         id="path231"
         inkscape:connector-curvature="0" />
    </g>
    <g
       aria-label="μ"
       style="font-style:normal;font-variant:normal;font-weight:normal;font-stretch:normal;font-size:3.52777767px;line-height:1.25;font-family:'Arial Black';-inkscape-font-specification:'Arial Black, Normal';font-variant-ligatures:normal;font-variant-caps:normal;font-variant-numeric:normal;font-feature-settings:normal;text-align:center;letter-spacing:0px;word-spacing:0px;writing-mode:lr-tb;text-anchor:middle;fill:#000000;fill-opacity:1;stroke:none;stroke-width:0.26458332"
       id="text107" />
    <g
       aria-label="IN"
       style="font-style:normal;font-variant:normal;font-weight:normal;font-stretch:normal;font-size:3.52777767px;line-height:1.25;font-family:'Arial Black';-inkscape-font-specification:'Arial Black, Normal';font-variant-ligatures:normal;font-variant-caps:normal;font-variant-numeric:normal;font-feature-settings:normal;text-align:center;letter-spacing:0px;word-spacing:0px;writing-mode:lr-tb;text-anchor:middle;fill:#008000;fill-opacity:1;stroke:none;stroke-width:0.26458332"
       id="text95">
      <path
         d="M 5.8065393,32.664286 H 6.588576 v 2.525255 H 5.8065393 Z"
         style="fill:#008000;stroke-width:0.26458332"
         id="path175" />
      <path
         d="m 7.1535717,32.664286 h 0.7286376 l 0.9508464,1.396986 v -1.396986 h 0.7355278 v 2.525255 H 8.8330557 L 7.887377,33.80289 v 1.386651 H 7.1535717 Z"
         style="fill:#008000;stroke-width:0.26458332"
         id="path177" />
    </g>
    <g
       aria-label="OUT"
       style="font-style:normal;font-variant:normal;font-weight:normal;font-stretch:normal;font-size:3.52777767px;line-height:1.25;font-family:'Arial Black';-inkscape-font-specification:'Arial Black, Normal';font-variant-ligatures:normal;font-variant-caps:normal;font-variant-numeric:normal;font-feature-settings:normal;text-align:center;letter-spacing:0px;word-spacing:0px;writing-mode:lr-tb;text-anchor:middle;fill:#000000;fill-opacity:1;stroke:none;stroke-width:0.26458332"
       id="text142">
      <path
         d="m 3.885208,92.401548 q 0,-0.618395 0.3445095,-0.962904 0.3445096,-0.34451 0.9594591,-0.34451 0.6304524,0 0.9715169,0.339342 0.3410644,0.337619 0.3410644,0.947401 0,0.442695 -0.1498616,0.726915 -0.1481391,0.282498 -0.4306369,0.440973 -0.2807753,0.156751 -0.701077,0.156751 -0.4271918,0 -0.7079671,-0.136081 Q 4.2331626,93.433354 4.0591853,93.138798 3.885208,92.844243 3.885208,92.401548 Z m 0.7803141,0.0034 q 0,0.382405 0.1412489,0.549493 0.1429715,0.167087 0.3875732,0.167087 0.251492,0 0.3892958,-0.163642 0.1378038,-0.163642 0.1378038,-0.587389 0,-0.356567 -0.144694,-0.520209 -0.1429714,-0.165365 -0.3892958,-0.165365 -0.235989,0 -0.3789605,0.167087 -0.1429714,0.167087 -0.1429714,0.552938 z"
         style="fill:#ff0000;stroke-width:0.26458332"
         id="path154" />
      <path
         d="m 8.56537,91.137198 h 0.7785916 v 1.505506 q 0,0.223932 -0.070624,0.423747 -0.068902,0.198093 -0.2187635,0.347955 -0.1481391,0.148139 -0.3117811,0.208428 -0.2273763,0.08441 -0.5460477,0.08441 -0.1843126,0 -0.4030761,-0.02584 Q 7.5766277,93.655563 7.4302111,93.57977 7.2837946,93.502256 7.1614937,93.361007 7.0409153,93.219758 6.9961291,93.069896 6.9237821,92.82874 6.9237821,92.642704 v -1.505506 h 0.7785916 v 1.54168 q 0,0.206706 0.1136881,0.323839 0.1154107,0.115411 0.3186713,0.115411 0.2015381,0 0.3152263,-0.113689 Q 8.56537,92.889029 8.56537,92.678878 Z"
         style="fill:#ff0000;stroke-width:0.26458332"
         id="path156" />
      <path
         d="m 9.6833035,91.137198 h 2.3719485 v 0.623562 h -0.795817 v 1.901693 H 10.479121 V 91.76076 H 9.6833035 Z"
         style="fill:#ff0000;stroke-width:0.26458332"
         id="path158" />
    </g>
  </g>
</svg>
