<?xml version="1.0" encoding="UTF-8" standalone="no"?>
<!-- Created with Inkscape (http://www.inkscape.org/) -->

<svg
   xmlns:dc="http://purl.org/dc/elements/1.1/"
   xmlns:cc="http://creativecommons.org/ns#"
   xmlns:rdf="http://www.w3.org/1999/02/22-rdf-syntax-ns#"
   xmlns:svg="http://www.w3.org/2000/svg"
   xmlns="http://www.w3.org/2000/svg"
   xmlns:sodipodi="http://sodipodi.sourceforge.net/DTD/sodipodi-0.dtd"
   xmlns:inkscape="http://www.inkscape.org/namespaces/inkscape"
   width="15.24mm"
   height="128.54166mm"
   viewBox="0 0 15.24 128.5417"
   version="1.1"
   id="svg4541"
   sodipodi:docname="E.svg"
   inkscape:version="0.92.5 (2060ec1f9f, 2020-04-08)">
  <defs
     id="defs4535" />
  <sodipodi:namedview
     id="base"
     pagecolor="#ffffff"
     bordercolor="#666666"
     borderopacity="1.0"
     inkscape:pageopacity="0.0"
     inkscape:pageshadow="2"
     inkscape:zoom="5.6568542"
     inkscape:cx="44.356644"
     inkscape:cy="49.002469"
     inkscape:document-units="mm"
     inkscape:current-layer="layer1"
     showgrid="true"
     fit-margin-top="0"
     fit-margin-left="0"
     fit-margin-right="0"
     fit-margin-bottom="0"
     inkscape:window-width="1600"
     inkscape:window-height="845"
     inkscape:window-x="0"
     inkscape:window-y="0"
     inkscape:window-maximized="1"
     units="mm">
    <inkscape:grid
       type="xygrid"
       id="grid76" />
  </sodipodi:namedview>
  <metadata
     id="metadata4538">
    <rdf:RDF>
      <cc:Work
         rdf:about="">
        <dc:format>image/svg+xml</dc:format>
        <dc:type
           rdf:resource="http://purl.org/dc/dcmitype/StillImage" />
        <dc:title></dc:title>
      </cc:Work>
    </rdf:RDF>
  </metadata>
  <g
     inkscape:groupmode="layer"
     id="layer1"
     inkscape:label="Background"
     style="display:inline;opacity:1">
    <rect
       style="fill:#b3b3b3;stroke-width:0.21530737"
       id="rect111"
       width="15.345834"
       height="128.32292"
       x="0"
       y="0.21873982" />
    <g
       aria-label="OUT"
       style="font-style:normal;font-variant:normal;font-weight:normal;font-stretch:normal;font-size:3.52777767px;line-height:1.25;font-family:'Arial Black';-inkscape-font-specification:'Arial Black, Normal';font-variant-ligatures:normal;font-variant-caps:normal;font-variant-numeric:normal;font-feature-settings:normal;text-align:center;letter-spacing:0px;word-spacing:0px;writing-mode:lr-tb;text-anchor:middle;fill:#ff0000;fill-opacity:1;stroke:none;stroke-width:0.26458332"
       id="text413"
       transform="translate(-11.40654,0.14399983)">
      <path
         d="m 15.262289,120.40156 q 0,-0.61839 0.34451,-0.9629 0.344509,-0.34451 0.959459,-0.34451 0.630452,0 0.971517,0.33934 0.341064,0.33762 0.341064,0.9474 0,0.4427 -0.149861,0.72692 -0.148139,0.2825 -0.430637,0.44097 -0.280776,0.15675 -0.701077,0.15675 -0.427192,0 -0.707967,-0.13608 -0.279053,-0.13608 -0.45303,-0.43064 -0.173978,-0.29455 -0.173978,-0.73725 z m 0.780314,0.003 q 0,0.3824 0.141249,0.54949 0.142972,0.16709 0.387574,0.16709 0.251492,0 0.389295,-0.16364 0.137804,-0.16365 0.137804,-0.58739 0,-0.35657 -0.144694,-0.52021 -0.142971,-0.16537 -0.389296,-0.16537 -0.235989,0 -0.37896,0.16709 -0.142972,0.16709 -0.142972,0.55294 z"
         style="fill:#ff0000;stroke-width:0.26458332"
         id="path437"
         inkscape:connector-curvature="0" />
      <path
         d="m 19.942451,119.13721 h 0.778592 v 1.50551 q 0,0.22393 -0.07062,0.42375 -0.0689,0.19809 -0.218764,0.34795 -0.148139,0.14814 -0.311781,0.20843 -0.227376,0.0844 -0.546048,0.0844 -0.184312,0 -0.403076,-0.0258 -0.217041,-0.0258 -0.363457,-0.10163 -0.146417,-0.0775 -0.268718,-0.21877 -0.120578,-0.14125 -0.165365,-0.29111 -0.07235,-0.24116 -0.07235,-0.42719 v -1.50551 h 0.778592 v 1.54168 q 0,0.20671 0.113688,0.32384 0.115411,0.11541 0.318672,0.11541 0.201538,0 0.315226,-0.11369 0.11541,-0.11541 0.11541,-0.32556 z"
         style="fill:#ff0000;stroke-width:0.26458332"
         id="path439"
         inkscape:connector-curvature="0" />
      <path
         d="m 21.060385,119.13721 h 2.371948 v 0.62357 h -0.795817 v 1.90169 h -0.780314 v -1.90169 h -0.795817 z"
         style="fill:#ff0000;stroke-width:0.26458332"
         id="path441"
         inkscape:connector-curvature="0" />
    </g>
  </g>
  <g
     inkscape:groupmode="layer"
     id="layer4"
     inkscape:label="graphics"
     transform="translate(0,28.00003)"
     style="display:inline">
    <text
       xml:space="preserve"
       style="font-style:normal;font-variant:normal;font-weight:normal;font-stretch:normal;font-size:4.58611107px;line-height:1.25;font-family:'Arial Black';-inkscape-font-specification:'Arial Black, Normal';font-variant-ligatures:normal;font-variant-caps:normal;font-variant-numeric:normal;text-align:center;letter-spacing:0px;word-spacing:0px;writing-mode:lr-tb;text-anchor:middle;fill:#000000;fill-opacity:1;stroke:none;stroke-width:0.26458332"
       x="11.90625"
       y="-21.166708"
       id="text115"><tspan
         sodipodi:role="line"
         id="tspan113"
         x="11.90625"
         y="-17.054897"
         style="stroke-width:0.26458332" /></text>
    <g
       aria-label="KRT"
       style="font-style:normal;font-variant:normal;font-weight:normal;font-stretch:normal;font-size:3.52777767px;line-height:1.25;font-family:'Arial Black';-inkscape-font-specification:'Arial Black, Normal';font-variant-ligatures:normal;font-variant-caps:normal;font-variant-numeric:normal;font-feature-settings:normal;text-align:center;letter-spacing:0px;word-spacing:0px;writing-mode:lr-tb;text-anchor:middle;fill:#000000;fill-opacity:1;stroke:none;stroke-width:0.26458332"
       id="text123"
       transform="translate(-12.170835,-117.47517)">
      <path
         d="m 14.418414,95.635115 h 0.780314 v 0.954291 l 0.81821,-0.954291 h 1.036974 l -0.91984,0.952569 0.961181,1.572686 h -0.961181 l -0.532268,-1.038696 -0.403076,0.422024 v 0.616672 h -0.780314 z"
         style="fill:#f9f9f9;stroke-width:0.26458332"
         id="path227"
         inkscape:connector-curvature="0" />
      <path
         d="m 17.363971,98.16037 v -2.525255 h 1.300523 q 0.361735,0 0.552938,0.06201 0.191203,0.06201 0.308336,0.230821 0.117133,0.167087 0.117133,0.408244 0,0.210151 -0.08957,0.363457 -0.08957,0.151585 -0.246325,0.246325 -0.09991,0.06029 -0.273885,0.09991 0.139527,0.04651 0.203261,0.09302 0.04306,0.03101 0.124023,0.132636 0.08268,0.101631 0.110243,0.156752 l 0.377238,0.732083 H 18.96594 l -0.416857,-0.771701 q -0.07924,-0.149862 -0.141248,-0.194648 -0.08441,-0.05857 -0.191203,-0.05857 h -0.0689 v 1.024916 z m 0.783759,-1.502062 h 0.329006 q 0.0534,0 0.206706,-0.03445 0.07752,-0.0155 0.125746,-0.07924 0.04995,-0.06373 0.04995,-0.146416 0,-0.122301 -0.07751,-0.187758 -0.07751,-0.06546 -0.29111,-0.06546 H 18.14773 Z"
         style="fill:#f9f9f9;stroke-width:0.26458332"
         id="path229"
         inkscape:connector-curvature="0" />
      <path
         d="m 19.889226,95.635115 h 2.371948 v 0.623562 h -0.795817 v 1.901693 h -0.780314 v -1.901693 h -0.795817 z"
         style="fill:#f9f9f9;stroke-width:0.26458332"
         id="path231"
         inkscape:connector-curvature="0" />
    </g>
    <g
       aria-label="Ω"
       style="font-style:normal;font-variant:normal;font-weight:normal;font-stretch:normal;font-size:3.52777767px;line-height:1.25;font-family:'Arial Black';-inkscape-font-specification:'Arial Black, Normal';font-variant-ligatures:normal;font-variant-caps:normal;font-variant-numeric:normal;font-feature-settings:normal;text-align:center;letter-spacing:0px;word-spacing:0px;writing-mode:lr-tb;text-anchor:middle;fill:#000000;fill-opacity:1;stroke:none;stroke-width:0.26458332"
       id="text107"
       transform="matrix(2.52226,0,0,2.4814703,-16.867486,28.084873)" />
    <g
       aria-label="F"
       transform="scale(1.204776,0.83002985)"
       style="font-style:normal;font-variant:normal;font-weight:normal;font-stretch:normal;font-size:7.14471245px;line-height:1.25;font-family:'Arial Black';-inkscape-font-specification:'Arial Black, Normal';font-variant-ligatures:normal;font-variant-caps:normal;font-variant-numeric:normal;font-feature-settings:normal;text-align:center;letter-spacing:0px;word-spacing:0px;writing-mode:lr-tb;text-anchor:middle;fill:#000000;fill-opacity:1;stroke:none;stroke-width:0.53585339"
       id="text135" />
    <g
       aria-label="E"
       style="font-style:normal;font-variant:normal;font-weight:normal;font-stretch:normal;font-size:3.52777767px;line-height:1.25;font-family:'Arial Black';-inkscape-font-specification:'Arial Black, Normal';font-variant-ligatures:normal;font-variant-caps:normal;font-variant-numeric:normal;font-feature-settings:normal;text-align:center;letter-spacing:0px;word-spacing:0px;writing-mode:lr-tb;text-anchor:middle;fill:#000000;fill-opacity:1;stroke:none;stroke-width:0.26458332"
       id="text110">
      <path
         d="m 10.889086,-22.369049 h 2.091172 v 0.539158 h -1.309136 v 0.401353 h 1.214396 v 0.515042 h -1.214396 v 0.497816 h 1.347033 v 0.571886 h -2.129069 z"
         style="stroke-width:0.26458332"
         id="path112" />
    </g>
    <g
       aria-label="ATK"
       style="font-style:normal;font-variant:normal;font-weight:normal;font-stretch:normal;font-size:3.52777767px;line-height:1.25;font-family:'Arial Black';-inkscape-font-specification:'Arial Black, Normal';font-variant-ligatures:normal;font-variant-caps:normal;font-variant-numeric:normal;font-feature-settings:normal;text-align:center;letter-spacing:0px;word-spacing:0px;writing-mode:lr-tb;text-anchor:middle;fill:#000000;fill-opacity:1;stroke:none;stroke-width:0.26458332"
       id="text117">
      <path
         d="M 5.7558933,-3.8564835 H 4.8670587 L 4.7447579,-3.4396269 H 3.9472183 l 0.9491238,-2.5252549 h 0.8509385 l 0.9491238,2.5252549 H 5.8799168 Z M 5.5922513,-4.4025311 5.3131986,-5.3103137 5.0358684,-4.4025311 Z"
         style="fill:#0000ff;stroke-width:0.26458332"
         id="path131" />
      <path
         d="m 6.5258721,-5.9648818 h 2.3719482 v 0.6235622 H 8.1020032 v 1.9016927 H 7.3216891 v -1.9016927 h -0.795817 z"
         style="fill:#0000ff;stroke-width:0.26458332"
         id="path133" />
      <path
         d="m 9.2543875,-5.9648818 h 0.7803145 v 0.9542914 l 0.81821,-0.9542914 h 1.036974 l -0.919841,0.9525688 0.961182,1.5726861 h -0.961182 l -0.532267,-1.0386963 -0.403076,0.4220242 v 0.6166721 H 9.2543875 Z"
         style="fill:#0000ff;stroke-width:0.26458332"
         id="path135" />
    </g>
    <g
       aria-label="REL"
       style="font-style:normal;font-variant:normal;font-weight:normal;font-stretch:normal;font-size:3.52777767px;line-height:1.25;font-family:'Arial Black';-inkscape-font-specification:'Arial Black, Normal';font-variant-ligatures:normal;font-variant-caps:normal;font-variant-numeric:normal;font-feature-settings:normal;text-align:center;letter-spacing:0px;word-spacing:0px;writing-mode:lr-tb;text-anchor:middle;fill:#000000;fill-opacity:1;stroke:none;stroke-width:0.26458332"
       id="text140">
      <path
         d="m 4.166073,12.669233 v -2.525255 h 1.3005235 q 0.361735,0 0.5529378,0.06201 0.1912028,0.06201 0.3083361,0.230822 0.1171332,0.167087 0.1171332,0.408243 0,0.210151 -0.089573,0.363458 -0.089573,0.151584 -0.2463243,0.246324 -0.099908,0.06029 -0.2738851,0.09991 0.1395264,0.04651 0.2032606,0.09302 0.043064,0.03101 0.1240235,0.132636 0.082682,0.10163 0.110243,0.156752 l 0.377238,0.732082 H 5.7680424 L 5.3511858,11.897532 Q 5.2719486,11.74767 5.2099369,11.702884 5.1255321,11.644317 5.0187341,11.644317 h -0.068902 v 1.024916 z m 0.7837592,-1.502061 h 0.3290066 q 0.053399,0 0.2067057,-0.03445 0.077515,-0.0155 0.125746,-0.07924 0.049954,-0.06373 0.049954,-0.146417 0,-0.122301 -0.077515,-0.187758 -0.077515,-0.06546 -0.2911106,-0.06546 h -0.342787 z"
         style="fill:#0000ff;stroke-width:0.26458332"
         id="path154" />
      <path
         d="m 6.8980337,10.143978 h 2.0911729 v 0.539158 H 7.6800704 v 0.401353 h 1.2143961 v 0.515042 H 7.6800704 v 0.497816 h 1.3470323 v 0.571886 h -2.129069 z"
         style="fill:#0000ff;stroke-width:0.26458332"
         id="path156" />
      <path
         d="m 9.4474042,10.143978 h 0.7803138 v 1.903416 h 1.217842 v 0.621839 H 9.4474042 Z"
         style="fill:#0000ff;stroke-width:0.26458332"
         id="path158" />
    </g>
    <g
       aria-label="MOD"
       style="font-style:normal;font-variant:normal;font-weight:normal;font-stretch:normal;font-size:3.52777767px;line-height:1.25;font-family:'Arial Black';-inkscape-font-specification:'Arial Black, Normal';font-variant-ligatures:normal;font-variant-caps:normal;font-variant-numeric:normal;font-feature-settings:normal;text-align:center;letter-spacing:0px;word-spacing:0px;writing-mode:lr-tb;text-anchor:middle;fill:#000000;fill-opacity:1;stroke:none;stroke-width:0.26458332"
       id="text163">
      <path
         d="m 3.245462,26.485323 h 1.0266384 l 0.396186,1.536513 0.3944634,-1.536513 h 1.0231933 v 2.525255 H 5.4486005 V 27.08477 L 4.9542293,29.010578 H 4.3771758 L 3.8845272,27.08477 v 1.925808 H 3.245462 Z"
         style="fill:#0000ff;stroke-width:0.26458332"
         id="path177" />
      <path
         d="m 6.4855742,27.749673 q 0,-0.618394 0.3445096,-0.962904 0.3445095,-0.344509 0.959459,-0.344509 0.6304525,0 0.9715169,0.339341 0.3410645,0.33762 0.3410645,0.947402 0,0.442694 -0.1498617,0.726915 -0.1481391,0.282498 -0.4306369,0.440972 -0.2807753,0.156752 -0.7010769,0.156752 -0.4271918,0 -0.7079671,-0.136081 Q 6.8335289,28.781479 6.6595515,28.486924 6.4855742,28.192368 6.4855742,27.749673 Z m 0.7803141,0.0034 q 0,0.382406 0.1412489,0.549493 0.1429715,0.167087 0.3875733,0.167087 0.2514919,0 0.3892957,-0.163642 0.1378039,-0.163642 0.1378039,-0.587389 0,-0.356567 -0.1446941,-0.520209 -0.1429714,-0.165365 -0.3892957,-0.165365 -0.2359891,0 -0.3789605,0.167088 -0.1429715,0.167087 -0.1429715,0.552937 z"
         style="fill:#0000ff;stroke-width:0.26458332"
         id="path179" />
      <path
         d="m 9.5327611,26.485323 h 1.1592749 q 0.342787,0 0.552937,0.09302 0.211874,0.09302 0.349678,0.266995 0.137803,0.173977 0.199815,0.404798 0.06201,0.230822 0.06201,0.489204 0,0.404799 -0.09302,0.62873 -0.0913,0.222209 -0.254937,0.373793 -0.163642,0.149861 -0.351399,0.199815 -0.25666,0.0689 -0.465088,0.0689 H 9.5327611 Z m 0.7803139,0.571886 v 1.379761 h 0.191203 q 0.244602,0 0.347955,-0.0534 0.103352,-0.05512 0.161919,-0.18948 0.05857,-0.136082 0.05857,-0.43925 0,-0.401354 -0.130914,-0.549493 -0.130914,-0.148139 -0.434082,-0.148139 z"
         style="fill:#0000ff;stroke-width:0.26458332"
         id="path181" />
    </g>
    <g
       aria-label="IN"
       style="font-style:normal;font-variant:normal;font-weight:normal;font-stretch:normal;font-size:3.52777767px;line-height:1.25;font-family:'Arial Black';-inkscape-font-specification:'Arial Black, Normal';font-variant-ligatures:normal;font-variant-caps:normal;font-variant-numeric:normal;font-feature-settings:normal;text-align:center;letter-spacing:0px;word-spacing:0px;writing-mode:lr-tb;text-anchor:middle;fill:#000000;fill-opacity:1;stroke:none;stroke-width:0.26458332"
       id="text186">
      <path
         d="m 5.7143686,43.387934 h 0.7820367 v 2.525255 H 5.7143686 Z"
         style="fill:#008000;stroke-width:0.26458332"
         id="path200" />
      <path
         d="M 7.061401,43.387934 H 7.7900386 L 8.740885,44.78492 v -1.396986 h 0.7355278 v 2.525255 H 8.740885 L 7.7952063,44.526538 v 1.386651 H 7.061401 Z"
         style="fill:#008000;stroke-width:0.26458332"
         id="path202" />
    </g>
    <g
       aria-label="TRIG"
       style="font-style:normal;font-variant:normal;font-weight:normal;font-stretch:normal;font-size:3.52777767px;line-height:1.25;font-family:'Arial Black';-inkscape-font-specification:'Arial Black, Normal';font-variant-ligatures:normal;font-variant-caps:normal;font-variant-numeric:normal;font-feature-settings:normal;text-align:center;letter-spacing:0px;word-spacing:0px;writing-mode:lr-tb;text-anchor:middle;fill:#000000;fill-opacity:1;stroke:none;stroke-width:0.26458332"
       id="text207">
      <path
         d="m 2.9522749,59.651785 h 2.3719482 v 0.623562 H 4.5284061 V 62.17704 H 3.748092 V 60.275347 H 2.9522749 Z"
         style="fill:#008000;stroke-width:0.26458332"
         id="path221" />
      <path
         d="m 5.6876806,62.17704 v -2.525255 h 1.3005235 q 0.361735,0 0.5529378,0.06201 0.1912028,0.06201 0.308336,0.230821 0.1171333,0.167087 0.1171333,0.408244 0,0.210151 -0.089573,0.363458 -0.089573,0.151584 -0.2463243,0.246324 -0.099908,0.06029 -0.2738851,0.09991 0.1395264,0.04651 0.2032606,0.09302 0.043064,0.03101 0.1240235,0.132636 0.082682,0.101631 0.110243,0.156752 l 0.377238,0.732083 H 7.2896499 L 6.8727934,61.405339 q -0.079237,-0.149862 -0.1412489,-0.194648 -0.084405,-0.05857 -0.1912028,-0.05857 h -0.068902 v 1.024916 z m 0.7837592,-1.502061 h 0.3290066 q 0.053399,0 0.2067057,-0.03445 0.077515,-0.0155 0.125746,-0.07924 0.049954,-0.06373 0.049954,-0.146416 0,-0.122301 -0.077515,-0.187758 -0.077515,-0.06546 -0.2911105,-0.06546 h -0.342787 z"
         style="fill:#008000;stroke-width:0.26458332"
         id="path223" />
      <path
         d="M 8.4523697,59.651785 H 9.2344064 V 62.17704 H 8.4523697 Z"
         style="fill:#008000;stroke-width:0.26458332"
         id="path225" />
      <path
         d="M 11.063752,61.262367 V 60.73699 h 1.205783 v 1.076593 q -0.346232,0.235989 -0.613227,0.322116 -0.265272,0.0844 -0.630452,0.0844 -0.449585,0 -0.733805,-0.153307 -0.282498,-0.153307 -0.4392501,-0.456475 -0.1550293,-0.303168 -0.1550293,-0.695909 0,-0.413412 0.1705323,-0.718303 0.1705321,-0.306613 0.4995391,-0.465088 0.256659,-0.122301 0.690741,-0.122301 0.418579,0 0.625285,0.07579 0.208428,0.07579 0.34451,0.235989 0.137803,0.158474 0.206705,0.403076 l -0.752753,0.134359 q -0.04651,-0.142972 -0.158474,-0.218764 -0.110243,-0.07579 -0.282498,-0.07579 -0.25666,0 -0.409967,0.179145 -0.151584,0.177422 -0.151584,0.563273 0,0.409966 0.153307,0.585666 0.155029,0.1757 0.430637,0.1757 0.130914,0 0.249769,-0.0379 0.118856,-0.0379 0.272163,-0.129191 v -0.237712 z"
         style="fill:#008000;stroke-width:0.26458332"
         id="path228" />
    </g>
    <g
       aria-label="MOD"
       style="font-style:normal;font-variant:normal;font-weight:normal;font-stretch:normal;font-size:3.52777767px;line-height:1.25;font-family:'Arial Black';-inkscape-font-specification:'Arial Black, Normal';font-variant-ligatures:normal;font-variant-caps:normal;font-variant-numeric:normal;font-feature-settings:normal;text-align:center;letter-spacing:0px;word-spacing:0px;writing-mode:lr-tb;text-anchor:middle;fill:#000000;fill-opacity:1;stroke:none;stroke-width:0.26458332"
       id="text233">
      <path
         d="M 3.4165015,75.526785 H 4.44314 l 0.3961859,1.536513 0.3944635,-1.536513 H 6.2569827 V 78.05204 H 5.61964 V 76.126232 L 5.1252689,78.05204 H 4.5482154 L 4.0555667,76.126232 V 78.05204 H 3.4165015 Z"
         style="fill:#ff0000;stroke-width:0.26458332"
         id="path247" />
      <path
         d="m 6.6566138,76.791135 q 0,-0.618394 0.3445095,-0.962904 0.3445096,-0.34451 0.9594591,-0.34451 0.6304525,0 0.9715169,0.339342 0.3410644,0.33762 0.3410644,0.947402 0,0.442694 -0.1498616,0.726915 -0.1481391,0.282498 -0.4306369,0.440972 -0.2807753,0.156752 -0.7010769,0.156752 -0.4271919,0 -0.7079671,-0.136081 Q 7.0045684,77.822941 6.8305911,77.528386 6.6566138,77.23383 6.6566138,76.791135 Z m 0.7803141,0.0034 q 0,0.382406 0.1412489,0.549493 0.1429715,0.167087 0.3875732,0.167087 0.251492,0 0.3892958,-0.163642 0.1378038,-0.163642 0.1378038,-0.587389 0,-0.356567 -0.144694,-0.520209 -0.1429714,-0.165365 -0.3892957,-0.165365 -0.2359891,0 -0.3789605,0.167087 -0.1429715,0.167088 -0.1429715,0.552938 z"
         style="fill:#ff0000;stroke-width:0.26458332"
         id="path249" />
      <path
         d="m 9.7038006,75.526785 h 1.1592744 q 0.342787,0 0.552938,0.09302 0.211873,0.09302 0.349677,0.266995 0.137804,0.173977 0.199816,0.404798 0.06201,0.230822 0.06201,0.489204 0,0.404799 -0.09302,0.62873 -0.0913,0.222208 -0.254937,0.373793 -0.163642,0.149861 -0.3514,0.199815 -0.256659,0.0689 -0.465088,0.0689 H 9.7038006 Z m 0.7803144,0.571886 v 1.379761 h 0.191203 q 0.244601,0 0.347954,-0.0534 0.103353,-0.05512 0.16192,-0.189481 0.05857,-0.136081 0.05857,-0.439249 0,-0.401354 -0.130913,-0.549493 -0.130914,-0.148139 -0.434082,-0.148139 z"
         style="fill:#ff0000;stroke-width:0.26458332"
         id="path251" />
    </g>
  </g>
</svg>
