<?xml version="1.0" encoding="UTF-8" standalone="no"?>
<!-- Created with Inkscape (http://www.inkscape.org/) -->

<svg
   xmlns:dc="http://purl.org/dc/elements/1.1/"
   xmlns:cc="http://creativecommons.org/ns#"
   xmlns:rdf="http://www.w3.org/1999/02/22-rdf-syntax-ns#"
   xmlns:svg="http://www.w3.org/2000/svg"
   xmlns="http://www.w3.org/2000/svg"
   xmlns:sodipodi="http://sodipodi.sourceforge.net/DTD/sodipodi-0.dtd"
   xmlns:inkscape="http://www.inkscape.org/namespaces/inkscape"
   width="25.4mm"
   height="128.54166mm"
   viewBox="0 0 25.4 128.5417"
   version="1.1"
   id="svg4541"
   sodipodi:docname="F.svg"
   inkscape:version="0.92.5 (2060ec1f9f, 2020-04-08)">
  <defs
     id="defs4535" />
  <sodipodi:namedview
     id="base"
     pagecolor="#ffffff"
     bordercolor="#666666"
     borderopacity="1.0"
     inkscape:pageopacity="0.0"
     inkscape:pageshadow="2"
     inkscape:zoom="4"
     inkscape:cx="89.003"
     inkscape:cy="55.278354"
     inkscape:document-units="mm"
     inkscape:current-layer="layer1"
     showgrid="true"
     fit-margin-top="0"
     fit-margin-left="0"
     fit-margin-right="0"
     fit-margin-bottom="0"
     inkscape:window-width="1600"
     inkscape:window-height="845"
     inkscape:window-x="0"
     inkscape:window-y="0"
     inkscape:window-maximized="1"
     units="mm">
    <inkscape:grid
       type="xygrid"
       id="grid76" />
  </sodipodi:namedview>
  <metadata
     id="metadata4538">
    <rdf:RDF>
      <cc:Work
         rdf:about="">
        <dc:format>image/svg+xml</dc:format>
        <dc:type
           rdf:resource="http://purl.org/dc/dcmitype/StillImage" />
        <dc:title />
      </cc:Work>
    </rdf:RDF>
  </metadata>
  <g
     inkscape:groupmode="layer"
     id="layer1"
     inkscape:label="Background"
     style="display:inline;opacity:1">
    <rect
       style="fill:#0000ff;stroke-width:0.27736092"
       id="rect111"
       width="25.466146"
       height="128.32292"
       x="0"
       y="0.21873982" />
    <g
       aria-label="SPD"
       style="font-style:normal;font-variant:normal;font-weight:normal;font-stretch:normal;font-size:3.52777767px;line-height:1.25;font-family:'Arial Black';-inkscape-font-specification:'Arial Black, Normal';font-variant-ligatures:normal;font-variant-caps:normal;font-variant-numeric:normal;font-feature-settings:normal;text-align:center;letter-spacing:0px;word-spacing:0px;writing-mode:lr-tb;text-anchor:middle;fill:#000000;fill-opacity:1;stroke:none;stroke-width:0.26458332"
       id="text113"
       transform="translate(0,-0.52916667)">
      <path
         d="m 2.8833759,24.254137 0.742418,-0.04651 q 0.024116,0.180868 0.098185,0.275608 0.1205784,0.153307 0.3445096,0.153307 0.1670871,0 0.2566596,-0.07751 0.091295,-0.07924 0.091295,-0.18259 0,-0.09819 -0.086127,-0.1757 -0.086127,-0.07751 -0.399631,-0.146416 Q 3.4173656,23.938911 3.1986021,23.747708 2.978116,23.556505 2.978116,23.260227 q 0,-0.194648 0.1119656,-0.366902 0.1136881,-0.173978 0.3393419,-0.272163 0.2273763,-0.09991 0.6218397,-0.09991 0.4840359,0 0.7372504,0.180868 0.2549371,0.179145 0.3031684,0.571886 l -0.7355279,0.04306 q -0.029283,-0.170532 -0.1240234,-0.248047 -0.093018,-0.07751 -0.2583821,-0.07751 -0.1360813,0 -0.2049832,0.05857 -0.068902,0.05684 -0.068902,0.139527 0,0.06029 0.056844,0.10852 0.055122,0.04995 0.2618273,0.09302 0.5115967,0.110243 0.7320828,0.223931 0.2222086,0.111966 0.3221164,0.279053 0.1016303,0.167087 0.1016303,0.373793 0,0.242879 -0.1343587,0.447862 -0.1343587,0.204983 -0.3755154,0.311781 -0.2411567,0.105076 -0.6080594,0.105076 -0.6442328,0 -0.8922797,-0.248047 -0.2480468,-0.248047 -0.2807752,-0.630453 z"
         style="fill:#ffff00;stroke-width:0.26458332"
         id="path153"
         inkscape:connector-curvature="0" />
      <path
         d="m 5.56366,22.564318 h 1.2970784 q 0.4237467,0 0.6338976,0.201538 0.2118733,0.201538 0.2118733,0.573608 0,0.382406 -0.2308214,0.597725 -0.2290988,0.215318 -0.7010769,0.215318 H 6.3474192 v 0.937066 H 5.56366 Z M 6.3474192,23.64091 H 6.538622 q 0.2256537,0 0.3169488,-0.07751 0.091295,-0.07924 0.091295,-0.201538 0,-0.118856 -0.079237,-0.201539 -0.079237,-0.08268 -0.2980008,-0.08268 H 6.3474192 Z"
         style="fill:#ffff00;stroke-width:0.26458332"
         id="path155"
         inkscape:connector-curvature="0" />
      <path
         d="m 8.1250883,22.564318 h 1.1592746 q 0.342787,0 0.5529378,0.09302 0.2118733,0.09302 0.3496773,0.266994 0.137804,0.173978 0.199815,0.404799 0.06201,0.230822 0.06201,0.489204 0,0.404798 -0.09302,0.62873 -0.0913,0.222208 -0.254937,0.373792 -0.1636425,0.149862 -0.3514002,0.199816 -0.2566596,0.0689 -0.4650879,0.0689 H 8.1250883 Z m 0.7803141,0.571886 v 1.379761 h 0.1912028 q 0.2446018,0 0.3479547,-0.0534 0.1033528,-0.05512 0.1619194,-0.189481 0.058567,-0.136081 0.058567,-0.439249 0,-0.401354 -0.1309137,-0.549493 -0.1309136,-0.148139 -0.434082,-0.148139 z"
         style="fill:#ffff00;stroke-width:0.26458332"
         id="path157"
         inkscape:connector-curvature="0" />
    </g>
    <g
       aria-label="SKW"
       style="font-style:normal;font-variant:normal;font-weight:normal;font-stretch:normal;font-size:3.52777767px;line-height:1.25;font-family:'Arial Black';-inkscape-font-specification:'Arial Black, Normal';font-variant-ligatures:normal;font-variant-caps:normal;font-variant-numeric:normal;font-feature-settings:normal;text-align:center;letter-spacing:0px;word-spacing:0px;writing-mode:lr-tb;text-anchor:middle;fill:#000000;fill-opacity:1;stroke:none;stroke-width:0.26458332"
       id="text143"
       transform="translate(0,-0.52916667)">
      <path
         d="m 14.665256,24.254139 0.742418,-0.04651 q 0.02412,0.180868 0.09818,0.275608 0.120579,0.153307 0.34451,0.153307 0.167087,0 0.256659,-0.07752 0.09129,-0.07924 0.09129,-0.18259 0,-0.09818 -0.08613,-0.1757 -0.08613,-0.07751 -0.399631,-0.146416 -0.513319,-0.115411 -0.732083,-0.306614 -0.220486,-0.191203 -0.220486,-0.487481 0,-0.194648 0.111966,-0.366902 0.113688,-0.173978 0.339342,-0.272163 0.227376,-0.09991 0.621839,-0.09991 0.484036,0 0.737251,0.180868 0.254937,0.179145 0.303168,0.571886 l -0.735528,0.04306 q -0.02928,-0.170532 -0.124023,-0.248047 -0.09302,-0.07751 -0.258382,-0.07751 -0.136082,0 -0.204983,0.05857 -0.0689,0.05684 -0.0689,0.139527 0,0.06029 0.05684,0.10852 0.05512,0.04995 0.261827,0.09302 0.511597,0.110243 0.732083,0.223931 0.222208,0.111966 0.322116,0.279053 0.10163,0.167087 0.10163,0.373793 0,0.242879 -0.134358,0.447862 -0.134359,0.204983 -0.375516,0.311781 -0.241156,0.105076 -0.608059,0.105076 -0.644233,0 -0.89228,-0.248047 -0.248047,-0.248047 -0.280775,-0.630453 z"
         style="fill:#ffff00;stroke-width:0.26458332"
         id="path146"
         inkscape:connector-curvature="0" />
      <path
         d="m 17.35243,22.56432 h 0.780314 v 0.954291 l 0.818211,-0.954291 h 1.036973 l -0.91984,0.952569 0.961181,1.572686 h -0.961181 l -0.532267,-1.038696 -0.403077,0.422024 v 0.616672 H 17.35243 Z"
         style="fill:#ffff00;stroke-width:0.26458332"
         id="path148"
         inkscape:connector-curvature="0" />
      <path
         d="m 20.027547,22.56432 h 0.740695 l 0.266995,1.410766 0.389296,-1.410766 h 0.738973 l 0.391018,1.410766 0.266995,-1.410766 h 0.737251 l -0.556383,2.525255 h -0.764811 l -0.442695,-1.589912 -0.440972,1.589912 h -0.764812 z"
         style="fill:#ffff00;stroke-width:0.26458332"
         id="path150"
         inkscape:connector-curvature="0" />
    </g>
    <g
       aria-label="FRQ"
       style="font-style:normal;font-variant:normal;font-weight:normal;font-stretch:normal;font-size:3.52777767px;line-height:1.25;font-family:'Arial Black';-inkscape-font-specification:'Arial Black, Normal';font-variant-ligatures:normal;font-variant-caps:normal;font-variant-numeric:normal;font-feature-settings:normal;text-align:center;letter-spacing:0px;word-spacing:0px;writing-mode:lr-tb;text-anchor:middle;fill:#000000;fill-opacity:1;stroke:none;stroke-width:0.26458332"
       id="text162">
      <path
         d="m 2.8938805,38.174738 h 1.9292534 v 0.542603 H 3.6776397 v 0.440972 h 0.9784071 v 0.509874 H 3.6776397 v 1.031806 H 2.8938805 Z"
         style="fill:#ffff00;stroke-width:0.26458332"
         id="path202" />
      <path
         d="m 5.2537708,40.699993 v -2.525255 h 1.3005235 q 0.3617351,0 0.5529378,0.06201 0.1912028,0.06201 0.3083361,0.230821 0.1171332,0.167087 0.1171332,0.408244 0,0.210151 -0.089573,0.363458 -0.089572,0.151584 -0.2463243,0.246324 -0.099908,0.06029 -0.2738851,0.09991 0.1395264,0.04651 0.2032607,0.09302 0.043064,0.03101 0.1240234,0.132637 0.082682,0.10163 0.1102431,0.156751 l 0.3772379,0.732083 H 6.8557402 L 6.4388836,39.928292 Q 6.3596465,39.77843 6.2976347,39.733644 6.2132299,39.675077 6.1064319,39.675077 H 6.03753 v 1.024916 z M 6.03753,39.197932 h 0.3290066 q 0.053399,0 0.2067058,-0.03445 0.077515,-0.0155 0.1257459,-0.07924 0.049954,-0.06373 0.049954,-0.146416 0,-0.122301 -0.077515,-0.187758 -0.077515,-0.06546 -0.2911106,-0.06546 H 6.03753 Z"
         style="fill:#ffff00;stroke-width:0.26458332"
         id="path205" />
      <path
         d="m 10.159586,40.331368 q 0.146417,0.10163 0.191203,0.127468 0.06718,0.0379 0.180868,0.08785 l -0.217041,0.437528 q -0.163642,-0.07924 -0.3238393,-0.189481 -0.1601969,-0.10852 -0.2239312,-0.163642 -0.2583822,0.111966 -0.6476779,0.111966 -0.575331,0 -0.9077827,-0.299723 -0.3927408,-0.354845 -0.3927408,-0.997356 0,-0.623562 0.3427869,-0.968071 0.3445096,-0.346232 0.9611817,-0.346232 0.6287299,0 0.9697943,0.337619 0.342787,0.337619 0.342787,0.966349 0,0.559828 -0.275608,0.895725 z M 9.5618623,39.931737 q 0.093018,-0.167087 0.093018,-0.499539 0,-0.382406 -0.1429715,-0.546048 -0.1412489,-0.163642 -0.3910183,-0.163642 -0.2325439,0 -0.3772379,0.167088 -0.144694,0.167087 -0.144694,0.521931 0,0.413412 0.1412489,0.580499 0.1412489,0.167087 0.3875732,0.167087 0.079237,0 0.1498617,-0.0155 -0.098185,-0.09474 -0.3100586,-0.179145 L 9.0898843,39.68369 q 0.1033528,0.01895 0.1601969,0.04651 0.058567,0.02756 0.2256537,0.144694 0.039619,0.02756 0.086127,0.05684 z"
         style="fill:#ffff00;stroke-width:0.26458332"
         id="path207" />
    </g>
    <g
       aria-label="LAH"
       style="font-style:normal;font-variant:normal;font-weight:normal;font-stretch:normal;font-size:3.52777767px;line-height:1.25;font-family:'Arial Black';-inkscape-font-specification:'Arial Black, Normal';font-variant-ligatures:normal;font-variant-caps:normal;font-variant-numeric:normal;font-feature-settings:normal;text-align:center;letter-spacing:0px;word-spacing:0px;writing-mode:lr-tb;text-anchor:middle;fill:#000000;fill-opacity:1;stroke:none;stroke-width:0.26458332"
       id="text166">
      <path
         d="m 15.290541,38.174738 h 0.780314 v 1.903415 h 1.217841 v 0.62184 h -1.998155 z"
         style="fill:#ffff00;stroke-width:0.26458332"
         id="path194" />
      <path
         d="m 19.197279,40.283137 h -0.888835 l -0.122301,0.416856 h -0.797539 l 0.949124,-2.525255 h 0.850938 l 0.949124,2.525255 h -0.816488 z m -0.163642,-0.546048 -0.279053,-0.907783 -0.27733,0.907783 z"
         style="fill:#ffff00;stroke-width:0.26458332"
         id="path196" />
      <path
         d="m 20.391005,38.174738 h 0.780314 v 0.883667 h 0.852661 v -0.883667 h 0.783759 v 2.525255 H 22.02398 v -1.021471 h -0.852661 v 1.021471 h -0.780314 z"
         style="fill:#ffff00;stroke-width:0.26458332"
         id="path198" />
    </g>
    <g
       aria-label="INV"
       style="font-style:normal;font-variant:normal;font-weight:normal;font-stretch:normal;font-size:3.52777767px;line-height:1.25;font-family:'Arial Black';-inkscape-font-specification:'Arial Black, Normal';font-variant-ligatures:normal;font-variant-caps:normal;font-variant-numeric:normal;font-feature-settings:normal;text-align:center;letter-spacing:0px;word-spacing:0px;writing-mode:lr-tb;text-anchor:middle;fill:#000000;fill-opacity:1;stroke:none;stroke-width:0.26458332"
       id="text212"
       transform="translate(-0.52916667)">
      <path
         d="M 3.6407769,53.785155 H 4.4228136 V 56.31041 H 3.6407769 Z"
         style="fill:#ffff00;stroke-width:0.26458332"
         id="path249"
         inkscape:connector-curvature="0" />
      <path
         d="M 4.9878093,53.785155 H 5.716447 l 0.9508463,1.396986 V 53.785155 H 7.4028212 V 56.31041 H 6.6672933 L 5.7216146,54.923759 V 56.31041 H 4.9878093 Z"
         style="fill:#ffff00;stroke-width:0.26458332"
         id="path251"
         inkscape:connector-curvature="0" />
      <path
         d="m 7.6715385,53.785155 h 0.8164876 l 0.5684407,1.817287 0.559828,-1.817287 H 10.408667 L 9.4716008,56.31041 H 8.6258299 Z"
         style="fill:#ffff00;stroke-width:0.26458332"
         id="path254"
         inkscape:connector-curvature="0" />
    </g>
    <g
       aria-label="DRV"
       style="font-style:normal;font-variant:normal;font-weight:normal;font-stretch:normal;font-size:3.52777767px;line-height:1.25;font-family:'Arial Black';-inkscape-font-specification:'Arial Black, Normal';font-variant-ligatures:normal;font-variant-caps:normal;font-variant-numeric:normal;font-feature-settings:normal;text-align:center;letter-spacing:0px;word-spacing:0px;writing-mode:lr-tb;text-anchor:middle;fill:#000000;fill-opacity:1;stroke:none;stroke-width:0.26458332"
       id="text216">
      <path
         d="m 15.497417,53.785155 h 1.159275 q 0.342787,0 0.552938,0.09302 0.211873,0.09302 0.349677,0.266995 0.137804,0.173977 0.199815,0.404799 0.06201,0.230821 0.06201,0.489203 0,0.404799 -0.09302,0.62873 -0.09129,0.222209 -0.254937,0.373793 -0.163642,0.149862 -0.351399,0.199816 -0.25666,0.0689 -0.465088,0.0689 h -1.159275 z m 0.780314,0.571885 v 1.379761 h 0.191203 q 0.244602,0 0.347955,-0.0534 0.103353,-0.05512 0.161919,-0.18948 0.05857,-0.136081 0.05857,-0.43925 0,-0.401353 -0.130914,-0.549492 -0.130913,-0.14814 -0.434082,-0.14814 z"
         style="fill:#ffff00;stroke-width:0.26458332"
         id="path242" />
      <path
         d="m 18.241436,56.31041 v -2.525255 h 1.300523 q 0.361735,0 0.552938,0.06201 0.191203,0.06201 0.308336,0.230822 0.117133,0.167087 0.117133,0.408244 0,0.21015 -0.08957,0.363457 -0.08957,0.151584 -0.246325,0.246324 -0.09991,0.06029 -0.273885,0.09991 0.139527,0.04651 0.203261,0.09302 0.04306,0.03101 0.124023,0.132636 0.08268,0.10163 0.110244,0.156752 l 0.377237,0.732083 h -0.881944 l -0.416856,-0.771702 q -0.07924,-0.149861 -0.141249,-0.194648 -0.08441,-0.05857 -0.191203,-0.05857 h -0.0689 v 1.024916 z m 0.783759,-1.502062 h 0.329007 q 0.0534,0 0.206705,-0.03445 0.07751,-0.0155 0.125746,-0.07924 0.04995,-0.06373 0.04995,-0.146417 0,-0.122301 -0.07751,-0.187757 -0.07751,-0.06546 -0.29111,-0.06546 h -0.342787 z"
         style="fill:#ffff00;stroke-width:0.26458332"
         id="path244" />
      <path
         d="m 20.66506,53.785155 h 0.816488 l 0.568441,1.817287 0.559828,-1.817287 h 0.792371 l -0.937065,2.525255 h -0.845771 z"
         style="fill:#ffff00;stroke-width:0.26458332"
         id="path246" />
    </g>
    <g
       aria-label="SPD"
       style="font-style:normal;font-variant:normal;font-weight:normal;font-stretch:normal;font-size:3.52777767px;line-height:1.25;font-family:'Arial Black';-inkscape-font-specification:'Arial Black, Normal';font-variant-ligatures:normal;font-variant-caps:normal;font-variant-numeric:normal;font-feature-settings:normal;text-align:center;letter-spacing:0px;word-spacing:0px;writing-mode:lr-tb;text-anchor:middle;display:inline;opacity:1;fill:#00ff00;fill-opacity:1;stroke:none;stroke-width:0.26458332"
       id="text113-2"
       transform="translate(-1.2366667e-6,47.625018)">
      <path
         d="m 2.8833759,24.254137 0.742418,-0.04651 q 0.024116,0.180868 0.098185,0.275608 0.1205784,0.153307 0.3445096,0.153307 0.1670871,0 0.2566596,-0.07751 0.091295,-0.07924 0.091295,-0.18259 0,-0.09819 -0.086127,-0.1757 -0.086127,-0.07751 -0.399631,-0.146416 Q 3.4173656,23.938911 3.1986021,23.747708 2.978116,23.556505 2.978116,23.260227 q 0,-0.194648 0.1119656,-0.366902 0.1136881,-0.173978 0.3393419,-0.272163 0.2273763,-0.09991 0.6218397,-0.09991 0.4840359,0 0.7372504,0.180868 0.2549371,0.179145 0.3031684,0.571886 l -0.7355279,0.04306 q -0.029283,-0.170532 -0.1240234,-0.248047 -0.093018,-0.07751 -0.2583821,-0.07751 -0.1360813,0 -0.2049832,0.05857 -0.068902,0.05684 -0.068902,0.139527 0,0.06029 0.056844,0.10852 0.055122,0.04995 0.2618273,0.09302 0.5115967,0.110243 0.7320828,0.223931 0.2222086,0.111966 0.3221164,0.279053 0.1016303,0.167087 0.1016303,0.373793 0,0.242879 -0.1343587,0.447862 -0.1343587,0.204983 -0.3755154,0.311781 -0.2411567,0.105076 -0.6080594,0.105076 -0.6442328,0 -0.8922797,-0.248047 -0.2480468,-0.248047 -0.2807752,-0.630453 z"
         style="fill:#00ff00;stroke-width:0.26458332"
         id="path153-7"
         inkscape:connector-curvature="0" />
      <path
         d="m 5.56366,22.564318 h 1.2970784 q 0.4237467,0 0.6338976,0.201538 0.2118733,0.201538 0.2118733,0.573608 0,0.382406 -0.2308214,0.597725 -0.2290988,0.215318 -0.7010769,0.215318 H 6.3474192 v 0.937066 H 5.56366 Z M 6.3474192,23.64091 H 6.538622 q 0.2256537,0 0.3169488,-0.07751 0.091295,-0.07924 0.091295,-0.201538 0,-0.118856 -0.079237,-0.201539 -0.079237,-0.08268 -0.2980008,-0.08268 H 6.3474192 Z"
         style="fill:#00ff00;stroke-width:0.26458332"
         id="path155-0"
         inkscape:connector-curvature="0" />
      <path
         d="m 8.1250883,22.564318 h 1.1592746 q 0.342787,0 0.5529378,0.09302 0.2118733,0.09302 0.3496773,0.266994 0.137804,0.173978 0.199815,0.404799 0.06201,0.230822 0.06201,0.489204 0,0.404798 -0.09302,0.62873 -0.0913,0.222208 -0.254937,0.373792 -0.1636425,0.149862 -0.3514002,0.199816 -0.2566596,0.0689 -0.4650879,0.0689 H 8.1250883 Z m 0.7803141,0.571886 v 1.379761 h 0.1912028 q 0.2446018,0 0.3479547,-0.0534 0.1033528,-0.05512 0.1619194,-0.189481 0.058567,-0.136081 0.058567,-0.439249 0,-0.401354 -0.1309137,-0.549493 -0.1309136,-0.148139 -0.434082,-0.148139 z"
         style="fill:#00ff00;stroke-width:0.26458332"
         id="path157-9"
         inkscape:connector-curvature="0" />
    </g>
    <g
       aria-label="SKW"
       style="font-style:normal;font-variant:normal;font-weight:normal;font-stretch:normal;font-size:3.52777767px;line-height:1.25;font-family:'Arial Black';-inkscape-font-specification:'Arial Black, Normal';font-variant-ligatures:normal;font-variant-caps:normal;font-variant-numeric:normal;font-feature-settings:normal;text-align:center;letter-spacing:0px;word-spacing:0px;writing-mode:lr-tb;text-anchor:middle;display:inline;opacity:1;fill:#00ff00;fill-opacity:1;stroke:none;stroke-width:0.26458332"
       id="text143-3"
       transform="translate(-1.2366667e-6,47.625018)">
      <path
         d="m 14.665256,24.254139 0.742418,-0.04651 q 0.02412,0.180868 0.09818,0.275608 0.120579,0.153307 0.34451,0.153307 0.167087,0 0.256659,-0.07752 0.09129,-0.07924 0.09129,-0.18259 0,-0.09818 -0.08613,-0.1757 -0.08613,-0.07751 -0.399631,-0.146416 -0.513319,-0.115411 -0.732083,-0.306614 -0.220486,-0.191203 -0.220486,-0.487481 0,-0.194648 0.111966,-0.366902 0.113688,-0.173978 0.339342,-0.272163 0.227376,-0.09991 0.621839,-0.09991 0.484036,0 0.737251,0.180868 0.254937,0.179145 0.303168,0.571886 l -0.735528,0.04306 q -0.02928,-0.170532 -0.124023,-0.248047 -0.09302,-0.07751 -0.258382,-0.07751 -0.136082,0 -0.204983,0.05857 -0.0689,0.05684 -0.0689,0.139527 0,0.06029 0.05684,0.10852 0.05512,0.04995 0.261827,0.09302 0.511597,0.110243 0.732083,0.223931 0.222208,0.111966 0.322116,0.279053 0.10163,0.167087 0.10163,0.373793 0,0.242879 -0.134358,0.447862 -0.134359,0.204983 -0.375516,0.311781 -0.241156,0.105076 -0.608059,0.105076 -0.644233,0 -0.89228,-0.248047 -0.248047,-0.248047 -0.280775,-0.630453 z"
         style="fill:#00ff00;stroke-width:0.26458332"
         id="path146-6"
         inkscape:connector-curvature="0" />
      <path
         d="m 17.35243,22.56432 h 0.780314 v 0.954291 l 0.818211,-0.954291 h 1.036973 l -0.91984,0.952569 0.961181,1.572686 h -0.961181 l -0.532267,-1.038696 -0.403077,0.422024 v 0.616672 H 17.35243 Z"
         style="fill:#00ff00;stroke-width:0.26458332"
         id="path148-0"
         inkscape:connector-curvature="0" />
      <path
         d="m 20.027547,22.56432 h 0.740695 l 0.266995,1.410766 0.389296,-1.410766 h 0.738973 l 0.391018,1.410766 0.266995,-1.410766 h 0.737251 l -0.556383,2.525255 h -0.764811 l -0.442695,-1.589912 -0.440972,1.589912 h -0.764812 z"
         style="fill:#00ff00;stroke-width:0.26458332"
         id="path150-6"
         inkscape:connector-curvature="0" />
    </g>
    <g
       transform="translate(-1.2366667e-6,48.154185)"
       aria-label="FRQ"
       style="font-style:normal;font-variant:normal;font-weight:normal;font-stretch:normal;font-size:3.52777767px;line-height:1.25;font-family:'Arial Black';-inkscape-font-specification:'Arial Black, Normal';font-variant-ligatures:normal;font-variant-caps:normal;font-variant-numeric:normal;font-feature-settings:normal;text-align:center;letter-spacing:0px;word-spacing:0px;writing-mode:lr-tb;text-anchor:middle;display:inline;opacity:1;fill:#00ff00;fill-opacity:1;stroke:none;stroke-width:0.26458332"
       id="text162-2">
      <path
         inkscape:connector-curvature="0"
         d="m 2.8938805,38.174738 h 1.9292534 v 0.542603 H 3.6776397 v 0.440972 h 0.9784071 v 0.509874 H 3.6776397 v 1.031806 H 2.8938805 Z"
         style="fill:#00ff00;stroke-width:0.26458332"
         id="path202-6" />
      <path
         inkscape:connector-curvature="0"
         d="m 5.2537708,40.699993 v -2.525255 h 1.3005235 q 0.3617351,0 0.5529378,0.06201 0.1912028,0.06201 0.3083361,0.230821 0.1171332,0.167087 0.1171332,0.408244 0,0.210151 -0.089573,0.363458 -0.089572,0.151584 -0.2463243,0.246324 -0.099908,0.06029 -0.2738851,0.09991 0.1395264,0.04651 0.2032607,0.09302 0.043064,0.03101 0.1240234,0.132637 0.082682,0.10163 0.1102431,0.156751 l 0.3772379,0.732083 H 6.8557402 L 6.4388836,39.928292 Q 6.3596465,39.77843 6.2976347,39.733644 6.2132299,39.675077 6.1064319,39.675077 H 6.03753 v 1.024916 z M 6.03753,39.197932 h 0.3290066 q 0.053399,0 0.2067058,-0.03445 0.077515,-0.0155 0.1257459,-0.07924 0.049954,-0.06373 0.049954,-0.146416 0,-0.122301 -0.077515,-0.187758 -0.077515,-0.06546 -0.2911106,-0.06546 H 6.03753 Z"
         style="fill:#00ff00;stroke-width:0.26458332"
         id="path205-1" />
      <path
         inkscape:connector-curvature="0"
         d="m 10.159586,40.331368 q 0.146417,0.10163 0.191203,0.127468 0.06718,0.0379 0.180868,0.08785 l -0.217041,0.437528 q -0.163642,-0.07924 -0.3238393,-0.189481 -0.1601969,-0.10852 -0.2239312,-0.163642 -0.2583822,0.111966 -0.6476779,0.111966 -0.575331,0 -0.9077827,-0.299723 -0.3927408,-0.354845 -0.3927408,-0.997356 0,-0.623562 0.3427869,-0.968071 0.3445096,-0.346232 0.9611817,-0.346232 0.6287299,0 0.9697943,0.337619 0.342787,0.337619 0.342787,0.966349 0,0.559828 -0.275608,0.895725 z M 9.5618623,39.931737 q 0.093018,-0.167087 0.093018,-0.499539 0,-0.382406 -0.1429715,-0.546048 -0.1412489,-0.163642 -0.3910183,-0.163642 -0.2325439,0 -0.3772379,0.167088 -0.144694,0.167087 -0.144694,0.521931 0,0.413412 0.1412489,0.580499 0.1412489,0.167087 0.3875732,0.167087 0.079237,0 0.1498617,-0.0155 -0.098185,-0.09474 -0.3100586,-0.179145 L 9.0898843,39.68369 q 0.1033528,0.01895 0.1601969,0.04651 0.058567,0.02756 0.2256537,0.144694 0.039619,0.02756 0.086127,0.05684 z"
         style="fill:#00ff00;stroke-width:0.26458332"
         id="path207-8" />
    </g>
    <g
       transform="translate(-1.2366667e-6,48.154185)"
       aria-label="LAH"
       style="font-style:normal;font-variant:normal;font-weight:normal;font-stretch:normal;font-size:3.52777767px;line-height:1.25;font-family:'Arial Black';-inkscape-font-specification:'Arial Black, Normal';font-variant-ligatures:normal;font-variant-caps:normal;font-variant-numeric:normal;font-feature-settings:normal;text-align:center;letter-spacing:0px;word-spacing:0px;writing-mode:lr-tb;text-anchor:middle;display:inline;opacity:1;fill:#00ff00;fill-opacity:1;stroke:none;stroke-width:0.26458332"
       id="text166-7">
      <path
         inkscape:connector-curvature="0"
         d="m 15.290541,38.174738 h 0.780314 v 1.903415 h 1.217841 v 0.62184 h -1.998155 z"
         style="fill:#00ff00;stroke-width:0.26458332"
         id="path194-9" />
      <path
         inkscape:connector-curvature="0"
         d="m 19.197279,40.283137 h -0.888835 l -0.122301,0.416856 h -0.797539 l 0.949124,-2.525255 h 0.850938 l 0.949124,2.525255 h -0.816488 z m -0.163642,-0.546048 -0.279053,-0.907783 -0.27733,0.907783 z"
         style="fill:#00ff00;stroke-width:0.26458332"
         id="path196-2" />
      <path
         inkscape:connector-curvature="0"
         d="m 20.391005,38.174738 h 0.780314 v 0.883667 h 0.852661 v -0.883667 h 0.783759 v 2.525255 H 22.02398 v -1.021471 h -0.852661 v 1.021471 h -0.780314 z"
         style="fill:#00ff00;stroke-width:0.26458332"
         id="path198-0" />
    </g>
    <g
       aria-label="INV"
       style="font-style:normal;font-variant:normal;font-weight:normal;font-stretch:normal;font-size:3.52777767px;line-height:1.25;font-family:'Arial Black';-inkscape-font-specification:'Arial Black, Normal';font-variant-ligatures:normal;font-variant-caps:normal;font-variant-numeric:normal;font-feature-settings:normal;text-align:center;letter-spacing:0px;word-spacing:0px;writing-mode:lr-tb;text-anchor:middle;display:inline;opacity:1;fill:#00ff00;fill-opacity:1;stroke:none;stroke-width:0.26458332"
       id="text212-2"
       transform="translate(-0.5291669,48.683352)">
      <path
         d="M 3.6407769,53.785155 H 4.4228136 V 56.31041 H 3.6407769 Z"
         style="fill:#00ff00;stroke-width:0.26458332"
         id="path249-3"
         inkscape:connector-curvature="0" />
      <path
         d="M 4.9878093,53.785155 H 5.716447 l 0.9508463,1.396986 V 53.785155 H 7.4028212 V 56.31041 H 6.6672933 L 5.7216146,54.923759 V 56.31041 H 4.9878093 Z"
         style="fill:#00ff00;stroke-width:0.26458332"
         id="path251-7"
         inkscape:connector-curvature="0" />
      <path
         d="m 7.6715385,53.785155 h 0.8164876 l 0.5684407,1.817287 0.559828,-1.817287 H 10.408667 L 9.4716008,56.31041 H 8.6258299 Z"
         style="fill:#00ff00;stroke-width:0.26458332"
         id="path254-5"
         inkscape:connector-curvature="0" />
    </g>
    <g
       transform="translate(-1.2366667e-6,48.683352)"
       aria-label="DRV"
       style="font-style:normal;font-variant:normal;font-weight:normal;font-stretch:normal;font-size:3.52777767px;line-height:1.25;font-family:'Arial Black';-inkscape-font-specification:'Arial Black, Normal';font-variant-ligatures:normal;font-variant-caps:normal;font-variant-numeric:normal;font-feature-settings:normal;text-align:center;letter-spacing:0px;word-spacing:0px;writing-mode:lr-tb;text-anchor:middle;display:inline;opacity:1;fill:#00ff00;fill-opacity:1;stroke:none;stroke-width:0.26458332"
       id="text216-9">
      <path
         inkscape:connector-curvature="0"
         d="m 15.497417,53.785155 h 1.159275 q 0.342787,0 0.552938,0.09302 0.211873,0.09302 0.349677,0.266995 0.137804,0.173977 0.199815,0.404799 0.06201,0.230821 0.06201,0.489203 0,0.404799 -0.09302,0.62873 -0.09129,0.222209 -0.254937,0.373793 -0.163642,0.149862 -0.351399,0.199816 -0.25666,0.0689 -0.465088,0.0689 h -1.159275 z m 0.780314,0.571885 v 1.379761 h 0.191203 q 0.244602,0 0.347955,-0.0534 0.103353,-0.05512 0.161919,-0.18948 0.05857,-0.136081 0.05857,-0.43925 0,-0.401353 -0.130914,-0.549492 -0.130913,-0.14814 -0.434082,-0.14814 z"
         style="fill:#00ff00;stroke-width:0.26458332"
         id="path242-2" />
      <path
         inkscape:connector-curvature="0"
         d="m 18.241436,56.31041 v -2.525255 h 1.300523 q 0.361735,0 0.552938,0.06201 0.191203,0.06201 0.308336,0.230822 0.117133,0.167087 0.117133,0.408244 0,0.21015 -0.08957,0.363457 -0.08957,0.151584 -0.246325,0.246324 -0.09991,0.06029 -0.273885,0.09991 0.139527,0.04651 0.203261,0.09302 0.04306,0.03101 0.124023,0.132636 0.08268,0.10163 0.110244,0.156752 l 0.377237,0.732083 h -0.881944 l -0.416856,-0.771702 q -0.07924,-0.149861 -0.141249,-0.194648 -0.08441,-0.05857 -0.191203,-0.05857 h -0.0689 v 1.024916 z m 0.783759,-1.502062 h 0.329007 q 0.0534,0 0.206705,-0.03445 0.07751,-0.0155 0.125746,-0.07924 0.04995,-0.06373 0.04995,-0.146417 0,-0.122301 -0.07751,-0.187757 -0.07751,-0.06546 -0.29111,-0.06546 h -0.342787 z"
         style="fill:#00ff00;stroke-width:0.26458332"
         id="path244-2" />
      <path
         inkscape:connector-curvature="0"
         d="m 20.66506,53.785155 h 0.816488 l 0.568441,1.817287 0.559828,-1.817287 h 0.792371 l -0.937065,2.525255 h -0.845771 z"
         style="fill:#00ff00;stroke-width:0.26458332"
         id="path246-8" />
    </g>
    <g
       aria-label="IN"
       style="font-style:normal;font-variant:normal;font-weight:normal;font-stretch:normal;font-size:3.52777767px;line-height:1.25;font-family:'Arial Black';-inkscape-font-specification:'Arial Black, Normal';font-variant-ligatures:normal;font-variant-caps:normal;font-variant-numeric:normal;font-feature-settings:normal;text-align:center;letter-spacing:0px;word-spacing:0px;writing-mode:lr-tb;text-anchor:middle;fill:#000000;fill-opacity:1;stroke:none;stroke-width:0.26458332"
       id="text409">
      <path
         d="m 4.4836195,119.13721 h 0.7820366 v 2.52526 H 4.4836195 Z"
         style="fill:#00ff00;stroke-width:0.26458332"
         id="path444" />
      <path
         d="m 5.8306518,119.13721 h 0.7286377 l 0.9508463,1.39699 v -1.39699 h 0.7355279 v 2.52526 H 7.5101358 l -0.9456787,-1.38665 v 1.38665 H 5.8306518 Z"
         style="fill:#00ff00;stroke-width:0.26458332"
         id="path446" />
    </g>
    <g
       aria-label="OUT"
       style="font-style:normal;font-variant:normal;font-weight:normal;font-stretch:normal;font-size:3.52777767px;line-height:1.25;font-family:'Arial Black';-inkscape-font-specification:'Arial Black, Normal';font-variant-ligatures:normal;font-variant-caps:normal;font-variant-numeric:normal;font-feature-settings:normal;text-align:center;letter-spacing:0px;word-spacing:0px;writing-mode:lr-tb;text-anchor:middle;fill:#000000;fill-opacity:1;stroke:none;stroke-width:0.26458332"
       id="text413">
      <path
         d="m 15.262289,120.40156 q 0,-0.61839 0.34451,-0.9629 0.344509,-0.34451 0.959459,-0.34451 0.630452,0 0.971517,0.33934 0.341064,0.33762 0.341064,0.9474 0,0.4427 -0.149861,0.72692 -0.148139,0.2825 -0.430637,0.44097 -0.280776,0.15675 -0.701077,0.15675 -0.427192,0 -0.707967,-0.13608 -0.279053,-0.13608 -0.45303,-0.43064 -0.173978,-0.29455 -0.173978,-0.73725 z m 0.780314,0.003 q 0,0.3824 0.141249,0.54949 0.142972,0.16709 0.387574,0.16709 0.251492,0 0.389295,-0.16364 0.137804,-0.16365 0.137804,-0.58739 0,-0.35657 -0.144694,-0.52021 -0.142971,-0.16537 -0.389296,-0.16537 -0.235989,0 -0.37896,0.16709 -0.142972,0.16709 -0.142972,0.55294 z"
         style="fill:#ff6600;stroke-width:0.26458332"
         id="path437" />
      <path
         d="m 19.942451,119.13721 h 0.778592 v 1.50551 q 0,0.22393 -0.07062,0.42375 -0.0689,0.19809 -0.218764,0.34795 -0.148139,0.14814 -0.311781,0.20843 -0.227376,0.0844 -0.546048,0.0844 -0.184312,0 -0.403076,-0.0258 -0.217041,-0.0258 -0.363457,-0.10163 -0.146417,-0.0775 -0.268718,-0.21877 -0.120578,-0.14125 -0.165365,-0.29111 -0.07235,-0.24116 -0.07235,-0.42719 v -1.50551 h 0.778592 v 1.54168 q 0,0.20671 0.113688,0.32384 0.115411,0.11541 0.318672,0.11541 0.201538,0 0.315226,-0.11369 0.11541,-0.11541 0.11541,-0.32556 z"
         style="fill:#ff6600;stroke-width:0.26458332"
         id="path439" />
      <path
         d="m 21.060385,119.13721 h 2.371948 v 0.62357 h -0.795817 v 1.90169 h -0.780314 v -1.90169 h -0.795817 z"
         style="fill:#ff6600;stroke-width:0.26458332"
         id="path441" />
    </g>
  </g>
  <g
     inkscape:groupmode="layer"
     id="layer4"
     inkscape:label="graphics"
     transform="translate(0,28.00003)"
     style="display:inline">
    <text
       xml:space="preserve"
       style="font-style:normal;font-variant:normal;font-weight:normal;font-stretch:normal;font-size:4.58611107px;line-height:1.25;font-family:'Arial Black';-inkscape-font-specification:'Arial Black, Normal';font-variant-ligatures:normal;font-variant-caps:normal;font-variant-numeric:normal;text-align:center;letter-spacing:0px;word-spacing:0px;writing-mode:lr-tb;text-anchor:middle;fill:#000000;fill-opacity:1;stroke:none;stroke-width:0.26458332"
       x="11.90625"
       y="-21.166708"
       id="text115"><tspan
         sodipodi:role="line"
         id="tspan113"
         x="11.90625"
         y="-17.054897"
         style="stroke-width:0.26458332" /></text>
    <g
       aria-label="KRT"
       style="font-style:normal;font-variant:normal;font-weight:normal;font-stretch:normal;font-size:3.52777767px;line-height:1.25;font-family:'Arial Black';-inkscape-font-specification:'Arial Black, Normal';font-variant-ligatures:normal;font-variant-caps:normal;font-variant-numeric:normal;font-feature-settings:normal;text-align:center;letter-spacing:0px;word-spacing:0px;writing-mode:lr-tb;text-anchor:middle;fill:#000000;fill-opacity:1;stroke:none;stroke-width:0.26458332"
       id="text123"
       transform="translate(-12.170835,-117.47517)">
      <path
         d="m 14.418414,95.635115 h 0.780314 v 0.954291 l 0.81821,-0.954291 h 1.036974 l -0.91984,0.952569 0.961181,1.572686 h -0.961181 l -0.532268,-1.038696 -0.403076,0.422024 v 0.616672 h -0.780314 z"
         style="fill:#f9f9f9;stroke-width:0.26458332"
         id="path227"
         inkscape:connector-curvature="0" />
      <path
         d="m 17.363971,98.16037 v -2.525255 h 1.300523 q 0.361735,0 0.552938,0.06201 0.191203,0.06201 0.308336,0.230821 0.117133,0.167087 0.117133,0.408244 0,0.210151 -0.08957,0.363457 -0.08957,0.151585 -0.246325,0.246325 -0.09991,0.06029 -0.273885,0.09991 0.139527,0.04651 0.203261,0.09302 0.04306,0.03101 0.124023,0.132636 0.08268,0.101631 0.110243,0.156752 l 0.377238,0.732083 H 18.96594 l -0.416857,-0.771701 q -0.07924,-0.149862 -0.141248,-0.194648 -0.08441,-0.05857 -0.191203,-0.05857 h -0.0689 v 1.024916 z m 0.783759,-1.502062 h 0.329006 q 0.0534,0 0.206706,-0.03445 0.07752,-0.0155 0.125746,-0.07924 0.04995,-0.06373 0.04995,-0.146416 0,-0.122301 -0.07751,-0.187758 -0.07751,-0.06546 -0.29111,-0.06546 H 18.14773 Z"
         style="fill:#f9f9f9;stroke-width:0.26458332"
         id="path229"
         inkscape:connector-curvature="0" />
      <path
         d="m 19.889226,95.635115 h 2.371948 v 0.623562 h -0.795817 v 1.901693 h -0.780314 v -1.901693 h -0.795817 z"
         style="fill:#f9f9f9;stroke-width:0.26458332"
         id="path231"
         inkscape:connector-curvature="0" />
    </g>
    <g
       aria-label="Ω"
       style="font-style:normal;font-variant:normal;font-weight:normal;font-stretch:normal;font-size:3.52777767px;line-height:1.25;font-family:'Arial Black';-inkscape-font-specification:'Arial Black, Normal';font-variant-ligatures:normal;font-variant-caps:normal;font-variant-numeric:normal;font-feature-settings:normal;text-align:center;letter-spacing:0px;word-spacing:0px;writing-mode:lr-tb;text-anchor:middle;fill:#000000;fill-opacity:1;stroke:none;stroke-width:0.26458332"
       id="text107"
       transform="matrix(2.52226,0,0,2.4814703,-16.867486,28.084873)" />
    <g
       aria-label="F"
       transform="scale(1.204776,0.83002985)"
       style="font-style:normal;font-variant:normal;font-weight:normal;font-stretch:normal;font-size:7.14471245px;line-height:1.25;font-family:'Arial Black';-inkscape-font-specification:'Arial Black, Normal';font-variant-ligatures:normal;font-variant-caps:normal;font-variant-numeric:normal;font-feature-settings:normal;text-align:center;letter-spacing:0px;word-spacing:0px;writing-mode:lr-tb;text-anchor:middle;fill:#000000;fill-opacity:1;stroke:none;stroke-width:0.53585339"
       id="text135">
      <path
         d="m 9.1233365,-29.021654 h 3.9072645 v 1.098918 h -2.319938 v 0.893089 h 1.981541 v 1.032634 h -1.981541 v 2.089689 H 9.1233365 Z"
         style="stroke-width:0.53585339"
         id="path137" />
    </g>
  </g>
</svg>
