<?xml version="1.0" encoding="UTF-8" standalone="no"?>
<!-- Created with Inkscape (http://www.inkscape.org/) -->

<svg
   xmlns:dc="http://purl.org/dc/elements/1.1/"
   xmlns:cc="http://creativecommons.org/ns#"
   xmlns:rdf="http://www.w3.org/1999/02/22-rdf-syntax-ns#"
   xmlns:svg="http://www.w3.org/2000/svg"
   xmlns="http://www.w3.org/2000/svg"
   xmlns:sodipodi="http://sodipodi.sourceforge.net/DTD/sodipodi-0.dtd"
   xmlns:inkscape="http://www.inkscape.org/namespaces/inkscape"
   width="25.4mm"
   height="128.54166mm"
   viewBox="0 0 25.4 128.5417"
   version="1.1"
   id="svg4541"
   sodipodi:docname="G.svg"
   inkscape:version="0.92.5 (2060ec1f9f, 2020-04-08)">
  <defs
     id="defs4535" />
  <sodipodi:namedview
     id="base"
     pagecolor="#ffffff"
     bordercolor="#666666"
     borderopacity="1.0"
     inkscape:pageopacity="0.0"
     inkscape:pageshadow="2"
     inkscape:zoom="4"
     inkscape:cx="96.628"
     inkscape:cy="91.700652"
     inkscape:document-units="mm"
     inkscape:current-layer="layer1"
     showgrid="true"
     fit-margin-top="0"
     fit-margin-left="0"
     fit-margin-right="0"
     fit-margin-bottom="0"
     inkscape:window-width="1600"
     inkscape:window-height="845"
     inkscape:window-x="0"
     inkscape:window-y="0"
     inkscape:window-maximized="1"
     units="mm">
    <inkscape:grid
       type="xygrid"
       id="grid76" />
  </sodipodi:namedview>
  <metadata
     id="metadata4538">
    <rdf:RDF>
      <cc:Work
         rdf:about="">
        <dc:format>image/svg+xml</dc:format>
        <dc:type
           rdf:resource="http://purl.org/dc/dcmitype/StillImage" />
        <dc:title />
      </cc:Work>
    </rdf:RDF>
  </metadata>
  <g
     inkscape:groupmode="layer"
     id="layer1"
     inkscape:label="Background"
     style="display:inline;opacity:1">
    <rect
       style="fill:#4d4d4d;stroke-width:0.27736092"
       id="rect111"
       width="25.466146"
       height="128.32292"
       x="0"
       y="0.21873982" />
    <g
       transform="translate(-1.2366667e-6,48.154185)"
       aria-label="FRQ"
       style="font-style:normal;font-variant:normal;font-weight:normal;font-stretch:normal;font-size:3.52777767px;line-height:1.25;font-family:'Arial Black';-inkscape-font-specification:'Arial Black, Normal';font-variant-ligatures:normal;font-variant-caps:normal;font-variant-numeric:normal;font-feature-settings:normal;text-align:center;letter-spacing:0px;word-spacing:0px;writing-mode:lr-tb;text-anchor:middle;display:inline;opacity:1;fill:#00ff00;fill-opacity:1;stroke:none;stroke-width:0.26458332"
       id="text162-2">
      <path
         inkscape:connector-curvature="0"
         d="m 2.8938805,38.174738 h 1.9292534 v 0.542603 H 3.6776397 v 0.440972 h 0.9784071 v 0.509874 H 3.6776397 v 1.031806 H 2.8938805 Z"
         style="fill:#00ff00;stroke-width:0.26458332"
         id="path202-6" />
      <path
         inkscape:connector-curvature="0"
         d="m 5.2537708,40.699993 v -2.525255 h 1.3005235 q 0.3617351,0 0.5529378,0.06201 0.1912028,0.06201 0.3083361,0.230821 0.1171332,0.167087 0.1171332,0.408244 0,0.210151 -0.089573,0.363458 -0.089572,0.151584 -0.2463243,0.246324 -0.099908,0.06029 -0.2738851,0.09991 0.1395264,0.04651 0.2032607,0.09302 0.043064,0.03101 0.1240234,0.132637 0.082682,0.10163 0.1102431,0.156751 l 0.3772379,0.732083 H 6.8557402 L 6.4388836,39.928292 Q 6.3596465,39.77843 6.2976347,39.733644 6.2132299,39.675077 6.1064319,39.675077 H 6.03753 v 1.024916 z M 6.03753,39.197932 h 0.3290066 q 0.053399,0 0.2067058,-0.03445 0.077515,-0.0155 0.1257459,-0.07924 0.049954,-0.06373 0.049954,-0.146416 0,-0.122301 -0.077515,-0.187758 -0.077515,-0.06546 -0.2911106,-0.06546 H 6.03753 Z"
         style="fill:#00ff00;stroke-width:0.26458332"
         id="path205-1" />
      <path
         inkscape:connector-curvature="0"
         d="m 10.159586,40.331368 q 0.146417,0.10163 0.191203,0.127468 0.06718,0.0379 0.180868,0.08785 l -0.217041,0.437528 q -0.163642,-0.07924 -0.3238393,-0.189481 -0.1601969,-0.10852 -0.2239312,-0.163642 -0.2583822,0.111966 -0.6476779,0.111966 -0.575331,0 -0.9077827,-0.299723 -0.3927408,-0.354845 -0.3927408,-0.997356 0,-0.623562 0.3427869,-0.968071 0.3445096,-0.346232 0.9611817,-0.346232 0.6287299,0 0.9697943,0.337619 0.342787,0.337619 0.342787,0.966349 0,0.559828 -0.275608,0.895725 z M 9.5618623,39.931737 q 0.093018,-0.167087 0.093018,-0.499539 0,-0.382406 -0.1429715,-0.546048 -0.1412489,-0.163642 -0.3910183,-0.163642 -0.2325439,0 -0.3772379,0.167088 -0.144694,0.167087 -0.144694,0.521931 0,0.413412 0.1412489,0.580499 0.1412489,0.167087 0.3875732,0.167087 0.079237,0 0.1498617,-0.0155 -0.098185,-0.09474 -0.3100586,-0.179145 L 9.0898843,39.68369 q 0.1033528,0.01895 0.1601969,0.04651 0.058567,0.02756 0.2256537,0.144694 0.039619,0.02756 0.086127,0.05684 z"
         style="fill:#00ff00;stroke-width:0.26458332"
         id="path207-8" />
    </g>
    <g
       aria-label="IN"
       style="font-style:normal;font-variant:normal;font-weight:normal;font-stretch:normal;font-size:3.52777767px;line-height:1.25;font-family:'Arial Black';-inkscape-font-specification:'Arial Black, Normal';font-variant-ligatures:normal;font-variant-caps:normal;font-variant-numeric:normal;font-feature-settings:normal;text-align:center;letter-spacing:0px;word-spacing:0px;writing-mode:lr-tb;text-anchor:middle;fill:#000000;fill-opacity:1;stroke:none;stroke-width:0.26458332"
       id="text409">
      <path
         d="m 4.4836195,119.13721 h 0.7820366 v 2.52526 H 4.4836195 Z"
         style="fill:#00ff00;stroke-width:0.26458332"
         id="path444" />
      <path
         d="m 5.8306518,119.13721 h 0.7286377 l 0.9508463,1.39699 v -1.39699 h 0.7355279 v 2.52526 H 7.5101358 l -0.9456787,-1.38665 v 1.38665 H 5.8306518 Z"
         style="fill:#00ff00;stroke-width:0.26458332"
         id="path446" />
    </g>
    <g
       aria-label="OUT"
       style="font-style:normal;font-variant:normal;font-weight:normal;font-stretch:normal;font-size:3.52777767px;line-height:1.25;font-family:'Arial Black';-inkscape-font-specification:'Arial Black, Normal';font-variant-ligatures:normal;font-variant-caps:normal;font-variant-numeric:normal;font-feature-settings:normal;text-align:center;letter-spacing:0px;word-spacing:0px;writing-mode:lr-tb;text-anchor:middle;fill:#000000;fill-opacity:1;stroke:none;stroke-width:0.26458332"
       id="text413">
      <path
         d="m 15.262289,120.40156 q 0,-0.61839 0.34451,-0.9629 0.344509,-0.34451 0.959459,-0.34451 0.630452,0 0.971517,0.33934 0.341064,0.33762 0.341064,0.9474 0,0.4427 -0.149861,0.72692 -0.148139,0.2825 -0.430637,0.44097 -0.280776,0.15675 -0.701077,0.15675 -0.427192,0 -0.707967,-0.13608 -0.279053,-0.13608 -0.45303,-0.43064 -0.173978,-0.29455 -0.173978,-0.73725 z m 0.780314,0.003 q 0,0.3824 0.141249,0.54949 0.142972,0.16709 0.387574,0.16709 0.251492,0 0.389295,-0.16364 0.137804,-0.16365 0.137804,-0.58739 0,-0.35657 -0.144694,-0.52021 -0.142971,-0.16537 -0.389296,-0.16537 -0.235989,0 -0.37896,0.16709 -0.142972,0.16709 -0.142972,0.55294 z"
         style="fill:#ff6600;stroke-width:0.26458332"
         id="path437" />
      <path
         d="m 19.942451,119.13721 h 0.778592 v 1.50551 q 0,0.22393 -0.07062,0.42375 -0.0689,0.19809 -0.218764,0.34795 -0.148139,0.14814 -0.311781,0.20843 -0.227376,0.0844 -0.546048,0.0844 -0.184312,0 -0.403076,-0.0258 -0.217041,-0.0258 -0.363457,-0.10163 -0.146417,-0.0775 -0.268718,-0.21877 -0.120578,-0.14125 -0.165365,-0.29111 -0.07235,-0.24116 -0.07235,-0.42719 v -1.50551 h 0.778592 v 1.54168 q 0,0.20671 0.113688,0.32384 0.115411,0.11541 0.318672,0.11541 0.201538,0 0.315226,-0.11369 0.11541,-0.11541 0.11541,-0.32556 z"
         style="fill:#ff6600;stroke-width:0.26458332"
         id="path439" />
      <path
         d="m 21.060385,119.13721 h 2.371948 v 0.62357 h -0.795817 v 1.90169 h -0.780314 v -1.90169 h -0.795817 z"
         style="fill:#ff6600;stroke-width:0.26458332"
         id="path441" />
    </g>
    <g
       aria-label="ATK"
       style="font-style:normal;font-variant:normal;font-weight:normal;font-stretch:normal;font-size:3.52777767px;line-height:1.25;font-family:'Arial Black';-inkscape-font-specification:'Arial Black, Normal';font-variant-ligatures:normal;font-variant-caps:normal;font-variant-numeric:normal;font-feature-settings:normal;text-align:center;letter-spacing:0px;word-spacing:0px;writing-mode:lr-tb;text-anchor:middle;fill:#ffff00;fill-opacity:1;stroke:none;stroke-width:0.26458332"
       id="text101">
      <path
         d="M 4.4991227,24.077404 H 3.6102881 L 3.4879872,24.494261 H 2.6904477 L 3.6395714,21.969006 H 4.49051 l 0.9491238,2.525255 H 4.6231462 Z M 4.3354807,23.531357 4.056428,22.623574 3.7790978,23.531357 Z"
         style="fill:#ffff00;stroke-width:0.26458332"
         id="path273" />
      <path
         d="m 5.2691015,21.969006 h 2.3719481 v 0.623562 h -0.795817 v 1.901693 H 6.0649185 v -1.901693 h -0.795817 z"
         style="fill:#ffff00;stroke-width:0.26458332"
         id="path275" />
      <path
         d="M 7.9976169,21.969006 H 8.777931 v 0.954291 l 0.8182102,-0.954291 h 1.0369738 l -0.9198406,0.952569 0.9611816,1.572686 H 9.7132744 L 9.1810072,23.455565 8.777931,23.877589 v 0.616672 H 7.9976169 Z"
         style="fill:#ffff00;stroke-width:0.26458332"
         id="path277" />
    </g>
    <g
       aria-label="DCY"
       style="font-style:normal;font-variant:normal;font-weight:normal;font-stretch:normal;font-size:3.52777767px;line-height:1.25;font-family:'Arial Black';-inkscape-font-specification:'Arial Black, Normal';font-variant-ligatures:normal;font-variant-caps:normal;font-variant-numeric:normal;font-feature-settings:normal;text-align:center;letter-spacing:0px;word-spacing:0px;writing-mode:lr-tb;text-anchor:middle;fill:#ffff00;fill-opacity:1;stroke:none;stroke-width:0.26458332"
       id="text105">
      <path
         d="m 15.004248,22.035153 h 1.159275 q 0.342787,0 0.552938,0.09302 0.211873,0.09302 0.349677,0.266995 0.137804,0.173978 0.199816,0.404799 0.06201,0.230821 0.06201,0.489203 0,0.404799 -0.09302,0.62873 -0.09129,0.222209 -0.254937,0.373793 -0.163642,0.149862 -0.3514,0.199816 -0.25666,0.0689 -0.465088,0.0689 h -1.159275 z m 0.780315,0.571886 v 1.37976 h 0.191202 q 0.244602,0 0.347955,-0.0534 0.103353,-0.05512 0.161919,-0.18948 0.05857,-0.136081 0.05857,-0.43925 0,-0.401353 -0.130914,-0.549492 -0.130913,-0.148139 -0.434082,-0.148139 z"
         style="fill:#ffff00;stroke-width:0.26458332"
         id="path266" />
      <path
         d="m 19.419138,23.528602 0.683852,0.206705 q -0.0689,0.287666 -0.217041,0.480591 -0.148139,0.192925 -0.368626,0.291111 -0.218763,0.09819 -0.558105,0.09819 -0.411689,0 -0.673516,-0.118856 -0.260105,-0.120578 -0.449585,-0.422024 -0.18948,-0.301446 -0.18948,-0.771701 0,-0.627008 0.332451,-0.962905 0.334175,-0.337619 0.943956,-0.337619 0.477146,0 0.749309,0.192925 0.273885,0.192926 0.406521,0.592557 l -0.689019,0.153307 q -0.03617,-0.115411 -0.07579,-0.16881 -0.06546,-0.08957 -0.160197,-0.137804 -0.09474,-0.04823 -0.211873,-0.04823 -0.265273,0 -0.406522,0.213596 -0.106798,0.158474 -0.106798,0.497816 0,0.420302 0.127469,0.577053 0.127468,0.15503 0.35829,0.15503 0.223931,0 0.337619,-0.125746 0.115411,-0.125746 0.167087,-0.36518 z"
         style="fill:#ffff00;stroke-width:0.26458332"
         id="path268" />
      <path
         d="m 20.227013,22.035153 h 0.866442 l 0.509874,0.852661 0.509874,-0.852661 h 0.861274 l -0.981852,1.46761 v 1.057645 h -0.782037 v -1.057645 z"
         style="fill:#ffff00;stroke-width:0.26458332"
         id="path270" />
    </g>
    <g
       aria-label="THR"
       style="font-style:normal;font-variant:normal;font-weight:normal;font-stretch:normal;font-size:3.52777767px;line-height:1.25;font-family:'Arial Black';-inkscape-font-specification:'Arial Black, Normal';font-variant-ligatures:normal;font-variant-caps:normal;font-variant-numeric:normal;font-feature-settings:normal;text-align:center;letter-spacing:0px;word-spacing:0px;writing-mode:lr-tb;text-anchor:middle;fill:#ffff00;fill-opacity:1;stroke:none;stroke-width:0.26458332"
       id="text109">
      <path
         d="M 2.2496478,38.108588 H 4.621596 V 38.73215 H 3.8257789 v 1.901692 H 3.0454648 V 38.73215 h -0.795817 z"
         style="fill:#ffff00;stroke-width:0.26458332"
         id="path259" />
      <path
         d="m 4.9781633,38.108588 h 0.7803141 v 0.883667 h 0.8526611 v -0.883667 h 0.7837592 v 2.525254 H 6.6111385 v -1.02147 H 5.7584774 v 1.02147 H 4.9781633 Z"
         style="fill:#ffff00;stroke-width:0.26458332"
         id="path261" />
      <path
         d="m 7.9237198,40.633842 v -2.525254 h 1.3005235 q 0.361735,0 0.5529378,0.06201 0.1912028,0.06201 0.3083359,0.230822 0.117133,0.167087 0.117133,0.408243 0,0.210151 -0.08957,0.363458 -0.08957,0.151584 -0.2463244,0.246324 -0.099908,0.06029 -0.2738851,0.09991 0.1395264,0.04651 0.2032606,0.09302 0.043064,0.03101 0.1240235,0.132636 0.082682,0.10163 0.1102434,0.156752 l 0.377238,0.732082 H 9.5256891 L 9.1088326,39.862141 Q 9.0295954,39.712279 8.9675837,39.667493 8.8831789,39.608927 8.7763809,39.608927 H 8.707479 v 1.024915 z M 8.707479,39.131781 h 0.3290066 q 0.053399,0 0.2067057,-0.03445 0.077515,-0.0155 0.125746,-0.07924 0.049954,-0.06374 0.049954,-0.146417 0,-0.122301 -0.077515,-0.187758 -0.077515,-0.06546 -0.2911105,-0.06546 H 8.707479 Z"
         style="fill:#ffff00;stroke-width:0.26458332"
         id="path263" />
    </g>
    <g
       aria-label="RTO"
       style="font-style:normal;font-variant:normal;font-weight:normal;font-stretch:normal;font-size:3.52777767px;line-height:1.25;font-family:'Arial Black';-inkscape-font-specification:'Arial Black, Normal';font-variant-ligatures:normal;font-variant-caps:normal;font-variant-numeric:normal;font-feature-settings:normal;text-align:center;letter-spacing:0px;word-spacing:0px;writing-mode:lr-tb;text-anchor:middle;fill:#ffff00;fill-opacity:1;stroke:none;stroke-width:0.26458332"
       id="text114">
      <path
         d="m 15.279339,40.699989 v -2.525255 h 1.300523 q 0.361735,0 0.552938,0.06201 0.191203,0.06201 0.308336,0.230822 0.117133,0.167087 0.117133,0.408243 0,0.210151 -0.08957,0.363458 -0.08957,0.151584 -0.246325,0.246324 -0.09991,0.06029 -0.273885,0.09991 0.139527,0.04651 0.203261,0.09302 0.04306,0.03101 0.124023,0.132636 0.08268,0.10163 0.110243,0.156752 l 0.377238,0.732082 h -0.881944 l -0.416857,-0.771701 q -0.07924,-0.149862 -0.141249,-0.194648 -0.0844,-0.05857 -0.191202,-0.05857 h -0.0689 v 1.024916 z m 0.783759,-1.502061 h 0.329006 q 0.0534,0 0.206706,-0.03445 0.07751,-0.0155 0.125746,-0.07924 0.04995,-0.06374 0.04995,-0.146417 0,-0.122301 -0.07751,-0.187758 -0.07751,-0.06546 -0.29111,-0.06546 h -0.342787 z"
         style="fill:#ffff00;stroke-width:0.26458332"
         id="path252" />
      <path
         d="m 17.804594,38.174734 h 2.371948 v 0.623563 h -0.795817 v 1.901692 h -0.780314 v -1.901692 h -0.795817 z"
         style="fill:#ffff00;stroke-width:0.26458332"
         id="path254" />
      <path
         d="m 20.3109,39.439084 q 0,-0.618394 0.34451,-0.962904 0.344509,-0.344509 0.959459,-0.344509 0.630452,0 0.971517,0.339342 0.341064,0.337619 0.341064,0.947401 0,0.442695 -0.149861,0.726915 -0.148139,0.282498 -0.430637,0.440972 -0.280776,0.156752 -0.701077,0.156752 -0.427192,0 -0.707967,-0.136081 Q 20.658855,40.47089 20.484878,40.176335 20.3109,39.881779 20.3109,39.439084 Z m 0.780314,0.0034 q 0,0.382405 0.141249,0.549492 0.142972,0.167087 0.387574,0.167087 0.251492,0 0.389295,-0.163642 0.137804,-0.163642 0.137804,-0.587388 0,-0.356568 -0.144694,-0.52021 -0.142971,-0.165364 -0.389296,-0.165364 -0.235989,0 -0.37896,0.167087 -0.142972,0.167087 -0.142972,0.552938 z"
         style="fill:#ffff00;stroke-width:0.26458332"
         id="path256" />
    </g>
    <g
       aria-label="CUT"
       style="font-style:normal;font-variant:normal;font-weight:normal;font-stretch:normal;font-size:3.52777767px;line-height:1.25;font-family:'Arial Black';-inkscape-font-specification:'Arial Black, Normal';font-variant-ligatures:normal;font-variant-caps:normal;font-variant-numeric:normal;font-feature-settings:normal;text-align:center;letter-spacing:0px;word-spacing:0px;writing-mode:lr-tb;text-anchor:middle;fill:#ffff00;fill-opacity:1;stroke:none;stroke-width:0.26458332"
       id="text118">
      <path
         d="m 4.3728599,55.344747 0.6838514,0.206705 q -0.068902,0.287666 -0.217041,0.480591 -0.1481391,0.192925 -0.3686252,0.291111 -0.2187636,0.09819 -0.5581055,0.09819 -0.4116889,0 -0.6735161,-0.118856 -0.2601047,-0.120578 -0.449585,-0.422024 -0.1894802,-0.301446 -0.1894802,-0.771702 0,-0.627007 0.3324517,-0.962904 0.3341742,-0.337619 0.9439561,-0.337619 0.4771457,0 0.7493083,0.192925 0.2738851,0.192926 0.4065212,0.592557 l -0.689019,0.153306 q -0.036174,-0.11541 -0.075792,-0.168809 -0.065457,-0.08957 -0.160197,-0.137804 -0.09474,-0.04823 -0.2118733,-0.04823 -0.2652724,0 -0.4065213,0.213596 -0.106798,0.158474 -0.106798,0.497816 0,0.420301 0.1274686,0.577053 0.1274685,0.15503 0.3582899,0.15503 0.2239312,0 0.3376193,-0.125746 0.1154107,-0.125746 0.1670872,-0.36518 z"
         style="fill:#ffff00;stroke-width:0.26458332"
         id="path245" />
      <path
         d="m 7.0789824,53.851298 h 0.7785915 v 1.505506 q 0,0.223932 -0.070624,0.423747 -0.068902,0.198093 -0.2187636,0.347955 -0.1481391,0.148139 -0.3117811,0.208428 -0.2273763,0.08441 -0.5460476,0.08441 -0.1843126,0 -0.4030762,-0.02584 Q 6.09024,56.369662 5.9438234,56.29387 5.7974069,56.216356 5.675106,56.075107 5.5545277,55.933858 5.5097414,55.783996 5.4373944,55.542839 5.4373944,55.356804 V 53.851298 H 6.215986 v 1.54168 q 0,0.206706 0.1136881,0.323839 0.1154107,0.115411 0.3186713,0.115411 0.2015381,0 0.3152263,-0.113689 0.1154107,-0.11541 0.1154107,-0.325561 z"
         style="fill:#ffff00;stroke-width:0.26458332"
         id="path247" />
      <path
         d="M 8.1969158,53.851298 H 10.568864 V 54.47486 H 9.7730469 v 1.901693 H 8.9927328 V 54.47486 h -0.795817 z"
         style="fill:#ffff00;stroke-width:0.26458332"
         id="path249" />
    </g>
    <g
       aria-label="Q"
       style="font-style:normal;font-variant:normal;font-weight:normal;font-stretch:normal;font-size:3.52777767px;line-height:1.25;font-family:'Arial Black';-inkscape-font-specification:'Arial Black, Normal';font-variant-ligatures:normal;font-variant-caps:normal;font-variant-numeric:normal;font-feature-settings:normal;text-align:center;letter-spacing:0px;word-spacing:0px;writing-mode:lr-tb;text-anchor:middle;fill:#ffff00;fill-opacity:1;stroke:none;stroke-width:0.26458332"
       id="text122">
      <path
         d="m 20.015658,56.007927 q 0.146417,0.101631 0.191203,0.127469 0.06718,0.0379 0.180868,0.08785 l -0.217041,0.437527 q -0.163642,-0.07924 -0.323839,-0.18948 -0.160197,-0.108521 -0.223931,-0.163642 -0.258383,0.111965 -0.647678,0.111965 -0.575331,0 -0.907783,-0.299723 -0.392741,-0.354845 -0.392741,-0.997355 0,-0.623562 0.342787,-0.968072 0.34451,-0.346232 0.961182,-0.346232 0.62873,0 0.969794,0.337619 0.342787,0.33762 0.342787,0.96635 0,0.559828 -0.275608,0.895724 z m -0.597724,-0.399631 q 0.09302,-0.167087 0.09302,-0.499539 0,-0.382405 -0.142971,-0.546047 -0.141249,-0.163642 -0.391019,-0.163642 -0.232544,0 -0.377238,0.167087 -0.144694,0.167087 -0.144694,0.521932 0,0.413411 0.141249,0.580498 0.141249,0.167088 0.387573,0.167088 0.07924,0 0.149862,-0.0155 -0.09819,-0.09474 -0.310059,-0.179145 l 0.122301,-0.280776 q 0.103353,0.01895 0.160197,0.04651 0.05857,0.02756 0.225654,0.144694 0.03962,0.02756 0.08613,0.05684 z"
         style="fill:#ffff00;stroke-width:0.26458332"
         id="path242" />
    </g>
    <g
       aria-label="MIX"
       style="font-style:normal;font-variant:normal;font-weight:normal;font-stretch:normal;font-size:3.52777767px;line-height:1.25;font-family:'Arial Black';-inkscape-font-specification:'Arial Black, Normal';font-variant-ligatures:normal;font-variant-caps:normal;font-variant-numeric:normal;font-feature-settings:normal;text-align:center;letter-spacing:0px;word-spacing:0px;writing-mode:lr-tb;text-anchor:middle;fill:#ffff00;fill-opacity:1;stroke:none;stroke-width:0.26458332"
       id="text126">
      <path
         d="m 3.0087743,70.189314 h 1.0266384 l 0.396186,1.536513 0.3944634,-1.536513 h 1.0231933 v 2.525255 H 5.2119128 V 70.788761 L 4.7175416,72.714569 H 4.1404881 L 3.6478395,70.788761 v 1.925808 H 3.0087743 Z"
         style="fill:#ffff00;stroke-width:0.26458332"
         id="path235" />
      <path
         d="m 6.3780776,70.189314 h 0.7820367 v 2.525255 H 6.3780776 Z"
         style="fill:#ffff00;stroke-width:0.26458332"
         id="path237" />
      <path
         d="m 7.5459649,70.189314 h 0.8595513 l 0.4478624,0.776869 0.434082,-0.776869 h 0.8509384 l -0.7854816,1.223009 0.8595516,1.302246 H 9.3356919 l -0.4978163,-0.81132 -0.4995388,0.81132 H 7.4667277 l 0.8716091,-1.316026 z"
         style="fill:#ffff00;stroke-width:0.26458332"
         id="path239" />
    </g>
    <g
       aria-label="ENV"
       style="font-style:normal;font-variant:normal;font-weight:normal;font-stretch:normal;font-size:3.52777767px;line-height:1.25;font-family:'Arial Black';-inkscape-font-specification:'Arial Black, Normal';font-variant-ligatures:normal;font-variant-caps:normal;font-variant-numeric:normal;font-feature-settings:normal;text-align:center;letter-spacing:0px;word-spacing:0px;writing-mode:lr-tb;text-anchor:middle;fill:#ffff00;fill-opacity:1;stroke:none;stroke-width:0.26458332"
       id="text130">
      <path
         d="m 15.125344,70.123167 h 2.091173 v 0.539158 H 15.90738 v 0.401353 h 1.214396 V 71.57872 H 15.90738 v 0.497816 h 1.347033 v 0.571886 h -2.129069 z"
         style="fill:#ffff00;stroke-width:0.26458332"
         id="path228" />
      <path
         d="m 17.679882,70.123167 h 0.728637 l 0.950847,1.396987 v -1.396987 h 0.735528 v 2.525255 h -0.735528 l -0.945679,-1.386651 v 1.386651 h -0.733805 z"
         style="fill:#ffff00;stroke-width:0.26458332"
         id="path230" />
      <path
         d="m 20.363611,70.123167 h 0.816488 l 0.56844,1.817288 0.559828,-1.817288 h 0.792372 l -0.937066,2.525255 h -0.84577 z"
         style="fill:#ffff00;stroke-width:0.26458332"
         id="path232" />
    </g>
    <g
       transform="translate(12.197359,48.154163)"
       aria-label="FRQ"
       style="font-style:normal;font-variant:normal;font-weight:normal;font-stretch:normal;font-size:3.52777767px;line-height:1.25;font-family:'Arial Black';-inkscape-font-specification:'Arial Black, Normal';font-variant-ligatures:normal;font-variant-caps:normal;font-variant-numeric:normal;font-feature-settings:normal;text-align:center;letter-spacing:0px;word-spacing:0px;writing-mode:lr-tb;text-anchor:middle;display:inline;opacity:1;fill:#ff6600;fill-opacity:1;stroke:none;stroke-width:0.26458332"
       id="text162-2-3">
      <path
         inkscape:connector-curvature="0"
         d="m 2.8938805,38.174738 h 1.9292534 v 0.542603 H 3.6776397 v 0.440972 h 0.9784071 v 0.509874 H 3.6776397 v 1.031806 H 2.8938805 Z"
         style="fill:#ff6600;stroke-width:0.26458332"
         id="path202-6-6" />
      <path
         inkscape:connector-curvature="0"
         d="m 5.2537708,40.699993 v -2.525255 h 1.3005235 q 0.3617351,0 0.5529378,0.06201 0.1912028,0.06201 0.3083361,0.230821 0.1171332,0.167087 0.1171332,0.408244 0,0.210151 -0.089573,0.363458 -0.089572,0.151584 -0.2463243,0.246324 -0.099908,0.06029 -0.2738851,0.09991 0.1395264,0.04651 0.2032607,0.09302 0.043064,0.03101 0.1240234,0.132637 0.082682,0.10163 0.1102431,0.156751 l 0.3772379,0.732083 H 6.8557402 L 6.4388836,39.928292 Q 6.3596465,39.77843 6.2976347,39.733644 6.2132299,39.675077 6.1064319,39.675077 H 6.03753 v 1.024916 z M 6.03753,39.197932 h 0.3290066 q 0.053399,0 0.2067058,-0.03445 0.077515,-0.0155 0.1257459,-0.07924 0.049954,-0.06373 0.049954,-0.146416 0,-0.122301 -0.077515,-0.187758 -0.077515,-0.06546 -0.2911106,-0.06546 H 6.03753 Z"
         style="fill:#ff6600;stroke-width:0.26458332"
         id="path205-1-7" />
      <path
         inkscape:connector-curvature="0"
         d="m 10.159586,40.331368 q 0.146417,0.10163 0.191203,0.127468 0.06718,0.0379 0.180868,0.08785 l -0.217041,0.437528 q -0.163642,-0.07924 -0.3238393,-0.189481 -0.1601969,-0.10852 -0.2239312,-0.163642 -0.2583822,0.111966 -0.6476779,0.111966 -0.575331,0 -0.9077827,-0.299723 -0.3927408,-0.354845 -0.3927408,-0.997356 0,-0.623562 0.3427869,-0.968071 0.3445096,-0.346232 0.9611817,-0.346232 0.6287299,0 0.9697943,0.337619 0.342787,0.337619 0.342787,0.966349 0,0.559828 -0.275608,0.895725 z M 9.5618623,39.931737 q 0.093018,-0.167087 0.093018,-0.499539 0,-0.382406 -0.1429715,-0.546048 -0.1412489,-0.163642 -0.3910183,-0.163642 -0.2325439,0 -0.3772379,0.167088 -0.144694,0.167087 -0.144694,0.521931 0,0.413412 0.1412489,0.580499 0.1412489,0.167087 0.3875732,0.167087 0.079237,0 0.1498617,-0.0155 -0.098185,-0.09474 -0.3100586,-0.179145 L 9.0898843,39.68369 q 0.1033528,0.01895 0.1601969,0.04651 0.058567,0.02756 0.2256537,0.144694 0.039619,0.02756 0.086127,0.05684 z"
         style="fill:#ff6600;stroke-width:0.26458332"
         id="path207-8-5" />
    </g>
    <g
       aria-label="SCH"
       style="font-style:normal;font-variant:normal;font-weight:normal;font-stretch:normal;font-size:3.52777767px;line-height:1.25;font-family:'Arial Black';-inkscape-font-specification:'Arial Black, Normal';font-variant-ligatures:normal;font-variant-caps:normal;font-variant-numeric:normal;font-feature-settings:normal;text-align:center;letter-spacing:0px;word-spacing:0px;writing-mode:lr-tb;text-anchor:middle;fill:#00ff00;fill-opacity:1;stroke:none;stroke-width:0.26458332"
       id="text318">
      <path
         d="m 2.9524474,104.22445 0.7424181,-0.0465 q 0.024116,0.18087 0.098185,0.27561 0.1205783,0.1533 0.3445095,0.1533 0.1670872,0 0.2566596,-0.0775 0.091295,-0.0792 0.091295,-0.18259 0,-0.0982 -0.086127,-0.1757 -0.086127,-0.0775 -0.3996311,-0.14642 -0.5133192,-0.11541 -0.7320827,-0.30661 -0.2204861,-0.1912 -0.2204861,-0.48748 0,-0.19465 0.1119656,-0.36691 0.1136881,-0.17397 0.3393418,-0.27216 0.2273763,-0.0999 0.6218398,-0.0999 0.4840359,0 0.7372504,0.18087 0.254937,0.17915 0.3031684,0.57189 l -0.7355279,0.0431 q -0.029283,-0.17053 -0.1240234,-0.24805 -0.093018,-0.0775 -0.2583822,-0.0775 -0.1360813,0 -0.2049832,0.0586 -0.068902,0.0568 -0.068902,0.13952 0,0.0603 0.056844,0.10852 0.055121,0.05 0.2618273,0.093 0.5115966,0.11024 0.7320827,0.22393 0.2222087,0.11197 0.3221164,0.27906 0.1016304,0.16708 0.1016304,0.37379 0,0.24288 -0.1343588,0.44786 -0.1343587,0.20498 -0.3755154,0.31178 -0.2411566,0.10508 -0.6080593,0.10508 -0.6442328,0 -0.8922797,-0.24805 -0.2480469,-0.24805 -0.2807753,-0.63045 z"
         style="fill:#00ff00;stroke-width:0.26458332"
         id="path355" />
      <path
         d="m 7.3173832,104.02808 0.6838514,0.2067 q -0.068902,0.28767 -0.217041,0.48059 -0.1481391,0.19293 -0.3686252,0.29111 -0.2187635,0.0982 -0.5581054,0.0982 -0.4116889,0 -0.6735162,-0.11886 -0.2601047,-0.12057 -0.4495849,-0.42202 -0.1894803,-0.30145 -0.1894803,-0.7717 0,-0.62701 0.3324517,-0.96291 0.3341743,-0.33762 0.9439562,-0.33762 0.4771457,0 0.7493082,0.19293 0.2738851,0.19293 0.4065213,0.59256 l -0.6890191,0.1533 q -0.036173,-0.11541 -0.075792,-0.16881 -0.065457,-0.0896 -0.1601969,-0.1378 -0.09474,-0.0482 -0.2118734,-0.0482 -0.2652724,0 -0.4065213,0.21359 -0.1067979,0.15848 -0.1067979,0.49782 0,0.4203 0.1274685,0.57705 0.1274685,0.15503 0.3582899,0.15503 0.2239312,0 0.3376194,-0.12574 0.1154107,-0.12575 0.1670871,-0.36518 z"
         style="fill:#00ff00;stroke-width:0.26458332"
         id="path357" />
      <path
         d="m 8.3836403,102.53463 h 0.7803141 v 0.88367 h 0.8526616 v -0.88367 h 0.783759 v 2.52525 h -0.783759 v -1.02147 H 9.1639544 v 1.02147 H 8.3836403 Z"
         style="fill:#00ff00;stroke-width:0.26458332"
         id="path359" />
    </g>
    <g
       aria-label="ENV"
       style="font-style:normal;font-variant:normal;font-weight:normal;font-stretch:normal;font-size:3.52777767px;line-height:1.25;font-family:'Arial Black';-inkscape-font-specification:'Arial Black, Normal';font-variant-ligatures:normal;font-variant-caps:normal;font-variant-numeric:normal;font-feature-settings:normal;text-align:center;letter-spacing:0px;word-spacing:0px;writing-mode:lr-tb;text-anchor:middle;fill:#ff6600;fill-opacity:1;stroke:none;stroke-width:0.26458332"
       id="text322">
      <path
         d="m 15.059197,102.46847 h 2.091173 v 0.53916 h -1.309137 v 0.40135 h 1.214397 v 0.51505 h -1.214397 v 0.49781 h 1.347033 v 0.57189 h -2.129069 z"
         style="fill:#ff6600;stroke-width:0.26458332"
         id="path348" />
      <path
         d="m 17.613735,102.46847 h 0.728638 l 0.950846,1.39699 v -1.39699 h 0.735528 v 2.52526 h -0.735528 l -0.945679,-1.38665 v 1.38665 h -0.733805 z"
         style="fill:#ff6600;stroke-width:0.26458332"
         id="path350" />
      <path
         d="m 20.297464,102.46847 h 0.816488 l 0.568441,1.81729 0.559828,-1.81729 h 0.792372 l -0.937066,2.52526 h -0.845771 z"
         style="fill:#ff6600;stroke-width:0.26458332"
         id="path352" />
    </g>
  </g>
  <g
     inkscape:groupmode="layer"
     id="layer4"
     inkscape:label="graphics"
     transform="translate(0,28.00003)"
     style="display:inline">
    <text
       xml:space="preserve"
       style="font-style:normal;font-variant:normal;font-weight:normal;font-stretch:normal;font-size:4.58611107px;line-height:1.25;font-family:'Arial Black';-inkscape-font-specification:'Arial Black, Normal';font-variant-ligatures:normal;font-variant-caps:normal;font-variant-numeric:normal;text-align:center;letter-spacing:0px;word-spacing:0px;writing-mode:lr-tb;text-anchor:middle;fill:#000000;fill-opacity:1;stroke:none;stroke-width:0.26458332"
       x="11.90625"
       y="-21.166708"
       id="text115"><tspan
         sodipodi:role="line"
         id="tspan113"
         x="11.90625"
         y="-17.054897"
         style="stroke-width:0.26458332" /></text>
    <g
       aria-label="KRT"
       style="font-style:normal;font-variant:normal;font-weight:normal;font-stretch:normal;font-size:3.52777767px;line-height:1.25;font-family:'Arial Black';-inkscape-font-specification:'Arial Black, Normal';font-variant-ligatures:normal;font-variant-caps:normal;font-variant-numeric:normal;font-feature-settings:normal;text-align:center;letter-spacing:0px;word-spacing:0px;writing-mode:lr-tb;text-anchor:middle;fill:#000000;fill-opacity:1;stroke:none;stroke-width:0.26458332"
       id="text123"
       transform="translate(-12.170835,-117.47517)">
      <path
         d="m 14.418414,95.635115 h 0.780314 v 0.954291 l 0.81821,-0.954291 h 1.036974 l -0.91984,0.952569 0.961181,1.572686 h -0.961181 l -0.532268,-1.038696 -0.403076,0.422024 v 0.616672 h -0.780314 z"
         style="fill:#f9f9f9;stroke-width:0.26458332"
         id="path227"
         inkscape:connector-curvature="0" />
      <path
         d="m 17.363971,98.16037 v -2.525255 h 1.300523 q 0.361735,0 0.552938,0.06201 0.191203,0.06201 0.308336,0.230821 0.117133,0.167087 0.117133,0.408244 0,0.210151 -0.08957,0.363457 -0.08957,0.151585 -0.246325,0.246325 -0.09991,0.06029 -0.273885,0.09991 0.139527,0.04651 0.203261,0.09302 0.04306,0.03101 0.124023,0.132636 0.08268,0.101631 0.110243,0.156752 l 0.377238,0.732083 H 18.96594 l -0.416857,-0.771701 q -0.07924,-0.149862 -0.141248,-0.194648 -0.08441,-0.05857 -0.191203,-0.05857 h -0.0689 v 1.024916 z m 0.783759,-1.502062 h 0.329006 q 0.0534,0 0.206706,-0.03445 0.07752,-0.0155 0.125746,-0.07924 0.04995,-0.06373 0.04995,-0.146416 0,-0.122301 -0.07751,-0.187758 -0.07751,-0.06546 -0.29111,-0.06546 H 18.14773 Z"
         style="fill:#f9f9f9;stroke-width:0.26458332"
         id="path229"
         inkscape:connector-curvature="0" />
      <path
         d="m 19.889226,95.635115 h 2.371948 v 0.623562 h -0.795817 v 1.901693 h -0.780314 v -1.901693 h -0.795817 z"
         style="fill:#f9f9f9;stroke-width:0.26458332"
         id="path231"
         inkscape:connector-curvature="0" />
    </g>
    <g
       aria-label="Ω"
       style="font-style:normal;font-variant:normal;font-weight:normal;font-stretch:normal;font-size:3.52777767px;line-height:1.25;font-family:'Arial Black';-inkscape-font-specification:'Arial Black, Normal';font-variant-ligatures:normal;font-variant-caps:normal;font-variant-numeric:normal;font-feature-settings:normal;text-align:center;letter-spacing:0px;word-spacing:0px;writing-mode:lr-tb;text-anchor:middle;fill:#000000;fill-opacity:1;stroke:none;stroke-width:0.26458332"
       id="text107"
       transform="matrix(2.52226,0,0,2.4814703,-16.867486,28.084873)" />
    <g
       aria-label="G"
       style="font-style:normal;font-variant:normal;font-weight:normal;font-stretch:normal;font-size:3.52777767px;line-height:1.25;font-family:'Arial Black';-inkscape-font-specification:'Arial Black, Normal';font-variant-ligatures:normal;font-variant-caps:normal;font-variant-numeric:normal;font-feature-settings:normal;text-align:center;letter-spacing:0px;word-spacing:0px;writing-mode:lr-tb;text-anchor:middle;fill:#000000;fill-opacity:1;stroke:none;stroke-width:0.26458332"
       id="text94">
      <path
         d="M 11.964817,-20.758463 V -21.28384 H 13.1706 v 1.076592 q -0.346232,0.235989 -0.613227,0.322117 -0.265272,0.08441 -0.630452,0.08441 -0.449585,0 -0.733806,-0.153307 -0.282498,-0.153307 -0.439249,-0.456475 -0.15503,-0.303169 -0.15503,-0.69591 0,-0.413411 0.170533,-0.718302 0.170532,-0.306613 0.499538,-0.465088 0.25666,-0.122301 0.690742,-0.122301 0.418579,0 0.625285,0.07579 0.208428,0.07579 0.344509,0.235989 0.137804,0.158475 0.206706,0.403077 l -0.752753,0.134358 q -0.04651,-0.142971 -0.158475,-0.218763 -0.110243,-0.07579 -0.282497,-0.07579 -0.25666,0 -0.409967,0.179145 -0.151584,0.177422 -0.151584,0.563273 0,0.409966 0.153307,0.585666 0.155029,0.1757 0.430637,0.1757 0.130913,0 0.249769,-0.0379 0.118856,-0.0379 0.272163,-0.129191 v -0.237712 z"
         style="stroke-width:0.26458332"
         id="path96" />
    </g>
  </g>
</svg>
