<?xml version="1.0" encoding="UTF-8" standalone="no"?>
<!-- Created with Inkscape (http://www.inkscape.org/) -->

<svg
   xmlns:dc="http://purl.org/dc/elements/1.1/"
   xmlns:cc="http://creativecommons.org/ns#"
   xmlns:rdf="http://www.w3.org/1999/02/22-rdf-syntax-ns#"
   xmlns:svg="http://www.w3.org/2000/svg"
   xmlns="http://www.w3.org/2000/svg"
   xmlns:sodipodi="http://sodipodi.sourceforge.net/DTD/sodipodi-0.dtd"
   xmlns:inkscape="http://www.inkscape.org/namespaces/inkscape"
   width="45.720001mm"
   height="128.54166mm"
   viewBox="0 0 45.720002 128.5417"
   version="1.1"
   id="svg4541"
   sodipodi:docname="H.svg"
   inkscape:version="0.92.5 (2060ec1f9f, 2020-04-08)">
  <defs
     id="defs4535" />
  <sodipodi:namedview
     id="base"
     pagecolor="#ffffff"
     bordercolor="#666666"
     borderopacity="1.0"
     inkscape:pageopacity="0.0"
     inkscape:pageshadow="2"
     inkscape:zoom="4"
     inkscape:cx="120.378"
     inkscape:cy="266.1741"
     inkscape:document-units="mm"
     inkscape:current-layer="layer1"
     showgrid="true"
     fit-margin-top="0"
     fit-margin-left="0"
     fit-margin-right="0"
     fit-margin-bottom="0"
     inkscape:window-width="1600"
     inkscape:window-height="845"
     inkscape:window-x="0"
     inkscape:window-y="0"
     inkscape:window-maximized="1"
     units="mm">
    <inkscape:grid
       type="xygrid"
       id="grid76" />
  </sodipodi:namedview>
  <metadata
     id="metadata4538">
    <rdf:RDF>
      <cc:Work
         rdf:about="">
        <dc:format>image/svg+xml</dc:format>
        <dc:type
           rdf:resource="http://purl.org/dc/dcmitype/StillImage" />
        <dc:title />
      </cc:Work>
    </rdf:RDF>
  </metadata>
  <g
     inkscape:groupmode="layer"
     id="layer1"
     inkscape:label="Background"
     style="display:inline;opacity:1">
    <rect
       style="fill:#333333;stroke-width:0.37158135"
       id="rect111"
       width="45.706772"
       height="128.32292"
       x="0"
       y="0.21873982" />
  </g>
  <g
     inkscape:groupmode="layer"
     id="layer4"
     inkscape:label="graphics"
     transform="translate(0,28.00003)"
     style="display:inline">
    <text
       xml:space="preserve"
       style="font-style:normal;font-variant:normal;font-weight:normal;font-stretch:normal;font-size:4.58611107px;line-height:1.25;font-family:'Arial Black';-inkscape-font-specification:'Arial Black, Normal';font-variant-ligatures:normal;font-variant-caps:normal;font-variant-numeric:normal;text-align:center;letter-spacing:0px;word-spacing:0px;writing-mode:lr-tb;text-anchor:middle;fill:#000000;fill-opacity:1;stroke:none;stroke-width:0.26458332"
       x="11.90625"
       y="-21.166708"
       id="text115"><tspan
         sodipodi:role="line"
         id="tspan113"
         x="11.90625"
         y="-17.054897"
         style="stroke-width:0.26458332" /></text>
    <g
       aria-label="KRT"
       style="font-style:normal;font-variant:normal;font-weight:normal;font-stretch:normal;font-size:3.52777767px;line-height:1.25;font-family:'Arial Black';-inkscape-font-specification:'Arial Black, Normal';font-variant-ligatures:normal;font-variant-caps:normal;font-variant-numeric:normal;font-feature-settings:normal;text-align:center;letter-spacing:0px;word-spacing:0px;writing-mode:lr-tb;text-anchor:middle;fill:#000000;fill-opacity:1;stroke:none;stroke-width:0.26458332"
       id="text123"
       transform="translate(-12.170835,-117.47517)">
      <path
         d="m 14.418414,95.635115 h 0.780314 v 0.954291 l 0.81821,-0.954291 h 1.036974 l -0.91984,0.952569 0.961181,1.572686 h -0.961181 l -0.532268,-1.038696 -0.403076,0.422024 v 0.616672 h -0.780314 z"
         style="fill:#f9f9f9;stroke-width:0.26458332"
         id="path227"
         inkscape:connector-curvature="0" />
      <path
         d="m 17.363971,98.16037 v -2.525255 h 1.300523 q 0.361735,0 0.552938,0.06201 0.191203,0.06201 0.308336,0.230821 0.117133,0.167087 0.117133,0.408244 0,0.210151 -0.08957,0.363457 -0.08957,0.151585 -0.246325,0.246325 -0.09991,0.06029 -0.273885,0.09991 0.139527,0.04651 0.203261,0.09302 0.04306,0.03101 0.124023,0.132636 0.08268,0.101631 0.110243,0.156752 l 0.377238,0.732083 H 18.96594 l -0.416857,-0.771701 q -0.07924,-0.149862 -0.141248,-0.194648 -0.08441,-0.05857 -0.191203,-0.05857 h -0.0689 v 1.024916 z m 0.783759,-1.502062 h 0.329006 q 0.0534,0 0.206706,-0.03445 0.07752,-0.0155 0.125746,-0.07924 0.04995,-0.06373 0.04995,-0.146416 0,-0.122301 -0.07751,-0.187758 -0.07751,-0.06546 -0.29111,-0.06546 H 18.14773 Z"
         style="fill:#f9f9f9;stroke-width:0.26458332"
         id="path229"
         inkscape:connector-curvature="0" />
      <path
         d="m 19.889226,95.635115 h 2.371948 v 0.623562 h -0.795817 v 1.901693 h -0.780314 v -1.901693 h -0.795817 z"
         style="fill:#f9f9f9;stroke-width:0.26458332"
         id="path231"
         inkscape:connector-curvature="0" />
    </g>
    <g
       aria-label="OUT"
       style="font-style:normal;font-variant:normal;font-weight:normal;font-stretch:normal;font-size:3.52777767px;line-height:1.25;font-family:'Arial Black';-inkscape-font-specification:'Arial Black, Normal';font-variant-ligatures:normal;font-variant-caps:normal;font-variant-numeric:normal;font-feature-settings:normal;text-align:center;letter-spacing:0px;word-spacing:0px;writing-mode:lr-tb;text-anchor:middle;fill:#ff6600;fill-opacity:1;stroke:none;stroke-width:0.26458332"
       id="text90"
       transform="translate(-1.0583333)">
      <path
         d="m 34.973746,92.070821 q 0,-0.618394 0.344509,-0.962904 0.34451,-0.34451 0.959459,-0.34451 0.630453,0 0.971517,0.339342 0.341065,0.33762 0.341065,0.947402 0,0.442694 -0.149862,0.726915 -0.148139,0.282498 -0.430637,0.440972 -0.280775,0.156752 -0.701077,0.156752 -0.427192,0 -0.707967,-0.136082 -0.279053,-0.136081 -0.45303,-0.430636 -0.173977,-0.294556 -0.173977,-0.737251 z m 0.780314,0.0034 q 0,0.382406 0.141249,0.549493 0.142971,0.167087 0.387573,0.167087 0.251492,0 0.389296,-0.163642 0.137804,-0.163642 0.137804,-0.587389 0,-0.356567 -0.144694,-0.520209 -0.142972,-0.165365 -0.389296,-0.165365 -0.235989,0 -0.378961,0.167087 -0.142971,0.167088 -0.142971,0.552938 z"
         style="fill:#ff6600;stroke-width:0.26458332"
         id="path146"
         inkscape:connector-curvature="0" />
      <path
         d="m 39.653908,90.806471 h 0.778591 v 1.505507 q 0,0.223931 -0.07062,0.423747 -0.0689,0.198093 -0.218764,0.347954 -0.148139,0.148139 -0.311781,0.208428 -0.227376,0.08441 -0.546047,0.08441 -0.184313,0 -0.403077,-0.02584 -0.217041,-0.02584 -0.363457,-0.10163 -0.146417,-0.07751 -0.268718,-0.218764 -0.120578,-0.141249 -0.165364,-0.29111 -0.07235,-0.241157 -0.07235,-0.427192 v -1.505507 h 0.778591 v 1.54168 q 0,0.206706 0.113688,0.323839 0.115411,0.115411 0.318672,0.115411 0.201538,0 0.315226,-0.113688 0.115411,-0.115411 0.115411,-0.325562 z"
         style="fill:#ff6600;stroke-width:0.26458332"
         id="path148"
         inkscape:connector-curvature="0" />
      <path
         d="m 40.771841,90.806471 h 2.371948 v 0.623562 h -0.795817 v 1.901693 h -0.780314 v -1.901693 h -0.795817 z"
         style="fill:#ff6600;stroke-width:0.26458332"
         id="path150"
         inkscape:connector-curvature="0" />
    </g>
    <g
       aria-label="FRQ"
       style="font-style:normal;font-variant:normal;font-weight:normal;font-stretch:normal;font-size:3.52777767px;line-height:1.25;font-family:'Arial Black';-inkscape-font-specification:'Arial Black, Normal';font-variant-ligatures:normal;font-variant-caps:normal;font-variant-numeric:normal;font-feature-settings:normal;text-align:center;letter-spacing:0px;word-spacing:0px;writing-mode:lr-tb;text-anchor:middle;fill:#00ff00;fill-opacity:1;stroke:none;stroke-width:0.26458332"
       id="text94"
       transform="translate(1.6167808,-0.15777651)">
      <path
         d="m 3.3569013,91.004904 h 1.9292534 v 0.542603 H 4.1406605 v 0.440972 h 0.9784071 v 0.509874 H 4.1406605 v 1.031806 H 3.3569013 Z"
         style="fill:#00ff00;stroke-width:0.26458332"
         id="path138"
         inkscape:connector-curvature="0" />
      <path
         d="m 5.7167916,93.530159 v -2.525255 h 1.3005235 q 0.3617351,0 0.5529379,0.06201 0.1912027,0.06201 0.308336,0.230821 0.1171332,0.167087 0.1171332,0.408244 0,0.210151 -0.089572,0.363458 -0.089573,0.151584 -0.2463244,0.246324 -0.099908,0.06029 -0.2738851,0.09991 0.1395264,0.04651 0.2032607,0.09302 0.043064,0.03101 0.1240234,0.132636 0.082682,0.101631 0.1102431,0.156752 l 0.3772379,0.732083 H 7.318761 L 6.9019044,92.758458 Q 6.8226673,92.608596 6.7606555,92.56381 6.6762507,92.505243 6.5694527,92.505243 h -0.068902 v 1.024916 z m 0.7837592,-1.502062 h 0.3290066 q 0.053399,0 0.2067058,-0.03445 0.077515,-0.0155 0.1257459,-0.07924 0.049954,-0.06373 0.049954,-0.146416 0,-0.122301 -0.077515,-0.187758 -0.077515,-0.06546 -0.2911106,-0.06546 h -0.342787 z"
         style="fill:#00ff00;stroke-width:0.26458332"
         id="path140"
         inkscape:connector-curvature="0" />
      <path
         d="m 10.622607,93.161534 q 0.146417,0.10163 0.191203,0.127468 0.06718,0.0379 0.180867,0.08785 l -0.217041,0.437527 q -0.163642,-0.07924 -0.323839,-0.18948 -0.160196,-0.10852 -0.223931,-0.163642 -0.2583819,0.111966 -0.6476776,0.111966 -0.575331,0 -0.9077827,-0.299724 -0.3927408,-0.354844 -0.3927408,-0.997355 0,-0.623562 0.3427869,-0.968072 0.3445096,-0.346232 0.9611817,-0.346232 0.6287295,0 0.9697945,0.33762 0.342787,0.337619 0.342787,0.966349 0,0.559828 -0.275608,0.895725 z m -0.597724,-0.399631 q 0.09302,-0.167087 0.09302,-0.499539 0,-0.382406 -0.1429718,-0.546048 -0.1412489,-0.163642 -0.3910183,-0.163642 -0.2325439,0 -0.3772379,0.167087 -0.144694,0.167087 -0.144694,0.521932 0,0.413412 0.1412489,0.580499 0.1412489,0.167087 0.3875732,0.167087 0.079237,0 0.1498617,-0.0155 -0.098185,-0.09474 -0.3100586,-0.179145 l 0.1223009,-0.280775 q 0.1033528,0.01895 0.1601969,0.04651 0.058567,0.02756 0.2256537,0.144694 0.039619,0.02756 0.086127,0.05684 z"
         style="fill:#00ff00;stroke-width:0.26458332"
         id="path142"
         inkscape:connector-curvature="0" />
    </g>
    <g
       aria-label="PM"
       style="font-style:normal;font-variant:normal;font-weight:normal;font-stretch:normal;font-size:3.52777767px;line-height:1.25;font-family:'Arial Black';-inkscape-font-specification:'Arial Black, Normal';font-variant-ligatures:normal;font-variant-caps:normal;font-variant-numeric:normal;font-feature-settings:normal;text-align:center;letter-spacing:0px;word-spacing:0px;writing-mode:lr-tb;text-anchor:middle;fill:#00ff00;fill-opacity:1;stroke:none;stroke-width:0.26458332"
       id="text98"
       transform="translate(-0.52916667)">
      <path
         d="M 20.335022,90.806471 H 21.6321 q 0.423747,0 0.633898,0.201538 0.211873,0.201538 0.211873,0.573609 0,0.382405 -0.230821,0.597724 -0.229099,0.215318 -0.701077,0.215318 h -0.427192 v 0.937066 h -0.783759 z m 0.783759,1.076592 h 0.191203 q 0.225654,0 0.316949,-0.07751 0.09129,-0.07924 0.09129,-0.201538 0,-0.118856 -0.07924,-0.201538 -0.07924,-0.08268 -0.298,-0.08268 h -0.222209 z"
         style="fill:#00ff00;stroke-width:0.26458332"
         id="path133"
         inkscape:connector-curvature="0" />
      <path
         d="m 22.877502,90.806471 h 1.026639 l 0.396186,1.536513 0.394463,-1.536513 h 1.023193 v 2.525255 h -0.637342 v -1.925808 l -0.494372,1.925808 h -0.577053 l -0.492649,-1.925808 v 1.925808 h -0.639065 z"
         style="fill:#00ff00;stroke-width:0.26458332"
         id="path135"
         inkscape:connector-curvature="0" />
    </g>
    <g
       aria-label="H"
       style="font-style:normal;font-variant:normal;font-weight:normal;font-stretch:normal;font-size:3.52777767px;line-height:1.25;font-family:'Arial Black';-inkscape-font-specification:'Arial Black, Normal';font-variant-ligatures:normal;font-variant-caps:normal;font-variant-numeric:normal;font-feature-settings:normal;text-align:center;letter-spacing:0px;word-spacing:0px;writing-mode:lr-tb;text-anchor:middle;fill:#000000;fill-opacity:1;stroke:none;stroke-width:0.26458332"
       id="text165">
      <path
         d="m 10.566451,-22.43519 h 0.780314 v 0.883667 h 0.852662 v -0.883667 h 0.783759 v 2.525255 h -0.783759 v -1.021471 h -0.852662 v 1.021471 h -0.780314 z"
         style="stroke-width:0.26458332"
         id="path167" />
    </g>
    <g
       aria-label="16'"
       style="font-style:normal;font-variant:normal;font-weight:normal;font-stretch:normal;font-size:3.52777767px;line-height:1.25;font-family:'Arial Black';-inkscape-font-specification:'Arial Black, Normal';font-variant-ligatures:normal;font-variant-caps:normal;font-variant-numeric:normal;font-feature-settings:normal;text-align:center;letter-spacing:0px;word-spacing:0px;writing-mode:lr-tb;text-anchor:middle;fill:#ff6600;fill-opacity:1;stroke:none;stroke-width:0.26458332"
       id="text172">
      <path
         d="m 6.2998739,42.14622 v 2.568319 H 5.5901842 v -1.68293 Q 5.4179294,43.162523 5.25601,43.243483 5.095813,43.324443 4.8529338,43.398512 v -0.575331 q 0.3582899,-0.11541 0.5563829,-0.27733 0.198093,-0.161919 0.3100586,-0.399631 z"
         style="fill:#ff6600;stroke-width:0.26458332"
         id="path369" />
      <path
         d="m 9.0938462,42.757724 -0.6976318,0.08613 q -0.027561,-0.146417 -0.093018,-0.206706 -0.063734,-0.06029 -0.1584743,-0.06029 -0.1705323,0 -0.2652724,0.172255 -0.068902,0.124023 -0.1016303,0.530544 0.125746,-0.127468 0.2583822,-0.187757 0.1326361,-0.06201 0.3066134,-0.06201 0.3376194,0 0.5701633,0.241157 0.2342665,0.241156 0.2342665,0.611504 0,0.249769 -0.1188558,0.456475 -0.1171332,0.206706 -0.327284,0.313504 -0.2084283,0.105075 -0.5236545,0.105075 -0.3789605,0 -0.6080594,-0.129191 -0.2290988,-0.129191 -0.3669026,-0.411689 -0.1360813,-0.28422 -0.1360813,-0.751031 0,-0.683851 0.2876655,-1.0008 0.2876654,-0.318671 0.7975395,-0.318671 0.3014459,0 0.4754232,0.07062 0.1756999,0.0689 0.2911106,0.203261 0.1154107,0.134359 0.1756998,0.337619 z m -1.2919107,1.124824 q 0,0.204983 0.1033528,0.322116 0.1033529,0.115411 0.2532145,0.115411 0.1378039,0 0.2308214,-0.105075 0.093018,-0.105076 0.093018,-0.313504 0,-0.213596 -0.096463,-0.325561 -0.096463,-0.111966 -0.2394341,-0.111966 -0.1464165,0 -0.2463243,0.10852 -0.098185,0.108521 -0.098185,0.310059 z"
         style="fill:#ff6600;stroke-width:0.26458332"
         id="path371" />
      <path
         d="M 9.4176852,42.189284 H 10.11704 v 0.416856 l -0.110243,0.511597 H 9.5313734 L 9.4176852,42.60614 Z"
         style="fill:#ff6600;stroke-width:0.26458332"
         id="path373" />
    </g>
    <g
       aria-label="5 1/3'"
       style="font-style:normal;font-variant:normal;font-weight:normal;font-stretch:normal;font-size:3.52777767px;line-height:1.25;font-family:'Arial Black';-inkscape-font-specification:'Arial Black, Normal';font-variant-ligatures:normal;font-variant-caps:normal;font-variant-numeric:normal;font-feature-settings:normal;text-align:center;letter-spacing:0px;word-spacing:0px;writing-mode:lr-tb;text-anchor:middle;fill:#ff6600;fill-opacity:1;stroke:none;stroke-width:0.26458332"
       id="text176">
      <path
         d="m 18.2175,42.255431 h 1.665703 v 0.559828 h -1.128269 l -0.06029,0.37896 q 0.117134,-0.05512 0.230822,-0.08268 0.11541,-0.02756 0.227376,-0.02756 0.37896,0 0.614949,0.229099 0.23599,0.229099 0.23599,0.577053 0,0.244602 -0.122301,0.470256 -0.120579,0.225654 -0.34451,0.344509 -0.222209,0.118856 -0.570163,0.118856 -0.24977,0 -0.428915,-0.04651 -0.177422,-0.04823 -0.303168,-0.141249 -0.124023,-0.09474 -0.201538,-0.213595 -0.07752,-0.118856 -0.129191,-0.296279 l 0.70969,-0.07751 q 0.02584,0.170532 0.120578,0.260104 0.09474,0.08785 0.225654,0.08785 0.146416,0 0.241156,-0.110243 0.09646,-0.111965 0.09646,-0.332451 0,-0.225654 -0.09646,-0.33073 -0.09646,-0.105075 -0.256659,-0.105075 -0.101631,0 -0.196371,0.04995 -0.07062,0.03617 -0.155029,0.130913 l -0.597724,-0.08613 z"
         style="fill:#ff6600;stroke-width:0.26458332"
         id="path358" />
      <path
         d="m 23.052691,42.212367 v 2.568318 h -0.70969 v -1.682929 q -0.172254,0.130914 -0.334174,0.211874 -0.160197,0.08096 -0.403076,0.155029 v -0.575331 q 0.35829,-0.115411 0.556383,-0.27733 0.198093,-0.16192 0.310058,-0.399631 z"
         style="fill:#ff6600;stroke-width:0.26458332"
         id="path360" />
      <path
         d="m 24.303261,42.212367 h 0.35829 l -0.633898,2.60966 h -0.354845 z"
         style="fill:#ff6600;stroke-width:0.26458332"
         id="path362" />
      <path
         d="m 25.476315,42.985791 -0.66318,-0.118856 q 0.08268,-0.316949 0.316948,-0.485759 0.235989,-0.168809 0.666626,-0.168809 0.494371,0 0.714858,0.184312 0.220486,0.184313 0.220486,0.463366 0,0.163642 -0.08957,0.296278 -0.08957,0.132636 -0.27044,0.232544 0.146417,0.03617 0.223931,0.08441 0.125746,0.07751 0.194648,0.204983 0.07062,0.125746 0.07062,0.301446 0,0.220486 -0.115411,0.423746 -0.115411,0.201539 -0.332452,0.311782 -0.217041,0.10852 -0.570163,0.10852 -0.344509,0 -0.544325,-0.08096 Q 25.1008,44.66183 24.971609,44.5068 24.84414,44.350049 24.775239,44.114059 l 0.701076,-0.09302 q 0.04134,0.211873 0.127469,0.294556 0.08785,0.08096 0.222209,0.08096 0.141249,0 0.234266,-0.103353 0.09474,-0.103352 0.09474,-0.275607 0,-0.1757 -0.09129,-0.272163 -0.08957,-0.09646 -0.244602,-0.09646 -0.08268,0 -0.227376,0.04134 l 0.03617,-0.501262 q 0.05857,0.0086 0.09129,0.0086 0.137803,0 0.229098,-0.08785 0.09302,-0.08785 0.09302,-0.208428 0,-0.115411 -0.0689,-0.184313 -0.0689,-0.0689 -0.18948,-0.0689 -0.124024,0 -0.201538,0.07579 -0.07751,0.07407 -0.105076,0.261828 z"
         style="fill:#ff6600;stroke-width:0.26458332"
         id="path364" />
      <path
         d="m 27.150632,42.255431 h 0.699355 v 0.416856 l -0.110243,0.511597 H 27.26432 l -0.113688,-0.511597 z"
         style="fill:#ff6600;stroke-width:0.26458332"
         id="path366" />
    </g>
    <g
       aria-label="8'"
       style="font-style:normal;font-variant:normal;font-weight:normal;font-stretch:normal;font-size:3.52777767px;line-height:1.25;font-family:'Arial Black';-inkscape-font-specification:'Arial Black, Normal';font-variant-ligatures:normal;font-variant-caps:normal;font-variant-numeric:normal;font-feature-settings:normal;text-align:center;letter-spacing:0px;word-spacing:0px;writing-mode:lr-tb;text-anchor:middle;fill:#ff6600;fill-opacity:1;stroke:none;stroke-width:0.26458332"
       id="text180">
      <path
         d="m 37.264743,43.621755 q -0.165365,-0.08785 -0.241157,-0.196371 -0.103353,-0.148139 -0.103353,-0.341064 0,-0.316949 0.298001,-0.518487 0.232544,-0.155029 0.61495,-0.155029 0.506429,0 0.747585,0.192925 0.24288,0.192925 0.24288,0.485758 0,0.170533 -0.09646,0.318672 -0.07235,0.110243 -0.227376,0.213596 0.204983,0.09819 0.304891,0.260104 0.10163,0.16192 0.10163,0.35829 0,0.18948 -0.08785,0.354845 -0.08613,0.163642 -0.213596,0.253215 -0.125746,0.08957 -0.315226,0.130913 -0.187758,0.04306 -0.401354,0.04306 -0.401353,0 -0.613227,-0.09474 -0.211873,-0.09474 -0.322116,-0.279053 -0.110243,-0.184313 -0.110243,-0.411689 0,-0.222209 0.103353,-0.375515 0.103353,-0.15503 0.318671,-0.239434 z m 0.315226,-0.496094 q 0,0.130913 0.08096,0.211873 0.08268,0.07924 0.218764,0.07924 0.120578,0 0.198093,-0.07924 0.07751,-0.07924 0.07751,-0.204983 0,-0.130914 -0.08096,-0.211873 -0.08096,-0.08268 -0.206705,-0.08268 -0.127469,0 -0.208429,0.08096 -0.07924,0.07924 -0.07924,0.206706 z m -0.0379,1.086927 q 0,0.167088 0.10163,0.273886 0.101631,0.105075 0.232544,0.105075 0.125746,0 0.225654,-0.106798 0.09991,-0.108521 0.09991,-0.273885 0,-0.167087 -0.10163,-0.273885 -0.09991,-0.106798 -0.232544,-0.106798 -0.130914,0 -0.229099,0.103353 -0.09646,0.103353 -0.09646,0.279052 z"
         style="fill:#ff6600;stroke-width:0.26458332"
         id="path353" />
      <path
         d="m 39.197442,42.453867 h 0.699354 v 0.416857 L 39.786553,43.38232 H 39.31113 l -0.113688,-0.511596 z"
         style="fill:#ff6600;stroke-width:0.26458332"
         id="path355" />
    </g>
    <g
       aria-label="4'"
       style="font-style:normal;font-variant:normal;font-weight:normal;font-stretch:normal;font-size:3.52777767px;line-height:1.25;font-family:'Arial Black';-inkscape-font-specification:'Arial Black, Normal';font-variant-ligatures:normal;font-variant-caps:normal;font-variant-numeric:normal;font-feature-settings:normal;text-align:center;letter-spacing:0px;word-spacing:0px;writing-mode:lr-tb;text-anchor:middle;fill:#ff6600;fill-opacity:1;stroke:none;stroke-width:0.26458332"
       id="text184">
      <path
         d="M 7.6214125,60.382144 H 6.3432821 v -0.577053 l 1.2781304,-1.519287 h 0.6115044 v 1.552015 h 0.3169488 v 0.544325 H 8.2329169 v 0.471978 H 7.6214125 Z m 0,-0.544325 v -0.794094 l -0.6752387,0.794094 z"
         style="fill:#ff6600;stroke-width:0.26458332"
         id="path348" />
      <path
         d="m 8.7703518,58.328867 h 0.6993544 v 0.416857 L 9.3594631,59.25732 H 8.88404 L 8.7703518,58.745724 Z"
         style="fill:#ff6600;stroke-width:0.26458332"
         id="path350" />
    </g>
    <g
       aria-label="2 2/3'"
       style="font-style:normal;font-variant:normal;font-weight:normal;font-stretch:normal;font-size:3.52777767px;line-height:1.25;font-family:'Arial Black';-inkscape-font-specification:'Arial Black, Normal';font-variant-ligatures:normal;font-variant-caps:normal;font-variant-numeric:normal;font-feature-settings:normal;text-align:center;letter-spacing:0px;word-spacing:0px;writing-mode:lr-tb;text-anchor:middle;fill:#ff6600;fill-opacity:1;stroke:none;stroke-width:0.26458332"
       id="text188">
      <path
         d="m 19.854264,60.854122 h -2.104953 q 0.03617,-0.311781 0.218764,-0.585666 0.184312,-0.275608 0.689019,-0.649401 0.308336,-0.229098 0.394463,-0.347954 0.08613,-0.118856 0.08613,-0.225654 0,-0.115411 -0.08613,-0.19637 -0.08441,-0.08268 -0.213596,-0.08268 -0.134359,0 -0.220486,0.08441 -0.08441,0.0844 -0.113688,0.298001 l -0.7028,-0.05684 q 0.04134,-0.296278 0.151585,-0.461643 0.110243,-0.167087 0.310058,-0.254937 0.201538,-0.08957 0.556383,-0.08957 0.370348,0 0.575331,0.0844 0.206706,0.08441 0.323839,0.260105 0.118856,0.173977 0.118856,0.391018 0,0.230822 -0.136082,0.440973 -0.134358,0.21015 -0.490926,0.461642 -0.211873,0.146417 -0.28422,0.204984 -0.07062,0.05857 -0.167087,0.153306 h 1.09554 z"
         style="fill:#ff6600;stroke-width:0.26458332"
         id="path337" />
      <path
         d="m 23.383764,60.854122 h -2.104953 q 0.03617,-0.311781 0.218764,-0.585666 0.184312,-0.275608 0.689019,-0.649401 0.308336,-0.229098 0.394463,-0.347954 0.08613,-0.118856 0.08613,-0.225654 0,-0.115411 -0.08613,-0.19637 -0.08441,-0.08268 -0.213596,-0.08268 -0.134358,0 -0.220486,0.08441 -0.08441,0.0844 -0.113688,0.298001 l -0.702799,-0.05684 q 0.04134,-0.296278 0.151584,-0.461643 0.110243,-0.167087 0.310058,-0.254937 0.201538,-0.08957 0.556383,-0.08957 0.370348,0 0.575331,0.0844 0.206706,0.08441 0.323839,0.260105 0.118856,0.173977 0.118856,0.391018 0,0.230822 -0.136081,0.440973 -0.134359,0.21015 -0.490926,0.461642 -0.211874,0.146417 -0.284221,0.204984 -0.07062,0.05857 -0.167087,0.153306 h 1.09554 z"
         style="fill:#ff6600;stroke-width:0.26458332"
         id="path339" />
      <path
         d="m 24.170969,58.285804 h 0.35829 l -0.633898,2.609659 h -0.354844 z"
         style="fill:#ff6600;stroke-width:0.26458332"
         id="path341" />
      <path
         d="m 25.344024,59.059227 -0.663181,-0.118855 q 0.08268,-0.316949 0.316949,-0.485759 0.235989,-0.168809 0.666625,-0.168809 0.494372,0 0.714858,0.184312 0.220486,0.184313 0.220486,0.463365 0,0.163643 -0.08957,0.296279 -0.08957,0.132636 -0.27044,0.232544 0.146417,0.03617 0.223932,0.0844 0.125746,0.07751 0.194648,0.204984 0.07062,0.125746 0.07062,0.301445 0,0.220487 -0.115411,0.423747 -0.11541,0.201538 -0.332451,0.311781 -0.217041,0.108521 -0.570164,0.108521 -0.344509,0 -0.544325,-0.08096 -0.198093,-0.08096 -0.327284,-0.235989 -0.127468,-0.156752 -0.19637,-0.392741 l 0.701077,-0.09302 q 0.04134,0.211873 0.127468,0.294555 0.08785,0.08096 0.222209,0.08096 0.141249,0 0.234266,-0.103353 0.09474,-0.103353 0.09474,-0.275607 0,-0.1757 -0.09129,-0.272163 -0.08957,-0.09646 -0.244601,-0.09646 -0.08268,0 -0.227377,0.04134 l 0.03617,-0.501261 q 0.05857,0.0086 0.09129,0.0086 0.137804,0 0.229099,-0.08785 0.09302,-0.08785 0.09302,-0.208428 0,-0.115411 -0.0689,-0.184313 -0.0689,-0.0689 -0.18948,-0.0689 -0.124023,0 -0.201538,0.07579 -0.07752,0.07407 -0.105075,0.261827 z"
         style="fill:#ff6600;stroke-width:0.26458332"
         id="path343" />
      <path
         d="m 27.01834,58.328867 h 0.699355 v 0.416857 L 27.607452,59.25732 H 27.132029 L 27.01834,58.745724 Z"
         style="fill:#ff6600;stroke-width:0.26458332"
         id="path345" />
    </g>
    <g
       aria-label="2'"
       style="font-style:normal;font-variant:normal;font-weight:normal;font-stretch:normal;font-size:3.52777767px;line-height:1.25;font-family:'Arial Black';-inkscape-font-specification:'Arial Black, Normal';font-variant-ligatures:normal;font-variant-caps:normal;font-variant-numeric:normal;font-feature-settings:normal;text-align:center;letter-spacing:0px;word-spacing:0px;writing-mode:lr-tb;text-anchor:middle;fill:#ff6600;fill-opacity:1;stroke:none;stroke-width:0.26458332"
       id="text192">
      <path
         d="m 38.895996,60.854122 h -2.104954 q 0.03617,-0.311781 0.218764,-0.585666 0.184313,-0.275608 0.689019,-0.649401 0.308336,-0.229098 0.394463,-0.347954 0.08613,-0.118856 0.08613,-0.225654 0,-0.115411 -0.08613,-0.19637 -0.0844,-0.08268 -0.213595,-0.08268 -0.134359,0 -0.220487,0.08441 -0.0844,0.0844 -0.113688,0.298001 l -0.702799,-0.05684 q 0.04134,-0.296278 0.151584,-0.461643 0.110243,-0.167087 0.310059,-0.254937 0.201538,-0.08957 0.556382,-0.08957 0.370348,0 0.575331,0.0844 0.206706,0.08441 0.323839,0.260105 0.118856,0.173977 0.118856,0.391018 0,0.230822 -0.136081,0.440973 -0.134359,0.21015 -0.490926,0.461642 -0.211874,0.146417 -0.284221,0.204984 -0.07062,0.05857 -0.167087,0.153306 h 1.095541 z"
         style="fill:#ff6600;stroke-width:0.26458332"
         id="path332" />
      <path
         d="m 39.197442,58.328867 h 0.699354 v 0.416857 L 39.786553,59.25732 H 39.31113 l -0.113688,-0.511596 z"
         style="fill:#ff6600;stroke-width:0.26458332"
         id="path334" />
    </g>
    <g
       aria-label="1 3/5'"
       style="font-style:normal;font-variant:normal;font-weight:normal;font-stretch:normal;font-size:3.52777767px;line-height:1.25;font-family:'Arial Black';-inkscape-font-specification:'Arial Black, Normal';font-variant-ligatures:normal;font-variant-caps:normal;font-variant-numeric:normal;font-feature-settings:normal;text-align:center;letter-spacing:0px;word-spacing:0px;writing-mode:lr-tb;text-anchor:middle;fill:#ff6600;fill-opacity:1;stroke:none;stroke-width:0.26458332"
       id="text196">
      <path
         d="m 4.5742256,74.1608 v 2.568318 H 3.864536 v -1.682929 q -0.1722548,0.130914 -0.3341743,0.211874 -0.1601969,0.08096 -0.4030761,0.155029 v -0.575331 q 0.3582899,-0.115411 0.5563829,-0.27733 0.198093,-0.16192 0.3100586,-0.399631 z"
         style="fill:#ff6600;stroke-width:0.26458332"
         id="path321" />
      <path
         d="M 7.1942207,74.934224 6.5310398,74.815368 q 0.082682,-0.316949 0.3169488,-0.485759 0.235989,-0.168809 0.666626,-0.168809 0.4943712,0 0.7148573,0.184312 0.2204861,0.184313 0.2204861,0.463366 0,0.163642 -0.089573,0.296278 -0.089572,0.132636 -0.27044,0.232544 0.1464166,0.03617 0.2239312,0.08441 0.125746,0.07751 0.1946479,0.204983 0.070624,0.125746 0.070624,0.301446 0,0.220486 -0.1154107,0.423746 -0.1154106,0.201538 -0.3324517,0.311782 -0.217041,0.10852 -0.5701632,0.10852 -0.3445096,0 -0.5443251,-0.08096 -0.198093,-0.08096 -0.3272841,-0.235989 -0.1274685,-0.156752 -0.1963704,-0.392741 l 0.7010769,-0.09302 q 0.041341,0.211873 0.1274685,0.294555 0.08785,0.08096 0.2222087,0.08096 0.1412489,0 0.2342665,-0.103353 0.09474,-0.103353 0.09474,-0.275607 0,-0.1757 -0.091295,-0.272163 -0.089573,-0.09646 -0.2446018,-0.09646 -0.082682,0 -0.2273763,0.04134 l 0.036174,-0.501262 q 0.058567,0.0086 0.091295,0.0086 0.1378038,0 0.2290989,-0.08785 0.093018,-0.08785 0.093018,-0.208428 0,-0.115411 -0.068902,-0.184313 -0.068902,-0.0689 -0.1894802,-0.0689 -0.1240234,0 -0.2015381,0.07579 -0.077515,0.07407 -0.1050754,0.261828 z"
         style="fill:#ff6600;stroke-width:0.26458332"
         id="path323" />
      <path
         d="M 9.3542958,74.1608 H 9.7125857 L 9.0786881,76.770459 H 8.7238433 Z"
         style="fill:#ff6600;stroke-width:0.26458332"
         id="path325" />
      <path
         d="m 10.131164,74.203863 h 1.665704 v 0.559828 h -1.128269 l -0.06029,0.378961 q 0.117133,-0.05512 0.230821,-0.08268 0.115411,-0.02756 0.227377,-0.02756 0.37896,0 0.614949,0.229099 0.235989,0.229099 0.235989,0.577053 0,0.244602 -0.122301,0.470256 -0.120578,0.225653 -0.344509,0.344509 -0.222209,0.118856 -0.570163,0.118856 -0.24977,0 -0.428915,-0.04651 -0.177422,-0.04823 -0.303168,-0.141249 -0.124024,-0.09474 -0.2015382,-0.213596 -0.077515,-0.118855 -0.1291911,-0.296278 l 0.7096893,-0.07751 q 0.02584,0.170532 0.120579,0.260104 0.09474,0.08785 0.225653,0.08785 0.146417,0 0.241157,-0.110243 0.09646,-0.111965 0.09646,-0.332452 0,-0.225653 -0.09646,-0.330729 -0.09646,-0.105075 -0.25666,-0.105075 -0.10163,0 -0.19637,0.04995 -0.07062,0.03617 -0.155029,0.130913 l -0.5977243,-0.08613 z"
         style="fill:#ff6600;stroke-width:0.26458332"
         id="path327" />
      <path
         d="m 12.201667,74.203863 h 0.699355 v 0.416857 l -0.110243,0.511597 H 12.315355 L 12.201667,74.62072 Z"
         style="fill:#ff6600;stroke-width:0.26458332"
         id="path329" />
    </g>
    <g
       aria-label="1 1/3'"
       style="font-style:normal;font-variant:normal;font-weight:normal;font-stretch:normal;font-size:3.52777767px;line-height:1.25;font-family:'Arial Black';-inkscape-font-specification:'Arial Black, Normal';font-variant-ligatures:normal;font-variant-caps:normal;font-variant-numeric:normal;font-feature-settings:normal;text-align:center;letter-spacing:0px;word-spacing:0px;writing-mode:lr-tb;text-anchor:middle;fill:#ff6600;fill-opacity:1;stroke:none;stroke-width:0.26458332"
       id="text200">
      <path
         d="m 19.655481,74.1608 v 2.568318 h -0.70969 v -1.682929 q -0.172255,0.130914 -0.334174,0.211874 -0.160197,0.08096 -0.403076,0.155029 v -0.575331 q 0.358289,-0.115411 0.556382,-0.27733 0.198093,-0.16192 0.310059,-0.399631 z"
         style="fill:#ff6600;stroke-width:0.26458332"
         id="path310" />
      <path
         d="m 23.184981,74.1608 v 2.568318 h -0.70969 v -1.682929 q -0.172255,0.130914 -0.334174,0.211874 -0.160197,0.08096 -0.403076,0.155029 v -0.575331 q 0.35829,-0.115411 0.556383,-0.27733 0.198093,-0.16192 0.310058,-0.399631 z"
         style="fill:#ff6600;stroke-width:0.26458332"
         id="path312" />
      <path
         d="m 24.435551,74.1608 h 0.35829 l -0.633898,2.609659 h -0.354845 z"
         style="fill:#ff6600;stroke-width:0.26458332"
         id="path314" />
      <path
         d="m 25.608605,74.934224 -0.663181,-0.118856 q 0.08268,-0.316949 0.316949,-0.485759 0.235989,-0.168809 0.666626,-0.168809 0.494371,0 0.714857,0.184312 0.220487,0.184313 0.220487,0.463366 0,0.163642 -0.08957,0.296278 -0.08957,0.132636 -0.27044,0.232544 0.146417,0.03617 0.223931,0.08441 0.125746,0.07751 0.194648,0.204983 0.07062,0.125746 0.07062,0.301446 0,0.220486 -0.115411,0.423746 -0.115411,0.201538 -0.332452,0.311782 -0.217041,0.10852 -0.570163,0.10852 -0.34451,0 -0.544325,-0.08096 -0.198093,-0.08096 -0.327284,-0.235989 -0.127469,-0.156752 -0.196371,-0.392741 l 0.701077,-0.09302 q 0.04134,0.211873 0.127469,0.294555 0.08785,0.08096 0.222208,0.08096 0.141249,0 0.234267,-0.103353 0.09474,-0.103353 0.09474,-0.275607 0,-0.1757 -0.0913,-0.272163 -0.08957,-0.09646 -0.244602,-0.09646 -0.08268,0 -0.227376,0.04134 l 0.03617,-0.501262 q 0.05857,0.0086 0.0913,0.0086 0.137803,0 0.229098,-0.08785 0.09302,-0.08785 0.09302,-0.208428 0,-0.115411 -0.0689,-0.184313 -0.0689,-0.0689 -0.18948,-0.0689 -0.124024,0 -0.201538,0.07579 -0.07752,0.07407 -0.105076,0.261828 z"
         style="fill:#ff6600;stroke-width:0.26458332"
         id="path316" />
      <path
         d="m 27.282922,74.203863 h 0.699355 v 0.416857 l -0.110244,0.511597 H 27.39661 L 27.282922,74.62072 Z"
         style="fill:#ff6600;stroke-width:0.26458332"
         id="path318" />
    </g>
    <g
       aria-label="1'"
       style="font-style:normal;font-variant:normal;font-weight:normal;font-stretch:normal;font-size:3.52777767px;line-height:1.25;font-family:'Arial Black';-inkscape-font-specification:'Arial Black, Normal';font-variant-ligatures:normal;font-variant-caps:normal;font-variant-numeric:normal;font-feature-settings:normal;text-align:center;letter-spacing:0px;word-spacing:0px;writing-mode:lr-tb;text-anchor:middle;fill:#ff6600;fill-opacity:1;stroke:none;stroke-width:0.26458332"
       id="text204">
      <path
         d="m 38.631067,74.1608 v 2.568318 h -0.70969 v -1.682929 q -0.172254,0.130914 -0.334174,0.211874 -0.160197,0.08096 -0.403076,0.155029 v -0.575331 q 0.35829,-0.115411 0.556383,-0.27733 0.198093,-0.16192 0.310058,-0.399631 z"
         style="fill:#ff6600;stroke-width:0.26458332"
         id="path305" />
      <path
         d="m 39.395878,74.203863 h 0.699355 V 74.62072 L 39.98499,75.132317 H 39.509566 L 39.395878,74.62072 Z"
         style="fill:#ff6600;stroke-width:0.26458332"
         id="path307" />
    </g>
    <g
       transform="translate(-0.04599966,-48.085261)"
       aria-label="16'"
       style="font-style:normal;font-variant:normal;font-weight:normal;font-stretch:normal;font-size:3.52777767px;line-height:1.25;font-family:'Arial Black';-inkscape-font-specification:'Arial Black, Normal';font-variant-ligatures:normal;font-variant-caps:normal;font-variant-numeric:normal;font-feature-settings:normal;text-align:center;letter-spacing:0px;word-spacing:0px;writing-mode:lr-tb;text-anchor:middle;display:inline;fill:#ffff00;fill-opacity:1;stroke:none;stroke-width:0.26458332"
       id="text172-3">
      <path
         inkscape:connector-curvature="0"
         d="m 6.2998739,42.14622 v 2.568319 H 5.5901842 v -1.68293 Q 5.4179294,43.162523 5.25601,43.243483 5.095813,43.324443 4.8529338,43.398512 v -0.575331 q 0.3582899,-0.11541 0.5563829,-0.27733 0.198093,-0.161919 0.3100586,-0.399631 z"
         style="fill:#ffff00;stroke-width:0.26458332"
         id="path369-6" />
      <path
         inkscape:connector-curvature="0"
         d="m 9.0938462,42.757724 -0.6976318,0.08613 q -0.027561,-0.146417 -0.093018,-0.206706 -0.063734,-0.06029 -0.1584743,-0.06029 -0.1705323,0 -0.2652724,0.172255 -0.068902,0.124023 -0.1016303,0.530544 0.125746,-0.127468 0.2583822,-0.187757 0.1326361,-0.06201 0.3066134,-0.06201 0.3376194,0 0.5701633,0.241157 0.2342665,0.241156 0.2342665,0.611504 0,0.249769 -0.1188558,0.456475 -0.1171332,0.206706 -0.327284,0.313504 -0.2084283,0.105075 -0.5236545,0.105075 -0.3789605,0 -0.6080594,-0.129191 -0.2290988,-0.129191 -0.3669026,-0.411689 -0.1360813,-0.28422 -0.1360813,-0.751031 0,-0.683851 0.2876655,-1.0008 0.2876654,-0.318671 0.7975395,-0.318671 0.3014459,0 0.4754232,0.07062 0.1756999,0.0689 0.2911106,0.203261 0.1154107,0.134359 0.1756998,0.337619 z m -1.2919107,1.124824 q 0,0.204983 0.1033528,0.322116 0.1033529,0.115411 0.2532145,0.115411 0.1378039,0 0.2308214,-0.105075 0.093018,-0.105076 0.093018,-0.313504 0,-0.213596 -0.096463,-0.325561 -0.096463,-0.111966 -0.2394341,-0.111966 -0.1464165,0 -0.2463243,0.10852 -0.098185,0.108521 -0.098185,0.310059 z"
         style="fill:#ffff00;stroke-width:0.26458332"
         id="path371-7" />
      <path
         inkscape:connector-curvature="0"
         d="M 9.4176852,42.189284 H 10.11704 v 0.416856 l -0.110243,0.511597 H 9.5313734 L 9.4176852,42.60614 Z"
         style="fill:#ffff00;stroke-width:0.26458332"
         id="path373-5" />
    </g>
    <g
       transform="translate(-0.04599966,-48.085261)"
       aria-label="5 1/3'"
       style="font-style:normal;font-variant:normal;font-weight:normal;font-stretch:normal;font-size:3.52777767px;line-height:1.25;font-family:'Arial Black';-inkscape-font-specification:'Arial Black, Normal';font-variant-ligatures:normal;font-variant-caps:normal;font-variant-numeric:normal;font-feature-settings:normal;text-align:center;letter-spacing:0px;word-spacing:0px;writing-mode:lr-tb;text-anchor:middle;display:inline;fill:#ffff00;fill-opacity:1;stroke:none;stroke-width:0.26458332"
       id="text176-3">
      <path
         inkscape:connector-curvature="0"
         d="m 18.2175,42.255431 h 1.665703 v 0.559828 h -1.128269 l -0.06029,0.37896 q 0.117134,-0.05512 0.230822,-0.08268 0.11541,-0.02756 0.227376,-0.02756 0.37896,0 0.614949,0.229099 0.23599,0.229099 0.23599,0.577053 0,0.244602 -0.122301,0.470256 -0.120579,0.225654 -0.34451,0.344509 -0.222209,0.118856 -0.570163,0.118856 -0.24977,0 -0.428915,-0.04651 -0.177422,-0.04823 -0.303168,-0.141249 -0.124023,-0.09474 -0.201538,-0.213595 -0.07752,-0.118856 -0.129191,-0.296279 l 0.70969,-0.07751 q 0.02584,0.170532 0.120578,0.260104 0.09474,0.08785 0.225654,0.08785 0.146416,0 0.241156,-0.110243 0.09646,-0.111965 0.09646,-0.332451 0,-0.225654 -0.09646,-0.33073 -0.09646,-0.105075 -0.256659,-0.105075 -0.101631,0 -0.196371,0.04995 -0.07062,0.03617 -0.155029,0.130913 l -0.597724,-0.08613 z"
         style="fill:#ffff00;stroke-width:0.26458332"
         id="path358-5" />
      <path
         inkscape:connector-curvature="0"
         d="m 23.052691,42.212367 v 2.568318 h -0.70969 v -1.682929 q -0.172254,0.130914 -0.334174,0.211874 -0.160197,0.08096 -0.403076,0.155029 v -0.575331 q 0.35829,-0.115411 0.556383,-0.27733 0.198093,-0.16192 0.310058,-0.399631 z"
         style="fill:#ffff00;stroke-width:0.26458332"
         id="path360-6" />
      <path
         inkscape:connector-curvature="0"
         d="m 24.303261,42.212367 h 0.35829 l -0.633898,2.60966 h -0.354845 z"
         style="fill:#ffff00;stroke-width:0.26458332"
         id="path362-2" />
      <path
         inkscape:connector-curvature="0"
         d="m 25.476315,42.985791 -0.66318,-0.118856 q 0.08268,-0.316949 0.316948,-0.485759 0.235989,-0.168809 0.666626,-0.168809 0.494371,0 0.714858,0.184312 0.220486,0.184313 0.220486,0.463366 0,0.163642 -0.08957,0.296278 -0.08957,0.132636 -0.27044,0.232544 0.146417,0.03617 0.223931,0.08441 0.125746,0.07751 0.194648,0.204983 0.07062,0.125746 0.07062,0.301446 0,0.220486 -0.115411,0.423746 -0.115411,0.201539 -0.332452,0.311782 -0.217041,0.10852 -0.570163,0.10852 -0.344509,0 -0.544325,-0.08096 Q 25.1008,44.66183 24.971609,44.5068 24.84414,44.350049 24.775239,44.114059 l 0.701076,-0.09302 q 0.04134,0.211873 0.127469,0.294556 0.08785,0.08096 0.222209,0.08096 0.141249,0 0.234266,-0.103353 0.09474,-0.103352 0.09474,-0.275607 0,-0.1757 -0.09129,-0.272163 -0.08957,-0.09646 -0.244602,-0.09646 -0.08268,0 -0.227376,0.04134 l 0.03617,-0.501262 q 0.05857,0.0086 0.09129,0.0086 0.137803,0 0.229098,-0.08785 0.09302,-0.08785 0.09302,-0.208428 0,-0.115411 -0.0689,-0.184313 -0.0689,-0.0689 -0.18948,-0.0689 -0.124024,0 -0.201538,0.07579 -0.07751,0.07407 -0.105076,0.261828 z"
         style="fill:#ffff00;stroke-width:0.26458332"
         id="path364-9" />
      <path
         inkscape:connector-curvature="0"
         d="m 27.150632,42.255431 h 0.699355 v 0.416856 l -0.110243,0.511597 H 27.26432 l -0.113688,-0.511597 z"
         style="fill:#ffff00;stroke-width:0.26458332"
         id="path366-1" />
    </g>
    <g
       transform="translate(-0.04599966,-48.085261)"
       aria-label="8'"
       style="font-style:normal;font-variant:normal;font-weight:normal;font-stretch:normal;font-size:3.52777767px;line-height:1.25;font-family:'Arial Black';-inkscape-font-specification:'Arial Black, Normal';font-variant-ligatures:normal;font-variant-caps:normal;font-variant-numeric:normal;font-feature-settings:normal;text-align:center;letter-spacing:0px;word-spacing:0px;writing-mode:lr-tb;text-anchor:middle;display:inline;fill:#ffff00;fill-opacity:1;stroke:none;stroke-width:0.26458332"
       id="text180-2">
      <path
         inkscape:connector-curvature="0"
         d="m 37.264743,43.621755 q -0.165365,-0.08785 -0.241157,-0.196371 -0.103353,-0.148139 -0.103353,-0.341064 0,-0.316949 0.298001,-0.518487 0.232544,-0.155029 0.61495,-0.155029 0.506429,0 0.747585,0.192925 0.24288,0.192925 0.24288,0.485758 0,0.170533 -0.09646,0.318672 -0.07235,0.110243 -0.227376,0.213596 0.204983,0.09819 0.304891,0.260104 0.10163,0.16192 0.10163,0.35829 0,0.18948 -0.08785,0.354845 -0.08613,0.163642 -0.213596,0.253215 -0.125746,0.08957 -0.315226,0.130913 -0.187758,0.04306 -0.401354,0.04306 -0.401353,0 -0.613227,-0.09474 -0.211873,-0.09474 -0.322116,-0.279053 -0.110243,-0.184313 -0.110243,-0.411689 0,-0.222209 0.103353,-0.375515 0.103353,-0.15503 0.318671,-0.239434 z m 0.315226,-0.496094 q 0,0.130913 0.08096,0.211873 0.08268,0.07924 0.218764,0.07924 0.120578,0 0.198093,-0.07924 0.07751,-0.07924 0.07751,-0.204983 0,-0.130914 -0.08096,-0.211873 -0.08096,-0.08268 -0.206705,-0.08268 -0.127469,0 -0.208429,0.08096 -0.07924,0.07924 -0.07924,0.206706 z m -0.0379,1.086927 q 0,0.167088 0.10163,0.273886 0.101631,0.105075 0.232544,0.105075 0.125746,0 0.225654,-0.106798 0.09991,-0.108521 0.09991,-0.273885 0,-0.167087 -0.10163,-0.273885 -0.09991,-0.106798 -0.232544,-0.106798 -0.130914,0 -0.229099,0.103353 -0.09646,0.103353 -0.09646,0.279052 z"
         style="fill:#ffff00;stroke-width:0.26458332"
         id="path353-7" />
      <path
         inkscape:connector-curvature="0"
         d="m 39.197442,42.453867 h 0.699354 v 0.416857 L 39.786553,43.38232 H 39.31113 l -0.113688,-0.511596 z"
         style="fill:#ffff00;stroke-width:0.26458332"
         id="path355-0" />
    </g>
    <g
       transform="translate(-0.04599966,-48.085261)"
       aria-label="4'"
       style="font-style:normal;font-variant:normal;font-weight:normal;font-stretch:normal;font-size:3.52777767px;line-height:1.25;font-family:'Arial Black';-inkscape-font-specification:'Arial Black, Normal';font-variant-ligatures:normal;font-variant-caps:normal;font-variant-numeric:normal;font-feature-settings:normal;text-align:center;letter-spacing:0px;word-spacing:0px;writing-mode:lr-tb;text-anchor:middle;display:inline;fill:#ffff00;fill-opacity:1;stroke:none;stroke-width:0.26458332"
       id="text184-9">
      <path
         inkscape:connector-curvature="0"
         d="M 7.6214125,60.382144 H 6.3432821 v -0.577053 l 1.2781304,-1.519287 h 0.6115044 v 1.552015 h 0.3169488 v 0.544325 H 8.2329169 v 0.471978 H 7.6214125 Z m 0,-0.544325 v -0.794094 l -0.6752387,0.794094 z"
         style="fill:#ffff00;stroke-width:0.26458332"
         id="path348-3" />
      <path
         inkscape:connector-curvature="0"
         d="m 8.7703518,58.328867 h 0.6993544 v 0.416857 L 9.3594631,59.25732 H 8.88404 L 8.7703518,58.745724 Z"
         style="fill:#ffff00;stroke-width:0.26458332"
         id="path350-6" />
    </g>
    <g
       transform="translate(-0.04599966,-48.085261)"
       aria-label="2 2/3'"
       style="font-style:normal;font-variant:normal;font-weight:normal;font-stretch:normal;font-size:3.52777767px;line-height:1.25;font-family:'Arial Black';-inkscape-font-specification:'Arial Black, Normal';font-variant-ligatures:normal;font-variant-caps:normal;font-variant-numeric:normal;font-feature-settings:normal;text-align:center;letter-spacing:0px;word-spacing:0px;writing-mode:lr-tb;text-anchor:middle;display:inline;fill:#ffff00;fill-opacity:1;stroke:none;stroke-width:0.26458332"
       id="text188-0">
      <path
         inkscape:connector-curvature="0"
         d="m 19.854264,60.854122 h -2.104953 q 0.03617,-0.311781 0.218764,-0.585666 0.184312,-0.275608 0.689019,-0.649401 0.308336,-0.229098 0.394463,-0.347954 0.08613,-0.118856 0.08613,-0.225654 0,-0.115411 -0.08613,-0.19637 -0.08441,-0.08268 -0.213596,-0.08268 -0.134359,0 -0.220486,0.08441 -0.08441,0.0844 -0.113688,0.298001 l -0.7028,-0.05684 q 0.04134,-0.296278 0.151585,-0.461643 0.110243,-0.167087 0.310058,-0.254937 0.201538,-0.08957 0.556383,-0.08957 0.370348,0 0.575331,0.0844 0.206706,0.08441 0.323839,0.260105 0.118856,0.173977 0.118856,0.391018 0,0.230822 -0.136082,0.440973 -0.134358,0.21015 -0.490926,0.461642 -0.211873,0.146417 -0.28422,0.204984 -0.07062,0.05857 -0.167087,0.153306 h 1.09554 z"
         style="fill:#ffff00;stroke-width:0.26458332"
         id="path337-6" />
      <path
         inkscape:connector-curvature="0"
         d="m 23.383764,60.854122 h -2.104953 q 0.03617,-0.311781 0.218764,-0.585666 0.184312,-0.275608 0.689019,-0.649401 0.308336,-0.229098 0.394463,-0.347954 0.08613,-0.118856 0.08613,-0.225654 0,-0.115411 -0.08613,-0.19637 -0.08441,-0.08268 -0.213596,-0.08268 -0.134358,0 -0.220486,0.08441 -0.08441,0.0844 -0.113688,0.298001 l -0.702799,-0.05684 q 0.04134,-0.296278 0.151584,-0.461643 0.110243,-0.167087 0.310058,-0.254937 0.201538,-0.08957 0.556383,-0.08957 0.370348,0 0.575331,0.0844 0.206706,0.08441 0.323839,0.260105 0.118856,0.173977 0.118856,0.391018 0,0.230822 -0.136081,0.440973 -0.134359,0.21015 -0.490926,0.461642 -0.211874,0.146417 -0.284221,0.204984 -0.07062,0.05857 -0.167087,0.153306 h 1.09554 z"
         style="fill:#ffff00;stroke-width:0.26458332"
         id="path339-2" />
      <path
         inkscape:connector-curvature="0"
         d="m 24.170969,58.285804 h 0.35829 l -0.633898,2.609659 h -0.354844 z"
         style="fill:#ffff00;stroke-width:0.26458332"
         id="path341-6" />
      <path
         inkscape:connector-curvature="0"
         d="m 25.344024,59.059227 -0.663181,-0.118855 q 0.08268,-0.316949 0.316949,-0.485759 0.235989,-0.168809 0.666625,-0.168809 0.494372,0 0.714858,0.184312 0.220486,0.184313 0.220486,0.463365 0,0.163643 -0.08957,0.296279 -0.08957,0.132636 -0.27044,0.232544 0.146417,0.03617 0.223932,0.0844 0.125746,0.07751 0.194648,0.204984 0.07062,0.125746 0.07062,0.301445 0,0.220487 -0.115411,0.423747 -0.11541,0.201538 -0.332451,0.311781 -0.217041,0.108521 -0.570164,0.108521 -0.344509,0 -0.544325,-0.08096 -0.198093,-0.08096 -0.327284,-0.235989 -0.127468,-0.156752 -0.19637,-0.392741 l 0.701077,-0.09302 q 0.04134,0.211873 0.127468,0.294555 0.08785,0.08096 0.222209,0.08096 0.141249,0 0.234266,-0.103353 0.09474,-0.103353 0.09474,-0.275607 0,-0.1757 -0.09129,-0.272163 -0.08957,-0.09646 -0.244601,-0.09646 -0.08268,0 -0.227377,0.04134 l 0.03617,-0.501261 q 0.05857,0.0086 0.09129,0.0086 0.137804,0 0.229099,-0.08785 0.09302,-0.08785 0.09302,-0.208428 0,-0.115411 -0.0689,-0.184313 -0.0689,-0.0689 -0.18948,-0.0689 -0.124023,0 -0.201538,0.07579 -0.07752,0.07407 -0.105075,0.261827 z"
         style="fill:#ffff00;stroke-width:0.26458332"
         id="path343-1" />
      <path
         inkscape:connector-curvature="0"
         d="m 27.01834,58.328867 h 0.699355 v 0.416857 L 27.607452,59.25732 H 27.132029 L 27.01834,58.745724 Z"
         style="fill:#ffff00;stroke-width:0.26458332"
         id="path345-8" />
    </g>
    <g
       transform="translate(-0.04599966,-48.085261)"
       aria-label="2'"
       style="font-style:normal;font-variant:normal;font-weight:normal;font-stretch:normal;font-size:3.52777767px;line-height:1.25;font-family:'Arial Black';-inkscape-font-specification:'Arial Black, Normal';font-variant-ligatures:normal;font-variant-caps:normal;font-variant-numeric:normal;font-feature-settings:normal;text-align:center;letter-spacing:0px;word-spacing:0px;writing-mode:lr-tb;text-anchor:middle;display:inline;fill:#ffff00;fill-opacity:1;stroke:none;stroke-width:0.26458332"
       id="text192-7">
      <path
         inkscape:connector-curvature="0"
         d="m 38.895996,60.854122 h -2.104954 q 0.03617,-0.311781 0.218764,-0.585666 0.184313,-0.275608 0.689019,-0.649401 0.308336,-0.229098 0.394463,-0.347954 0.08613,-0.118856 0.08613,-0.225654 0,-0.115411 -0.08613,-0.19637 -0.0844,-0.08268 -0.213595,-0.08268 -0.134359,0 -0.220487,0.08441 -0.0844,0.0844 -0.113688,0.298001 l -0.702799,-0.05684 q 0.04134,-0.296278 0.151584,-0.461643 0.110243,-0.167087 0.310059,-0.254937 0.201538,-0.08957 0.556382,-0.08957 0.370348,0 0.575331,0.0844 0.206706,0.08441 0.323839,0.260105 0.118856,0.173977 0.118856,0.391018 0,0.230822 -0.136081,0.440973 -0.134359,0.21015 -0.490926,0.461642 -0.211874,0.146417 -0.284221,0.204984 -0.07062,0.05857 -0.167087,0.153306 h 1.095541 z"
         style="fill:#ffff00;stroke-width:0.26458332"
         id="path332-9" />
      <path
         inkscape:connector-curvature="0"
         d="m 39.197442,58.328867 h 0.699354 v 0.416857 L 39.786553,59.25732 H 39.31113 l -0.113688,-0.511596 z"
         style="fill:#ffff00;stroke-width:0.26458332"
         id="path334-2" />
    </g>
    <g
       transform="translate(-0.04599966,-48.085261)"
       aria-label="1 3/5'"
       style="font-style:normal;font-variant:normal;font-weight:normal;font-stretch:normal;font-size:3.52777767px;line-height:1.25;font-family:'Arial Black';-inkscape-font-specification:'Arial Black, Normal';font-variant-ligatures:normal;font-variant-caps:normal;font-variant-numeric:normal;font-feature-settings:normal;text-align:center;letter-spacing:0px;word-spacing:0px;writing-mode:lr-tb;text-anchor:middle;display:inline;fill:#ffff00;fill-opacity:1;stroke:none;stroke-width:0.26458332"
       id="text196-0">
      <path
         inkscape:connector-curvature="0"
         d="m 4.5742256,74.1608 v 2.568318 H 3.864536 v -1.682929 q -0.1722548,0.130914 -0.3341743,0.211874 -0.1601969,0.08096 -0.4030761,0.155029 v -0.575331 q 0.3582899,-0.115411 0.5563829,-0.27733 0.198093,-0.16192 0.3100586,-0.399631 z"
         style="fill:#ffff00;stroke-width:0.26458332"
         id="path321-2" />
      <path
         inkscape:connector-curvature="0"
         d="M 7.1942207,74.934224 6.5310398,74.815368 q 0.082682,-0.316949 0.3169488,-0.485759 0.235989,-0.168809 0.666626,-0.168809 0.4943712,0 0.7148573,0.184312 0.2204861,0.184313 0.2204861,0.463366 0,0.163642 -0.089573,0.296278 -0.089572,0.132636 -0.27044,0.232544 0.1464166,0.03617 0.2239312,0.08441 0.125746,0.07751 0.1946479,0.204983 0.070624,0.125746 0.070624,0.301446 0,0.220486 -0.1154107,0.423746 -0.1154106,0.201538 -0.3324517,0.311782 -0.217041,0.10852 -0.5701632,0.10852 -0.3445096,0 -0.5443251,-0.08096 -0.198093,-0.08096 -0.3272841,-0.235989 -0.1274685,-0.156752 -0.1963704,-0.392741 l 0.7010769,-0.09302 q 0.041341,0.211873 0.1274685,0.294555 0.08785,0.08096 0.2222087,0.08096 0.1412489,0 0.2342665,-0.103353 0.09474,-0.103353 0.09474,-0.275607 0,-0.1757 -0.091295,-0.272163 -0.089573,-0.09646 -0.2446018,-0.09646 -0.082682,0 -0.2273763,0.04134 l 0.036174,-0.501262 q 0.058567,0.0086 0.091295,0.0086 0.1378038,0 0.2290989,-0.08785 0.093018,-0.08785 0.093018,-0.208428 0,-0.115411 -0.068902,-0.184313 -0.068902,-0.0689 -0.1894802,-0.0689 -0.1240234,0 -0.2015381,0.07579 -0.077515,0.07407 -0.1050754,0.261828 z"
         style="fill:#ffff00;stroke-width:0.26458332"
         id="path323-3" />
      <path
         inkscape:connector-curvature="0"
         d="M 9.3542958,74.1608 H 9.7125857 L 9.0786881,76.770459 H 8.7238433 Z"
         style="fill:#ffff00;stroke-width:0.26458332"
         id="path325-7" />
      <path
         inkscape:connector-curvature="0"
         d="m 10.131164,74.203863 h 1.665704 v 0.559828 h -1.128269 l -0.06029,0.378961 q 0.117133,-0.05512 0.230821,-0.08268 0.115411,-0.02756 0.227377,-0.02756 0.37896,0 0.614949,0.229099 0.235989,0.229099 0.235989,0.577053 0,0.244602 -0.122301,0.470256 -0.120578,0.225653 -0.344509,0.344509 -0.222209,0.118856 -0.570163,0.118856 -0.24977,0 -0.428915,-0.04651 -0.177422,-0.04823 -0.303168,-0.141249 -0.124024,-0.09474 -0.2015382,-0.213596 -0.077515,-0.118855 -0.1291911,-0.296278 l 0.7096893,-0.07751 q 0.02584,0.170532 0.120579,0.260104 0.09474,0.08785 0.225653,0.08785 0.146417,0 0.241157,-0.110243 0.09646,-0.111965 0.09646,-0.332452 0,-0.225653 -0.09646,-0.330729 -0.09646,-0.105075 -0.25666,-0.105075 -0.10163,0 -0.19637,0.04995 -0.07062,0.03617 -0.155029,0.130913 L 9.9089547,75.56123 Z"
         style="fill:#ffff00;stroke-width:0.26458332"
         id="path327-5" />
      <path
         inkscape:connector-curvature="0"
         d="m 12.201667,74.203863 h 0.699355 v 0.416857 l -0.110243,0.511597 H 12.315355 L 12.201667,74.62072 Z"
         style="fill:#ffff00;stroke-width:0.26458332"
         id="path329-9" />
    </g>
    <g
       transform="translate(-0.04599966,-48.085261)"
       aria-label="1 1/3'"
       style="font-style:normal;font-variant:normal;font-weight:normal;font-stretch:normal;font-size:3.52777767px;line-height:1.25;font-family:'Arial Black';-inkscape-font-specification:'Arial Black, Normal';font-variant-ligatures:normal;font-variant-caps:normal;font-variant-numeric:normal;font-feature-settings:normal;text-align:center;letter-spacing:0px;word-spacing:0px;writing-mode:lr-tb;text-anchor:middle;display:inline;fill:#ffff00;fill-opacity:1;stroke:none;stroke-width:0.26458332"
       id="text200-2">
      <path
         inkscape:connector-curvature="0"
         d="m 19.655481,74.1608 v 2.568318 h -0.70969 v -1.682929 q -0.172255,0.130914 -0.334174,0.211874 -0.160197,0.08096 -0.403076,0.155029 v -0.575331 q 0.358289,-0.115411 0.556382,-0.27733 0.198093,-0.16192 0.310059,-0.399631 z"
         style="fill:#ffff00;stroke-width:0.26458332"
         id="path310-2" />
      <path
         inkscape:connector-curvature="0"
         d="m 23.184981,74.1608 v 2.568318 h -0.70969 v -1.682929 q -0.172255,0.130914 -0.334174,0.211874 -0.160197,0.08096 -0.403076,0.155029 v -0.575331 q 0.35829,-0.115411 0.556383,-0.27733 0.198093,-0.16192 0.310058,-0.399631 z"
         style="fill:#ffff00;stroke-width:0.26458332"
         id="path312-8" />
      <path
         inkscape:connector-curvature="0"
         d="m 24.435551,74.1608 h 0.35829 l -0.633898,2.609659 h -0.354845 z"
         style="fill:#ffff00;stroke-width:0.26458332"
         id="path314-9" />
      <path
         inkscape:connector-curvature="0"
         d="m 25.608605,74.934224 -0.663181,-0.118856 q 0.08268,-0.316949 0.316949,-0.485759 0.235989,-0.168809 0.666626,-0.168809 0.494371,0 0.714857,0.184312 0.220487,0.184313 0.220487,0.463366 0,0.163642 -0.08957,0.296278 -0.08957,0.132636 -0.27044,0.232544 0.146417,0.03617 0.223931,0.08441 0.125746,0.07751 0.194648,0.204983 0.07062,0.125746 0.07062,0.301446 0,0.220486 -0.115411,0.423746 -0.115411,0.201538 -0.332452,0.311782 -0.217041,0.10852 -0.570163,0.10852 -0.34451,0 -0.544325,-0.08096 -0.198093,-0.08096 -0.327284,-0.235989 -0.127469,-0.156752 -0.196371,-0.392741 l 0.701077,-0.09302 q 0.04134,0.211873 0.127469,0.294555 0.08785,0.08096 0.222208,0.08096 0.141249,0 0.234267,-0.103353 0.09474,-0.103353 0.09474,-0.275607 0,-0.1757 -0.0913,-0.272163 -0.08957,-0.09646 -0.244602,-0.09646 -0.08268,0 -0.227376,0.04134 l 0.03617,-0.501262 q 0.05857,0.0086 0.0913,0.0086 0.137803,0 0.229098,-0.08785 0.09302,-0.08785 0.09302,-0.208428 0,-0.115411 -0.0689,-0.184313 -0.0689,-0.0689 -0.18948,-0.0689 -0.124024,0 -0.201538,0.07579 -0.07752,0.07407 -0.105076,0.261828 z"
         style="fill:#ffff00;stroke-width:0.26458332"
         id="path316-7" />
      <path
         inkscape:connector-curvature="0"
         d="m 27.282922,74.203863 h 0.699355 v 0.416857 l -0.110244,0.511597 H 27.39661 L 27.282922,74.62072 Z"
         style="fill:#ffff00;stroke-width:0.26458332"
         id="path318-3" />
    </g>
    <g
       transform="translate(-0.04599966,-48.085261)"
       aria-label="1'"
       style="font-style:normal;font-variant:normal;font-weight:normal;font-stretch:normal;font-size:3.52777767px;line-height:1.25;font-family:'Arial Black';-inkscape-font-specification:'Arial Black, Normal';font-variant-ligatures:normal;font-variant-caps:normal;font-variant-numeric:normal;font-feature-settings:normal;text-align:center;letter-spacing:0px;word-spacing:0px;writing-mode:lr-tb;text-anchor:middle;display:inline;fill:#ffff00;fill-opacity:1;stroke:none;stroke-width:0.26458332"
       id="text204-6">
      <path
         inkscape:connector-curvature="0"
         d="m 38.631067,74.1608 v 2.568318 h -0.70969 v -1.682929 q -0.172254,0.130914 -0.334174,0.211874 -0.160197,0.08096 -0.403076,0.155029 v -0.575331 q 0.35829,-0.115411 0.556383,-0.27733 0.198093,-0.16192 0.310058,-0.399631 z"
         style="fill:#ffff00;stroke-width:0.26458332"
         id="path305-1" />
      <path
         inkscape:connector-curvature="0"
         d="m 39.395878,74.203863 h 0.699355 V 74.62072 L 39.98499,75.132317 H 39.509566 L 39.395878,74.62072 Z"
         style="fill:#ffff00;stroke-width:0.26458332"
         id="path307-2" />
    </g>
  </g>
</svg>
