<?xml version="1.0" encoding="UTF-8" standalone="no"?>
<!-- Created with Inkscape (http://www.inkscape.org/) -->

<svg
   xmlns:dc="http://purl.org/dc/elements/1.1/"
   xmlns:cc="http://creativecommons.org/ns#"
   xmlns:rdf="http://www.w3.org/1999/02/22-rdf-syntax-ns#"
   xmlns:svg="http://www.w3.org/2000/svg"
   xmlns="http://www.w3.org/2000/svg"
   xmlns:sodipodi="http://sodipodi.sourceforge.net/DTD/sodipodi-0.dtd"
   xmlns:inkscape="http://www.inkscape.org/namespaces/inkscape"
   width="25.4mm"
   height="128.54166mm"
   viewBox="0 0 25.4 128.5417"
   version="1.1"
   id="svg4541"
   sodipodi:docname="I.svg"
   inkscape:version="0.92.5 (2060ec1f9f, 2020-04-08)">
  <defs
     id="defs4535" />
  <sodipodi:namedview
     id="base"
     pagecolor="#ffffff"
     bordercolor="#666666"
     borderopacity="1.0"
     inkscape:pageopacity="0.0"
     inkscape:pageshadow="2"
     inkscape:zoom="4"
     inkscape:cx="96.628"
     inkscape:cy="52.363371"
     inkscape:document-units="mm"
     inkscape:current-layer="layer1"
     showgrid="true"
     fit-margin-top="0"
     fit-margin-left="0"
     fit-margin-right="0"
     fit-margin-bottom="0"
     inkscape:window-width="1600"
     inkscape:window-height="845"
     inkscape:window-x="0"
     inkscape:window-y="0"
     inkscape:window-maximized="1"
     units="mm">
    <inkscape:grid
       type="xygrid"
       id="grid76" />
  </sodipodi:namedview>
  <metadata
     id="metadata4538">
    <rdf:RDF>
      <cc:Work
         rdf:about="">
        <dc:format>image/svg+xml</dc:format>
        <dc:type
           rdf:resource="http://purl.org/dc/dcmitype/StillImage" />
        <dc:title />
      </cc:Work>
    </rdf:RDF>
  </metadata>
  <g
     inkscape:groupmode="layer"
     id="layer1"
     inkscape:label="Background"
     style="display:inline;opacity:1">
    <rect
       style="fill:#666666;stroke-width:0.27736092"
       id="rect111"
       width="25.466146"
       height="128.32292"
       x="0.06614583"
       y="0.21873982" />
    <g
       aria-label="D1"
       style="font-style:normal;font-variant:normal;font-weight:normal;font-stretch:normal;font-size:3.52777767px;line-height:1.25;font-family:'Arial Black';-inkscape-font-specification:'Arial Black, Normal';font-variant-ligatures:normal;font-variant-caps:normal;font-variant-numeric:normal;font-feature-settings:normal;text-align:center;letter-spacing:0px;word-spacing:0px;writing-mode:lr-tb;text-anchor:middle;fill:#ffff00;fill-opacity:1;stroke:none;stroke-width:0.26458332"
       id="text101">
      <path
         d="m 4.2686457,22.035153 h 1.1592746 q 0.342787,0 0.5529378,0.09302 0.2118734,0.09302 0.3496772,0.266995 0.1378038,0.173978 0.1998155,0.404799 0.062012,0.230821 0.062012,0.489203 0,0.404799 -0.093018,0.62873 -0.091295,0.222209 -0.2549371,0.373793 -0.163642,0.149862 -0.3513997,0.199816 -0.2566596,0.0689 -0.4650879,0.0689 H 4.2686457 Z m 0.7803141,0.571886 v 1.37976 h 0.1912028 q 0.2446018,0 0.3479547,-0.0534 0.1033528,-0.05512 0.1619194,-0.18948 0.058567,-0.136081 0.058567,-0.43925 0,-0.401353 -0.1309137,-0.549492 -0.1309136,-0.148139 -0.434082,-0.148139 z"
         style="fill:#ffff00;stroke-width:0.26458332"
         id="path221" />
      <path
         d="m 8.4785524,21.992089 v 2.568319 H 7.7688627 v -1.682929 q -0.1722548,0.130913 -0.3341742,0.211873 -0.160197,0.08096 -0.4030762,0.155029 V 22.66905 q 0.3582899,-0.11541 0.5563829,-0.27733 0.198093,-0.161919 0.3100586,-0.399631 z"
         style="fill:#ffff00;stroke-width:0.26458332"
         id="path223" />
    </g>
    <g
       aria-label="D2"
       style="font-style:normal;font-variant:normal;font-weight:normal;font-stretch:normal;font-size:3.52777767px;line-height:1.25;font-family:'Arial Black';-inkscape-font-specification:'Arial Black, Normal';font-variant-ligatures:normal;font-variant-caps:normal;font-variant-numeric:normal;font-feature-settings:normal;text-align:center;letter-spacing:0px;word-spacing:0px;writing-mode:lr-tb;text-anchor:middle;fill:#ffff00;fill-opacity:1;stroke:none;stroke-width:0.26458332"
       id="text105">
      <path
         d="m 4.0040626,38.174734 h 1.1592746 q 0.342787,0 0.5529378,0.09302 0.2118734,0.09302 0.3496772,0.266995 0.1378038,0.173977 0.1998155,0.404799 0.062012,0.230821 0.062012,0.489203 0,0.404799 -0.093018,0.62873 -0.091295,0.222209 -0.2549371,0.373793 -0.163642,0.149862 -0.3513997,0.199815 -0.2566596,0.0689 -0.4650879,0.0689 H 4.0040626 Z m 0.7803141,0.571886 v 1.379761 h 0.1912028 q 0.2446018,0 0.3479546,-0.0534 0.1033529,-0.05512 0.1619195,-0.18948 0.058567,-0.136082 0.058567,-0.43925 0,-0.401354 -0.1309137,-0.549493 Q 5.282193,38.74662 4.9790246,38.74662 Z"
         style="fill:#ffff00;stroke-width:0.26458332"
         id="path216" />
      <path
         d="M 8.6773346,40.699989 H 6.5723813 q 0.036174,-0.311781 0.2187636,-0.585666 0.1843126,-0.275608 0.689019,-0.6494 0.3083361,-0.229099 0.3944635,-0.347955 0.086127,-0.118856 0.086127,-0.225654 0,-0.11541 -0.086127,-0.19637 -0.084405,-0.08268 -0.213596,-0.08268 -0.1343587,0 -0.2204861,0.0844 -0.084405,0.0844 -0.1136881,0.298001 l -0.7027995,-0.05684 q 0.041341,-0.296278 0.1515842,-0.461643 0.1102431,-0.167087 0.3100586,-0.254937 0.2015381,-0.08957 0.5563829,-0.08957 0.3703478,0 0.575331,0.08441 0.2067057,0.0844 0.3238389,0.260104 0.1188558,0.173978 0.1188558,0.391019 0,0.230821 -0.1360813,0.440972 -0.1343587,0.210151 -0.4909261,0.461643 -0.2118733,0.146416 -0.2842203,0.204983 -0.070625,0.05857 -0.1670871,0.153306 h 1.0955403 z"
         style="fill:#ffff00;stroke-width:0.26458332"
         id="path218" />
    </g>
    <g
       aria-label="D3"
       style="font-style:normal;font-variant:normal;font-weight:normal;font-stretch:normal;font-size:3.52777767px;line-height:1.25;font-family:'Arial Black';-inkscape-font-specification:'Arial Black, Normal';font-variant-ligatures:normal;font-variant-caps:normal;font-variant-numeric:normal;font-feature-settings:normal;text-align:center;letter-spacing:0px;word-spacing:0px;writing-mode:lr-tb;text-anchor:middle;fill:#ffff00;fill-opacity:1;stroke:none;stroke-width:0.26458332"
       id="text109">
      <path
         d="m 4.0702085,53.851298 h 1.1592746 q 0.342787,0 0.5529378,0.09302 0.2118734,0.09302 0.3496772,0.266995 0.1378038,0.173977 0.1998155,0.404799 0.062012,0.230821 0.062012,0.489203 0,0.404799 -0.093018,0.62873 -0.091295,0.222209 -0.2549371,0.373793 -0.163642,0.149862 -0.3513997,0.199816 -0.2566596,0.0689 -0.4650879,0.0689 H 4.0702085 Z m 0.7803141,0.571885 v 1.379761 h 0.1912028 q 0.2446018,0 0.3479546,-0.0534 0.1033529,-0.05512 0.1619195,-0.18948 0.058567,-0.136081 0.058567,-0.43925 0,-0.401353 -0.1309136,-0.549492 -0.1309136,-0.14814 -0.434082,-0.14814 z"
         style="fill:#ffff00;stroke-width:0.26458332"
         id="path211" />
      <path
         d="M 7.37061,54.581658 6.7074291,54.462802 q 0.082682,-0.316949 0.3169488,-0.485758 0.235989,-0.16881 0.6666259,-0.16881 0.4943712,0 0.7148573,0.184313 0.2204861,0.184312 0.2204861,0.463365 0,0.163642 -0.089572,0.296278 -0.089572,0.132636 -0.27044,0.232544 0.1464165,0.03617 0.2239312,0.0844 0.125746,0.07751 0.1946479,0.204983 0.070624,0.125746 0.070624,0.301446 0,0.220486 -0.1154107,0.423747 -0.1154107,0.201538 -0.3324517,0.311781 -0.217041,0.10852 -0.5701633,0.10852 -0.3445095,0 -0.544325,-0.08096 -0.198093,-0.08096 -0.3272841,-0.23599 Q 6.738435,55.945916 6.6695331,55.709927 L 7.37061,55.616909 q 0.041341,0.211873 0.1274685,0.294556 0.08785,0.08096 0.2222087,0.08096 0.1412489,0 0.2342664,-0.103352 0.09474,-0.103353 0.09474,-0.275608 0,-0.1757 -0.091295,-0.272163 -0.089572,-0.09646 -0.2446017,-0.09646 -0.082682,0 -0.2273763,0.04134 l 0.036174,-0.501261 q 0.058567,0.0086 0.091295,0.0086 0.1378038,0 0.2290988,-0.08785 0.093018,-0.08785 0.093018,-0.208428 0,-0.115411 -0.068902,-0.184313 -0.068902,-0.0689 -0.1894802,-0.0689 -0.1240235,0 -0.2015381,0.07579 -0.077515,0.07407 -0.1050754,0.261827 z"
         style="fill:#ffff00;stroke-width:0.26458332"
         id="path213" />
    </g>
    <g
       aria-label="P1"
       style="font-style:normal;font-variant:normal;font-weight:normal;font-stretch:normal;font-size:3.52777767px;line-height:1.25;font-family:'Arial Black';-inkscape-font-specification:'Arial Black, Normal';font-variant-ligatures:normal;font-variant-caps:normal;font-variant-numeric:normal;font-feature-settings:normal;text-align:center;letter-spacing:0px;word-spacing:0px;writing-mode:lr-tb;text-anchor:middle;fill:#ffff00;fill-opacity:1;stroke:none;stroke-width:0.26458332"
       id="text114">
      <path
         d="m 16.722317,22.035153 h 1.297078 q 0.423747,0 0.633898,0.201538 0.211873,0.201538 0.211873,0.573608 0,0.382406 -0.230821,0.597724 -0.229099,0.215319 -0.701077,0.215319 h -0.427192 v 0.937066 h -0.783759 z m 0.783759,1.076592 h 0.191203 q 0.225653,0 0.316948,-0.07751 0.09129,-0.07924 0.09129,-0.201538 0,-0.118855 -0.07924,-0.201538 -0.07924,-0.08268 -0.298001,-0.08268 h -0.222208 z"
         style="fill:#ffff00;stroke-width:0.26458332"
         id="path206" />
      <path
         d="m 20.749633,21.992089 v 2.568319 h -0.70969 v -1.682929 q -0.172254,0.130913 -0.334174,0.211873 -0.160197,0.08096 -0.403076,0.155029 V 22.66905 q 0.35829,-0.11541 0.556383,-0.27733 0.198093,-0.161919 0.310058,-0.399631 z"
         style="fill:#ffff00;stroke-width:0.26458332"
         id="path208" />
    </g>
    <g
       aria-label="P2"
       style="font-style:normal;font-variant:normal;font-weight:normal;font-stretch:normal;font-size:3.52777767px;line-height:1.25;font-family:'Arial Black';-inkscape-font-specification:'Arial Black, Normal';font-variant-ligatures:normal;font-variant-caps:normal;font-variant-numeric:normal;font-feature-settings:normal;text-align:center;letter-spacing:0px;word-spacing:0px;writing-mode:lr-tb;text-anchor:middle;fill:#ffff00;fill-opacity:1;stroke:none;stroke-width:0.26458332"
       id="text118">
      <path
         d="m 16.590029,38.174734 h 1.297078 q 0.423747,0 0.633898,0.201538 0.211873,0.201539 0.211873,0.573609 0,0.382405 -0.230821,0.597724 -0.229099,0.215318 -0.701077,0.215318 h -0.427192 v 0.937066 h -0.783759 z m 0.783759,1.076593 h 0.191203 q 0.225653,0 0.316948,-0.07752 0.0913,-0.07924 0.0913,-0.201538 0,-0.118856 -0.07924,-0.201538 -0.07924,-0.08268 -0.298001,-0.08268 h -0.222208 z"
         style="fill:#ffff00;stroke-width:0.26458332"
         id="path201" />
      <path
         d="m 21.08071,40.699989 h -2.104953 q 0.03617,-0.311781 0.218764,-0.585666 0.184312,-0.275608 0.689019,-0.6494 0.308336,-0.229099 0.394463,-0.347955 0.08613,-0.118856 0.08613,-0.225654 0,-0.11541 -0.08613,-0.19637 -0.0844,-0.08268 -0.213596,-0.08268 -0.134358,0 -0.220486,0.0844 -0.08441,0.0844 -0.113688,0.298001 l -0.702799,-0.05684 q 0.04134,-0.296278 0.151584,-0.461643 0.110243,-0.167087 0.310058,-0.254937 0.201538,-0.08957 0.556383,-0.08957 0.370348,0 0.575331,0.08441 0.206706,0.0844 0.323839,0.260104 0.118856,0.173978 0.118856,0.391019 0,0.230821 -0.136081,0.440972 -0.134359,0.210151 -0.490926,0.461643 -0.211874,0.146416 -0.284221,0.204983 -0.07062,0.05857 -0.167087,0.153306 h 1.09554 z"
         style="fill:#ffff00;stroke-width:0.26458332"
         id="path203" />
    </g>
    <g
       aria-label="P3"
       style="font-style:normal;font-variant:normal;font-weight:normal;font-stretch:normal;font-size:3.52777767px;line-height:1.25;font-family:'Arial Black';-inkscape-font-specification:'Arial Black, Normal';font-variant-ligatures:normal;font-variant-caps:normal;font-variant-numeric:normal;font-feature-settings:normal;text-align:center;letter-spacing:0px;word-spacing:0px;writing-mode:lr-tb;text-anchor:middle;fill:#ffff00;fill-opacity:1;stroke:none;stroke-width:0.26458332"
       id="text122">
      <path
         d="m 16.722319,53.785151 h 1.297078 q 0.423747,0 0.633897,0.201538 0.211874,0.201538 0.211874,0.573608 0,0.382406 -0.230822,0.597724 -0.229098,0.215319 -0.701076,0.215319 h -0.427192 v 0.937066 h -0.783759 z m 0.783759,1.076592 h 0.191202 q 0.225654,0 0.316949,-0.07751 0.09129,-0.07924 0.09129,-0.201538 0,-0.118855 -0.07924,-0.201538 -0.07924,-0.08268 -0.298001,-0.08268 h -0.222208 z"
         style="fill:#ffff00;stroke-width:0.26458332"
         id="path196" />
      <path
         d="m 19.84013,54.515511 -0.663181,-0.118856 q 0.08268,-0.316949 0.316949,-0.485758 0.235989,-0.16881 0.666626,-0.16881 0.494371,0 0.714857,0.184313 0.220486,0.184312 0.220486,0.463365 0,0.163642 -0.08957,0.296278 -0.08957,0.132636 -0.27044,0.232544 0.146416,0.03617 0.223931,0.0844 0.125746,0.07751 0.194648,0.204983 0.07062,0.125746 0.07062,0.301446 0,0.220486 -0.115411,0.423747 -0.11541,0.201538 -0.332451,0.311781 -0.217041,0.10852 -0.570164,0.10852 -0.344509,0 -0.544325,-0.08096 -0.198093,-0.08096 -0.327284,-0.235989 -0.127468,-0.156752 -0.19637,-0.392741 l 0.701077,-0.09302 q 0.04134,0.211874 0.127468,0.294556 0.08785,0.08096 0.222209,0.08096 0.141249,0 0.234266,-0.103353 0.09474,-0.103353 0.09474,-0.275608 0,-0.1757 -0.09129,-0.272162 -0.08957,-0.09646 -0.244602,-0.09646 -0.08268,0 -0.227377,0.04134 l 0.03617,-0.501261 q 0.05857,0.0086 0.09129,0.0086 0.137804,0 0.229099,-0.08785 0.09302,-0.08785 0.09302,-0.208428 0,-0.11541 -0.0689,-0.184312 -0.0689,-0.0689 -0.18948,-0.0689 -0.124023,0 -0.201538,0.07579 -0.07751,0.07407 -0.105075,0.261827 z"
         style="fill:#ffff00;stroke-width:0.26458332"
         id="path198" />
    </g>
    <g
       aria-label="XOR"
       style="font-style:normal;font-variant:normal;font-weight:normal;font-stretch:normal;font-size:3.52777767px;line-height:1.25;font-family:'Arial Black';-inkscape-font-specification:'Arial Black, Normal';font-variant-ligatures:normal;font-variant-caps:normal;font-variant-numeric:normal;font-feature-settings:normal;text-align:center;letter-spacing:0px;word-spacing:0px;writing-mode:lr-tb;text-anchor:middle;fill:#ff0000;fill-opacity:1;stroke:none;stroke-width:0.26458332"
       id="text228">
      <path
         d="m 15.179775,119.13724 h 0.859551 l 0.447862,0.77686 0.434082,-0.77686 h 0.850939 l -0.785482,1.223 0.859551,1.30225 h -0.876776 l -0.497817,-0.81132 -0.499539,0.81132 h -0.871609 l 0.871609,-1.31603 z"
         style="fill:#ff0000;stroke-width:0.26458332"
         id="path398" />
      <path
         d="m 17.879007,120.40159 q 0,-0.6184 0.344509,-0.96291 0.34451,-0.34451 0.959459,-0.34451 0.630453,0 0.971517,0.33934 0.341065,0.33762 0.341065,0.94741 0,0.44269 -0.149862,0.72691 -0.148139,0.2825 -0.430637,0.44097 -0.280775,0.15675 -0.701077,0.15675 -0.427191,0 -0.707967,-0.13608 -0.279052,-0.13608 -0.45303,-0.43063 -0.173977,-0.29456 -0.173977,-0.73725 z m 0.780314,0.003 q 0,0.38241 0.141249,0.54949 0.142971,0.16709 0.387573,0.16709 0.251492,0 0.389296,-0.16364 0.137804,-0.16364 0.137804,-0.58739 0,-0.35657 -0.144694,-0.52021 -0.142972,-0.16536 -0.389296,-0.16536 -0.235989,0 -0.378961,0.16708 -0.142971,0.16709 -0.142971,0.55294 z"
         style="fill:#ff0000;stroke-width:0.26458332"
         id="path400" />
      <path
         d="m 20.926194,121.66249 v -2.52525 h 1.300523 q 0.361735,0 0.552938,0.062 0.191203,0.062 0.308336,0.23082 0.117133,0.16709 0.117133,0.40824 0,0.21015 -0.08957,0.36346 -0.08957,0.15158 -0.246324,0.24632 -0.09991,0.0603 -0.273886,0.0999 0.139527,0.0465 0.203261,0.093 0.04306,0.031 0.124023,0.13264 0.08268,0.10163 0.110244,0.15675 l 0.377237,0.73208 h -0.881944 l -0.416856,-0.7717 q -0.07924,-0.14986 -0.141249,-0.19465 -0.08441,-0.0586 -0.191203,-0.0586 h -0.0689 v 1.02492 z m 0.783759,-1.50206 h 0.329007 q 0.0534,0 0.206705,-0.0345 0.07752,-0.0155 0.125746,-0.0792 0.04995,-0.0637 0.04995,-0.14642 0,-0.1223 -0.07752,-0.18775 -0.07751,-0.0655 -0.29111,-0.0655 h -0.342787 z"
         style="fill:#ff0000;stroke-width:0.26458332"
         id="path402" />
    </g>
    <g
       aria-label="O1"
       style="font-style:normal;font-variant:normal;font-weight:normal;font-stretch:normal;font-size:3.52777767px;line-height:1.25;font-family:'Arial Black';-inkscape-font-specification:'Arial Black, Normal';font-variant-ligatures:normal;font-variant-caps:normal;font-variant-numeric:normal;font-feature-settings:normal;text-align:center;letter-spacing:0px;word-spacing:0px;writing-mode:lr-tb;text-anchor:middle;fill:#ff0000;fill-opacity:1;stroke:none;stroke-width:0.26458332"
       id="text232">
      <path
         d="m 16.696651,71.453664 q 0,-0.618394 0.344509,-0.962904 0.34451,-0.34451 0.959459,-0.34451 0.630453,0 0.971517,0.339342 0.341065,0.33762 0.341065,0.947402 0,0.442694 -0.149862,0.726915 -0.148139,0.282498 -0.430637,0.440972 -0.280775,0.156752 -0.701077,0.156752 -0.427191,0 -0.707967,-0.136081 -0.279052,-0.136082 -0.45303,-0.430637 -0.173977,-0.294556 -0.173977,-0.737251 z m 0.780314,0.0034 q 0,0.382406 0.141249,0.549493 0.142971,0.167087 0.387573,0.167087 0.251492,0 0.389296,-0.163642 0.137804,-0.163642 0.137804,-0.587389 0,-0.356567 -0.144694,-0.520209 -0.142972,-0.165365 -0.389296,-0.165365 -0.235989,0 -0.378961,0.167087 -0.142971,0.167088 -0.142971,0.552938 z"
         style="fill:#ff0000;stroke-width:0.26458332"
         id="path393" />
      <path
         d="m 21.209726,70.14625 v 2.568319 h -0.70969 V 71.03164 q -0.172255,0.130914 -0.334174,0.211873 -0.160197,0.08096 -0.403076,0.15503 v -0.575331 q 0.35829,-0.115411 0.556383,-0.27733 0.198093,-0.16192 0.310058,-0.399632 z"
         style="fill:#ff0000;stroke-width:0.26458332"
         id="path395" />
    </g>
    <g
       aria-label="O2"
       style="font-style:normal;font-variant:normal;font-weight:normal;font-stretch:normal;font-size:3.52777767px;line-height:1.25;font-family:'Arial Black';-inkscape-font-specification:'Arial Black, Normal';font-variant-ligatures:normal;font-variant-caps:normal;font-variant-numeric:normal;font-feature-settings:normal;text-align:center;letter-spacing:0px;word-spacing:0px;writing-mode:lr-tb;text-anchor:middle;fill:#ff0000;fill-opacity:1;stroke:none;stroke-width:0.26458332"
       id="text236">
      <path
         d="m 16.696655,87.527097 q 0,-0.618395 0.344509,-0.962904 0.34451,-0.34451 0.959459,-0.34451 0.630453,0 0.971517,0.339342 0.341065,0.33762 0.341065,0.947402 0,0.442694 -0.149862,0.726915 -0.148139,0.282497 -0.430637,0.440972 -0.280775,0.156752 -0.701077,0.156752 -0.427192,0 -0.707967,-0.136082 -0.279053,-0.136081 -0.45303,-0.430636 -0.173977,-0.294556 -0.173977,-0.737251 z m 0.780314,0.0034 q 0,0.382406 0.141249,0.549493 0.142971,0.167087 0.387573,0.167087 0.251492,0 0.389296,-0.163642 0.137804,-0.163642 0.137804,-0.587389 0,-0.356567 -0.144694,-0.520209 -0.142972,-0.165365 -0.389296,-0.165365 -0.235989,0 -0.378961,0.167087 -0.142971,0.167088 -0.142971,0.552938 z"
         style="fill:#ff0000;stroke-width:0.26458332"
         id="path388" />
      <path
         d="m 21.673095,88.788002 h -2.104953 q 0.03617,-0.311781 0.218763,-0.585666 0.184313,-0.275608 0.689019,-0.649401 0.308336,-0.229099 0.394464,-0.347954 0.08613,-0.118856 0.08613,-0.225654 0,-0.115411 -0.08613,-0.19637 -0.0844,-0.08268 -0.213596,-0.08268 -0.134359,0 -0.220486,0.08441 -0.0844,0.08441 -0.113688,0.298001 l -0.7028,-0.05684 q 0.04134,-0.296278 0.151584,-0.461643 0.110243,-0.167087 0.310059,-0.254937 0.201538,-0.08957 0.556383,-0.08957 0.370348,0 0.575331,0.0844 0.206705,0.08441 0.323839,0.260105 0.118855,0.173977 0.118855,0.391018 0,0.230822 -0.136081,0.440972 -0.134358,0.210151 -0.490926,0.461643 -0.211873,0.146417 -0.28422,0.204983 -0.07062,0.05857 -0.167087,0.153307 h 1.09554 z"
         style="fill:#ff0000;stroke-width:0.26458332"
         id="path390" />
    </g>
    <g
       aria-label="O3"
       style="font-style:normal;font-variant:normal;font-weight:normal;font-stretch:normal;font-size:3.52777767px;line-height:1.25;font-family:'Arial Black';-inkscape-font-specification:'Arial Black, Normal';font-variant-ligatures:normal;font-variant-caps:normal;font-variant-numeric:normal;font-feature-settings:normal;text-align:center;letter-spacing:0px;word-spacing:0px;writing-mode:lr-tb;text-anchor:middle;fill:#ff0000;fill-opacity:1;stroke:none;stroke-width:0.26458332"
       id="text240">
      <path
         d="m 16.89509,103.73282 q 0,-0.61839 0.344509,-0.9629 0.34451,-0.34451 0.959459,-0.34451 0.630453,0 0.971517,0.33934 0.341064,0.33762 0.341064,0.9474 0,0.4427 -0.149861,0.72692 -0.148139,0.2825 -0.430637,0.44097 -0.280775,0.15675 -0.701077,0.15675 -0.427192,0 -0.707967,-0.13608 -0.279053,-0.13608 -0.45303,-0.43064 -0.173977,-0.29455 -0.173977,-0.73725 z m 0.780314,0.003 q 0,0.3824 0.141249,0.54949 0.142971,0.16709 0.387573,0.16709 0.251492,0 0.389296,-0.16364 0.137803,-0.16365 0.137803,-0.58739 0,-0.35657 -0.144694,-0.52021 -0.142971,-0.16537 -0.389295,-0.16537 -0.235989,0 -0.378961,0.16709 -0.142971,0.16709 -0.142971,0.55294 z"
         style="fill:#ff0000;stroke-width:0.26458332"
         id="path383" />
      <path
         d="m 20.498659,103.19883 -0.663181,-0.11885 q 0.08268,-0.31695 0.316949,-0.48576 0.235989,-0.16881 0.666626,-0.16881 0.494371,0 0.714857,0.18431 0.220487,0.18432 0.220487,0.46337 0,0.16364 -0.08957,0.29628 -0.08957,0.13263 -0.27044,0.23254 0.146417,0.0362 0.223931,0.0844 0.125746,0.0775 0.194648,0.20499 0.07062,0.12574 0.07062,0.30144 0,0.22049 -0.115411,0.42375 -0.115411,0.20154 -0.332452,0.31178 -0.217041,0.10852 -0.570163,0.10852 -0.34451,0 -0.544325,-0.081 -0.198093,-0.081 -0.327284,-0.23599 -0.127469,-0.15675 -0.196371,-0.39274 l 0.701077,-0.093 q 0.04134,0.21187 0.127469,0.29455 0.08785,0.081 0.222208,0.081 0.141249,0 0.234267,-0.10335 0.09474,-0.10336 0.09474,-0.27561 0,-0.1757 -0.09129,-0.27216 -0.08957,-0.0965 -0.244602,-0.0965 -0.08268,0 -0.227376,0.0414 l 0.03617,-0.50127 q 0.05857,0.009 0.0913,0.009 0.137803,0 0.229098,-0.0878 0.09302,-0.0879 0.09302,-0.20843 0,-0.11541 -0.0689,-0.18431 -0.0689,-0.0689 -0.18948,-0.0689 -0.124024,0 -0.201538,0.0758 -0.07752,0.0741 -0.105076,0.26182 z"
         style="fill:#ff0000;stroke-width:0.26458332"
         id="path385" />
    </g>
    <g
       aria-label="CLK"
       style="font-style:normal;font-variant:normal;font-weight:normal;font-stretch:normal;font-size:3.52777767px;line-height:1.25;font-family:'Arial Black';-inkscape-font-specification:'Arial Black, Normal';font-variant-ligatures:normal;font-variant-caps:normal;font-variant-numeric:normal;font-feature-settings:normal;text-align:center;letter-spacing:0px;word-spacing:0px;writing-mode:lr-tb;text-anchor:middle;fill:#00ff00;fill-opacity:1;stroke:none;stroke-width:0.26458332"
       id="text292">
      <path
         d="m 4.6024756,71.748902 0.6838514,0.206706 q -0.068902,0.287665 -0.217041,0.480591 -0.1481391,0.192925 -0.3686252,0.29111 -0.2187635,0.09819 -0.5581054,0.09819 -0.4116889,0 -0.6735162,-0.118856 Q 3.2089345,72.58606 3.0194543,72.284615 2.829974,71.983169 2.829974,71.512913 q 0,-0.627007 0.3324517,-0.962904 Q 3.4966,70.21239 4.1063819,70.21239 q 0.4771457,0 0.7493082,0.192925 0.2738851,0.192925 0.4065213,0.592556 l -0.6890191,0.153307 q -0.036173,-0.11541 -0.075792,-0.168809 -0.065457,-0.08957 -0.1601969,-0.137804 -0.09474,-0.04823 -0.2118734,-0.04823 -0.2652724,0 -0.4065213,0.213596 -0.1067979,0.158475 -0.1067979,0.497817 0,0.420301 0.1274685,0.577053 0.1274685,0.155029 0.3582899,0.155029 0.2239312,0 0.3376194,-0.125746 0.1154107,-0.125746 0.1670871,-0.36518 z"
         style="fill:#00ff00;stroke-width:0.26458332"
         id="path376" />
      <path
         d="m 5.6652876,70.255453 h 0.7803141 v 1.903416 h 1.2178412 v 0.621839 H 5.6652876 Z"
         style="fill:#00ff00;stroke-width:0.26458332"
         id="path378" />
      <path
         d="M 8.0217329,70.255453 H 8.802047 v 0.954292 l 0.8182101,-0.954292 h 1.0369739 l -0.9198406,0.952569 0.9611816,1.572686 H 9.7373904 L 9.2051231,71.742012 8.802047,72.164036 v 0.616672 H 8.0217329 Z"
         style="fill:#00ff00;stroke-width:0.26458332"
         id="path380" />
    </g>
    <g
       aria-label="RST"
       style="font-style:normal;font-variant:normal;font-weight:normal;font-stretch:normal;font-size:3.52777767px;line-height:1.25;font-family:'Arial Black';-inkscape-font-specification:'Arial Black, Normal';font-variant-ligatures:normal;font-variant-caps:normal;font-variant-numeric:normal;font-feature-settings:normal;text-align:center;letter-spacing:0px;word-spacing:0px;writing-mode:lr-tb;text-anchor:middle;fill:#00ff00;fill-opacity:1;stroke:none;stroke-width:0.26458332"
       id="text296">
      <path
         d="m 3.0297896,88.854149 v -2.525255 h 1.3005235 q 0.361735,0 0.5529378,0.06201 0.1912028,0.06201 0.308336,0.230821 0.1171333,0.167087 0.1171333,0.408244 0,0.210151 -0.089573,0.363457 -0.089573,0.151585 -0.2463243,0.246325 -0.099908,0.06029 -0.2738851,0.09991 0.1395263,0.04651 0.2032606,0.09302 0.043064,0.03101 0.1240234,0.132636 0.082682,0.101631 0.1102431,0.156752 l 0.3772379,0.732083 H 4.6317589 L 4.2149024,88.082447 Q 4.1356652,87.932586 4.0736535,87.8878 3.9892486,87.829233 3.8824507,87.829233 h -0.068902 v 1.024916 z m 0.7837592,-1.502062 h 0.3290066 q 0.053399,0 0.2067057,-0.03445 0.077515,-0.0155 0.125746,-0.07924 0.049954,-0.06373 0.049954,-0.146416 0,-0.122301 -0.077515,-0.187758 -0.077515,-0.06546 -0.2911106,-0.06546 H 3.8135488 Z"
         style="fill:#00ff00;stroke-width:0.26458332"
         id="path369" />
      <path
         d="m 5.6273916,88.018713 0.742418,-0.04651 q 0.024116,0.180868 0.098185,0.275608 0.1205784,0.153307 0.3445096,0.153307 0.1670871,0 0.2566596,-0.07751 0.091295,-0.07924 0.091295,-0.18259 0,-0.09819 -0.086127,-0.1757 Q 6.9882042,87.8878 6.6747006,87.818898 6.1613813,87.703487 5.9426178,87.512284 5.7221317,87.321081 5.7221317,87.024803 q 0,-0.194648 0.1119656,-0.366902 0.1136881,-0.173978 0.3393419,-0.272163 0.2273763,-0.09991 0.6218397,-0.09991 0.4840359,0 0.7372504,0.180868 0.2549371,0.179145 0.3031684,0.571886 l -0.7355279,0.04306 Q 7.0708865,86.911115 6.9761464,86.8336 q -0.093018,-0.07751 -0.2583822,-0.07751 -0.1360812,0 -0.2049831,0.05857 -0.068902,0.05684 -0.068902,0.139527 0,0.06029 0.056844,0.10852 0.055122,0.04995 0.2618273,0.09302 0.5115967,0.110243 0.7320828,0.223931 0.2222086,0.111966 0.3221164,0.279053 0.1016303,0.167087 0.1016303,0.373793 0,0.242879 -0.1343587,0.447862 -0.1343588,0.204983 -0.3755154,0.311781 -0.2411567,0.105076 -0.6080594,0.105076 -0.6442328,0 -0.8922797,-0.248047 Q 5.66012,88.401119 5.6273916,88.018713 Z"
         style="fill:#00ff00;stroke-width:0.26458332"
         id="path371" />
      <path
         d="m 8.1336984,86.328894 h 2.3719486 v 0.623562 H 9.7098295 v 1.901693 H 8.9295154 v -1.901693 h -0.795817 z"
         style="fill:#00ff00;stroke-width:0.26458332"
         id="path373" />
    </g>
    <g
       aria-label="DWN"
       style="font-style:normal;font-variant:normal;font-weight:normal;font-stretch:normal;font-size:3.52777767px;line-height:1.25;font-family:'Arial Black';-inkscape-font-specification:'Arial Black, Normal';font-variant-ligatures:normal;font-variant-caps:normal;font-variant-numeric:normal;font-feature-settings:normal;text-align:center;letter-spacing:0px;word-spacing:0px;writing-mode:lr-tb;text-anchor:middle;fill:#ff0000;fill-opacity:1;stroke:none;stroke-width:0.26458332"
       id="text300">
      <path
         d="m 2.9093836,102.46847 h 1.1592746 q 0.342787,0 0.5529378,0.093 0.2118734,0.093 0.3496772,0.267 0.1378038,0.17397 0.1998155,0.40479 0.062012,0.23083 0.062012,0.48921 0,0.4048 -0.093018,0.62873 -0.091295,0.22221 -0.254937,0.37379 -0.163642,0.14986 -0.3513997,0.19982 -0.2566596,0.0689 -0.4650879,0.0689 H 2.9093836 Z m 0.7803141,0.57189 v 1.37976 h 0.1912028 q 0.2446018,0 0.3479546,-0.0534 0.1033529,-0.0551 0.1619195,-0.18948 0.058567,-0.13608 0.058567,-0.43925 0,-0.40135 -0.1309136,-0.54949 -0.1309136,-0.14814 -0.434082,-0.14814 z"
         style="fill:#ff0000;stroke-width:0.26458332"
         id="path362" />
      <path
         d="m 5.4432513,102.46847 h 0.7406955 l 0.2669949,1.41077 0.3892958,-1.41077 h 0.7389729 l 0.3910184,1.41077 0.2669949,-1.41077 h 0.7372504 l -0.5563829,2.52526 H 7.65328 L 7.2105852,103.40382 6.769613,104.99373 H 6.0048018 Z"
         style="fill:#ff0000;stroke-width:0.26458332"
         id="path364" />
      <path
         d="m 9.2363016,102.46847 h 0.7286376 l 0.9508468,1.39699 v -1.39699 h 0.735527 v 2.52526 h -0.735527 l -0.9456791,-1.38665 v 1.38665 H 9.2363016 Z"
         style="fill:#ff0000;stroke-width:0.26458332"
         id="path366" />
    </g>
    <g
       aria-label="SANS"
       style="font-style:normal;font-variant:normal;font-weight:normal;font-stretch:normal;font-size:3.52777767px;line-height:1.25;font-family:'Arial Black';-inkscape-font-specification:'Arial Black, Normal';font-variant-ligatures:normal;font-variant-caps:normal;font-variant-numeric:normal;font-feature-settings:normal;text-align:center;letter-spacing:0px;word-spacing:0px;writing-mode:lr-tb;text-anchor:middle;fill:#ff0000;fill-opacity:1;stroke:none;stroke-width:0.26458332"
       id="text304">
      <path
         d="m 2.0093524,120.82706 0.7424181,-0.0465 q 0.024116,0.18086 0.098185,0.2756 0.1205783,0.15331 0.3445095,0.15331 0.1670872,0 0.2566596,-0.0775 0.091295,-0.0792 0.091295,-0.18259 0,-0.0982 -0.086127,-0.1757 -0.086127,-0.0775 -0.3996311,-0.14642 -0.5133192,-0.11541 -0.7320828,-0.30661 -0.2204861,-0.19121 -0.2204861,-0.48748 0,-0.19465 0.1119656,-0.36691 0.1136882,-0.17397 0.3393419,-0.27216 0.2273763,-0.0999 0.6218398,-0.0999 0.4840359,0 0.7372504,0.18087 0.254937,0.17914 0.3031684,0.57189 l -0.7355279,0.0431 q -0.029283,-0.17053 -0.1240234,-0.24805 -0.093018,-0.0775 -0.2583822,-0.0775 -0.1360813,0 -0.2049832,0.0586 -0.068902,0.0568 -0.068902,0.13953 0,0.0603 0.056844,0.10852 0.055121,0.05 0.2618272,0.093 0.5115967,0.11024 0.7320828,0.22393 0.2222087,0.11197 0.3221164,0.27905 0.1016303,0.16709 0.1016303,0.3738 0,0.24287 -0.1343587,0.44786 -0.1343587,0.20498 -0.3755154,0.31178 -0.2411566,0.10507 -0.6080593,0.10507 -0.6442328,0 -0.8922797,-0.24804 -0.2480469,-0.24805 -0.2807753,-0.63045 z"
         style="fill:#ff0000;stroke-width:0.26458332"
         id="path353" />
      <path
         d="M 6.2468197,121.24563 H 5.357985 l -0.1223008,0.41686 H 4.4381446 l 0.9491238,-2.52525 h 0.8509385 l 0.9491238,2.52525 H 6.3708431 Z m -0.1636421,-0.54604 -0.2790527,-0.90779 -0.2773302,0.90779 z"
         style="fill:#ff0000;stroke-width:0.26458332"
         id="path355" />
      <path
         d="m 7.4422678,119.13724 h 0.7286377 l 0.9508463,1.39698 v -1.39698 h 0.7355279 v 2.52525 H 9.1217518 l -0.9456786,-1.38665 v 1.38665 H 7.4422678 Z"
         style="fill:#ff0000;stroke-width:0.26458332"
         id="path357" />
      <path
         d="m 10.239686,120.82706 0.742418,-0.0465 q 0.02412,0.18086 0.09819,0.2756 0.120578,0.15331 0.34451,0.15331 0.167087,0 0.256659,-0.0775 0.0913,-0.0792 0.0913,-0.18259 0,-0.0982 -0.08613,-0.1757 -0.08613,-0.0775 -0.399631,-0.14642 -0.513319,-0.11541 -0.732083,-0.30661 -0.220486,-0.19121 -0.220486,-0.48748 0,-0.19465 0.111965,-0.36691 0.113689,-0.17397 0.339342,-0.27216 0.227377,-0.0999 0.62184,-0.0999 0.484036,0 0.73725,0.18087 0.254938,0.17914 0.303169,0.57189 l -0.735528,0.0431 q -0.02928,-0.17053 -0.124023,-0.24805 -0.09302,-0.0775 -0.258383,-0.0775 -0.136081,0 -0.204983,0.0586 -0.0689,0.0568 -0.0689,0.13953 0,0.0603 0.05684,0.10852 0.05512,0.05 0.261828,0.093 0.511596,0.11024 0.732082,0.22393 0.222209,0.11197 0.322117,0.27905 0.10163,0.16709 0.10163,0.3738 0,0.24287 -0.134359,0.44786 -0.134358,0.20498 -0.375515,0.31178 -0.241157,0.10507 -0.608059,0.10507 -0.644233,0 -0.89228,-0.24804 -0.248047,-0.24805 -0.280775,-0.63045 z"
         style="fill:#ff0000;stroke-width:0.26458332"
         id="path359" />
    </g>
  </g>
  <g
     inkscape:groupmode="layer"
     id="layer4"
     inkscape:label="graphics"
     transform="translate(0,28.00003)"
     style="display:inline">
    <text
       xml:space="preserve"
       style="font-style:normal;font-variant:normal;font-weight:normal;font-stretch:normal;font-size:4.58611107px;line-height:1.25;font-family:'Arial Black';-inkscape-font-specification:'Arial Black, Normal';font-variant-ligatures:normal;font-variant-caps:normal;font-variant-numeric:normal;text-align:center;letter-spacing:0px;word-spacing:0px;writing-mode:lr-tb;text-anchor:middle;fill:#000000;fill-opacity:1;stroke:none;stroke-width:0.26458332"
       x="11.90625"
       y="-21.166708"
       id="text115"><tspan
         sodipodi:role="line"
         id="tspan113"
         x="11.90625"
         y="-17.054897"
         style="stroke-width:0.26458332" /></text>
    <g
       aria-label="KRT"
       style="font-style:normal;font-variant:normal;font-weight:normal;font-stretch:normal;font-size:3.52777767px;line-height:1.25;font-family:'Arial Black';-inkscape-font-specification:'Arial Black, Normal';font-variant-ligatures:normal;font-variant-caps:normal;font-variant-numeric:normal;font-feature-settings:normal;text-align:center;letter-spacing:0px;word-spacing:0px;writing-mode:lr-tb;text-anchor:middle;fill:#000000;fill-opacity:1;stroke:none;stroke-width:0.26458332"
       id="text123"
       transform="translate(-12.170835,-117.47517)">
      <path
         d="m 14.418414,95.635115 h 0.780314 v 0.954291 l 0.81821,-0.954291 h 1.036974 l -0.91984,0.952569 0.961181,1.572686 h -0.961181 l -0.532268,-1.038696 -0.403076,0.422024 v 0.616672 h -0.780314 z"
         style="fill:#f9f9f9;stroke-width:0.26458332"
         id="path227"
         inkscape:connector-curvature="0" />
      <path
         d="m 17.363971,98.16037 v -2.525255 h 1.300523 q 0.361735,0 0.552938,0.06201 0.191203,0.06201 0.308336,0.230821 0.117133,0.167087 0.117133,0.408244 0,0.210151 -0.08957,0.363457 -0.08957,0.151585 -0.246325,0.246325 -0.09991,0.06029 -0.273885,0.09991 0.139527,0.04651 0.203261,0.09302 0.04306,0.03101 0.124023,0.132636 0.08268,0.101631 0.110243,0.156752 l 0.377238,0.732083 H 18.96594 l -0.416857,-0.771701 q -0.07924,-0.149862 -0.141248,-0.194648 -0.08441,-0.05857 -0.191203,-0.05857 h -0.0689 v 1.024916 z m 0.783759,-1.502062 h 0.329006 q 0.0534,0 0.206706,-0.03445 0.07752,-0.0155 0.125746,-0.07924 0.04995,-0.06373 0.04995,-0.146416 0,-0.122301 -0.07751,-0.187758 -0.07751,-0.06546 -0.29111,-0.06546 H 18.14773 Z"
         style="fill:#f9f9f9;stroke-width:0.26458332"
         id="path229"
         inkscape:connector-curvature="0" />
      <path
         d="m 19.889226,95.635115 h 2.371948 v 0.623562 h -0.795817 v 1.901693 h -0.780314 v -1.901693 h -0.795817 z"
         style="fill:#f9f9f9;stroke-width:0.26458332"
         id="path231"
         inkscape:connector-curvature="0" />
    </g>
    <g
       aria-label="Ω"
       style="font-style:normal;font-variant:normal;font-weight:normal;font-stretch:normal;font-size:3.52777767px;line-height:1.25;font-family:'Arial Black';-inkscape-font-specification:'Arial Black, Normal';font-variant-ligatures:normal;font-variant-caps:normal;font-variant-numeric:normal;font-feature-settings:normal;text-align:center;letter-spacing:0px;word-spacing:0px;writing-mode:lr-tb;text-anchor:middle;fill:#000000;fill-opacity:1;stroke:none;stroke-width:0.26458332"
       id="text107"
       transform="matrix(2.52226,0,0,2.4814703,-16.867486,28.084873)" />
    <g
       aria-label="I"
       style="font-style:normal;font-variant:normal;font-weight:normal;font-stretch:normal;font-size:3.52777767px;line-height:1.25;font-family:'Arial Black';-inkscape-font-specification:'Arial Black, Normal';font-variant-ligatures:normal;font-variant-caps:normal;font-variant-numeric:normal;font-feature-settings:normal;text-align:center;letter-spacing:0px;word-spacing:0px;writing-mode:lr-tb;text-anchor:middle;fill:#000000;fill-opacity:1;stroke:none;stroke-width:0.26458332"
       id="text94">
      <path
         d="m 10.583161,-22.501339 h 0.782037 v 2.525255 h -0.782037 z"
         style="stroke-width:0.26458332"
         id="path96" />
    </g>
  </g>
</svg>
