<?xml version="1.0" encoding="UTF-8" standalone="no"?>
<!-- Created with Inkscape (http://www.inkscape.org/) -->

<svg
   xmlns:dc="http://purl.org/dc/elements/1.1/"
   xmlns:cc="http://creativecommons.org/ns#"
   xmlns:rdf="http://www.w3.org/1999/02/22-rdf-syntax-ns#"
   xmlns:svg="http://www.w3.org/2000/svg"
   xmlns="http://www.w3.org/2000/svg"
   xmlns:sodipodi="http://sodipodi.sourceforge.net/DTD/sodipodi-0.dtd"
   xmlns:inkscape="http://www.inkscape.org/namespaces/inkscape"
   width="20.32mm"
   height="128.54166mm"
   viewBox="0 0 20.32 128.5417"
   version="1.1"
   id="svg4541"
   sodipodi:docname="M.svg"
   inkscape:version="0.92.5 (2060ec1f9f, 2020-04-08)">
  <defs
     id="defs4535" />
  <sodipodi:namedview
     id="base"
     pagecolor="#ffffff"
     bordercolor="#666666"
     borderopacity="1.0"
     inkscape:pageopacity="0.0"
     inkscape:pageshadow="2"
     inkscape:zoom="4"
     inkscape:cx="49.128"
     inkscape:cy="125.25719"
     inkscape:document-units="mm"
     inkscape:current-layer="layer1"
     showgrid="true"
     fit-margin-top="0"
     fit-margin-left="0"
     fit-margin-right="0"
     fit-margin-bottom="0"
     inkscape:window-width="1600"
     inkscape:window-height="845"
     inkscape:window-x="0"
     inkscape:window-y="0"
     inkscape:window-maximized="1"
     units="mm">
    <inkscape:grid
       type="xygrid"
       id="grid76" />
  </sodipodi:namedview>
  <metadata
     id="metadata4538">
    <rdf:RDF>
      <cc:Work
         rdf:about="">
        <dc:format>image/svg+xml</dc:format>
        <dc:type
           rdf:resource="http://purl.org/dc/dcmitype/StillImage" />
        <dc:title />
      </cc:Work>
    </rdf:RDF>
  </metadata>
  <g
     inkscape:groupmode="layer"
     id="layer1"
     inkscape:label="Background"
     style="display:inline;opacity:1">
    <rect
       style="fill:#b3b3b3;stroke-width:0.24888329"
       id="rect111"
       width="20.505209"
       height="128.32292"
       x="0"
       y="0.21873982" />
    <g
       aria-label="OUT"
       style="font-style:normal;font-variant:normal;font-weight:normal;font-stretch:normal;font-size:3.52777767px;line-height:1.25;font-family:'Arial Black';-inkscape-font-specification:'Arial Black, Normal';font-variant-ligatures:normal;font-variant-caps:normal;font-variant-numeric:normal;font-feature-settings:normal;text-align:center;letter-spacing:0px;word-spacing:0px;writing-mode:lr-tb;text-anchor:middle;fill:#d40000;fill-opacity:1;stroke:none;stroke-width:0.26458332"
       id="text413"
       transform="translate(-4.5273727,0.14399983)">
      <path
         d="m 15.262289,120.40156 q 0,-0.61839 0.34451,-0.9629 0.344509,-0.34451 0.959459,-0.34451 0.630452,0 0.971517,0.33934 0.341064,0.33762 0.341064,0.9474 0,0.4427 -0.149861,0.72692 -0.148139,0.2825 -0.430637,0.44097 -0.280776,0.15675 -0.701077,0.15675 -0.427192,0 -0.707967,-0.13608 -0.279053,-0.13608 -0.45303,-0.43064 -0.173978,-0.29455 -0.173978,-0.73725 z m 0.780314,0.003 q 0,0.3824 0.141249,0.54949 0.142972,0.16709 0.387574,0.16709 0.251492,0 0.389295,-0.16364 0.137804,-0.16365 0.137804,-0.58739 0,-0.35657 -0.144694,-0.52021 -0.142971,-0.16537 -0.389296,-0.16537 -0.235989,0 -0.37896,0.16709 -0.142972,0.16709 -0.142972,0.55294 z"
         style="fill:#d40000;stroke-width:0.26458332"
         id="path437"
         inkscape:connector-curvature="0" />
      <path
         d="m 19.942451,119.13721 h 0.778592 v 1.50551 q 0,0.22393 -0.07062,0.42375 -0.0689,0.19809 -0.218764,0.34795 -0.148139,0.14814 -0.311781,0.20843 -0.227376,0.0844 -0.546048,0.0844 -0.184312,0 -0.403076,-0.0258 -0.217041,-0.0258 -0.363457,-0.10163 -0.146417,-0.0775 -0.268718,-0.21877 -0.120578,-0.14125 -0.165365,-0.29111 -0.07235,-0.24116 -0.07235,-0.42719 v -1.50551 h 0.778592 v 1.54168 q 0,0.20671 0.113688,0.32384 0.115411,0.11541 0.318672,0.11541 0.201538,0 0.315226,-0.11369 0.11541,-0.11541 0.11541,-0.32556 z"
         style="fill:#d40000;stroke-width:0.26458332"
         id="path439"
         inkscape:connector-curvature="0" />
      <path
         d="m 21.060385,119.13721 h 2.371948 v 0.62357 h -0.795817 v 1.90169 h -0.780314 v -1.90169 h -0.795817 z"
         style="fill:#d40000;stroke-width:0.26458332"
         id="path441"
         inkscape:connector-curvature="0" />
    </g>
    <g
       aria-label="M"
       style="font-style:normal;font-variant:normal;font-weight:normal;font-stretch:normal;font-size:3.52777767px;line-height:1.25;font-family:'Arial Black';-inkscape-font-specification:'Arial Black, Normal';font-variant-ligatures:normal;font-variant-caps:normal;font-variant-numeric:normal;font-feature-settings:normal;text-align:center;letter-spacing:0px;word-spacing:0px;writing-mode:lr-tb;text-anchor:middle;fill:#000000;fill-opacity:1;stroke:none;stroke-width:0.26458332"
       id="text91">
      <path
         d="m 13.13701,5.6309846 h 1.026639 l 0.396185,1.5365125 0.394464,-1.5365125 h 1.023193 V 8.1562395 H 15.340149 V 6.2304312 L 14.845777,8.1562395 H 14.268724 L 13.776075,6.2304312 V 8.1562395 H 13.13701 Z"
         style="stroke-width:0.26458332"
         id="path93" />
    </g>
    <g
       aria-label="SND"
       style="font-style:normal;font-variant:normal;font-weight:normal;font-stretch:normal;font-size:3.52777767px;line-height:1.25;font-family:'Arial Black';-inkscape-font-specification:'Arial Black, Normal';font-variant-ligatures:normal;font-variant-caps:normal;font-variant-numeric:normal;font-feature-settings:normal;text-align:center;letter-spacing:0px;word-spacing:0px;writing-mode:lr-tb;text-anchor:middle;fill:#d40000;fill-opacity:1;stroke:none;stroke-width:0.26458332"
       id="text98">
      <path
         d="m 1.894114,121.02549 0.7424181,-0.0465 q 0.024116,0.18087 0.098185,0.27561 0.1205783,0.1533 0.3445095,0.1533 0.1670872,0 0.2566596,-0.0775 0.091295,-0.0792 0.091295,-0.18259 0,-0.0982 -0.086127,-0.1757 -0.086127,-0.0775 -0.3996311,-0.14642 -0.5133192,-0.11541 -0.7320827,-0.30661 -0.2204861,-0.1912 -0.2204861,-0.48748 0,-0.19465 0.1119656,-0.3669 0.1136881,-0.17398 0.3393418,-0.27217 0.2273763,-0.0999 0.6218398,-0.0999 0.4840359,0 0.7372504,0.18086 0.254937,0.17915 0.3031684,0.57189 l -0.7355279,0.0431 q -0.029283,-0.17053 -0.1240234,-0.24804 -0.093018,-0.0775 -0.2583822,-0.0775 -0.1360812,0 -0.2049832,0.0586 -0.068902,0.0568 -0.068902,0.13952 0,0.0603 0.056844,0.10852 0.055121,0.05 0.2618273,0.093 0.5115966,0.11024 0.7320827,0.22393 0.2222087,0.11197 0.3221164,0.27906 0.1016304,0.16708 0.1016304,0.37379 0,0.24288 -0.1343588,0.44786 -0.1343587,0.20498 -0.3755154,0.31178 -0.2411566,0.10508 -0.6080593,0.10508 -0.6442328,0 -0.8922797,-0.24805 -0.2480469,-0.24805 -0.2807753,-0.63045 z"
         style="fill:#d40000;stroke-width:0.26458332"
         id="path143" />
      <path
         d="m 4.5830109,119.33567 h 0.7286377 l 0.9508463,1.39699 v -1.39699 h 0.7355279 v 2.52525 H 6.2624949 l -0.9456787,-1.38665 v 1.38665 H 4.5830109 Z"
         style="fill:#d40000;stroke-width:0.26458332"
         id="path145" />
      <path
         d="m 7.5268449,119.33567 h 1.1592746 q 0.342787,0 0.5529378,0.093 0.2118734,0.093 0.3496772,0.26699 0.1378038,0.17398 0.1998155,0.4048 0.062012,0.23082 0.062012,0.4892 0,0.4048 -0.093018,0.62873 -0.091295,0.22221 -0.254937,0.3738 -0.163642,0.14986 -0.3513997,0.19981 -0.2566597,0.0689 -0.4650879,0.0689 H 7.5268449 Z m 0.7803141,0.57188 v 1.37977 h 0.1912028 q 0.2446018,0 0.3479546,-0.0534 0.1033529,-0.0551 0.1619195,-0.18948 0.058567,-0.13609 0.058567,-0.43925 0,-0.40136 -0.1309136,-0.5495 -0.1309136,-0.14814 -0.434082,-0.14814 z"
         style="fill:#d40000;stroke-width:0.26458332"
         id="path147" />
    </g>
    <g
       aria-label="IN"
       style="font-style:normal;font-variant:normal;font-weight:normal;font-stretch:normal;font-size:3.52777767px;line-height:1.25;font-family:'Arial Black';-inkscape-font-specification:'Arial Black, Normal';font-variant-ligatures:normal;font-variant-caps:normal;font-variant-numeric:normal;font-feature-settings:normal;text-align:center;letter-spacing:0px;word-spacing:0px;writing-mode:lr-tb;text-anchor:middle;fill:#000000;fill-opacity:1;stroke:none;stroke-width:0.26458332"
       id="text113"
       transform="translate(-0.52916667)">
      <path
         d="m 3.9544528,103.52682 h 0.7820366 v 2.52525 H 3.9544528 Z"
         style="fill:#008000;stroke-width:0.26458332"
         id="path138"
         inkscape:connector-curvature="0" />
      <path
         d="m 5.3014851,103.52682 h 0.7286377 l 0.9508463,1.39698 v -1.39698 H 7.716497 v 2.52525 H 6.9809691 l -0.9456787,-1.38665 v 1.38665 H 5.3014851 Z"
         style="fill:#008000;stroke-width:0.26458332"
         id="path140"
         inkscape:connector-curvature="0" />
    </g>
    <g
       aria-label="RTN"
       style="font-style:normal;font-variant:normal;font-weight:normal;font-stretch:normal;font-size:3.52777767px;line-height:1.25;font-family:'Arial Black';-inkscape-font-specification:'Arial Black, Normal';font-variant-ligatures:normal;font-variant-caps:normal;font-variant-numeric:normal;font-feature-settings:normal;text-align:center;letter-spacing:0px;word-spacing:0px;writing-mode:lr-tb;text-anchor:middle;fill:#000000;fill-opacity:1;stroke:none;stroke-width:0.26458332"
       id="text117">
      <path
         d="m 10.721137,106.05207 v -2.52525 h 1.300523 q 0.361735,0 0.552938,0.062 0.191203,0.062 0.308336,0.23082 0.117134,0.16709 0.117134,0.40824 0,0.21015 -0.08957,0.36346 -0.08957,0.15158 -0.246324,0.24632 -0.09991,0.0603 -0.273885,0.0999 0.139526,0.0465 0.20326,0.093 0.04306,0.031 0.124024,0.13264 0.08268,0.10163 0.110243,0.15675 l 0.377238,0.73208 h -0.881945 l -0.416856,-0.7717 q -0.07924,-0.14986 -0.141249,-0.19465 -0.08441,-0.0586 -0.191203,-0.0586 h -0.0689 v 1.02492 z m 0.783759,-1.50206 h 0.329007 q 0.0534,0 0.206705,-0.0345 0.07752,-0.0155 0.125746,-0.0792 0.04995,-0.0637 0.04995,-0.14642 0,-0.1223 -0.07751,-0.18775 -0.07752,-0.0655 -0.291111,-0.0655 h -0.342787 z"
         style="fill:#008000;stroke-width:0.26458332"
         id="path131" />
      <path
         d="m 13.246392,103.52682 h 2.371948 v 0.62356 h -0.795817 v 1.90169 h -0.780314 v -1.90169 h -0.795817 z"
         style="fill:#008000;stroke-width:0.26458332"
         id="path133" />
      <path
         d="m 15.97663,103.52682 h 0.728638 l 0.950846,1.39698 v -1.39698 h 0.735528 v 2.52525 h -0.735528 l -0.945679,-1.38665 v 1.38665 H 15.97663 Z"
         style="fill:#008000;stroke-width:0.26458332"
         id="path135" />
    </g>
    <g
       aria-label="LOW"
       style="font-style:normal;font-variant:normal;font-weight:normal;font-stretch:normal;font-size:3.52777767px;line-height:1.25;font-family:'Arial Black';-inkscape-font-specification:'Arial Black, Normal';font-variant-ligatures:normal;font-variant-caps:normal;font-variant-numeric:normal;font-feature-settings:normal;text-align:center;letter-spacing:0px;word-spacing:0px;writing-mode:lr-tb;text-anchor:middle;fill:#000000;fill-opacity:1;stroke:none;stroke-width:0.26458332"
       id="text186"
       transform="translate(-0.52916663)">
      <path
         d="m 6.4922803,22.035153 h 0.7803141 v 1.903415 h 1.2178413 v 0.62184 H 6.4922803 Z"
         style="fill:#0000ff;stroke-width:0.26458332"
         id="path200"
         inkscape:connector-curvature="0" />
      <path
         d="m 8.6868059,23.299503 q 0,-0.618395 0.3445095,-0.962904 0.3445096,-0.34451 0.9594591,-0.34451 0.6304525,0 0.9715165,0.339342 0.341065,0.337619 0.341065,0.947401 0,0.442695 -0.149862,0.726915 -0.148139,0.282498 -0.430637,0.440972 -0.280775,0.156752 -0.701077,0.156752 -0.4271915,0 -0.7079667,-0.136081 Q 9.0347605,24.331309 8.8607832,24.036753 8.6868059,23.742197 8.6868059,23.299503 Z m 0.7803141,0.0034 q 0,0.382405 0.1412489,0.549493 0.1429715,0.167087 0.3875732,0.167087 0.2514919,0 0.3892959,-0.163642 0.137804,-0.163642 0.137804,-0.587389 0,-0.356568 -0.144694,-0.52021 -0.142972,-0.165364 -0.389296,-0.165364 -0.2359891,0 -0.3789605,0.167087 Q 9.46712,22.917097 9.46712,23.302948 Z"
         style="fill:#0000ff;stroke-width:0.26458332"
         id="path202"
         inkscape:connector-curvature="0" />
      <path
         d="m 11.403264,22.035153 h 0.740695 l 0.266995,1.410766 0.389296,-1.410766 h 0.738973 l 0.391018,1.410766 0.266995,-1.410766 h 0.737251 l -0.556383,2.525255 h -0.764811 l -0.442695,-1.589912 -0.440972,1.589912 h -0.764812 z"
         style="fill:#0000ff;stroke-width:0.26458332"
         id="path204"
         inkscape:connector-curvature="0" />
    </g>
    <g
       aria-label="LOdB"
       style="font-style:normal;font-variant:normal;font-weight:normal;font-stretch:normal;font-size:3.52777767px;line-height:1.25;font-family:'Arial Black';-inkscape-font-specification:'Arial Black, Normal';font-variant-ligatures:normal;font-variant-caps:normal;font-variant-numeric:normal;font-feature-settings:normal;text-align:center;letter-spacing:0px;word-spacing:0px;writing-mode:lr-tb;text-anchor:middle;fill:#000000;fill-opacity:1;stroke:none;stroke-width:0.26458332"
       id="text71">
      <path
         d="m 5.4129374,38.174734 h 0.7803141 v 1.903416 h 1.2178412 v 0.621839 H 5.4129374 Z"
         style="fill:#0000ff;stroke-width:0.26458332"
         id="path86" />
      <path
         d="m 7.607463,39.439084 q 0,-0.618394 0.3445095,-0.962904 0.3445096,-0.344509 0.9594591,-0.344509 0.6304524,0 0.9715169,0.339342 0.3410645,0.337619 0.3410645,0.947401 0,0.442695 -0.149862,0.726915 -0.1481388,0.282498 -0.4306366,0.440972 -0.2807753,0.156752 -0.701077,0.156752 -0.4271918,0 -0.7079671,-0.136081 Q 7.9554176,40.47089 7.7814403,40.176335 7.607463,39.881779 7.607463,39.439084 Z m 0.7803141,0.0034 q 0,0.382405 0.1412489,0.549492 0.1429715,0.167087 0.3875732,0.167087 0.251492,0 0.3892958,-0.163642 0.1378038,-0.163642 0.1378038,-0.587388 0,-0.356568 -0.144694,-0.52021 -0.1429714,-0.165364 -0.3892958,-0.165364 -0.235989,0 -0.3789605,0.167087 -0.1429714,0.167087 -0.1429714,0.552938 z"
         style="fill:#0000ff;stroke-width:0.26458332"
         id="path88" />
      <path
         d="m 12.523615,38.174734 v 2.525255 h -0.656291 v -0.27044 q -0.137804,0.172255 -0.251492,0.232544 -0.151584,0.07924 -0.337619,0.07924 -0.373793,0 -0.571886,-0.28422 -0.196371,-0.28422 -0.196371,-0.690742 0,-0.454752 0.217041,-0.695909 0.218764,-0.241156 0.554661,-0.241156 0.163642,0 0.296278,0.05512 0.134359,0.05512 0.237711,0.165365 v -0.875055 z m -0.7028,1.605415 q 0,-0.215319 -0.09129,-0.320394 -0.0913,-0.106798 -0.230821,-0.106798 -0.122301,0 -0.204984,0.10163 -0.08268,0.101631 -0.08268,0.341065 0,0.223931 0.08441,0.329006 0.08613,0.103353 0.211873,0.103353 0.134359,0 0.223932,-0.105075 0.08957,-0.105076 0.08957,-0.342787 z"
         style="fill:#0000ff;stroke-width:0.26458332"
         id="path90" />
      <path
         d="m 12.999037,38.174734 h 1.460721 q 0.36518,0 0.559828,0.180868 0.19637,0.180867 0.19637,0.447862 0,0.223932 -0.139526,0.384128 -0.09302,0.106798 -0.272163,0.16881 0.272163,0.06546 0.399631,0.225654 0.129191,0.158474 0.129191,0.399631 0,0.19637 -0.09129,0.353122 -0.0913,0.156752 -0.249769,0.248047 -0.09818,0.05684 -0.296278,0.08268 -0.26355,0.03445 -0.349677,0.03445 h -1.347033 z m 0.787205,0.990465 h 0.339341 q 0.18259,0 0.253215,-0.06201 0.07235,-0.06374 0.07235,-0.18259 0,-0.110243 -0.07235,-0.172255 -0.07062,-0.06201 -0.248047,-0.06201 h -0.344509 z m 0,0.992188 h 0.397908 q 0.201538,0 0.28422,-0.07062 0.08268,-0.07235 0.08268,-0.192925 0,-0.111966 -0.08268,-0.179145 -0.08096,-0.0689 -0.285942,-0.0689 h -0.396186 z"
         style="fill:#0000ff;stroke-width:0.26458332"
         id="path92" />
    </g>
    <g
       aria-label="HIGH"
       style="font-style:normal;font-variant:normal;font-weight:normal;font-stretch:normal;font-size:3.52777767px;line-height:1.25;font-family:'Arial Black';-inkscape-font-specification:'Arial Black, Normal';font-variant-ligatures:normal;font-variant-caps:normal;font-variant-numeric:normal;font-feature-settings:normal;text-align:center;letter-spacing:0px;word-spacing:0px;writing-mode:lr-tb;text-anchor:middle;fill:#000000;fill-opacity:1;stroke:none;stroke-width:0.26458332"
       id="text97">
      <path
         d="m 5.4861457,54.578902 h 0.7803141 v 0.883667 h 0.8526611 v -0.883667 h 0.7837592 v 2.525254 H 7.1191209 v -1.02147 H 6.2664598 v 1.02147 H 5.4861457 Z"
         style="fill:#0000ff;stroke-width:0.26458332"
         id="path112" />
      <path
         d="m 8.4523728,54.578902 h 0.7820367 v 2.525254 H 8.4523728 Z"
         style="fill:#0000ff;stroke-width:0.26458332"
         id="path114" />
      <path
         d="m 11.063755,56.189484 v -0.525377 h 1.205783 v 1.076592 q -0.346232,0.235989 -0.613227,0.322116 -0.265272,0.0844 -0.630452,0.0844 -0.449585,0 -0.733805,-0.153307 -0.282498,-0.153306 -0.43925,-0.456475 -0.1550293,-0.303168 -0.1550293,-0.695909 0,-0.413411 0.1705322,-0.718302 0.1705321,-0.306614 0.4995391,-0.465088 0.256659,-0.122301 0.690741,-0.122301 0.418579,0 0.625285,0.07579 0.208428,0.07579 0.34451,0.235989 0.137804,0.158474 0.206705,0.403076 l -0.752753,0.134359 q -0.04651,-0.142972 -0.158474,-0.218764 -0.110243,-0.07579 -0.282498,-0.07579 -0.25666,0 -0.409966,0.179145 -0.151585,0.177423 -0.151585,0.563273 0,0.409967 0.153307,0.585667 0.155029,0.175699 0.430637,0.175699 0.130914,0 0.249769,-0.0379 0.118856,-0.0379 0.272163,-0.129191 v -0.237711 z"
         style="fill:#0000ff;stroke-width:0.26458332"
         id="path116" />
      <path
         d="m 12.736349,54.578902 h 0.780314 v 0.883667 h 0.852661 v -0.883667 h 0.783759 v 2.525254 h -0.783759 v -1.02147 h -0.852661 v 1.02147 h -0.780314 z"
         style="fill:#0000ff;stroke-width:0.26458332"
         id="path118" />
    </g>
    <g
       aria-label="HIdB"
       style="font-style:normal;font-variant:normal;font-weight:normal;font-stretch:normal;font-size:3.52777767px;line-height:1.25;font-family:'Arial Black';-inkscape-font-specification:'Arial Black, Normal';font-variant-ligatures:normal;font-variant-caps:normal;font-variant-numeric:normal;font-feature-settings:normal;text-align:center;letter-spacing:0px;word-spacing:0px;writing-mode:lr-tb;text-anchor:middle;fill:#000000;fill-opacity:1;stroke:none;stroke-width:0.26458332"
       id="text124">
      <path
         d="m 6.0747395,71.512236 h 0.7803141 v 0.883667 h 0.8526611 v -0.883667 h 0.7837592 v 2.525255 H 7.7077147 V 73.01602 H 6.8550536 v 1.021471 H 6.0747395 Z"
         style="fill:#0000ff;stroke-width:0.26458332"
         id="path139" />
      <path
         d="m 9.0409666,71.512236 h 0.7820366 v 2.525255 H 9.0409666 Z"
         style="fill:#0000ff;stroke-width:0.26458332"
         id="path141" />
      <path
         d="m 12.262131,71.512236 v 2.525255 H 11.60584 v -0.27044 q -0.137804,0.172255 -0.251492,0.232544 -0.151584,0.07924 -0.337619,0.07924 -0.373793,0 -0.571886,-0.28422 -0.196371,-0.284221 -0.196371,-0.690742 0,-0.454753 0.217041,-0.695909 0.218764,-0.241157 0.554661,-0.241157 0.163642,0 0.296278,0.05512 0.134359,0.05512 0.237712,0.165364 v -0.875054 z m -0.7028,1.605414 q 0,-0.215318 -0.0913,-0.320393 -0.09129,-0.106798 -0.230821,-0.106798 -0.122301,0 -0.204983,0.10163 -0.08268,0.10163 -0.08268,0.341064 0,0.223932 0.08441,0.329007 0.08613,0.103353 0.211874,0.103353 0.134358,0 0.223931,-0.105076 0.08957,-0.105075 0.08957,-0.342787 z"
         style="fill:#0000ff;stroke-width:0.26458332"
         id="path144" />
      <path
         d="m 12.737554,71.512236 h 1.46072 q 0.36518,0 0.559828,0.180867 0.196371,0.180868 0.196371,0.447863 0,0.223931 -0.139527,0.384128 -0.09302,0.106798 -0.272162,0.16881 0.272162,0.06546 0.399631,0.225653 0.129191,0.158475 0.129191,0.399631 0,0.196371 -0.09129,0.353123 -0.0913,0.156752 -0.249769,0.248047 -0.09819,0.05684 -0.296279,0.08268 -0.263549,0.03445 -0.349677,0.03445 h -1.347032 z m 0.787204,0.990465 H 13.8641 q 0.18259,0 0.253215,-0.06201 0.07235,-0.06373 0.07235,-0.18259 0,-0.110243 -0.07235,-0.172255 -0.07062,-0.06201 -0.248047,-0.06201 h -0.34451 z m 0,0.992187 h 0.397909 q 0.201538,0 0.28422,-0.07062 0.08268,-0.07235 0.08268,-0.192925 0,-0.111966 -0.08268,-0.179145 -0.08096,-0.0689 -0.285943,-0.0689 h -0.396186 z"
         style="fill:#0000ff;stroke-width:0.26458332"
         id="path146" />
    </g>
    <g
       aria-label="LO"
       style="font-style:normal;font-variant:normal;font-weight:normal;font-stretch:normal;font-size:3.52777767px;line-height:1.25;font-family:'Arial Black';-inkscape-font-specification:'Arial Black, Normal';font-variant-ligatures:normal;font-variant-caps:normal;font-variant-numeric:normal;font-feature-settings:normal;text-align:center;letter-spacing:0px;word-spacing:0px;writing-mode:lr-tb;text-anchor:middle;fill:#000000;fill-opacity:1;stroke:none;stroke-width:0.26458332"
       id="text151">
      <path
         d="m 3.1989436,87.651816 h 0.7803141 v 1.903415 h 1.2178412 v 0.62184 H 3.1989436 Z"
         style="fill:#008000;stroke-width:0.26458332"
         id="path186" />
      <path
         d="m 5.3934691,88.916166 q 0,-0.618395 0.3445096,-0.962904 0.3445095,-0.34451 0.959459,-0.34451 0.6304525,0 0.9715169,0.339342 0.3410645,0.337619 0.3410645,0.947401 0,0.442695 -0.1498617,0.726915 -0.1481391,0.282498 -0.4306369,0.440972 -0.2807753,0.156752 -0.7010769,0.156752 -0.4271918,0 -0.7079671,-0.136081 -0.2790527,-0.136081 -0.45303,-0.430637 -0.1739774,-0.294556 -0.1739774,-0.73725 z m 0.7803141,0.0034 q 0,0.382405 0.141249,0.549493 0.1429714,0.167087 0.3875732,0.167087 0.251492,0 0.3892958,-0.163642 0.1378038,-0.163642 0.1378038,-0.587389 0,-0.356568 -0.144694,-0.52021 -0.1429715,-0.165364 -0.3892958,-0.165364 -0.235989,0 -0.3789605,0.167087 -0.1429715,0.167087 -0.1429715,0.552938 z"
         style="fill:#008000;stroke-width:0.26458332"
         id="path188" />
    </g>
    <g
       aria-label="HI"
       style="font-style:normal;font-variant:normal;font-weight:normal;font-stretch:normal;font-size:3.52777767px;line-height:1.25;font-family:'Arial Black';-inkscape-font-specification:'Arial Black, Normal';font-variant-ligatures:normal;font-variant-caps:normal;font-variant-numeric:normal;font-feature-settings:normal;text-align:center;letter-spacing:0px;word-spacing:0px;writing-mode:lr-tb;text-anchor:middle;fill:#000000;fill-opacity:1;stroke:none;stroke-width:0.26458332"
       id="text167">
      <path
         d="m 12.922722,87.651816 h 0.780314 v 0.883667 h 0.852661 v -0.883667 h 0.783759 v 2.525255 H 14.555697 V 89.1556 h -0.852661 v 1.021471 h -0.780314 z"
         style="fill:#008000;stroke-width:0.26458332"
         id="path181" />
      <path
         d="m 15.888949,87.651816 h 0.782036 v 2.525255 h -0.782036 z"
         style="fill:#008000;stroke-width:0.26458332"
         id="path183" />
    </g>
  </g>
  <g
     inkscape:groupmode="layer"
     id="layer4"
     inkscape:label="graphics"
     transform="translate(0,28.00003)"
     style="display:inline">
    <text
       xml:space="preserve"
       style="font-style:normal;font-variant:normal;font-weight:normal;font-stretch:normal;font-size:4.58611107px;line-height:1.25;font-family:'Arial Black';-inkscape-font-specification:'Arial Black, Normal';font-variant-ligatures:normal;font-variant-caps:normal;font-variant-numeric:normal;text-align:center;letter-spacing:0px;word-spacing:0px;writing-mode:lr-tb;text-anchor:middle;fill:#000000;fill-opacity:1;stroke:none;stroke-width:0.26458332"
       x="11.90625"
       y="-21.166708"
       id="text115"><tspan
         sodipodi:role="line"
         id="tspan113"
         x="11.90625"
         y="-17.054897"
         style="stroke-width:0.26458332" /></text>
    <g
       aria-label="KRT"
       style="font-style:normal;font-variant:normal;font-weight:normal;font-stretch:normal;font-size:3.52777767px;line-height:1.25;font-family:'Arial Black';-inkscape-font-specification:'Arial Black, Normal';font-variant-ligatures:normal;font-variant-caps:normal;font-variant-numeric:normal;font-feature-settings:normal;text-align:center;letter-spacing:0px;word-spacing:0px;writing-mode:lr-tb;text-anchor:middle;fill:#000000;fill-opacity:1;stroke:none;stroke-width:0.26458332"
       id="text123"
       transform="translate(-12.170835,-117.47517)">
      <path
         d="m 14.418414,95.635115 h 0.780314 v 0.954291 l 0.81821,-0.954291 h 1.036974 l -0.91984,0.952569 0.961181,1.572686 h -0.961181 l -0.532268,-1.038696 -0.403076,0.422024 v 0.616672 h -0.780314 z"
         style="fill:#f9f9f9;stroke-width:0.26458332"
         id="path227"
         inkscape:connector-curvature="0" />
      <path
         d="m 17.363971,98.16037 v -2.525255 h 1.300523 q 0.361735,0 0.552938,0.06201 0.191203,0.06201 0.308336,0.230821 0.117133,0.167087 0.117133,0.408244 0,0.210151 -0.08957,0.363457 -0.08957,0.151585 -0.246325,0.246325 -0.09991,0.06029 -0.273885,0.09991 0.139527,0.04651 0.203261,0.09302 0.04306,0.03101 0.124023,0.132636 0.08268,0.101631 0.110243,0.156752 l 0.377238,0.732083 H 18.96594 l -0.416857,-0.771701 q -0.07924,-0.149862 -0.141248,-0.194648 -0.08441,-0.05857 -0.191203,-0.05857 h -0.0689 v 1.024916 z m 0.783759,-1.502062 h 0.329006 q 0.0534,0 0.206706,-0.03445 0.07752,-0.0155 0.125746,-0.07924 0.04995,-0.06373 0.04995,-0.146416 0,-0.122301 -0.07751,-0.187758 -0.07751,-0.06546 -0.29111,-0.06546 H 18.14773 Z"
         style="fill:#f9f9f9;stroke-width:0.26458332"
         id="path229"
         inkscape:connector-curvature="0" />
      <path
         d="m 19.889226,95.635115 h 2.371948 v 0.623562 h -0.795817 v 1.901693 h -0.780314 v -1.901693 h -0.795817 z"
         style="fill:#f9f9f9;stroke-width:0.26458332"
         id="path231"
         inkscape:connector-curvature="0" />
    </g>
    <g
       aria-label="Ω"
       style="font-style:normal;font-variant:normal;font-weight:normal;font-stretch:normal;font-size:3.52777767px;line-height:1.25;font-family:'Arial Black';-inkscape-font-specification:'Arial Black, Normal';font-variant-ligatures:normal;font-variant-caps:normal;font-variant-numeric:normal;font-feature-settings:normal;text-align:center;letter-spacing:0px;word-spacing:0px;writing-mode:lr-tb;text-anchor:middle;fill:#000000;fill-opacity:1;stroke:none;stroke-width:0.26458332"
       id="text107"
       transform="matrix(2.52226,0,0,2.4814703,-16.867486,28.084873)" />
    <g
       aria-label="F"
       transform="scale(1.204776,0.83002985)"
       style="font-style:normal;font-variant:normal;font-weight:normal;font-stretch:normal;font-size:7.14471245px;line-height:1.25;font-family:'Arial Black';-inkscape-font-specification:'Arial Black, Normal';font-variant-ligatures:normal;font-variant-caps:normal;font-variant-numeric:normal;font-feature-settings:normal;text-align:center;letter-spacing:0px;word-spacing:0px;writing-mode:lr-tb;text-anchor:middle;fill:#000000;fill-opacity:1;stroke:none;stroke-width:0.53585339"
       id="text135" />
  </g>
</svg>
