<?xml version="1.0" encoding="UTF-8" standalone="no"?>
<!-- Created with Inkscape (http://www.inkscape.org/) -->

<svg
   xmlns:dc="http://purl.org/dc/elements/1.1/"
   xmlns:cc="http://creativecommons.org/ns#"
   xmlns:rdf="http://www.w3.org/1999/02/22-rdf-syntax-ns#"
   xmlns:svg="http://www.w3.org/2000/svg"
   xmlns="http://www.w3.org/2000/svg"
   xmlns:sodipodi="http://sodipodi.sourceforge.net/DTD/sodipodi-0.dtd"
   xmlns:inkscape="http://www.inkscape.org/namespaces/inkscape"
   width="35.560001mm"
   height="128.54166mm"
   viewBox="0 0 35.560002 128.5417"
   version="1.1"
   id="svg4541"
   sodipodi:docname="Mu.svg"
   inkscape:version="0.92.5 (2060ec1f9f, 2020-04-08)">
  <defs
     id="defs4535" />
  <sodipodi:namedview
     id="base"
     pagecolor="#ffffff"
     bordercolor="#666666"
     borderopacity="1.0"
     inkscape:pageopacity="0.0"
     inkscape:pageshadow="2"
     inkscape:zoom="4"
     inkscape:cx="84.44127"
     inkscape:cy="94.26295"
     inkscape:document-units="mm"
     inkscape:current-layer="layer1"
     showgrid="true"
     fit-margin-top="0"
     fit-margin-left="0"
     fit-margin-right="0"
     fit-margin-bottom="0"
     inkscape:window-width="1600"
     inkscape:window-height="845"
     inkscape:window-x="0"
     inkscape:window-y="0"
     inkscape:window-maximized="1"
     units="mm">
    <inkscape:grid
       type="xygrid"
       id="grid76" />
  </sodipodi:namedview>
  <metadata
     id="metadata4538">
    <rdf:RDF>
      <cc:Work
         rdf:about="">
        <dc:format>image/svg+xml</dc:format>
        <dc:type
           rdf:resource="http://purl.org/dc/dcmitype/StillImage" />
        <dc:title />
      </cc:Work>
    </rdf:RDF>
  </metadata>
  <g
     inkscape:groupmode="layer"
     id="layer1"
     inkscape:label="Background"
     style="display:inline;opacity:0.51000001">
    <rect
       style="fill:#000000;stroke-width:0.32848215"
       id="rect111"
       width="35.71875"
       height="128.32292"
       x="0"
       y="0.21873982" />
    <g
       aria-label="FRQ"
       style="font-style:normal;font-variant:normal;font-weight:normal;font-stretch:normal;font-size:3.52777767px;line-height:1.25;font-family:'Arial Black';-inkscape-font-specification:'Arial Black, Normal';font-variant-ligatures:normal;font-variant-caps:normal;font-variant-numeric:normal;font-feature-settings:normal;text-align:center;letter-spacing:0px;word-spacing:0px;writing-mode:lr-tb;text-anchor:middle;fill:#000000;fill-opacity:1;stroke:none;stroke-width:0.26458332"
       id="text127"
       transform="translate(0,4.2333335)">
      <path
         d="m 2.89388,18.860152 h 1.9292534 v 0.542602 H 3.6776392 v 0.440972 H 4.6560463 V 20.3536 H 3.6776392 v 1.031806 H 2.89388 Z"
         style="fill:#ffff00;stroke-width:0.26458332"
         id="path151"
         inkscape:connector-curvature="0" />
      <path
         d="m 5.2537704,21.385406 v -2.525254 h 1.3005235 q 0.361735,0 0.5529378,0.06201 0.1912028,0.06201 0.308336,0.230822 0.1171333,0.167087 0.1171333,0.408243 0,0.210151 -0.089573,0.363458 -0.089573,0.151584 -0.2463243,0.246324 -0.099908,0.06029 -0.2738851,0.09991 0.1395263,0.04651 0.2032606,0.09302 0.043064,0.03101 0.1240234,0.132636 0.082682,0.10163 0.1102431,0.156752 l 0.3772379,0.732082 H 6.8557397 L 6.4388832,20.613705 Q 6.359646,20.463843 6.2976343,20.419057 6.2132294,20.360491 6.1064315,20.360491 h -0.068902 v 1.024915 z m 0.7837592,-1.502061 h 0.3290066 q 0.053399,0 0.2067057,-0.03445 0.077515,-0.0155 0.125746,-0.07924 0.049954,-0.06373 0.049954,-0.146417 0,-0.122301 -0.077515,-0.187757 -0.077515,-0.06546 -0.2911106,-0.06546 H 6.0375296 Z"
         style="fill:#ffff00;stroke-width:0.26458332"
         id="path153"
         inkscape:connector-curvature="0" />
      <path
         d="m 10.159586,21.016781 q 0.146416,0.101631 0.191203,0.127469 0.06718,0.0379 0.180867,0.08785 l -0.217041,0.437527 Q 10.150973,21.59039 9.9907762,21.480147 9.8305793,21.371626 9.766845,21.316505 9.5084629,21.42847 9.1191671,21.42847 q -0.5753309,0 -0.9077826,-0.299723 -0.3927409,-0.354845 -0.3927409,-0.997355 0,-0.623562 0.342787,-0.968072 0.3445095,-0.346232 0.9611816,-0.346232 0.6287299,0 0.9697948,0.337619 0.342787,0.33762 0.342787,0.966349 0,0.559828 -0.275608,0.895725 z M 9.5618618,20.61715 q 0.093018,-0.167087 0.093018,-0.499539 0,-0.382405 -0.1429714,-0.546047 -0.141249,-0.163642 -0.3910184,-0.163642 -0.2325439,0 -0.3772379,0.167087 -0.144694,0.167087 -0.144694,0.521932 0,0.413411 0.1412489,0.580498 0.1412489,0.167088 0.3875732,0.167088 0.079237,0 0.1498617,-0.0155 -0.098185,-0.09474 -0.3100586,-0.179145 l 0.1223009,-0.280776 q 0.1033528,0.01895 0.1601969,0.04651 0.058567,0.02756 0.2256538,0.144694 0.039619,0.02756 0.086127,0.05684 z"
         style="fill:#ffff00;stroke-width:0.26458332"
         id="path155"
         inkscape:connector-curvature="0" />
    </g>
    <g
       aria-label="REZ"
       style="font-style:normal;font-variant:normal;font-weight:normal;font-stretch:normal;font-size:3.52777767px;line-height:1.25;font-family:'Arial Black';-inkscape-font-specification:'Arial Black, Normal';font-variant-ligatures:normal;font-variant-caps:normal;font-variant-numeric:normal;font-feature-settings:normal;text-align:center;letter-spacing:0px;word-spacing:0px;writing-mode:lr-tb;text-anchor:middle;fill:#000000;fill-opacity:1;stroke:none;stroke-width:0.26458332"
       id="text131"
       transform="translate(0,4.2333335)">
      <path
         d="M 13.546976,21.385406 V 18.860152 H 14.8475 q 0.361735,0 0.552938,0.06201 0.191202,0.06201 0.308336,0.230822 0.117133,0.167087 0.117133,0.408243 0,0.210151 -0.08957,0.363458 -0.08957,0.151584 -0.246324,0.246324 -0.09991,0.06029 -0.273885,0.09991 0.139526,0.04651 0.203261,0.09302 0.04306,0.03101 0.124023,0.132636 0.08268,0.10163 0.110243,0.156752 l 0.377238,0.732082 h -0.881944 l -0.416857,-0.771701 q -0.07924,-0.149862 -0.141249,-0.194648 -0.08441,-0.05857 -0.191203,-0.05857 h -0.0689 v 1.024915 z m 0.783759,-1.502061 h 0.329007 q 0.0534,0 0.206706,-0.03445 0.07751,-0.0155 0.125746,-0.07924 0.04995,-0.06373 0.04995,-0.146417 0,-0.122301 -0.07752,-0.187757 -0.07752,-0.06546 -0.291111,-0.06546 h -0.342787 z"
         style="fill:#ffff00;stroke-width:0.26458332"
         id="path144"
         inkscape:connector-curvature="0" />
      <path
         d="m 16.278937,18.860152 h 2.091173 v 0.539157 h -1.309136 v 0.401354 h 1.214396 v 0.515041 h -1.214396 v 0.497817 h 1.347032 v 0.571885 h -2.129069 z"
         style="fill:#ffff00;stroke-width:0.26458332"
         id="path146"
         inkscape:connector-curvature="0" />
      <path
         d="m 18.764573,18.860152 h 2.208306 v 0.504706 l -1.415934,1.477946 h 1.467611 v 0.542602 h -2.396064 v -0.523654 l 1.400431,-1.462443 h -1.26435 z"
         style="fill:#ffff00;stroke-width:0.26458332"
         id="path148"
         inkscape:connector-curvature="0" />
    </g>
    <g
       aria-label="MOD"
       style="font-style:normal;font-variant:normal;font-weight:normal;font-stretch:normal;font-size:3.52777767px;line-height:1.25;font-family:'Arial Black';-inkscape-font-specification:'Arial Black, Normal';font-variant-ligatures:normal;font-variant-caps:normal;font-variant-numeric:normal;font-feature-settings:normal;text-align:center;letter-spacing:0px;word-spacing:0px;writing-mode:lr-tb;text-anchor:middle;fill:#000000;fill-opacity:1;stroke:none;stroke-width:0.26458332"
       id="text135"
       transform="translate(0,4.2333335)">
      <path
         d="m 24.318584,18.860152 h 1.026638 l 0.396186,1.536512 0.394463,-1.536512 h 1.023194 v 2.525254 h -0.637343 v -1.925808 l -0.494371,1.925808 h -0.577054 l -0.492648,-1.925808 v 1.925808 h -0.639065 z"
         style="fill:#ffff00;stroke-width:0.26458332"
         id="path137"
         inkscape:connector-curvature="0" />
      <path
         d="m 27.558696,20.124502 q 0,-0.618395 0.344509,-0.962905 0.34451,-0.344509 0.959459,-0.344509 0.630453,0 0.971517,0.339342 0.341065,0.337619 0.341065,0.947401 0,0.442695 -0.149862,0.726915 -0.148139,0.282498 -0.430637,0.440972 -0.280775,0.156752 -0.701077,0.156752 -0.427192,0 -0.707967,-0.136081 -0.279053,-0.136081 -0.45303,-0.430637 -0.173977,-0.294556 -0.173977,-0.73725 z m 0.780314,0.0034 q 0,0.382405 0.141249,0.549492 0.142971,0.167088 0.387573,0.167088 0.251492,0 0.389296,-0.163643 0.137804,-0.163642 0.137804,-0.587388 0,-0.356568 -0.144694,-0.52021 -0.142972,-0.165364 -0.389296,-0.165364 -0.235989,0 -0.378961,0.167087 -0.142971,0.167087 -0.142971,0.552938 z"
         style="fill:#ffff00;stroke-width:0.26458332"
         id="path139"
         inkscape:connector-curvature="0" />
      <path
         d="m 30.605883,18.860152 h 1.159274 q 0.342787,0 0.552938,0.09302 0.211873,0.09302 0.349677,0.266995 0.137804,0.173977 0.199816,0.404799 0.06201,0.230821 0.06201,0.489203 0,0.404799 -0.09302,0.62873 -0.0913,0.222209 -0.254937,0.373793 -0.163642,0.149862 -0.3514,0.199816 -0.25666,0.0689 -0.465088,0.0689 h -1.159274 z m 0.780314,0.571885 v 1.379761 H 31.5774 q 0.244601,0 0.347954,-0.0534 0.103353,-0.05512 0.16192,-0.18948 0.05857,-0.136081 0.05857,-0.43925 0,-0.401353 -0.130913,-0.549492 -0.130914,-0.14814 -0.434082,-0.14814 z"
         style="fill:#ffff00;stroke-width:0.26458332"
         id="path141"
         inkscape:connector-curvature="0" />
    </g>
    <g
       aria-label="OFF"
       style="font-style:normal;font-variant:normal;font-weight:normal;font-stretch:normal;font-size:3.52777767px;line-height:1.25;font-family:'Arial Black';-inkscape-font-specification:'Arial Black, Normal';font-variant-ligatures:normal;font-variant-caps:normal;font-variant-numeric:normal;font-feature-settings:normal;text-align:center;letter-spacing:0px;word-spacing:0px;writing-mode:lr-tb;text-anchor:middle;fill:#000000;fill-opacity:1;stroke:none;stroke-width:0.26458332"
       id="text236"
       transform="translate(0,0.52916667)">
      <path
         d="m 2.9524466,42.614084 q 0,-0.618395 0.3445096,-0.962905 0.3445095,-0.344509 0.959459,-0.344509 0.6304525,0 0.9715169,0.339342 0.3410645,0.337619 0.3410645,0.947401 0,0.442695 -0.1498617,0.726915 -0.1481391,0.282498 -0.4306369,0.440972 -0.2807753,0.156752 -0.7010769,0.156752 -0.4271918,0 -0.7079671,-0.136081 Q 3.3004013,43.64589 3.1264239,43.351334 2.9524466,43.056778 2.9524466,42.614084 Z m 0.7803141,0.0034 q 0,0.382405 0.1412489,0.549492 0.1429715,0.167088 0.3875733,0.167088 0.2514919,0 0.3892957,-0.163642 0.1378039,-0.163642 0.1378039,-0.587389 0,-0.356568 -0.144694,-0.52021 -0.1429715,-0.165364 -0.3892958,-0.165364 -0.2359891,0 -0.3789605,0.167087 -0.1429715,0.167087 -0.1429715,0.552938 z"
         style="fill:#ffff00;stroke-width:0.26458332"
         id="path258"
         inkscape:connector-curvature="0" />
      <path
         d="m 5.9927433,41.349734 h 1.9292534 v 0.542602 H 6.7765025 v 0.440972 h 0.9784071 v 0.509874 H 6.7765025 v 1.031807 H 5.9927433 Z"
         style="fill:#ffff00;stroke-width:0.26458332"
         id="path260"
         inkscape:connector-curvature="0" />
      <path
         d="m 8.3457434,41.349734 h 1.9292536 v 0.542602 H 9.1295026 v 0.440972 H 10.10791 v 0.509874 H 9.1295026 v 1.031807 H 8.3457434 Z"
         style="fill:#ffff00;stroke-width:0.26458332"
         id="path262"
         inkscape:connector-curvature="0" />
    </g>
    <g
       aria-label="AM"
       style="font-style:normal;font-variant:normal;font-weight:normal;font-stretch:normal;font-size:3.52777767px;line-height:1.25;font-family:'Arial Black';-inkscape-font-specification:'Arial Black, Normal';font-variant-ligatures:normal;font-variant-caps:normal;font-variant-numeric:normal;font-feature-settings:normal;text-align:center;letter-spacing:0px;word-spacing:0px;writing-mode:lr-tb;text-anchor:middle;fill:#000000;fill-opacity:1;stroke:none;stroke-width:0.26458332"
       id="text240"
       transform="translate(0,0.52916667)">
      <path
         d="M 15.973185,43.458132 H 15.08435 l -0.122301,0.416857 H 14.16451 l 0.949123,-2.525255 h 0.850939 l 0.949124,2.525255 h -0.816488 z m -0.163642,-0.546048 -0.279053,-0.907782 -0.27733,0.907782 z"
         style="fill:#ffff00;stroke-width:0.26458332"
         id="path253"
         inkscape:connector-curvature="0" />
      <path
         d="m 17.154852,41.349734 h 1.026639 l 0.396186,1.536512 0.394463,-1.536512 h 1.023194 v 2.525255 H 19.357991 V 41.94918 L 18.86362,43.874989 H 18.286566 L 17.793918,41.94918 v 1.925809 h -0.639066 z"
         style="fill:#ffff00;stroke-width:0.26458332"
         id="path255"
         inkscape:connector-curvature="0" />
    </g>
    <g
       aria-label="MAM"
       style="font-style:normal;font-variant:normal;font-weight:normal;font-stretch:normal;font-size:3.52777767px;line-height:1.25;font-family:'Arial Black';-inkscape-font-specification:'Arial Black, Normal';font-variant-ligatures:normal;font-variant-caps:normal;font-variant-numeric:normal;font-feature-settings:normal;text-align:center;letter-spacing:0px;word-spacing:0px;writing-mode:lr-tb;text-anchor:middle;fill:#000000;fill-opacity:1;stroke:none;stroke-width:0.26458332"
       id="text244"
       transform="translate(0,0.52916667)">
      <path
         d="m 24.123074,41.349734 h 1.026639 l 0.396186,1.536512 0.394463,-1.536512 h 1.023193 v 2.525255 H 26.326213 V 41.94918 l -0.494371,1.925809 H 25.254788 L 24.76214,41.94918 v 1.925809 h -0.639066 z"
         style="fill:#ffff00;stroke-width:0.26458332"
         id="path246"
         inkscape:connector-curvature="0" />
      <path
         d="m 29.01511,43.458132 h -0.888835 l -0.122301,0.416857 h -0.797539 l 0.949124,-2.525255 h 0.850938 l 0.949124,2.525255 h -0.816488 z m -0.163642,-0.546048 -0.279053,-0.907782 -0.27733,0.907782 z"
         style="fill:#ffff00;stroke-width:0.26458332"
         id="path248"
         inkscape:connector-curvature="0" />
      <path
         d="m 30.196778,41.349734 h 1.026638 l 0.396186,1.536512 0.394463,-1.536512 h 1.023194 v 2.525255 H 32.399916 V 41.94918 l -0.494371,1.925809 H 31.328491 L 30.835843,41.94918 v 1.925809 h -0.639065 z"
         style="fill:#ffff00;stroke-width:0.26458332"
         id="path250"
         inkscape:connector-curvature="0" />
    </g>
    <g
       aria-label="IN1"
       style="font-style:normal;font-variant:normal;font-weight:normal;font-stretch:normal;font-size:3.52777767px;line-height:1.25;font-family:'Arial Black';-inkscape-font-specification:'Arial Black, Normal';font-variant-ligatures:normal;font-variant-caps:normal;font-variant-numeric:normal;font-feature-settings:normal;text-align:center;letter-spacing:0px;word-spacing:0px;writing-mode:lr-tb;text-anchor:middle;fill:#000000;fill-opacity:1;stroke:none;stroke-width:0.26458332"
       id="text267"
       transform="translate(-0.52916667)">
      <path
         d="m 3.5717025,60.66432 h 0.7820367 v 2.525255 H 3.5717025 Z"
         style="fill:#00ff00;stroke-width:0.26458332"
         id="path289"
         inkscape:connector-curvature="0" />
      <path
         d="m 4.9187349,60.66432 h 0.7286376 l 0.9508464,1.396986 V 60.66432 h 0.7355278 v 2.525255 H 6.5982189 L 5.6525402,61.802924 v 1.386651 H 4.9187349 Z"
         style="fill:#00ff00;stroke-width:0.26458332"
         id="path291"
         inkscape:connector-curvature="0" />
      <path
         d="m 9.3284568,60.621257 v 2.568318 H 8.6187672 v -1.682929 q -0.1722548,0.130914 -0.3341743,0.211873 -0.1601969,0.08096 -0.4030761,0.15503 v -0.575331 q 0.3582899,-0.115411 0.5563829,-0.27733 0.1980929,-0.16192 0.3100585,-0.399631 z"
         style="fill:#00ff00;stroke-width:0.26458332"
         id="path293"
         inkscape:connector-curvature="0" />
    </g>
    <g
       aria-label="LP1"
       style="font-style:normal;font-variant:normal;font-weight:normal;font-stretch:normal;font-size:3.52777767px;line-height:1.25;font-family:'Arial Black';-inkscape-font-specification:'Arial Black, Normal';font-variant-ligatures:normal;font-variant-caps:normal;font-variant-numeric:normal;font-feature-settings:normal;text-align:center;letter-spacing:0px;word-spacing:0px;writing-mode:lr-tb;text-anchor:middle;fill:#000000;fill-opacity:1;stroke:none;stroke-width:0.26458332"
       id="text271">
      <path
         d="m 13.829474,60.66432 h 0.780314 v 1.903415 h 1.217841 v 0.62184 h -1.998155 z"
         style="fill:#00ff00;stroke-width:0.26458332"
         id="path282" />
      <path
         d="m 16.179029,60.66432 h 1.297079 q 0.423746,0 0.633897,0.201538 0.211873,0.201538 0.211873,0.573609 0,0.382405 -0.230821,0.597724 -0.229099,0.215318 -0.701077,0.215318 h -0.427192 v 0.937066 h -0.783759 z m 0.783759,1.076593 h 0.191203 q 0.225654,0 0.316949,-0.07751 0.0913,-0.07924 0.0913,-0.201538 0,-0.118856 -0.07924,-0.201538 -0.07924,-0.08268 -0.298001,-0.08268 h -0.222209 z"
         style="fill:#00ff00;stroke-width:0.26458332"
         id="path284" />
      <path
         d="m 20.206346,60.621257 v 2.568318 h -0.70969 v -1.682929 q -0.172255,0.130914 -0.334174,0.211873 -0.160197,0.08096 -0.403077,0.15503 v -0.575331 q 0.35829,-0.115411 0.556383,-0.27733 0.198093,-0.16192 0.310059,-0.399631 z"
         style="fill:#00ff00;stroke-width:0.26458332"
         id="path286" />
    </g>
    <g
       aria-label="CV"
       style="font-style:normal;font-variant:normal;font-weight:normal;font-stretch:normal;font-size:3.52777767px;line-height:1.25;font-family:'Arial Black';-inkscape-font-specification:'Arial Black, Normal';font-variant-ligatures:normal;font-variant-caps:normal;font-variant-numeric:normal;font-feature-settings:normal;text-align:center;letter-spacing:0px;word-spacing:0px;writing-mode:lr-tb;text-anchor:middle;fill:#000000;fill-opacity:1;stroke:none;stroke-width:0.26458332"
       id="text275"
       transform="translate(0.52916667)">
      <path
         d="m 27.505987,62.157769 0.683852,0.206706 q -0.0689,0.287665 -0.217041,0.480591 -0.148139,0.192925 -0.368625,0.29111 -0.218764,0.09819 -0.558106,0.09819 -0.411689,0 -0.673516,-0.118855 -0.260105,-0.120579 -0.449585,-0.422025 -0.18948,-0.301445 -0.18948,-0.771701 0,-0.627007 0.332452,-0.962904 0.334174,-0.337619 0.943956,-0.337619 0.477145,0 0.749308,0.192925 0.273885,0.192925 0.406521,0.592556 l -0.689019,0.153307 q -0.03617,-0.115411 -0.07579,-0.16881 -0.06546,-0.08957 -0.160197,-0.137803 -0.09474,-0.04823 -0.211873,-0.04823 -0.265273,0 -0.406522,0.213596 -0.106798,0.158475 -0.106798,0.497816 0,0.420302 0.127469,0.577054 0.127469,0.155029 0.35829,0.155029 0.223931,0 0.337619,-0.125746 0.115411,-0.125746 0.167087,-0.36518 z"
         style="fill:#00ff00;stroke-width:0.26458332"
         id="path277"
         inkscape:connector-curvature="0" />
      <path
         d="m 28.31903,60.66432 h 0.816488 l 0.56844,1.817288 0.559828,-1.817288 h 0.792372 l -0.937066,2.525255 h -0.845771 z"
         style="fill:#00ff00;stroke-width:0.26458332"
         id="path279"
         inkscape:connector-curvature="0" />
    </g>
    <g
       aria-label="IN2"
       style="font-style:normal;font-variant:normal;font-weight:normal;font-stretch:normal;font-size:3.52777767px;line-height:1.25;font-family:'Arial Black';-inkscape-font-specification:'Arial Black, Normal';font-variant-ligatures:normal;font-variant-caps:normal;font-variant-numeric:normal;font-feature-settings:normal;text-align:center;letter-spacing:0px;word-spacing:0px;writing-mode:lr-tb;text-anchor:middle;fill:#000000;fill-opacity:1;stroke:none;stroke-width:0.26458332"
       id="text298"
       transform="translate(-0.52916667)">
      <path
         d="m 3.0425358,79.714316 h 0.7820367 v 2.525255 H 3.0425358 Z"
         style="fill:#00ff00;stroke-width:0.26458332"
         id="path322"
         inkscape:connector-curvature="0" />
      <path
         d="m 4.3895682,79.714316 h 0.7286376 l 0.9508464,1.396986 V 79.714316 H 6.80458 v 2.525255 H 6.0690522 L 5.1233735,80.85292 v 1.386651 H 4.3895682 Z"
         style="fill:#00ff00;stroke-width:0.26458332"
         id="path324"
         inkscape:connector-curvature="0" />
      <path
         d="M 9.2626555,82.239571 H 7.1577022 q 0.036174,-0.311782 0.2187635,-0.585667 0.1843126,-0.275607 0.6890191,-0.6494 0.308336,-0.229099 0.3944634,-0.347955 0.086127,-0.118856 0.086127,-0.225653 0,-0.115411 -0.086127,-0.196371 -0.084405,-0.08268 -0.2135959,-0.08268 -0.1343587,0 -0.2204861,0.08441 -0.084405,0.0844 -0.1136881,0.298 l -0.7027995,-0.05684 q 0.041341,-0.296278 0.1515842,-0.461642 0.1102431,-0.167088 0.3100586,-0.254938 0.2015381,-0.08957 0.5563829,-0.08957 0.3703477,0 0.5753309,0.08441 0.2067057,0.08441 0.323839,0.260105 0.1188558,0.173977 0.1188558,0.391018 0,0.230821 -0.1360813,0.440972 -0.1343587,0.210151 -0.4909261,0.461643 -0.2118734,0.146416 -0.2842204,0.204983 -0.070624,0.05857 -0.1670871,0.153307 h 1.0955404 z"
         style="fill:#00ff00;stroke-width:0.26458332"
         id="path326"
         inkscape:connector-curvature="0" />
    </g>
    <g
       aria-label="HP1"
       style="font-style:normal;font-variant:normal;font-weight:normal;font-stretch:normal;font-size:3.52777767px;line-height:1.25;font-family:'Arial Black';-inkscape-font-specification:'Arial Black, Normal';font-variant-ligatures:normal;font-variant-caps:normal;font-variant-numeric:normal;font-feature-settings:normal;text-align:center;letter-spacing:0px;word-spacing:0px;writing-mode:lr-tb;text-anchor:middle;fill:#000000;fill-opacity:1;stroke:none;stroke-width:0.26458332"
       id="text302">
      <path
         d="M 13.540086,79.714316 H 14.3204 v 0.883667 h 0.852661 v -0.883667 h 0.783759 v 2.525255 H 15.173061 V 81.2181 H 14.3204 v 1.021471 h -0.780314 z"
         style="fill:#00ff00;stroke-width:0.26458332"
         id="path315" />
      <path
         d="m 16.471862,79.714316 h 1.297079 q 0.423746,0 0.633897,0.201538 0.211873,0.201538 0.211873,0.573608 0,0.382406 -0.230821,0.597724 -0.229099,0.215319 -0.701077,0.215319 h -0.427192 v 0.937066 h -0.783759 z m 0.783759,1.076592 h 0.191203 q 0.225654,0 0.316949,-0.07752 0.09129,-0.07924 0.09129,-0.201538 0,-0.118856 -0.07924,-0.201538 -0.07924,-0.08268 -0.298001,-0.08268 h -0.222209 z"
         style="fill:#00ff00;stroke-width:0.26458332"
         id="path317" />
      <path
         d="m 20.499179,79.671252 v 2.568319 h -0.70969 v -1.682929 q -0.172255,0.130913 -0.334174,0.211873 -0.160197,0.08096 -0.403076,0.155029 v -0.575331 q 0.358289,-0.11541 0.556382,-0.27733 0.198093,-0.161919 0.310059,-0.399631 z"
         style="fill:#00ff00;stroke-width:0.26458332"
         id="path319" />
    </g>
    <g
       aria-label="MOD"
       style="font-style:normal;font-variant:normal;font-weight:normal;font-stretch:normal;font-size:3.52777767px;line-height:1.25;font-family:'Arial Black';-inkscape-font-specification:'Arial Black, Normal';font-variant-ligatures:normal;font-variant-caps:normal;font-variant-numeric:normal;font-feature-settings:normal;text-align:center;letter-spacing:0px;word-spacing:0px;writing-mode:lr-tb;text-anchor:middle;fill:#000000;fill-opacity:1;stroke:none;stroke-width:0.26458332"
       id="text306">
      <path
         d="m 24.847751,79.714316 h 1.026638 l 0.396186,1.536512 0.394463,-1.536512 h 1.023194 v 2.525255 h -0.637343 v -1.925809 l -0.494371,1.925809 h -0.577053 l -0.492649,-1.925809 v 1.925809 h -0.639065 z"
         style="fill:#00ff00;stroke-width:0.26458332"
         id="path308" />
      <path
         d="m 28.087863,80.978666 q 0,-0.618395 0.344509,-0.962904 0.34451,-0.34451 0.95946,-0.34451 0.630452,0 0.971516,0.339342 0.341065,0.337619 0.341065,0.947401 0,0.442695 -0.149862,0.726915 -0.148139,0.282498 -0.430637,0.440972 -0.280775,0.156752 -0.701077,0.156752 -0.427191,0 -0.707967,-0.136081 -0.279052,-0.136081 -0.45303,-0.430637 -0.173977,-0.294556 -0.173977,-0.73725 z m 0.780314,0.0034 q 0,0.382405 0.141249,0.549493 0.142971,0.167087 0.387573,0.167087 0.251492,0 0.389296,-0.163642 0.137804,-0.163642 0.137804,-0.587389 0,-0.356568 -0.144694,-0.52021 -0.142972,-0.165364 -0.389296,-0.165364 -0.235989,0 -0.37896,0.167087 -0.142972,0.167087 -0.142972,0.552938 z"
         style="fill:#00ff00;stroke-width:0.26458332"
         id="path310" />
      <path
         d="m 31.13505,79.714316 h 1.159274 q 0.342787,0 0.552938,0.09302 0.211874,0.09302 0.349677,0.266995 0.137804,0.173977 0.199816,0.404799 0.06201,0.230821 0.06201,0.489203 0,0.404799 -0.09302,0.62873 -0.0913,0.222209 -0.254937,0.373793 -0.163642,0.149862 -0.3514,0.199816 -0.256659,0.0689 -0.465088,0.0689 H 31.13505 Z m 0.780314,0.571886 v 1.37976 h 0.191203 q 0.244601,0 0.347954,-0.0534 0.103353,-0.05512 0.16192,-0.18948 0.05857,-0.136081 0.05857,-0.43925 0,-0.401353 -0.130913,-0.549492 -0.130914,-0.148139 -0.434082,-0.148139 z"
         style="fill:#00ff00;stroke-width:0.26458332"
         id="path312" />
    </g>
    <g
       aria-label="Δ"
       style="font-style:normal;font-variant:normal;font-weight:normal;font-stretch:normal;font-size:3.52777767px;line-height:1.25;font-family:'Arial Black';-inkscape-font-specification:'Arial Black, Normal';font-variant-ligatures:normal;font-variant-caps:normal;font-variant-numeric:normal;font-feature-settings:normal;text-align:center;letter-spacing:0px;word-spacing:0px;writing-mode:lr-tb;text-anchor:middle;fill:#000000;fill-opacity:1;stroke:none;stroke-width:0.26458332"
       id="text114">
      <path
         d="M 9.3129543,102.34791 H 6.5620457 l 0.9491237,-2.525257 h 0.8526612 z m -0.9732394,-0.5426 -0.4047987,-1.32637 -0.4168566,1.32637 z"
         style="fill:#ff0000;stroke-width:0.26458332"
         id="path136" />
    </g>
    <g
       aria-label="ΔΔΔ"
       style="font-style:normal;font-variant:normal;font-weight:normal;font-stretch:normal;font-size:3.52777767px;line-height:1.25;font-family:'Arial Black';-inkscape-font-specification:'Arial Black, Normal';font-variant-ligatures:normal;font-variant-caps:normal;font-variant-numeric:normal;font-feature-settings:normal;text-align:center;letter-spacing:0px;word-spacing:0px;writing-mode:lr-tb;text-anchor:middle;fill:#000000;fill-opacity:1;stroke:none;stroke-width:0.26458332"
       id="text118">
      <path
         d="m 28.000187,101.55415 h -2.750908 l 0.949124,-2.525251 h 0.852661 z m -0.973239,-0.5426 -0.404799,-1.326361 -0.416856,1.326361 z"
         style="fill:#ff0000;stroke-width:0.26458332"
         id="path129" />
      <path
         d="m 30.744206,101.55415 h -2.750909 l 0.949124,-2.525251 h 0.852661 z m -0.97324,-0.5426 -0.404798,-1.326361 -0.416857,1.326361 z"
         style="fill:#ff0000;stroke-width:0.26458332"
         id="path131" />
      <path
         d="m 33.488224,101.55415 h -2.750908 l 0.949124,-2.525251 h 0.852661 z m -0.973239,-0.5426 -0.404799,-1.326361 -0.416856,1.326361 z"
         style="fill:#ff0000;stroke-width:0.26458332"
         id="path133" />
    </g>
    <g
       aria-label="ΔΔ"
       style="font-style:normal;font-variant:normal;font-weight:normal;font-stretch:normal;font-size:3.52777767px;line-height:1.25;font-family:'Arial Black';-inkscape-font-specification:'Arial Black, Normal';font-variant-ligatures:normal;font-variant-caps:normal;font-variant-numeric:normal;font-feature-settings:normal;text-align:center;letter-spacing:0px;word-spacing:0px;writing-mode:lr-tb;text-anchor:middle;fill:#000000;fill-opacity:1;stroke:none;stroke-width:0.26458332"
       id="text122">
      <path
         d="m 15.613861,102.08332 h -2.750909 l 0.949124,-2.525254 h 0.852661 z m -0.97324,-0.5426 -0.404799,-1.32636 -0.416856,1.32636 z"
         style="fill:#ff0000;stroke-width:0.26458332"
         id="path124" />
      <path
         d="M 18.357879,102.08332 H 15.60697 l 0.949124,-2.525254 h 0.852661 z m -0.973239,-0.5426 -0.404799,-1.32636 -0.416857,1.32636 z"
         style="fill:#ff0000;stroke-width:0.26458332"
         id="path126" />
    </g>
    <g
       aria-label="Σ"
       style="font-style:normal;font-variant:normal;font-weight:normal;font-stretch:normal;font-size:3.52777767px;line-height:1.25;font-family:'Arial Black';-inkscape-font-specification:'Arial Black, Normal';font-variant-ligatures:normal;font-variant-caps:normal;font-variant-numeric:normal;font-feature-settings:normal;text-align:center;letter-spacing:0px;word-spacing:0px;writing-mode:lr-tb;text-anchor:middle;fill:#000000;fill-opacity:1;stroke:none;stroke-width:0.26458332"
       id="text153">
      <path
         d="M 6.4104612,120.60415 H 4.2796697 v -0.54605 l 0.7475857,-0.75964 -0.7475857,-0.69763 v -0.52194 h 2.0911729 v 0.54261 h -1.248847 l 0.7406955,0.67696 -0.7406955,0.7338 h 1.2884656 z"
         style="fill:#ff0000;stroke-width:0.26458332"
         id="path225" />
    </g>
    <text
       xml:space="preserve"
       style="font-style:normal;font-variant:normal;font-weight:normal;font-stretch:normal;font-size:3.52777767px;line-height:1.25;font-family:'Arial Black';-inkscape-font-specification:'Arial Black, Normal';font-variant-ligatures:normal;font-variant-caps:normal;font-variant-numeric:normal;font-feature-settings:normal;text-align:center;letter-spacing:0px;word-spacing:0px;writing-mode:lr-tb;text-anchor:middle;fill:#000000;fill-opacity:1;stroke:none;stroke-width:0.26458332"
       x="17.197916"
       y="120.60415"
       id="text168"><tspan
         sodipodi:role="line"
         id="tspan166"
         x="17.197916"
         y="123.76708"
         style="stroke-width:0.26458332"></tspan></text>
    <g
       aria-label="1/Σ"
       style="font-style:normal;font-variant:normal;font-weight:normal;font-stretch:normal;font-size:3.52777767px;line-height:1.25;font-family:'Arial Black';-inkscape-font-specification:'Arial Black, Normal';font-variant-ligatures:normal;font-variant-caps:normal;font-variant-numeric:normal;font-feature-settings:normal;text-align:center;letter-spacing:0px;word-spacing:0px;writing-mode:lr-tb;text-anchor:middle;fill:#000000;fill-opacity:1;stroke:none;stroke-width:0.26458332"
       id="text192">
      <path
         d="m 15.727551,119.09417 v 2.56832 h -0.70969 v -1.68293 q -0.172254,0.13092 -0.334174,0.21188 -0.160197,0.081 -0.403076,0.15502 v -0.57533 q 0.35829,-0.11541 0.556383,-0.27733 0.198093,-0.16192 0.310058,-0.39963 z"
         style="fill:#ff0000;stroke-width:0.26458332"
         id="path218" />
      <path
         d="m 16.978121,119.09417 h 0.35829 l -0.633898,2.60966 h -0.354845 z"
         style="fill:#ff0000;stroke-width:0.26458332"
         id="path220" />
      <path
         d="m 19.718694,121.66249 h -2.130791 v -0.54605 l 0.747585,-0.75964 -0.747585,-0.69763 v -0.52193 h 2.091172 v 0.5426 h -1.248847 l 0.740696,0.67696 -0.740696,0.73381 h 1.288466 z"
         style="fill:#ff0000;stroke-width:0.26458332"
         id="path222" />
    </g>
    <g
       aria-label="LNΣ"
       style="font-style:normal;font-variant:normal;font-weight:normal;font-stretch:normal;font-size:3.52777767px;line-height:1.25;font-family:'Arial Black';-inkscape-font-specification:'Arial Black, Normal';font-variant-ligatures:normal;font-variant-caps:normal;font-variant-numeric:normal;font-feature-settings:normal;text-align:center;letter-spacing:0px;word-spacing:0px;writing-mode:lr-tb;text-anchor:middle;fill:#000000;fill-opacity:1;stroke:none;stroke-width:0.26458332"
       id="text209">
      <path
         d="m 25.442891,117.54973 h 0.780314 v 1.90341 h 1.217841 v 0.62184 h -1.998155 z"
         style="fill:#800000;stroke-width:0.26458332"
         id="path211" />
      <path
         d="m 27.801059,117.54973 h 0.728637 l 0.950847,1.39698 v -1.39698 h 0.735528 v 2.52525 h -0.735528 l -0.945679,-1.38665 v 1.38665 h -0.733805 z"
         style="fill:#800000;stroke-width:0.26458332"
         id="path213" />
      <path
         d="m 32.868794,120.07498 h -2.130791 v -0.54605 l 0.747585,-0.75964 -0.747585,-0.69763 v -0.52193 h 2.091172 v 0.5426 h -1.248847 l 0.740696,0.67696 -0.740696,0.73381 h 1.288466 z"
         style="fill:#800000;stroke-width:0.26458332"
         id="path215" />
    </g>
  </g>
  <g
     inkscape:groupmode="layer"
     id="layer4"
     inkscape:label="graphics"
     transform="translate(0,28.00003)"
     style="display:inline">
    <text
       xml:space="preserve"
       style="font-style:normal;font-variant:normal;font-weight:normal;font-stretch:normal;font-size:4.58611107px;line-height:1.25;font-family:'Arial Black';-inkscape-font-specification:'Arial Black, Normal';font-variant-ligatures:normal;font-variant-caps:normal;font-variant-numeric:normal;text-align:center;letter-spacing:0px;word-spacing:0px;writing-mode:lr-tb;text-anchor:middle;fill:#000000;fill-opacity:1;stroke:none;stroke-width:0.26458332"
       x="11.90625"
       y="-21.166708"
       id="text115"><tspan
         sodipodi:role="line"
         id="tspan113"
         x="11.90625"
         y="-17.054897"
         style="stroke-width:0.26458332" /></text>
    <g
       aria-label="KRT"
       style="font-style:normal;font-variant:normal;font-weight:normal;font-stretch:normal;font-size:3.52777767px;line-height:1.25;font-family:'Arial Black';-inkscape-font-specification:'Arial Black, Normal';font-variant-ligatures:normal;font-variant-caps:normal;font-variant-numeric:normal;font-feature-settings:normal;text-align:center;letter-spacing:0px;word-spacing:0px;writing-mode:lr-tb;text-anchor:middle;fill:#000000;fill-opacity:1;stroke:none;stroke-width:0.26458332"
       id="text123"
       transform="translate(-12.170835,-117.47517)">
      <path
         d="m 14.418414,95.635115 h 0.780314 v 0.954291 l 0.81821,-0.954291 h 1.036974 l -0.91984,0.952569 0.961181,1.572686 h -0.961181 l -0.532268,-1.038696 -0.403076,0.422024 v 0.616672 h -0.780314 z"
         style="fill:#f9f9f9;stroke-width:0.26458332"
         id="path227"
         inkscape:connector-curvature="0" />
      <path
         d="m 17.363971,98.16037 v -2.525255 h 1.300523 q 0.361735,0 0.552938,0.06201 0.191203,0.06201 0.308336,0.230821 0.117133,0.167087 0.117133,0.408244 0,0.210151 -0.08957,0.363457 -0.08957,0.151585 -0.246325,0.246325 -0.09991,0.06029 -0.273885,0.09991 0.139527,0.04651 0.203261,0.09302 0.04306,0.03101 0.124023,0.132636 0.08268,0.101631 0.110243,0.156752 l 0.377238,0.732083 H 18.96594 l -0.416857,-0.771701 q -0.07924,-0.149862 -0.141248,-0.194648 -0.08441,-0.05857 -0.191203,-0.05857 h -0.0689 v 1.024916 z m 0.783759,-1.502062 h 0.329006 q 0.0534,0 0.206706,-0.03445 0.07752,-0.0155 0.125746,-0.07924 0.04995,-0.06373 0.04995,-0.146416 0,-0.122301 -0.07751,-0.187758 -0.07751,-0.06546 -0.29111,-0.06546 H 18.14773 Z"
         style="fill:#f9f9f9;stroke-width:0.26458332"
         id="path229"
         inkscape:connector-curvature="0" />
      <path
         d="m 19.889226,95.635115 h 2.371948 v 0.623562 h -0.795817 v 1.901693 h -0.780314 v -1.901693 h -0.795817 z"
         style="fill:#f9f9f9;stroke-width:0.26458332"
         id="path231"
         inkscape:connector-curvature="0" />
    </g>
    <g
       aria-label="μ"
       style="font-style:normal;font-variant:normal;font-weight:normal;font-stretch:normal;font-size:3.52777767px;line-height:1.25;font-family:'Arial Black';-inkscape-font-specification:'Arial Black, Normal';font-variant-ligatures:normal;font-variant-caps:normal;font-variant-numeric:normal;font-feature-settings:normal;text-align:center;letter-spacing:0px;word-spacing:0px;writing-mode:lr-tb;text-anchor:middle;fill:#000000;fill-opacity:1;stroke:none;stroke-width:0.26458332"
       id="text107">
      <path
         d="m 12.870879,-20.637543 h -0.659736 v -0.144694 q -0.111966,0.187758 -0.282498,0.187758 -0.208428,0 -0.292833,-0.173977 v 0.821655 h -0.701077 v -2.518365 h 0.701077 v 0.918118 q 0,0.124024 0.01378,0.201538 0.0155,0.07752 0.07407,0.139527 0.06029,0.06029 0.184312,0.06029 0.129192,0 0.194648,-0.08096 0.06718,-0.08096 0.06718,-0.339342 v -0.89917 h 0.701077 z"
         style="stroke-width:0.26458332"
         id="path109" />
    </g>
  </g>
</svg>
