<?xml version="1.0" encoding="UTF-8" standalone="no"?>
<!-- Created with Inkscape (http://www.inkscape.org/) -->

<svg
   xmlns:dc="http://purl.org/dc/elements/1.1/"
   xmlns:cc="http://creativecommons.org/ns#"
   xmlns:rdf="http://www.w3.org/1999/02/22-rdf-syntax-ns#"
   xmlns:svg="http://www.w3.org/2000/svg"
   xmlns="http://www.w3.org/2000/svg"
   xmlns:sodipodi="http://sodipodi.sourceforge.net/DTD/sodipodi-0.dtd"
   xmlns:inkscape="http://www.inkscape.org/namespaces/inkscape"
   width="20.32mm"
   height="128.54166mm"
   viewBox="0 0 20.32 128.5417"
   version="1.1"
   id="svg4541"
   sodipodi:docname="O.svg"
   inkscape:version="0.92.5 (2060ec1f9f, 2020-04-08)">
  <defs
     id="defs4535" />
  <sodipodi:namedview
     id="base"
     pagecolor="#ffffff"
     bordercolor="#666666"
     borderopacity="1.0"
     inkscape:pageopacity="0.0"
     inkscape:pageshadow="2"
     inkscape:zoom="4"
     inkscape:cx="26.253"
     inkscape:cy="425.25719"
     inkscape:document-units="mm"
     inkscape:current-layer="layer4"
     showgrid="true"
     fit-margin-top="0"
     fit-margin-left="0"
     fit-margin-right="0"
     fit-margin-bottom="0"
     inkscape:window-width="1600"
     inkscape:window-height="845"
     inkscape:window-x="0"
     inkscape:window-y="0"
     inkscape:window-maximized="1"
     units="mm">
    <inkscape:grid
       type="xygrid"
       id="grid76" />
  </sodipodi:namedview>
  <metadata
     id="metadata4538">
    <rdf:RDF>
      <cc:Work
         rdf:about="">
        <dc:format>image/svg+xml</dc:format>
        <dc:type
           rdf:resource="http://purl.org/dc/dcmitype/StillImage" />
        <dc:title />
      </cc:Work>
    </rdf:RDF>
  </metadata>
  <g
     inkscape:groupmode="layer"
     id="layer1"
     inkscape:label="Background"
     style="display:inline;opacity:1">
    <rect
       style="fill:#786721;stroke-width:0.24888329"
       id="rect111"
       width="20.505209"
       height="128.32292"
       x="0"
       y="0.21873982" />
    <g
       aria-label="OUT"
       style="font-style:normal;font-variant:normal;font-weight:normal;font-stretch:normal;font-size:3.52777767px;line-height:1.25;font-family:'Arial Black';-inkscape-font-specification:'Arial Black, Normal';font-variant-ligatures:normal;font-variant-caps:normal;font-variant-numeric:normal;font-feature-settings:normal;text-align:center;letter-spacing:0px;word-spacing:0px;writing-mode:lr-tb;text-anchor:middle;fill:#000000;fill-opacity:1;stroke:none;stroke-width:0.26458332"
       id="text413"
       transform="translate(-4.5273727,0.14399983)">
      <path
         d="m 15.262289,120.40156 q 0,-0.61839 0.34451,-0.9629 0.344509,-0.34451 0.959459,-0.34451 0.630452,0 0.971517,0.33934 0.341064,0.33762 0.341064,0.9474 0,0.4427 -0.149861,0.72692 -0.148139,0.2825 -0.430637,0.44097 -0.280776,0.15675 -0.701077,0.15675 -0.427192,0 -0.707967,-0.13608 -0.279053,-0.13608 -0.45303,-0.43064 -0.173978,-0.29455 -0.173978,-0.73725 z m 0.780314,0.003 q 0,0.3824 0.141249,0.54949 0.142972,0.16709 0.387574,0.16709 0.251492,0 0.389295,-0.16364 0.137804,-0.16365 0.137804,-0.58739 0,-0.35657 -0.144694,-0.52021 -0.142971,-0.16537 -0.389296,-0.16537 -0.235989,0 -0.37896,0.16709 -0.142972,0.16709 -0.142972,0.55294 z"
         style="fill:#d40000;stroke-width:0.26458332"
         id="path437"
         inkscape:connector-curvature="0" />
      <path
         d="m 19.942451,119.13721 h 0.778592 v 1.50551 q 0,0.22393 -0.07062,0.42375 -0.0689,0.19809 -0.218764,0.34795 -0.148139,0.14814 -0.311781,0.20843 -0.227376,0.0844 -0.546048,0.0844 -0.184312,0 -0.403076,-0.0258 -0.217041,-0.0258 -0.363457,-0.10163 -0.146417,-0.0775 -0.268718,-0.21877 -0.120578,-0.14125 -0.165365,-0.29111 -0.07235,-0.24116 -0.07235,-0.42719 v -1.50551 h 0.778592 v 1.54168 q 0,0.20671 0.113688,0.32384 0.115411,0.11541 0.318672,0.11541 0.201538,0 0.315226,-0.11369 0.11541,-0.11541 0.11541,-0.32556 z"
         style="fill:#d40000;stroke-width:0.26458332"
         id="path439"
         inkscape:connector-curvature="0" />
      <path
         d="m 21.060385,119.13721 h 2.371948 v 0.62357 h -0.795817 v 1.90169 h -0.780314 v -1.90169 h -0.795817 z"
         style="fill:#d40000;stroke-width:0.26458332"
         id="path441"
         inkscape:connector-curvature="0" />
    </g>
    <g
       aria-label="CV"
       style="font-style:normal;font-variant:normal;font-weight:normal;font-stretch:normal;font-size:3.52777767px;line-height:1.25;font-family:'Arial Black';-inkscape-font-specification:'Arial Black, Normal';font-variant-ligatures:normal;font-variant-caps:normal;font-variant-numeric:normal;font-feature-settings:normal;text-align:center;letter-spacing:0px;word-spacing:0px;writing-mode:lr-tb;text-anchor:middle;fill:#000000;fill-opacity:1;stroke:none;stroke-width:0.26458332"
       id="text60">
      <path
         d="m 4.0903618,120.82912 0.6838515,0.2067 q -0.068902,0.28767 -0.217041,0.48059 -0.1481391,0.19293 -0.3686253,0.29111 -0.2187635,0.0982 -0.5581054,0.0982 -0.4116889,0 -0.6735161,-0.11886 -0.2601048,-0.12057 -0.449585,-0.42202 -0.1894802,-0.30145 -0.1894802,-0.7717 0,-0.62701 0.3324517,-0.96291 0.3341742,-0.33761 0.9439561,-0.33761 0.4771457,0 0.7493082,0.19292 0.2738851,0.19293 0.4065213,0.59256 l -0.6890191,0.1533 q -0.036173,-0.11541 -0.075792,-0.16881 -0.065457,-0.0896 -0.1601969,-0.1378 -0.09474,-0.0482 -0.2118734,-0.0482 -0.2652723,0 -0.4065212,0.21359 -0.106798,0.15848 -0.106798,0.49782 0,0.4203 0.1274685,0.57705 0.1274686,0.15503 0.35829,0.15503 0.2239312,0 0.3376193,-0.12574 0.1154107,-0.12575 0.1670871,-0.36518 z"
         style="fill:#00ff00;stroke-width:0.26458332"
         id="path73" />
      <path
         d="M 4.9034044,119.33567 H 5.719892 l 0.5684408,1.81729 0.559828,-1.81729 h 0.7923719 l -0.9370659,2.52525 h -0.845771 z"
         style="fill:#00ff00;stroke-width:0.26458332"
         id="path75" />
    </g>
    <g
       transform="translate(3.7041671,49.477114)"
       aria-label="FRQ"
       style="font-style:normal;font-variant:normal;font-weight:normal;font-stretch:normal;font-size:3.52777767px;line-height:1.25;font-family:'Arial Black';-inkscape-font-specification:'Arial Black, Normal';font-variant-ligatures:normal;font-variant-caps:normal;font-variant-numeric:normal;font-feature-settings:normal;text-align:center;letter-spacing:0px;word-spacing:0px;writing-mode:lr-tb;text-anchor:middle;display:inline;opacity:1;fill:#000000;fill-opacity:1;stroke:none;stroke-width:0.26458332"
       id="text162-3">
      <path
         d="m 2.8938805,38.174738 h 1.9292534 v 0.542603 H 3.6776397 v 0.440972 h 0.9784071 v 0.509874 H 3.6776397 v 1.031806 H 2.8938805 Z"
         style="fill:#ffff00;stroke-width:0.26458332"
         id="path202-5"
         inkscape:connector-curvature="0" />
      <path
         d="m 5.2537708,40.699993 v -2.525255 h 1.3005235 q 0.3617351,0 0.5529378,0.06201 0.1912028,0.06201 0.3083361,0.230821 0.1171332,0.167087 0.1171332,0.408244 0,0.210151 -0.089573,0.363458 -0.089572,0.151584 -0.2463243,0.246324 -0.099908,0.06029 -0.2738851,0.09991 0.1395264,0.04651 0.2032607,0.09302 0.043064,0.03101 0.1240234,0.132637 0.082682,0.10163 0.1102431,0.156751 l 0.3772379,0.732083 H 6.8557402 L 6.4388836,39.928292 Q 6.3596465,39.77843 6.2976347,39.733644 6.2132299,39.675077 6.1064319,39.675077 H 6.03753 v 1.024916 z M 6.03753,39.197932 h 0.3290066 q 0.053399,0 0.2067058,-0.03445 0.077515,-0.0155 0.1257459,-0.07924 0.049954,-0.06373 0.049954,-0.146416 0,-0.122301 -0.077515,-0.187758 -0.077515,-0.06546 -0.2911106,-0.06546 H 6.03753 Z"
         style="fill:#ffff00;stroke-width:0.26458332"
         id="path205-6"
         inkscape:connector-curvature="0" />
      <path
         d="m 10.159586,40.331368 q 0.146417,0.10163 0.191203,0.127468 0.06718,0.0379 0.180868,0.08785 l -0.217041,0.437528 q -0.163642,-0.07924 -0.3238393,-0.189481 -0.1601969,-0.10852 -0.2239312,-0.163642 -0.2583822,0.111966 -0.6476779,0.111966 -0.575331,0 -0.9077827,-0.299723 -0.3927408,-0.354845 -0.3927408,-0.997356 0,-0.623562 0.3427869,-0.968071 0.3445096,-0.346232 0.9611817,-0.346232 0.6287299,0 0.9697943,0.337619 0.342787,0.337619 0.342787,0.966349 0,0.559828 -0.275608,0.895725 z M 9.5618623,39.931737 q 0.093018,-0.167087 0.093018,-0.499539 0,-0.382406 -0.1429715,-0.546048 -0.1412489,-0.163642 -0.3910183,-0.163642 -0.2325439,0 -0.3772379,0.167088 -0.144694,0.167087 -0.144694,0.521931 0,0.413412 0.1412489,0.580499 0.1412489,0.167087 0.3875732,0.167087 0.079237,0 0.1498617,-0.0155 -0.098185,-0.09474 -0.3100586,-0.179145 L 9.0898843,39.68369 q 0.1033528,0.01895 0.1601969,0.04651 0.058567,0.02756 0.2256537,0.144694 0.039619,0.02756 0.086127,0.05684 z"
         style="fill:#ffff00;stroke-width:0.26458332"
         id="path207-2"
         inkscape:connector-curvature="0" />
    </g>
    <g
       aria-label="FRQ"
       style="font-style:normal;font-variant:normal;font-weight:normal;font-stretch:normal;font-size:3.52777767px;line-height:1.25;font-family:'Arial Black';-inkscape-font-specification:'Arial Black, Normal';font-variant-ligatures:normal;font-variant-caps:normal;font-variant-numeric:normal;font-feature-settings:normal;text-align:center;letter-spacing:0px;word-spacing:0px;writing-mode:lr-tb;text-anchor:middle;fill:#000000;fill-opacity:1;stroke:none;stroke-width:0.26458332"
       id="text148">
      <path
         d="M 6.7303411,22.101298 H 8.6595945 V 22.6439 H 7.5141003 v 0.440972 h 0.9784071 v 0.509875 H 7.5141003 v 1.031806 H 6.7303411 Z"
         style="fill:#ffff00;stroke-width:0.26458332"
         id="path206" />
      <path
         d="m 9.0902314,24.626553 v -2.525255 h 1.3005236 q 0.361735,0 0.552938,0.06201 0.191203,0.06201 0.308336,0.230822 0.117133,0.167087 0.117133,0.408244 0,0.21015 -0.08957,0.363457 -0.08957,0.151584 -0.246325,0.246324 -0.09991,0.06029 -0.273885,0.09991 0.139527,0.04651 0.203261,0.09302 0.04306,0.03101 0.124023,0.132636 0.08268,0.10163 0.110243,0.156752 l 0.377238,0.732083 h -0.881944 l -0.416857,-0.771702 q -0.07924,-0.149861 -0.141249,-0.194648 -0.08441,-0.05857 -0.1912025,-0.05857 h -0.068902 v 1.024916 z m 0.7837592,-1.502062 h 0.3290064 q 0.0534,0 0.206706,-0.03445 0.07752,-0.0155 0.125746,-0.07924 0.04995,-0.06373 0.04995,-0.146417 0,-0.122301 -0.07752,-0.187757 -0.07751,-0.06546 -0.29111,-0.06546 H 9.8739906 Z"
         style="fill:#ffff00;stroke-width:0.26458332"
         id="path208" />
      <path
         d="m 13.996047,24.257927 q 0.146417,0.101631 0.191203,0.127469 0.06718,0.0379 0.180867,0.08785 l -0.217041,0.437527 q -0.163642,-0.07924 -0.323839,-0.18948 -0.160197,-0.108521 -0.223931,-0.163642 -0.258382,0.111965 -0.647678,0.111965 -0.575331,0 -0.907782,-0.299723 -0.392741,-0.354845 -0.392741,-0.997355 0,-0.623562 0.342787,-0.968072 0.344509,-0.346232 0.961181,-0.346232 0.62873,0 0.969795,0.337619 0.342787,0.33762 0.342787,0.96635 0,0.559828 -0.275608,0.895724 z m -0.597724,-0.399631 q 0.09302,-0.167087 0.09302,-0.499539 0,-0.382405 -0.142971,-0.546047 -0.141249,-0.163642 -0.391018,-0.163642 -0.232544,0 -0.377238,0.167087 -0.144694,0.167087 -0.144694,0.521932 0,0.413411 0.141249,0.580498 0.141249,0.167088 0.387573,0.167088 0.07924,0 0.149862,-0.0155 -0.09819,-0.09474 -0.310059,-0.179145 l 0.122301,-0.280776 q 0.103353,0.01895 0.160197,0.04651 0.05857,0.02756 0.225654,0.144694 0.03962,0.02756 0.08613,0.05684 z"
         style="fill:#ffff00;stroke-width:0.26458332"
         id="path210" />
    </g>
    <g
       aria-label="O"
       transform="scale(0.99962656,1.0003736)"
       style="font-style:normal;font-variant:normal;font-weight:normal;font-stretch:normal;font-size:5.67025042px;line-height:1.25;font-family:'Arial Black';-inkscape-font-specification:'Arial Black, Normal';font-variant-ligatures:normal;font-variant-caps:normal;font-variant-numeric:normal;font-feature-settings:normal;text-align:center;letter-spacing:0px;word-spacing:0px;writing-mode:lr-tb;text-anchor:middle;fill:#000000;fill-opacity:1;stroke:none;stroke-width:0.42526877"
       id="text152">
      <path
         d="m 14.174279,5.9019898 q 0,-0.993955 0.553735,-1.5476904 0.553735,-0.5537354 1.542153,-0.5537354 1.013336,0 1.561534,0.5454294 0.548198,0.5426606 0.548198,1.5227723 0,0.71155 -0.240875,1.1683817 -0.238106,0.454063 -0.692169,0.7087813 -0.451294,0.2519496 -1.126852,0.2519496 -0.686632,0 -1.137926,-0.2187255 Q 14.733551,7.5604273 14.453915,7.0869836 14.174279,6.6135398 14.174279,5.9019898 Z m 1.25421,0.00554 q 0,0.6146463 0.227032,0.8832079 0.2298,0.2685617 0.622952,0.2685617 0.404227,0 0.625721,-0.2630243 0.221494,-0.2630243 0.221494,-0.9441189 0,-0.5731161 -0.232569,-0.8361404 -0.2298,-0.265793 -0.625721,-0.265793 -0.379308,0 -0.609108,0.2685617 -0.229801,0.2685616 -0.229801,0.8887453 z"
         style="stroke-width:0.42526877"
         id="path154"
         inkscape:connector-curvature="0" />
    </g>
    <g
       aria-label="FRQ"
       style="font-style:normal;font-variant:normal;font-weight:normal;font-stretch:normal;font-size:3.52777767px;line-height:1.25;font-family:'Arial Black';-inkscape-font-specification:'Arial Black, Normal';font-variant-ligatures:normal;font-variant-caps:normal;font-variant-numeric:normal;font-feature-settings:normal;text-align:center;letter-spacing:0px;word-spacing:0px;writing-mode:lr-tb;text-anchor:middle;display:inline;opacity:1;fill:#000000;fill-opacity:1;stroke:none;stroke-width:0.26458332"
       id="text148-0"
       transform="translate(0,0.52916667)">
      <path
         d="m 6.4657584,53.851328 h 1.9292534 v 0.542603 H 7.2495176 v 0.440972 h 0.9784071 v 0.509874 H 7.2495176 v 1.031806 H 6.4657584 Z"
         style="fill:#ffff00;stroke-width:0.26458332"
         id="path199"
         inkscape:connector-curvature="0" />
      <path
         d="m 8.8256488,56.376583 v -2.525255 h 1.3005232 q 0.361735,0 0.552938,0.06201 0.191203,0.06201 0.308336,0.230821 0.117133,0.167087 0.117133,0.408244 0,0.210151 -0.08957,0.363458 -0.08957,0.151584 -0.246324,0.246324 -0.09991,0.06029 -0.273885,0.09991 0.139526,0.04651 0.20326,0.09302 0.04306,0.03101 0.124024,0.132636 0.08268,0.101631 0.110243,0.156752 l 0.377238,0.732083 H 10.427618 L 10.010762,55.604882 Q 9.9315244,55.45502 9.8695127,55.410234 9.7851079,55.351667 9.6783099,55.351667 H 9.609408 v 1.024916 z M 9.609408,54.874522 h 0.3290066 q 0.053399,0 0.2067054,-0.03445 0.07752,-0.0155 0.125746,-0.07924 0.04995,-0.06373 0.04995,-0.146416 0,-0.122301 -0.07751,-0.187758 -0.07752,-0.06546 -0.291111,-0.06546 H 9.609408 Z"
         style="fill:#ffff00;stroke-width:0.26458332"
         id="path201"
         inkscape:connector-curvature="0" />
      <path
         d="m 13.731464,56.007958 q 0.146417,0.10163 0.191203,0.127468 0.06718,0.0379 0.180868,0.08785 l -0.217041,0.437527 q -0.163642,-0.07924 -0.323839,-0.18948 -0.160197,-0.10852 -0.223932,-0.163642 -0.258382,0.111966 -0.647677,0.111966 -0.575331,0 -0.907783,-0.299724 -0.392741,-0.354844 -0.392741,-0.997355 0,-0.623562 0.342787,-0.968071 0.34451,-0.346233 0.961182,-0.346233 0.62873,0 0.969794,0.33762 0.342787,0.337619 0.342787,0.966349 0,0.559828 -0.275608,0.895725 z M 13.13374,55.608327 q 0.09302,-0.167087 0.09302,-0.499539 0,-0.382406 -0.142972,-0.546048 -0.141249,-0.163642 -0.391018,-0.163642 -0.232544,0 -0.377238,0.167087 -0.144694,0.167088 -0.144694,0.521932 0,0.413412 0.141249,0.580499 0.141249,0.167087 0.387573,0.167087 0.07924,0 0.149862,-0.0155 -0.09819,-0.09474 -0.310059,-0.179145 l 0.122301,-0.280775 q 0.103353,0.01895 0.160197,0.04651 0.05857,0.02756 0.225654,0.144694 0.03962,0.02756 0.08613,0.05684 z"
         style="fill:#ffff00;stroke-width:0.26458332"
         id="path203"
         inkscape:connector-curvature="0" />
    </g>
    <g
       aria-label="FBK"
       style="font-style:normal;font-variant:normal;font-weight:normal;font-stretch:normal;font-size:3.52777767px;line-height:1.25;font-family:'Arial Black';-inkscape-font-specification:'Arial Black, Normal';font-variant-ligatures:normal;font-variant-caps:normal;font-variant-numeric:normal;font-feature-settings:normal;text-align:center;letter-spacing:0px;word-spacing:0px;writing-mode:lr-tb;text-anchor:middle;fill:#000000;fill-opacity:1;stroke:none;stroke-width:0.26458332"
       id="text215">
      <path
         d="m 6.5627361,38.174734 h 1.9292534 v 0.542603 H 7.3464953 v 0.440972 h 0.9784071 v 0.509874 H 7.3464953 v 1.031806 H 6.5627361 Z"
         style="fill:#ffff00;stroke-width:0.26458332"
         id="path315" />
      <path
         d="m 8.9140137,38.174734 h 1.4607203 q 0.36518,0 0.559828,0.180868 0.196371,0.180867 0.196371,0.447862 0,0.223932 -0.139527,0.384128 -0.09302,0.106798 -0.272162,0.16881 0.272162,0.06546 0.399631,0.225654 0.129191,0.158474 0.129191,0.399631 0,0.19637 -0.09129,0.353122 -0.0913,0.156752 -0.24977,0.248047 -0.09818,0.05684 -0.296278,0.08268 -0.26355,0.03445 -0.349677,0.03445 H 8.9140137 Z m 0.7872043,0.990465 h 0.339342 q 0.18259,0 0.253214,-0.06201 0.07235,-0.06374 0.07235,-0.18259 0,-0.110243 -0.07235,-0.172255 -0.07062,-0.06201 -0.248046,-0.06201 h -0.34451 z m 0,0.992188 h 0.397909 q 0.201538,0 0.28422,-0.07062 0.08268,-0.07235 0.08268,-0.192925 0,-0.111966 -0.08268,-0.179145 -0.08096,-0.0689 -0.285943,-0.0689 H 9.701218 Z"
         style="fill:#ffff00;stroke-width:0.26458332"
         id="path317" />
      <path
         d="m 11.659755,38.174734 h 0.780314 v 0.954292 l 0.81821,-0.954292 h 1.036974 l -0.919841,0.952569 0.961182,1.572686 h -0.961182 l -0.532267,-1.038696 -0.403076,0.422024 v 0.616672 h -0.780314 z"
         style="fill:#ffff00;stroke-width:0.26458332"
         id="path319" />
    </g>
    <g
       aria-label="FBK"
       style="font-style:normal;font-variant:normal;font-weight:normal;font-stretch:normal;font-size:3.52777767px;line-height:1.25;font-family:'Arial Black';-inkscape-font-specification:'Arial Black, Normal';font-variant-ligatures:normal;font-variant-caps:normal;font-variant-numeric:normal;font-feature-settings:normal;text-align:center;letter-spacing:0px;word-spacing:0px;writing-mode:lr-tb;text-anchor:middle;display:inline;opacity:1;fill:#000000;fill-opacity:1;stroke:none;stroke-width:0.26458332"
       id="text215-3">
      <path
         d="m 6.5627342,71.512266 h 1.9292534 v 0.542603 H 7.3464934 v 0.440972 h 0.9784071 v 0.509874 H 7.3464934 v 1.031806 H 6.5627342 Z"
         style="fill:#ffff00;stroke-width:0.26458332"
         id="path308" />
      <path
         d="m 8.9140118,71.512266 h 1.4607202 q 0.36518,0 0.559828,0.180868 0.196371,0.180867 0.196371,0.447862 0,0.223932 -0.139527,0.384128 -0.09302,0.106798 -0.272162,0.16881 0.272162,0.06546 0.399631,0.225654 0.129191,0.158474 0.129191,0.399631 0,0.19637 -0.09129,0.353122 -0.0913,0.156752 -0.24977,0.248047 -0.09819,0.05684 -0.296278,0.08268 -0.26355,0.03445 -0.349677,0.03445 H 8.9140118 Z m 0.7872043,0.990465 h 0.3393419 q 0.18259,0 0.253215,-0.06201 0.07235,-0.06373 0.07235,-0.18259 0,-0.110243 -0.07235,-0.172255 -0.07062,-0.06201 -0.248047,-0.06201 H 9.7012161 Z m 0,0.992188 h 0.3979089 q 0.201538,0 0.28422,-0.07062 0.08268,-0.07235 0.08268,-0.192925 0,-0.111966 -0.08268,-0.179145 -0.08096,-0.0689 -0.285943,-0.0689 H 9.7012161 Z"
         style="fill:#ffff00;stroke-width:0.26458332"
         id="path310" />
      <path
         d="m 11.659753,71.512266 h 0.780314 v 0.954292 l 0.81821,-0.954292 h 1.036974 l -0.919841,0.952569 0.961182,1.572686 H 13.37541 l -0.532267,-1.038696 -0.403076,0.422024 v 0.616672 h -0.780314 z"
         style="fill:#ffff00;stroke-width:0.26458332"
         id="path312" />
    </g>
    <g
       aria-label="FBK"
       style="font-style:normal;font-variant:normal;font-weight:normal;font-stretch:normal;font-size:3.52777767px;line-height:1.25;font-family:'Arial Black';-inkscape-font-specification:'Arial Black, Normal';font-variant-ligatures:normal;font-variant-caps:normal;font-variant-numeric:normal;font-feature-settings:normal;text-align:center;letter-spacing:0px;word-spacing:0px;writing-mode:lr-tb;text-anchor:middle;display:inline;opacity:1;fill:#000000;fill-opacity:1;stroke:none;stroke-width:0.26458332"
       id="text215-3-0">
      <path
         d="m 6.4304414,103.52684 h 1.9292535 v 0.5426 H 7.2142006 v 0.44097 h 0.9784071 v 0.50988 H 7.2142006 v 1.0318 H 6.4304414 Z"
         style="fill:#ffff00;stroke-width:0.26458332"
         id="path301" />
      <path
         d="m 8.7817191,103.52684 h 1.4607199 q 0.365181,0 0.559828,0.18087 0.196371,0.18086 0.196371,0.44786 0,0.22393 -0.139526,0.38413 -0.09302,0.10679 -0.272163,0.16881 0.272163,0.0654 0.399631,0.22565 0.129191,0.15847 0.129191,0.39963 0,0.19637 -0.0913,0.35312 -0.0913,0.15676 -0.249769,0.24805 -0.09818,0.0568 -0.296278,0.0827 -0.26355,0.0345 -0.349678,0.0345 H 8.7817191 Z m 0.7872043,0.99046 h 0.3393418 q 0.1825898,0 0.2532148,-0.062 0.07235,-0.0637 0.07235,-0.18259 0,-0.11024 -0.07235,-0.17225 -0.07062,-0.062 -0.2480471,-0.062 H 9.5689234 Z m 0,0.99219 h 0.3979085 q 0.2015381,0 0.2842201,-0.0706 0.08268,-0.0724 0.08268,-0.19293 0,-0.11196 -0.08268,-0.17914 -0.08096,-0.0689 -0.2859427,-0.0689 H 9.5689234 Z"
         style="fill:#ffff00;stroke-width:0.26458332"
         id="path303" />
      <path
         d="m 11.52746,103.52684 h 0.780314 v 0.95429 l 0.81821,-0.95429 h 1.036974 l -0.91984,0.95257 0.961181,1.57268 h -0.961181 l -0.532268,-1.03869 -0.403076,0.42202 v 0.61667 H 11.52746 Z"
         style="fill:#ffff00;stroke-width:0.26458332"
         id="path305" />
    </g>
  </g>
  <g
     inkscape:groupmode="layer"
     id="layer4"
     inkscape:label="graphics"
     transform="translate(0,28.00003)"
     style="display:inline">
    <text
       xml:space="preserve"
       style="font-style:normal;font-variant:normal;font-weight:normal;font-stretch:normal;font-size:4.58611107px;line-height:1.25;font-family:'Arial Black';-inkscape-font-specification:'Arial Black, Normal';font-variant-ligatures:normal;font-variant-caps:normal;font-variant-numeric:normal;text-align:center;letter-spacing:0px;word-spacing:0px;writing-mode:lr-tb;text-anchor:middle;fill:#000000;fill-opacity:1;stroke:none;stroke-width:0.26458332"
       x="11.90625"
       y="-21.166708"
       id="text115"><tspan
         sodipodi:role="line"
         id="tspan113"
         x="11.90625"
         y="-17.054897"
         style="stroke-width:0.26458332" /></text>
    <g
       aria-label="KRT"
       style="font-style:normal;font-variant:normal;font-weight:normal;font-stretch:normal;font-size:3.52777767px;line-height:1.25;font-family:'Arial Black';-inkscape-font-specification:'Arial Black, Normal';font-variant-ligatures:normal;font-variant-caps:normal;font-variant-numeric:normal;font-feature-settings:normal;text-align:center;letter-spacing:0px;word-spacing:0px;writing-mode:lr-tb;text-anchor:middle;fill:#000000;fill-opacity:1;stroke:none;stroke-width:0.26458332"
       id="text123"
       transform="translate(-12.170835,-117.47517)">
      <path
         d="m 14.418414,95.635115 h 0.780314 v 0.954291 l 0.81821,-0.954291 h 1.036974 l -0.91984,0.952569 0.961181,1.572686 h -0.961181 l -0.532268,-1.038696 -0.403076,0.422024 v 0.616672 h -0.780314 z"
         style="fill:#f9f9f9;stroke-width:0.26458332"
         id="path227"
         inkscape:connector-curvature="0" />
      <path
         d="m 17.363971,98.16037 v -2.525255 h 1.300523 q 0.361735,0 0.552938,0.06201 0.191203,0.06201 0.308336,0.230821 0.117133,0.167087 0.117133,0.408244 0,0.210151 -0.08957,0.363457 -0.08957,0.151585 -0.246325,0.246325 -0.09991,0.06029 -0.273885,0.09991 0.139527,0.04651 0.203261,0.09302 0.04306,0.03101 0.124023,0.132636 0.08268,0.101631 0.110243,0.156752 l 0.377238,0.732083 H 18.96594 l -0.416857,-0.771701 q -0.07924,-0.149862 -0.141248,-0.194648 -0.08441,-0.05857 -0.191203,-0.05857 h -0.0689 v 1.024916 z m 0.783759,-1.502062 h 0.329006 q 0.0534,0 0.206706,-0.03445 0.07752,-0.0155 0.125746,-0.07924 0.04995,-0.06373 0.04995,-0.146416 0,-0.122301 -0.07751,-0.187758 -0.07751,-0.06546 -0.29111,-0.06546 H 18.14773 Z"
         style="fill:#f9f9f9;stroke-width:0.26458332"
         id="path229"
         inkscape:connector-curvature="0" />
      <path
         d="m 19.889226,95.635115 h 2.371948 v 0.623562 h -0.795817 v 1.901693 h -0.780314 v -1.901693 h -0.795817 z"
         style="fill:#f9f9f9;stroke-width:0.26458332"
         id="path231"
         inkscape:connector-curvature="0" />
    </g>
    <g
       aria-label="Ω"
       style="font-style:normal;font-variant:normal;font-weight:normal;font-stretch:normal;font-size:3.52777767px;line-height:1.25;font-family:'Arial Black';-inkscape-font-specification:'Arial Black, Normal';font-variant-ligatures:normal;font-variant-caps:normal;font-variant-numeric:normal;font-feature-settings:normal;text-align:center;letter-spacing:0px;word-spacing:0px;writing-mode:lr-tb;text-anchor:middle;fill:#000000;fill-opacity:1;stroke:none;stroke-width:0.26458332"
       id="text107"
       transform="matrix(2.52226,0,0,2.4814703,-16.867486,28.084873)" />
    <g
       aria-label="F"
       transform="scale(1.204776,0.83002985)"
       style="font-style:normal;font-variant:normal;font-weight:normal;font-stretch:normal;font-size:7.14471245px;line-height:1.25;font-family:'Arial Black';-inkscape-font-specification:'Arial Black, Normal';font-variant-ligatures:normal;font-variant-caps:normal;font-variant-numeric:normal;font-feature-settings:normal;text-align:center;letter-spacing:0px;word-spacing:0px;writing-mode:lr-tb;text-anchor:middle;fill:#000000;fill-opacity:1;stroke:none;stroke-width:0.53585339"
       id="text135" />
  </g>
</svg>
