<?xml version="1.0" encoding="UTF-8" standalone="no"?>
<!-- Created with Inkscape (http://www.inkscape.org/) -->

<svg
   xmlns:dc="http://purl.org/dc/elements/1.1/"
   xmlns:cc="http://creativecommons.org/ns#"
   xmlns:rdf="http://www.w3.org/1999/02/22-rdf-syntax-ns#"
   xmlns:svg="http://www.w3.org/2000/svg"
   xmlns="http://www.w3.org/2000/svg"
   xmlns:sodipodi="http://sodipodi.sourceforge.net/DTD/sodipodi-0.dtd"
   xmlns:inkscape="http://www.inkscape.org/namespaces/inkscape"
   width="45.720001mm"
   height="128.54166mm"
   viewBox="0 0 45.720002 128.5417"
   version="1.1"
   id="svg4541"
   sodipodi:docname="Om.svg"
   inkscape:version="0.92.5 (2060ec1f9f, 2020-04-08)">
  <defs
     id="defs4535" />
  <sodipodi:namedview
     id="base"
     pagecolor="#ffffff"
     bordercolor="#666666"
     borderopacity="1.0"
     inkscape:pageopacity="0.0"
     inkscape:pageshadow="2"
     inkscape:zoom="4"
     inkscape:cx="105.128"
     inkscape:cy="74.26295"
     inkscape:document-units="mm"
     inkscape:current-layer="layer1"
     showgrid="true"
     fit-margin-top="0"
     fit-margin-left="0"
     fit-margin-right="0"
     fit-margin-bottom="0"
     inkscape:window-width="1600"
     inkscape:window-height="845"
     inkscape:window-x="0"
     inkscape:window-y="0"
     inkscape:window-maximized="1"
     units="mm">
    <inkscape:grid
       type="xygrid"
       id="grid76" />
  </sodipodi:namedview>
  <metadata
     id="metadata4538">
    <rdf:RDF>
      <cc:Work
         rdf:about="">
        <dc:format>image/svg+xml</dc:format>
        <dc:type
           rdf:resource="http://purl.org/dc/dcmitype/StillImage" />
        <dc:title />
      </cc:Work>
    </rdf:RDF>
  </metadata>
  <g
     inkscape:groupmode="layer"
     id="layer1"
     inkscape:label="Background"
     style="display:inline;opacity:1">
    <rect
       style="fill:#333333;stroke-width:0.37158135"
       id="rect111"
       width="45.706772"
       height="128.32292"
       x="0"
       y="0.21873982" />
    <g
       aria-label="RAND"
       style="font-style:normal;font-variant:normal;font-weight:normal;font-stretch:normal;font-size:3.52777767px;line-height:1.25;font-family:'Arial Black';-inkscape-font-specification:'Arial Black, Normal';font-variant-ligatures:normal;font-variant-caps:normal;font-variant-numeric:normal;font-feature-settings:normal;text-align:center;letter-spacing:0px;word-spacing:0px;writing-mode:lr-tb;text-anchor:middle;fill:#000000;fill-opacity:1;stroke:none;stroke-width:0.26458332"
       id="text118"
       transform="translate(1.745801,-1.0583342)">
      <path
         d="m 30.931274,41.758324 v -2.525255 h 1.300523 q 0.361735,0 0.552938,0.06201 0.191203,0.06201 0.308336,0.230822 0.117133,0.167087 0.117133,0.408244 0,0.21015 -0.08957,0.363457 -0.08957,0.151584 -0.246324,0.246325 -0.09991,0.06029 -0.273886,0.09991 0.139527,0.04651 0.203261,0.09302 0.04306,0.03101 0.124024,0.132636 0.08268,0.10163 0.110243,0.156752 l 0.377237,0.732083 h -0.881944 l -0.416856,-0.771702 q -0.07924,-0.149861 -0.141249,-0.194648 -0.08441,-0.05857 -0.191203,-0.05857 h -0.0689 v 1.024916 z m 0.783759,-1.502062 h 0.329007 q 0.0534,0 0.206705,-0.03445 0.07751,-0.0155 0.125746,-0.07924 0.04995,-0.06373 0.04995,-0.146417 0,-0.122301 -0.07751,-0.187757 -0.07751,-0.06546 -0.29111,-0.06546 h -0.342787 z"
         style="fill:#ffff00;stroke-width:0.26458332"
         id="path152"
         inkscape:connector-curvature="0" />
      <path
         d="M 35.218695,41.341467 H 34.32986 l -0.1223,0.416857 h -0.79754 l 0.949124,-2.525255 h 0.850938 l 0.949124,2.525255 H 35.342718 Z M 35.055053,40.79542 34.776,39.887637 34.49867,40.79542 Z"
         style="fill:#ffff00;stroke-width:0.26458332"
         id="path154"
         inkscape:connector-curvature="0" />
      <path
         d="m 36.414143,39.233069 h 0.728638 l 0.950846,1.396986 v -1.396986 h 0.735528 v 2.525255 h -0.735528 l -0.945678,-1.386651 v 1.386651 h -0.733806 z"
         style="fill:#ffff00;stroke-width:0.26458332"
         id="path156"
         inkscape:connector-curvature="0" />
      <path
         d="m 39.357977,39.233069 h 1.159275 q 0.342787,0 0.552938,0.09302 0.211873,0.09302 0.349677,0.266995 0.137804,0.173978 0.199815,0.404799 0.06201,0.230821 0.06201,0.489203 0,0.404799 -0.09302,0.62873 -0.0913,0.222209 -0.254937,0.373793 -0.163642,0.149862 -0.351399,0.199816 -0.25666,0.0689 -0.465088,0.0689 h -1.159275 z m 0.780314,0.571886 v 1.37976 h 0.191203 q 0.244602,0 0.347955,-0.0534 0.103353,-0.05512 0.161919,-0.18948 0.05857,-0.136081 0.05857,-0.43925 0,-0.401353 -0.130914,-0.549492 -0.130913,-0.148139 -0.434082,-0.148139 z"
         style="fill:#ffff00;stroke-width:0.26458332"
         id="path158"
         inkscape:connector-curvature="0" />
    </g>
    <g
       aria-label="SEED"
       style="font-style:normal;font-variant:normal;font-weight:normal;font-stretch:normal;font-size:3.52777767px;line-height:1.25;font-family:'Arial Black';-inkscape-font-specification:'Arial Black, Normal';font-variant-ligatures:normal;font-variant-caps:normal;font-variant-numeric:normal;font-feature-settings:normal;text-align:center;letter-spacing:0px;word-spacing:0px;writing-mode:lr-tb;text-anchor:middle;fill:#000000;fill-opacity:1;stroke:none;stroke-width:0.26458332"
       id="text122"
       transform="translate(0.52916667,-1.0583333)">
      <path
         d="m 17.15382,40.922888 0.742418,-0.04651 q 0.02412,0.180868 0.09819,0.275608 0.120579,0.153307 0.34451,0.153307 0.167087,0 0.256659,-0.07752 0.09129,-0.07924 0.09129,-0.18259 0,-0.09819 -0.08613,-0.1757 -0.08613,-0.07751 -0.399631,-0.146416 -0.513319,-0.115411 -0.732083,-0.306614 -0.220486,-0.191203 -0.220486,-0.487481 0,-0.194648 0.111966,-0.366903 0.113688,-0.173977 0.339342,-0.272162 0.227376,-0.09991 0.621839,-0.09991 0.484036,0 0.737251,0.180868 0.254937,0.179145 0.303168,0.571885 l -0.735528,0.04306 q -0.02928,-0.170532 -0.124023,-0.248047 -0.09302,-0.07751 -0.258382,-0.07751 -0.136082,0 -0.204984,0.05857 -0.0689,0.05684 -0.0689,0.139527 0,0.06029 0.05684,0.10852 0.05512,0.04995 0.261827,0.09302 0.511597,0.110243 0.732083,0.223931 0.222208,0.111965 0.322116,0.279053 0.10163,0.167087 0.10163,0.373792 0,0.24288 -0.134358,0.447863 -0.134359,0.204983 -0.375516,0.311781 -0.241156,0.105075 -0.608059,0.105075 -0.644233,0 -0.89228,-0.248047 -0.248047,-0.248046 -0.280775,-0.630452 z"
         style="fill:#ffff00;stroke-width:0.26458332"
         id="path143"
         inkscape:connector-curvature="0" />
      <path
         d="M 19.835827,39.233069 H 21.927 v 0.539157 h -1.309137 v 0.401354 h 1.214396 v 0.515042 h -1.214396 v 0.497816 h 1.347033 v 0.571886 h -2.129069 z"
         style="fill:#ffff00;stroke-width:0.26458332"
         id="path145"
         inkscape:connector-curvature="0" />
      <path
         d="m 22.383475,39.233069 h 2.091173 v 0.539157 h -1.309137 v 0.401354 h 1.214396 v 0.515042 h -1.214396 v 0.497816 h 1.347033 v 0.571886 h -2.129069 z"
         style="fill:#ffff00;stroke-width:0.26458332"
         id="path147"
         inkscape:connector-curvature="0" />
      <path
         d="m 24.94318,39.233069 h 1.159275 q 0.342787,0 0.552938,0.09302 0.211873,0.09302 0.349677,0.266995 0.137804,0.173978 0.199816,0.404799 0.06201,0.230821 0.06201,0.489203 0,0.404799 -0.09302,0.62873 -0.09129,0.222209 -0.254937,0.373793 -0.163642,0.149862 -0.3514,0.199816 -0.25666,0.0689 -0.465088,0.0689 H 24.94318 Z m 0.780314,0.571886 v 1.37976 h 0.191203 q 0.244602,0 0.347955,-0.0534 0.103353,-0.05512 0.161919,-0.18948 0.05857,-0.136081 0.05857,-0.43925 0,-0.401353 -0.130914,-0.549492 -0.130913,-0.148139 -0.434082,-0.148139 z"
         style="fill:#ffff00;stroke-width:0.26458332"
         id="path149"
         inkscape:connector-curvature="0" />
    </g>
    <g
       aria-label="CLK"
       style="font-style:normal;font-variant:normal;font-weight:normal;font-stretch:normal;font-size:3.52777767px;line-height:1.25;font-family:'Arial Black';-inkscape-font-specification:'Arial Black, Normal';font-variant-ligatures:normal;font-variant-caps:normal;font-variant-numeric:normal;font-feature-settings:normal;text-align:center;letter-spacing:0px;word-spacing:0px;writing-mode:lr-tb;text-anchor:middle;fill:#000000;fill-opacity:1;stroke:none;stroke-width:0.26458332"
       id="text163"
       transform="translate(-1.0583333,-0.52916667)">
      <path
         d="m 6.9175787,56.07235 0.6838514,0.206706 q -0.068902,0.287666 -0.217041,0.480591 -0.1481391,0.192925 -0.3686252,0.291111 -0.2187636,0.09819 -0.5581055,0.09819 -0.4116889,0 -0.6735161,-0.118856 -0.2601047,-0.120578 -0.449585,-0.422024 -0.1894802,-0.301446 -0.1894802,-0.771702 0,-0.627007 0.3324517,-0.962904 0.3341742,-0.337619 0.9439561,-0.337619 0.4771457,0 0.7493083,0.192925 0.273885,0.192926 0.4065212,0.592557 l -0.6890191,0.153306 q -0.036174,-0.11541 -0.075792,-0.168809 -0.065457,-0.08957 -0.1601969,-0.137804 -0.09474,-0.04823 -0.2118734,-0.04823 -0.2652723,0 -0.4065212,0.213595 -0.106798,0.158475 -0.106798,0.497817 0,0.420301 0.1274686,0.577053 0.1274685,0.15503 0.3582899,0.15503 0.2239312,0 0.3376193,-0.125746 0.1154107,-0.125746 0.1670872,-0.365181 z"
         style="fill:#00ff00;stroke-width:0.26458332"
         id="path204"
         inkscape:connector-curvature="0" />
      <path
         d="m 7.9803907,54.578902 h 0.7803141 v 1.903415 H 9.978546 v 0.621839 H 7.9803907 Z"
         style="fill:#00ff00;stroke-width:0.26458332"
         id="path206"
         inkscape:connector-curvature="0" />
      <path
         d="m 10.336836,54.578902 h 0.780314 v 0.954291 l 0.81821,-0.954291 h 1.036974 l -0.919841,0.952568 0.961182,1.572686 H 12.052493 L 11.520226,56.06546 11.11715,56.487484 v 0.616672 h -0.780314 z"
         style="fill:#00ff00;stroke-width:0.26458332"
         id="path208"
         inkscape:connector-curvature="0" />
    </g>
    <g
       aria-label="RST"
       style="font-style:normal;font-variant:normal;font-weight:normal;font-stretch:normal;font-size:3.52777767px;line-height:1.25;font-family:'Arial Black';-inkscape-font-specification:'Arial Black, Normal';font-variant-ligatures:normal;font-variant-caps:normal;font-variant-numeric:normal;font-feature-settings:normal;text-align:center;letter-spacing:0px;word-spacing:0px;writing-mode:lr-tb;text-anchor:middle;fill:#000000;fill-opacity:1;stroke:none;stroke-width:0.26458332"
       id="text167"
       transform="translate(0.52916663,-0.52916667)">
      <path
         d="m 18.574059,57.104156 v -2.525254 h 1.300523 q 0.361735,0 0.552938,0.06201 0.191203,0.06201 0.308336,0.230822 0.117133,0.167087 0.117133,0.408243 0,0.210151 -0.08957,0.363458 -0.08957,0.151584 -0.246325,0.246324 -0.09991,0.06029 -0.273885,0.09991 0.139527,0.04651 0.203261,0.09302 0.04306,0.03101 0.124023,0.132636 0.08268,0.10163 0.110243,0.156752 l 0.377238,0.732082 H 20.17603 l -0.416857,-0.771701 q -0.07924,-0.149862 -0.141248,-0.194648 -0.08441,-0.05857 -0.191203,-0.05857 h -0.0689 v 1.024915 z m 0.783759,-1.502061 h 0.329006 q 0.0534,0 0.206706,-0.03445 0.07752,-0.0155 0.125746,-0.07924 0.04995,-0.06374 0.04995,-0.146417 0,-0.122301 -0.07752,-0.187757 -0.07751,-0.06546 -0.29111,-0.06546 h -0.342787 z"
         style="fill:#00ff00;stroke-width:0.26458332"
         id="path197"
         inkscape:connector-curvature="0" />
      <path
         d="m 21.171661,56.268721 0.742418,-0.04651 q 0.02411,0.180868 0.09818,0.275608 0.120578,0.153306 0.344509,0.153306 0.167088,0 0.25666,-0.07751 0.09129,-0.07924 0.09129,-0.18259 0,-0.09819 -0.08613,-0.1757 -0.08613,-0.07751 -0.399631,-0.146417 -0.51332,-0.11541 -0.732083,-0.306613 -0.220486,-0.191203 -0.220486,-0.487481 0,-0.194648 0.111965,-0.366903 0.113689,-0.173977 0.339342,-0.272162 0.227377,-0.09991 0.62184,-0.09991 0.484036,0 0.73725,0.180867 0.254937,0.179145 0.303169,0.571886 l -0.735528,0.04306 q -0.02928,-0.170532 -0.124024,-0.248047 -0.09302,-0.07751 -0.258382,-0.07751 -0.136081,0 -0.204983,0.05857 -0.0689,0.05684 -0.0689,0.139526 0,0.06029 0.05684,0.108521 0.05512,0.04995 0.261828,0.09302 0.511596,0.110244 0.732082,0.223932 0.222209,0.111965 0.322117,0.279052 0.10163,0.167088 0.10163,0.373793 0,0.242879 -0.134359,0.447863 -0.134358,0.204983 -0.375515,0.311781 -0.241157,0.105075 -0.608059,0.105075 -0.644233,0 -0.89228,-0.248047 -0.248047,-0.248047 -0.280775,-0.630452 z"
         style="fill:#00ff00;stroke-width:0.26458332"
         id="path199"
         inkscape:connector-curvature="0" />
      <path
         d="m 23.677967,54.578902 h 2.371949 v 0.623562 h -0.795817 v 1.901692 h -0.780315 v -1.901692 h -0.795817 z"
         style="fill:#00ff00;stroke-width:0.26458332"
         id="path201"
         inkscape:connector-curvature="0" />
    </g>
    <g
       aria-label="AN"
       style="font-style:normal;font-variant:normal;font-weight:normal;font-stretch:normal;font-size:3.52777767px;line-height:1.25;font-family:'Arial Black';-inkscape-font-specification:'Arial Black, Normal';font-variant-ligatures:normal;font-variant-caps:normal;font-variant-numeric:normal;font-feature-settings:normal;text-align:center;letter-spacing:0px;word-spacing:0px;writing-mode:lr-tb;text-anchor:middle;fill:#ff6600;fill-opacity:1;stroke:none;stroke-width:0.26458332"
       id="text190"
       transform="translate(2.1166667,-0.52916667)">
      <path
         d="m 34.689528,56.6873 h -0.888835 l -0.122301,0.416856 h -0.797539 l 0.949123,-2.525254 h 0.850939 l 0.949124,2.525254 h -0.816488 z m -0.163642,-0.546048 -0.279053,-0.907782 -0.27733,0.907782 z"
         style="fill:#ff6600;stroke-width:0.26458332"
         id="path192"
         inkscape:connector-curvature="0" />
      <path
         d="m 35.884976,54.578902 h 0.728638 l 0.950846,1.396986 v -1.396986 h 0.735528 v 2.525254 H 37.56446 l -0.945679,-1.38665 v 1.38665 h -0.733805 z"
         style="fill:#ff6600;stroke-width:0.26458332"
         id="path194"
         inkscape:connector-curvature="0" />
    </g>
    <g
       aria-label="BO"
       style="font-style:normal;font-variant:normal;font-weight:normal;font-stretch:normal;font-size:3.52777767px;line-height:1.25;font-family:'Arial Black';-inkscape-font-specification:'Arial Black, Normal';font-variant-ligatures:normal;font-variant-caps:normal;font-variant-numeric:normal;font-feature-settings:normal;text-align:center;letter-spacing:0px;word-spacing:0px;writing-mode:lr-tb;text-anchor:middle;fill:#000000;fill-opacity:1;stroke:none;stroke-width:0.26458332"
       id="text213"
       transform="translate(0,1.0583333)">
      <path
         d="m 5.0916787,69.13098 h 1.4607204 q 0.3651801,0 0.559828,0.180867 0.1963705,0.180868 0.1963705,0.447863 0,0.223931 -0.1395264,0.384128 -0.093018,0.106798 -0.2721625,0.16881 0.2721625,0.06546 0.399631,0.225653 0.1291911,0.158475 0.1291911,0.399631 0,0.196371 -0.091295,0.353123 -0.091295,0.156751 -0.2497694,0.248046 -0.098185,0.05684 -0.2962782,0.08268 -0.2635498,0.03445 -0.3496772,0.03445 H 5.0916787 Z m 0.7872043,0.990465 h 0.3393419 q 0.18259,0 0.2532145,-0.06201 0.072347,-0.06373 0.072347,-0.18259 0,-0.110243 -0.072347,-0.172255 -0.070625,-0.06201 -0.2480469,-0.06201 H 5.878883 Z m 0,0.992187 h 0.3979085 q 0.2015381,0 0.2842204,-0.07062 0.082682,-0.07235 0.082682,-0.192926 0,-0.111965 -0.082682,-0.179145 -0.08096,-0.0689 -0.2859429,-0.0689 H 5.878883 Z"
         style="fill:#ff6600;stroke-width:0.26458332"
         id="path253"
         inkscape:connector-curvature="0" />
      <path
         d="m 7.7357895,70.39533 q 0,-0.618395 0.3445095,-0.962904 0.3445096,-0.34451 0.9594591,-0.34451 0.6304524,0 0.9715169,0.339342 0.341064,0.337619 0.341064,0.947401 0,0.442695 -0.149861,0.726915 -0.148139,0.282498 -0.4306371,0.440973 -0.2807753,0.156751 -0.701077,0.156751 -0.4271918,0 -0.7079671,-0.136081 Q 8.0837441,71.427136 7.9097668,71.13258 7.7357895,70.838025 7.7357895,70.39533 Z m 0.7803141,0.0034 q 0,0.382406 0.1412489,0.549493 0.1429715,0.167087 0.3875732,0.167087 0.251492,0 0.3892958,-0.163642 0.1378038,-0.163642 0.1378038,-0.587389 0,-0.356567 -0.144694,-0.520209 -0.1429714,-0.165365 -0.3892958,-0.165365 -0.235989,0 -0.3789605,0.167087 -0.1429714,0.167087 -0.1429714,0.552938 z"
         style="fill:#ff6600;stroke-width:0.26458332"
         id="path255"
         inkscape:connector-curvature="0" />
    </g>
    <g
       aria-label="CP"
       style="font-style:normal;font-variant:normal;font-weight:normal;font-stretch:normal;font-size:3.52777767px;line-height:1.25;font-family:'Arial Black';-inkscape-font-specification:'Arial Black, Normal';font-variant-ligatures:normal;font-variant-caps:normal;font-variant-numeric:normal;font-feature-settings:normal;text-align:center;letter-spacing:0px;word-spacing:0px;writing-mode:lr-tb;text-anchor:middle;fill:#000000;fill-opacity:1;stroke:none;stroke-width:0.26458332"
       id="text217"
       transform="translate(0,1.0583333)">
      <path
         d="m 22.312507,70.624429 0.683851,0.206705 q -0.0689,0.287666 -0.217041,0.480591 -0.148139,0.192926 -0.368625,0.291111 -0.218764,0.09819 -0.558106,0.09819 -0.411689,0 -0.673516,-0.118856 -0.260104,-0.120578 -0.449585,-0.422024 -0.18948,-0.301446 -0.18948,-0.771701 0,-0.627008 0.332452,-0.962905 0.334174,-0.337619 0.943956,-0.337619 0.477146,0 0.749308,0.192925 0.273885,0.192926 0.406521,0.592557 l -0.689019,0.153307 q -0.03617,-0.115411 -0.07579,-0.16881 -0.06546,-0.08957 -0.160197,-0.137804 -0.09474,-0.04823 -0.211873,-0.04823 -0.265272,0 -0.406521,0.213596 -0.106798,0.158474 -0.106798,0.497816 0,0.420302 0.127468,0.577053 0.127469,0.15503 0.35829,0.15503 0.223931,0 0.337619,-0.125746 0.115411,-0.125746 0.167088,-0.36518 z"
         style="fill:#ff6600;stroke-width:0.26458332"
         id="path248"
         inkscape:connector-curvature="0" />
      <path
         d="m 23.371874,69.13098 h 1.297078 q 0.423747,0 0.633897,0.201538 0.211874,0.201538 0.211874,0.573608 0,0.382406 -0.230822,0.597724 -0.229098,0.215319 -0.701076,0.215319 h -0.427192 v 0.937066 h -0.783759 z m 0.783759,1.076592 h 0.191202 q 0.225654,0 0.316949,-0.07752 0.09129,-0.07924 0.09129,-0.201538 0,-0.118855 -0.07924,-0.201538 -0.07924,-0.08268 -0.298001,-0.08268 h -0.222208 z"
         style="fill:#ff6600;stroke-width:0.26458332"
         id="path250"
         inkscape:connector-curvature="0" />
    </g>
    <g
       aria-label="DQ"
       style="font-style:normal;font-variant:normal;font-weight:normal;font-stretch:normal;font-size:3.52777767px;line-height:1.25;font-family:'Arial Black';-inkscape-font-specification:'Arial Black, Normal';font-variant-ligatures:normal;font-variant-caps:normal;font-variant-numeric:normal;font-feature-settings:normal;text-align:center;letter-spacing:0px;word-spacing:0px;writing-mode:lr-tb;text-anchor:middle;fill:#000000;fill-opacity:1;stroke:none;stroke-width:0.26458332"
       id="text221"
       transform="translate(0,1.0583333)">
      <path
         d="m 35.26279,69.13098 h 1.159275 q 0.342786,0 0.552937,0.09302 0.211874,0.09302 0.349677,0.266995 0.137804,0.173978 0.199816,0.404799 0.06201,0.230821 0.06201,0.489204 0,0.404798 -0.09302,0.628729 -0.09129,0.222209 -0.254937,0.373793 -0.163642,0.149862 -0.3514,0.199816 -0.256659,0.0689 -0.465087,0.0689 H 35.26279 Z m 0.780314,0.571886 v 1.37976 h 0.191203 q 0.244602,0 0.347954,-0.0534 0.103353,-0.05512 0.16192,-0.18948 0.05857,-0.136081 0.05857,-0.43925 0,-0.401353 -0.130914,-0.549492 -0.130914,-0.148139 -0.434082,-0.148139 z"
         style="fill:#ff6600;stroke-width:0.26458332"
         id="path243"
         inkscape:connector-curvature="0" />
      <path
         d="m 40.23923,71.28761 q 0.146417,0.10163 0.191203,0.127468 0.06718,0.0379 0.180868,0.08785 l -0.217041,0.437527 q -0.163642,-0.07924 -0.323839,-0.18948 -0.160197,-0.108521 -0.223932,-0.163642 -0.258382,0.111965 -0.647678,0.111965 -0.57533,0 -0.907782,-0.299723 -0.392741,-0.354845 -0.392741,-0.997355 0,-0.623562 0.342787,-0.968072 0.344509,-0.346232 0.961182,-0.346232 0.628729,0 0.969794,0.337619 0.342787,0.33762 0.342787,0.96635 0,0.559828 -0.275608,0.895725 z m -0.597724,-0.399632 q 0.09302,-0.167087 0.09302,-0.499538 0,-0.382406 -0.142972,-0.546048 -0.141249,-0.163642 -0.391018,-0.163642 -0.232544,0 -0.377238,0.167087 -0.144694,0.167087 -0.144694,0.521932 0,0.413412 0.141249,0.580499 0.141249,0.167087 0.387573,0.167087 0.07924,0 0.149862,-0.0155 -0.09819,-0.09474 -0.310059,-0.179145 l 0.122301,-0.280775 q 0.103353,0.01895 0.160197,0.04651 0.05857,0.02756 0.225654,0.144694 0.03962,0.02756 0.08613,0.05684 z"
         style="fill:#ff6600;stroke-width:0.26458332"
         id="path245"
         inkscape:connector-curvature="0" />
    </g>
    <g
       aria-label="ER"
       style="font-style:normal;font-variant:normal;font-weight:normal;font-stretch:normal;font-size:3.52777767px;line-height:1.25;font-family:'Arial Black';-inkscape-font-specification:'Arial Black, Normal';font-variant-ligatures:normal;font-variant-caps:normal;font-variant-numeric:normal;font-feature-settings:normal;text-align:center;letter-spacing:0px;word-spacing:0px;writing-mode:lr-tb;text-anchor:middle;fill:#000000;fill-opacity:1;stroke:none;stroke-width:0.26458332"
       id="text260"
       transform="translate(0,5.2916669)">
      <path
         d="M 5.0853056,80.971083 H 7.1764784 V 81.51024 H 5.8673422 v 0.401354 h 1.2143961 v 0.515042 H 5.8673422 v 0.497816 h 1.3470323 v 0.571886 H 5.0853056 Z"
         style="fill:#ff6600;stroke-width:0.26458332"
         id="path280"
         inkscape:connector-curvature="0" />
      <path
         d="m 7.6450113,83.496338 v -2.525255 h 1.3005235 q 0.3617351,0 0.5529379,0.06201 0.1912027,0.06201 0.308336,0.230821 0.1171332,0.167087 0.1171332,0.408244 0,0.210151 -0.089572,0.363457 -0.089572,0.151585 -0.2463244,0.246325 -0.099908,0.06029 -0.273885,0.09991 0.1395263,0.04651 0.2032606,0.09302 0.043064,0.03101 0.1240234,0.132636 0.082682,0.101631 0.1102431,0.156752 l 0.3772374,0.732083 H 9.2469807 L 8.8301241,82.724637 Q 8.750887,82.574775 8.6888752,82.529989 8.6044704,82.471422 8.4976724,82.471422 h -0.068902 v 1.024916 z m 0.7837592,-1.502062 h 0.3290066 q 0.053399,0 0.2067058,-0.03445 0.077515,-0.0155 0.125746,-0.07924 0.049954,-0.06373 0.049954,-0.146416 0,-0.122301 -0.077515,-0.187758 -0.077515,-0.06546 -0.2911106,-0.06546 h -0.342787 z"
         style="fill:#ff6600;stroke-width:0.26458332"
         id="path282"
         inkscape:connector-curvature="0" />
    </g>
    <g
       aria-label="FS"
       style="font-style:normal;font-variant:normal;font-weight:normal;font-stretch:normal;font-size:3.52777767px;line-height:1.25;font-family:'Arial Black';-inkscape-font-specification:'Arial Black, Normal';font-variant-ligatures:normal;font-variant-caps:normal;font-variant-numeric:normal;font-feature-settings:normal;text-align:center;letter-spacing:0px;word-spacing:0px;writing-mode:lr-tb;text-anchor:middle;fill:#000000;fill-opacity:1;stroke:none;stroke-width:0.26458332"
       id="text264"
       transform="translate(0,5.2916669)">
      <path
         d="m 20.830254,81.03723 h 1.929254 v 0.542602 h -1.145494 v 0.440973 h 0.978407 v 0.509874 h -0.978407 v 1.031806 h -0.78376 z"
         style="fill:#ff6600;stroke-width:0.26458332"
         id="path275"
         inkscape:connector-curvature="0" />
      <path
         d="m 23.043728,82.727049 0.742418,-0.04651 q 0.02412,0.180868 0.09819,0.275608 0.120579,0.153307 0.34451,0.153307 0.167087,0 0.25666,-0.07751 0.0913,-0.07924 0.0913,-0.18259 0,-0.09819 -0.08613,-0.1757 -0.08613,-0.07751 -0.399631,-0.146416 -0.513319,-0.115411 -0.732083,-0.306614 -0.220486,-0.191203 -0.220486,-0.487481 0,-0.194648 0.111966,-0.366903 0.113688,-0.173977 0.339342,-0.272162 0.227376,-0.09991 0.621839,-0.09991 0.484036,0 0.737251,0.180868 0.254937,0.179145 0.303168,0.571885 l -0.735528,0.04306 q -0.02928,-0.170532 -0.124023,-0.248047 -0.09302,-0.07751 -0.258382,-0.07751 -0.136081,0 -0.204983,0.05857 -0.0689,0.05684 -0.0689,0.139527 0,0.06029 0.05684,0.10852 0.05512,0.04995 0.261827,0.09302 0.511597,0.110243 0.732083,0.223931 0.222208,0.111966 0.322116,0.279053 0.101631,0.167087 0.101631,0.373792 0,0.24288 -0.134359,0.447863 -0.134359,0.204983 -0.375516,0.311781 -0.241156,0.105075 -0.608059,0.105075 -0.644233,0 -0.89228,-0.248046 -0.248046,-0.248047 -0.280775,-0.630453 z"
         style="fill:#ff6600;stroke-width:0.26458332"
         id="path277"
         inkscape:connector-curvature="0" />
    </g>
    <g
       aria-label="GT"
       style="font-style:normal;font-variant:normal;font-weight:normal;font-stretch:normal;font-size:3.52777767px;line-height:1.25;font-family:'Arial Black';-inkscape-font-specification:'Arial Black, Normal';font-variant-ligatures:normal;font-variant-caps:normal;font-variant-numeric:normal;font-feature-settings:normal;text-align:center;letter-spacing:0px;word-spacing:0px;writing-mode:lr-tb;text-anchor:middle;fill:#000000;fill-opacity:1;stroke:none;stroke-width:0.26458332"
       id="text268"
       transform="translate(0.52916667,5.2916669)">
      <path
         d="m 36.620157,82.647812 v -0.525377 h 1.205784 v 1.076592 q -0.346232,0.235989 -0.613227,0.322117 -0.265272,0.0844 -0.630453,0.0844 -0.449585,0 -0.733805,-0.153306 -0.282498,-0.153307 -0.43925,-0.456475 -0.155029,-0.303169 -0.155029,-0.69591 0,-0.413411 0.170532,-0.718302 0.170533,-0.306614 0.499539,-0.465088 0.25666,-0.122301 0.690742,-0.122301 0.418579,0 0.625285,0.07579 0.208428,0.07579 0.344509,0.235989 0.137804,0.158475 0.206706,0.403076 l -0.752753,0.134359 q -0.04651,-0.142971 -0.158475,-0.218763 -0.110243,-0.07579 -0.282498,-0.07579 -0.256659,0 -0.409966,0.179145 -0.151584,0.177423 -0.151584,0.563274 0,0.409966 0.153307,0.585666 0.155029,0.1757 0.430636,0.1757 0.130914,0 0.24977,-0.0379 0.118856,-0.0379 0.272162,-0.129192 v -0.237711 z"
         style="fill:#ff6600;stroke-width:0.26458332"
         id="path270"
         inkscape:connector-curvature="0" />
      <path
         d="m 38.111884,81.03723 h 2.371948 v 0.623562 h -0.795817 v 1.901693 h -0.780314 v -1.901693 h -0.795817 z"
         style="fill:#ff6600;stroke-width:0.26458332"
         id="path272"
         inkscape:connector-curvature="0" />
    </g>
    <g
       aria-label="HU"
       style="font-style:normal;font-variant:normal;font-weight:normal;font-stretch:normal;font-size:3.52777767px;line-height:1.25;font-family:'Arial Black';-inkscape-font-specification:'Arial Black, Normal';font-variant-ligatures:normal;font-variant-caps:normal;font-variant-numeric:normal;font-feature-settings:normal;text-align:center;letter-spacing:0px;word-spacing:0px;writing-mode:lr-tb;text-anchor:middle;fill:#000000;fill-opacity:1;stroke:none;stroke-width:0.26458332"
       id="text319"
       transform="translate(0,10.583334)">
      <path
         d="m 4.7314942,91.620566 h 0.7803141 v 0.883667 h 0.8526611 v -0.883667 h 0.7837592 v 2.525255 H 6.3644694 V 93.12435 H 5.5118083 v 1.021471 H 4.7314942 Z"
         style="fill:#ff6600;stroke-width:0.26458332"
         id="path339"
         inkscape:connector-curvature="0" />
      <path
         d="m 9.3100259,91.620566 h 0.7785911 v 1.505506 q 0,0.223932 -0.07062,0.423747 -0.068902,0.198093 -0.2187635,0.347955 -0.1481391,0.148139 -0.3117812,0.208428 -0.2273762,0.08441 -0.5460476,0.08441 -0.1843126,0 -0.4030761,-0.02584 Q 8.3212836,94.13893 8.174867,94.063138 8.0284505,93.985624 7.9061496,93.844375 7.7855712,93.703126 7.740785,93.553264 7.668438,93.312108 7.668438,93.126072 v -1.505506 h 0.7785915 v 1.54168 q 0,0.206706 0.1136882,0.323839 0.1154107,0.115411 0.3186713,0.115411 0.2015381,0 0.3152262,-0.113689 0.1154107,-0.11541 0.1154107,-0.325561 z"
         style="fill:#ff6600;stroke-width:0.26458332"
         id="path341"
         inkscape:connector-curvature="0" />
    </g>
    <g
       aria-label="IV"
       style="font-style:normal;font-variant:normal;font-weight:normal;font-stretch:normal;font-size:3.52777767px;line-height:1.25;font-family:'Arial Black';-inkscape-font-specification:'Arial Black, Normal';font-variant-ligatures:normal;font-variant-caps:normal;font-variant-numeric:normal;font-feature-settings:normal;text-align:center;letter-spacing:0px;word-spacing:0px;writing-mode:lr-tb;text-anchor:middle;fill:#000000;fill-opacity:1;stroke:none;stroke-width:0.26458332"
       id="text323"
       transform="translate(0,10.583334)">
      <path
         d="m 21.249695,91.620566 h 0.782036 v 2.525255 h -0.782036 z"
         style="fill:#ff6600;stroke-width:0.26458332"
         id="path334"
         inkscape:connector-curvature="0" />
      <path
         d="m 22.34179,91.620566 h 0.816488 l 0.56844,1.817288 0.559828,-1.817288 h 0.792372 l -0.937066,2.525255 h -0.845771 z"
         style="fill:#ff6600;stroke-width:0.26458332"
         id="path336"
         inkscape:connector-curvature="0" />
    </g>
    <g
       aria-label="JW"
       style="font-style:normal;font-variant:normal;font-weight:normal;font-stretch:normal;font-size:3.52777767px;line-height:1.25;font-family:'Arial Black';-inkscape-font-specification:'Arial Black, Normal';font-variant-ligatures:normal;font-variant-caps:normal;font-variant-numeric:normal;font-feature-settings:normal;text-align:center;letter-spacing:0px;word-spacing:0px;writing-mode:lr-tb;text-anchor:middle;fill:#000000;fill-opacity:1;stroke:none;stroke-width:0.26458332"
       id="text327"
       transform="translate(0,10.583334)">
      <path
         d="m 36.733329,91.620566 h 0.782037 v 1.37287 q 0,0.43236 -0.07751,0.658013 -0.07579,0.225654 -0.308336,0.382406 -0.230821,0.156752 -0.592556,0.156752 -0.382406,0 -0.592556,-0.103353 -0.210151,-0.103353 -0.325562,-0.301446 -0.113688,-0.199815 -0.134359,-0.492648 l 0.745863,-0.101631 q 0.0017,0.167087 0.02928,0.248047 0.02756,0.08096 0.09302,0.130914 0.04479,0.03273 0.127469,0.03273 0.130914,0 0.191203,-0.09646 0.06201,-0.09819 0.06201,-0.329006 z"
         style="fill:#ff6600;stroke-width:0.26458332"
         id="path329"
         inkscape:connector-curvature="0" />
      <path
         d="m 37.775471,91.620566 h 0.740695 l 0.266995,1.410766 0.389296,-1.410766 h 0.738973 l 0.391018,1.410766 0.266995,-1.410766 h 0.737251 l -0.556383,2.525255 h -0.764812 l -0.442694,-1.589912 -0.440973,1.589912 h -0.764811 z"
         style="fill:#ff6600;stroke-width:0.26458332"
         id="path331"
         inkscape:connector-curvature="0" />
    </g>
    <g
       aria-label="KX"
       style="font-style:normal;font-variant:normal;font-weight:normal;font-stretch:normal;font-size:3.52777767px;line-height:1.25;font-family:'Arial Black';-inkscape-font-specification:'Arial Black, Normal';font-variant-ligatures:normal;font-variant-caps:normal;font-variant-numeric:normal;font-feature-settings:normal;text-align:center;letter-spacing:0px;word-spacing:0px;writing-mode:lr-tb;text-anchor:middle;fill:#000000;fill-opacity:1;stroke:none;stroke-width:0.26458332"
       id="text346"
       transform="translate(0,12.700002)">
      <path
         d="m 4.7626718,106.2388 h 0.7803141 v 0.95429 L 6.361196,106.2388 h 1.0369737 l -0.9198404,0.95257 0.9611816,1.57268 H 6.4783293 l -0.5322673,-1.03869 -0.4030761,0.42202 v 0.61667 H 4.7626718 Z"
         style="fill:#ff6600;stroke-width:0.26458332"
         id="path366"
         inkscape:connector-curvature="0" />
      <path
         d="M 7.5239157,106.2388 H 8.383467 l 0.4478624,0.77687 0.434082,-0.77687 H 10.11635 l -0.7854818,1.22301 0.8595518,1.30224 H 9.3136427 l -0.4978162,-0.81132 -0.4995389,0.81132 H 7.4446785 l 0.8716091,-1.31602 z"
         style="fill:#ff6600;stroke-width:0.26458332"
         id="path368"
         inkscape:connector-curvature="0" />
    </g>
    <g
       aria-label="LY"
       style="font-style:normal;font-variant:normal;font-weight:normal;font-stretch:normal;font-size:3.52777767px;line-height:1.25;font-family:'Arial Black';-inkscape-font-specification:'Arial Black, Normal';font-variant-ligatures:normal;font-variant-caps:normal;font-variant-numeric:normal;font-feature-settings:normal;text-align:center;letter-spacing:0px;word-spacing:0px;writing-mode:lr-tb;text-anchor:middle;fill:#000000;fill-opacity:1;stroke:none;stroke-width:0.26458332"
       id="text350"
       transform="translate(0,12.700002)">
      <path
         d="m 20.864705,106.17264 h 0.780314 v 1.90342 h 1.217842 v 0.62184 h -1.998156 z"
         style="fill:#ff6600;stroke-width:0.26458332"
         id="path361"
         inkscape:connector-curvature="0" />
      <path
         d="m 22.690606,106.17264 h 0.866441 l 0.509875,0.85267 0.509874,-0.85267 h 0.861273 l -0.981852,1.46761 v 1.05765 h -0.782036 v -1.05765 z"
         style="fill:#ff6600;stroke-width:0.26458332"
         id="path363"
         inkscape:connector-curvature="0" />
    </g>
    <g
       aria-label="MZ"
       style="font-style:normal;font-variant:normal;font-weight:normal;font-stretch:normal;font-size:3.52777767px;line-height:1.25;font-family:'Arial Black';-inkscape-font-specification:'Arial Black, Normal';font-variant-ligatures:normal;font-variant-caps:normal;font-variant-numeric:normal;font-feature-settings:normal;text-align:center;letter-spacing:0px;word-spacing:0px;writing-mode:lr-tb;text-anchor:middle;fill:#000000;fill-opacity:1;stroke:none;stroke-width:0.26458332"
       id="text354"
       transform="translate(0,12.700002)">
      <path
         d="m 35.675685,106.17264 h 1.026639 l 0.396186,1.53652 0.394463,-1.53652 h 1.023193 v 2.52526 h -0.637342 v -1.92581 l -0.494372,1.92581 h -0.577053 l -0.492649,-1.92581 v 1.92581 h -0.639065 z"
         style="fill:#ff6600;stroke-width:0.26458332"
         id="path356"
         inkscape:connector-curvature="0" />
      <path
         d="m 38.950248,106.17264 h 2.208306 v 0.50471 l -1.415934,1.47795 h 1.467611 v 0.5426 h -2.396064 v -0.52366 l 1.400431,-1.46244 h -1.26435 z"
         style="fill:#ff6600;stroke-width:0.26458332"
         id="path358"
         inkscape:connector-curvature="0" />
    </g>
  </g>
  <g
     inkscape:groupmode="layer"
     id="layer4"
     inkscape:label="graphics"
     transform="translate(0,28.00003)"
     style="display:inline">
    <text
       xml:space="preserve"
       style="font-style:normal;font-variant:normal;font-weight:normal;font-stretch:normal;font-size:4.58611107px;line-height:1.25;font-family:'Arial Black';-inkscape-font-specification:'Arial Black, Normal';font-variant-ligatures:normal;font-variant-caps:normal;font-variant-numeric:normal;text-align:center;letter-spacing:0px;word-spacing:0px;writing-mode:lr-tb;text-anchor:middle;fill:#000000;fill-opacity:1;stroke:none;stroke-width:0.26458332"
       x="11.90625"
       y="-21.166708"
       id="text115"><tspan
         sodipodi:role="line"
         id="tspan113"
         x="11.90625"
         y="-17.054897"
         style="stroke-width:0.26458332" /></text>
    <g
       aria-label="KRT"
       style="font-style:normal;font-variant:normal;font-weight:normal;font-stretch:normal;font-size:3.52777767px;line-height:1.25;font-family:'Arial Black';-inkscape-font-specification:'Arial Black, Normal';font-variant-ligatures:normal;font-variant-caps:normal;font-variant-numeric:normal;font-feature-settings:normal;text-align:center;letter-spacing:0px;word-spacing:0px;writing-mode:lr-tb;text-anchor:middle;fill:#000000;fill-opacity:1;stroke:none;stroke-width:0.26458332"
       id="text123"
       transform="translate(-12.170835,-117.47517)">
      <path
         d="m 14.418414,95.635115 h 0.780314 v 0.954291 l 0.81821,-0.954291 h 1.036974 l -0.91984,0.952569 0.961181,1.572686 h -0.961181 l -0.532268,-1.038696 -0.403076,0.422024 v 0.616672 h -0.780314 z"
         style="fill:#f9f9f9;stroke-width:0.26458332"
         id="path227"
         inkscape:connector-curvature="0" />
      <path
         d="m 17.363971,98.16037 v -2.525255 h 1.300523 q 0.361735,0 0.552938,0.06201 0.191203,0.06201 0.308336,0.230821 0.117133,0.167087 0.117133,0.408244 0,0.210151 -0.08957,0.363457 -0.08957,0.151585 -0.246325,0.246325 -0.09991,0.06029 -0.273885,0.09991 0.139527,0.04651 0.203261,0.09302 0.04306,0.03101 0.124023,0.132636 0.08268,0.101631 0.110243,0.156752 l 0.377238,0.732083 H 18.96594 l -0.416857,-0.771701 q -0.07924,-0.149862 -0.141248,-0.194648 -0.08441,-0.05857 -0.191203,-0.05857 h -0.0689 v 1.024916 z m 0.783759,-1.502062 h 0.329006 q 0.0534,0 0.206706,-0.03445 0.07752,-0.0155 0.125746,-0.07924 0.04995,-0.06373 0.04995,-0.146416 0,-0.122301 -0.07751,-0.187758 -0.07751,-0.06546 -0.29111,-0.06546 H 18.14773 Z"
         style="fill:#f9f9f9;stroke-width:0.26458332"
         id="path229"
         inkscape:connector-curvature="0" />
      <path
         d="m 19.889226,95.635115 h 2.371948 v 0.623562 h -0.795817 v 1.901693 h -0.780314 v -1.901693 h -0.795817 z"
         style="fill:#f9f9f9;stroke-width:0.26458332"
         id="path231"
         inkscape:connector-curvature="0" />
    </g>
    <g
       aria-label="Ω"
       style="font-style:normal;font-variant:normal;font-weight:normal;font-stretch:normal;font-size:3.52777767px;line-height:1.25;font-family:'Arial Black';-inkscape-font-specification:'Arial Black, Normal';font-variant-ligatures:normal;font-variant-caps:normal;font-variant-numeric:normal;font-feature-settings:normal;text-align:center;letter-spacing:0px;word-spacing:0px;writing-mode:lr-tb;text-anchor:middle;fill:#000000;fill-opacity:1;stroke:none;stroke-width:0.26458332"
       id="text107"
       transform="matrix(2.52226,0,0,2.4814703,-16.867486,28.084873)">
      <path
         d="m 11.722616,-19.864116 q -0.146417,-0.10852 -0.272163,-0.360012 -0.124023,-0.253215 -0.124023,-0.504707 0,-0.532267 0.337619,-0.842325 0.339342,-0.311781 0.964627,-0.311781 0.645955,0 0.978407,0.298 0.334174,0.298001 0.334174,0.856106 0,0.251492 -0.125746,0.504707 -0.124023,0.251492 -0.27044,0.360012 h 0.373793 v 0.549493 H 12.78026 v -0.549493 q 0.380683,-0.266994 0.380683,-0.813042 0,-0.620117 -0.532267,-0.620117 -0.25666,0 -0.389296,0.165364 -0.132636,0.165365 -0.132636,0.454753 0,0.511597 0.380683,0.813042 v 0.549493 H 11.3471 v -0.549493 z"
         style="stroke-width:0.26458332"
         id="path109"
         inkscape:connector-curvature="0" />
    </g>
  </g>
</svg>
