<?xml version="1.0" encoding="UTF-8" standalone="no"?>
<!-- Created with Inkscape (http://www.inkscape.org/) -->

<svg
   xmlns:dc="http://purl.org/dc/elements/1.1/"
   xmlns:cc="http://creativecommons.org/ns#"
   xmlns:rdf="http://www.w3.org/1999/02/22-rdf-syntax-ns#"
   xmlns:svg="http://www.w3.org/2000/svg"
   xmlns="http://www.w3.org/2000/svg"
   xmlns:sodipodi="http://sodipodi.sourceforge.net/DTD/sodipodi-0.dtd"
   xmlns:inkscape="http://www.inkscape.org/namespaces/inkscape"
   width="25.4mm"
   height="128.54166mm"
   viewBox="0 0 25.4 128.5417"
   version="1.1"
   id="svg4541"
   sodipodi:docname="Q.svg"
   inkscape:version="0.92.5 (2060ec1f9f, 2020-04-08)">
  <defs
     id="defs4535" />
  <sodipodi:namedview
     id="base"
     pagecolor="#ffffff"
     bordercolor="#666666"
     borderopacity="1.0"
     inkscape:pageopacity="0.0"
     inkscape:pageshadow="2"
     inkscape:zoom="4"
     inkscape:cx="90.550218"
     inkscape:cy="176.17967"
     inkscape:document-units="mm"
     inkscape:current-layer="layer4"
     showgrid="true"
     fit-margin-top="0"
     fit-margin-left="0"
     fit-margin-right="0"
     fit-margin-bottom="0"
     inkscape:window-width="1600"
     inkscape:window-height="845"
     inkscape:window-x="0"
     inkscape:window-y="0"
     inkscape:window-maximized="1"
     units="mm">
    <inkscape:grid
       type="xygrid"
       id="grid76" />
  </sodipodi:namedview>
  <metadata
     id="metadata4538">
    <rdf:RDF>
      <cc:Work
         rdf:about="">
        <dc:format>image/svg+xml</dc:format>
        <dc:type
           rdf:resource="http://purl.org/dc/dcmitype/StillImage" />
        <dc:title />
      </cc:Work>
    </rdf:RDF>
  </metadata>
  <g
     inkscape:groupmode="layer"
     id="layer1"
     inkscape:label="Background"
     style="display:inline;opacity:1">
    <rect
       style="fill:#008000;stroke-width:0.27736092"
       id="rect111"
       width="25.466146"
       height="128.32292"
       x="0"
       y="0.21873982" />
    <g
       aria-label="IN"
       style="font-style:normal;font-variant:normal;font-weight:normal;font-stretch:normal;font-size:3.52777767px;line-height:1.25;font-family:'Arial Black';-inkscape-font-specification:'Arial Black, Normal';font-variant-ligatures:normal;font-variant-caps:normal;font-variant-numeric:normal;font-feature-settings:normal;text-align:center;letter-spacing:0px;word-spacing:0px;writing-mode:lr-tb;text-anchor:middle;fill:#000000;fill-opacity:1;stroke:none;stroke-width:0.26458332"
       id="text409">
      <path
         d="m 4.4836195,119.13721 h 0.7820366 v 2.52526 H 4.4836195 Z"
         style="fill:#00ff00;stroke-width:0.26458332"
         id="path444" />
      <path
         d="m 5.8306518,119.13721 h 0.7286377 l 0.9508463,1.39699 v -1.39699 h 0.7355279 v 2.52526 H 7.5101358 l -0.9456787,-1.38665 v 1.38665 H 5.8306518 Z"
         style="fill:#00ff00;stroke-width:0.26458332"
         id="path446" />
    </g>
    <g
       aria-label="OUT"
       style="font-style:normal;font-variant:normal;font-weight:normal;font-stretch:normal;font-size:3.52777767px;line-height:1.25;font-family:'Arial Black';-inkscape-font-specification:'Arial Black, Normal';font-variant-ligatures:normal;font-variant-caps:normal;font-variant-numeric:normal;font-feature-settings:normal;text-align:center;letter-spacing:0px;word-spacing:0px;writing-mode:lr-tb;text-anchor:middle;fill:#000000;fill-opacity:1;stroke:none;stroke-width:0.26458332"
       id="text413">
      <path
         d="m 15.262289,120.40156 q 0,-0.61839 0.34451,-0.9629 0.344509,-0.34451 0.959459,-0.34451 0.630452,0 0.971517,0.33934 0.341064,0.33762 0.341064,0.9474 0,0.4427 -0.149861,0.72692 -0.148139,0.2825 -0.430637,0.44097 -0.280776,0.15675 -0.701077,0.15675 -0.427192,0 -0.707967,-0.13608 -0.279053,-0.13608 -0.45303,-0.43064 -0.173978,-0.29455 -0.173978,-0.73725 z m 0.780314,0.003 q 0,0.3824 0.141249,0.54949 0.142972,0.16709 0.387574,0.16709 0.251492,0 0.389295,-0.16364 0.137804,-0.16365 0.137804,-0.58739 0,-0.35657 -0.144694,-0.52021 -0.142971,-0.16537 -0.389296,-0.16537 -0.235989,0 -0.37896,0.16709 -0.142972,0.16709 -0.142972,0.55294 z"
         style="fill:#ff6600;stroke-width:0.26458332"
         id="path437" />
      <path
         d="m 19.942451,119.13721 h 0.778592 v 1.50551 q 0,0.22393 -0.07062,0.42375 -0.0689,0.19809 -0.218764,0.34795 -0.148139,0.14814 -0.311781,0.20843 -0.227376,0.0844 -0.546048,0.0844 -0.184312,0 -0.403076,-0.0258 -0.217041,-0.0258 -0.363457,-0.10163 -0.146417,-0.0775 -0.268718,-0.21877 -0.120578,-0.14125 -0.165365,-0.29111 -0.07235,-0.24116 -0.07235,-0.42719 v -1.50551 h 0.778592 v 1.54168 q 0,0.20671 0.113688,0.32384 0.115411,0.11541 0.318672,0.11541 0.201538,0 0.315226,-0.11369 0.11541,-0.11541 0.11541,-0.32556 z"
         style="fill:#ff6600;stroke-width:0.26458332"
         id="path439" />
      <path
         d="m 21.060385,119.13721 h 2.371948 v 0.62357 h -0.795817 v 1.90169 h -0.780314 v -1.90169 h -0.795817 z"
         style="fill:#ff6600;stroke-width:0.26458332"
         id="path441" />
    </g>
  </g>
  <g
     inkscape:groupmode="layer"
     id="layer4"
     inkscape:label="graphics"
     transform="translate(0,28.00003)"
     style="display:inline">
    <text
       xml:space="preserve"
       style="font-style:normal;font-variant:normal;font-weight:normal;font-stretch:normal;font-size:4.58611107px;line-height:1.25;font-family:'Arial Black';-inkscape-font-specification:'Arial Black, Normal';font-variant-ligatures:normal;font-variant-caps:normal;font-variant-numeric:normal;text-align:center;letter-spacing:0px;word-spacing:0px;writing-mode:lr-tb;text-anchor:middle;fill:#000000;fill-opacity:1;stroke:none;stroke-width:0.26458332"
       x="11.90625"
       y="-21.166708"
       id="text115"><tspan
         sodipodi:role="line"
         id="tspan113"
         x="11.90625"
         y="-17.054897"
         style="stroke-width:0.26458332" /></text>
    <g
       aria-label="KRT"
       style="font-style:normal;font-variant:normal;font-weight:normal;font-stretch:normal;font-size:3.52777767px;line-height:1.25;font-family:'Arial Black';-inkscape-font-specification:'Arial Black, Normal';font-variant-ligatures:normal;font-variant-caps:normal;font-variant-numeric:normal;font-feature-settings:normal;text-align:center;letter-spacing:0px;word-spacing:0px;writing-mode:lr-tb;text-anchor:middle;fill:#000000;fill-opacity:1;stroke:none;stroke-width:0.26458332"
       id="text123"
       transform="translate(-12.170835,-117.47517)">
      <path
         d="m 14.418414,95.635115 h 0.780314 v 0.954291 l 0.81821,-0.954291 h 1.036974 l -0.91984,0.952569 0.961181,1.572686 h -0.961181 l -0.532268,-1.038696 -0.403076,0.422024 v 0.616672 h -0.780314 z"
         style="fill:#f9f9f9;stroke-width:0.26458332"
         id="path227"
         inkscape:connector-curvature="0" />
      <path
         d="m 17.363971,98.16037 v -2.525255 h 1.300523 q 0.361735,0 0.552938,0.06201 0.191203,0.06201 0.308336,0.230821 0.117133,0.167087 0.117133,0.408244 0,0.210151 -0.08957,0.363457 -0.08957,0.151585 -0.246325,0.246325 -0.09991,0.06029 -0.273885,0.09991 0.139527,0.04651 0.203261,0.09302 0.04306,0.03101 0.124023,0.132636 0.08268,0.101631 0.110243,0.156752 l 0.377238,0.732083 H 18.96594 l -0.416857,-0.771701 q -0.07924,-0.149862 -0.141248,-0.194648 -0.08441,-0.05857 -0.191203,-0.05857 h -0.0689 v 1.024916 z m 0.783759,-1.502062 h 0.329006 q 0.0534,0 0.206706,-0.03445 0.07752,-0.0155 0.125746,-0.07924 0.04995,-0.06373 0.04995,-0.146416 0,-0.122301 -0.07751,-0.187758 -0.07751,-0.06546 -0.29111,-0.06546 H 18.14773 Z"
         style="fill:#f9f9f9;stroke-width:0.26458332"
         id="path229"
         inkscape:connector-curvature="0" />
      <path
         d="m 19.889226,95.635115 h 2.371948 v 0.623562 h -0.795817 v 1.901693 h -0.780314 v -1.901693 h -0.795817 z"
         style="fill:#f9f9f9;stroke-width:0.26458332"
         id="path231"
         inkscape:connector-curvature="0" />
    </g>
    <g
       aria-label="Ω"
       style="font-style:normal;font-variant:normal;font-weight:normal;font-stretch:normal;font-size:3.52777767px;line-height:1.25;font-family:'Arial Black';-inkscape-font-specification:'Arial Black, Normal';font-variant-ligatures:normal;font-variant-caps:normal;font-variant-numeric:normal;font-feature-settings:normal;text-align:center;letter-spacing:0px;word-spacing:0px;writing-mode:lr-tb;text-anchor:middle;fill:#000000;fill-opacity:1;stroke:none;stroke-width:0.26458332"
       id="text107"
       transform="matrix(2.52226,0,0,2.4814703,-16.867486,28.084873)" />
    <g
       aria-label="Q"
       transform="scale(1.2473751,0.80168346)"
       style="font-style:normal;font-variant:normal;font-weight:normal;font-stretch:normal;font-size:5.93105793px;line-height:1.25;font-family:'Arial Black';-inkscape-font-specification:'Arial Black, Normal';font-variant-ligatures:normal;font-variant-caps:normal;font-variant-numeric:normal;font-feature-settings:normal;text-align:center;letter-spacing:0px;word-spacing:0px;writing-mode:lr-tb;text-anchor:middle;fill:#000000;fill-opacity:1;stroke:none;stroke-width:0.44482931"
       id="text226">
      <path
         d="m 17.256776,-24.58812 q 0.246162,0.170866 0.321459,0.214306 0.112945,0.06371 0.304082,0.147697 l -0.364899,0.735591 q -0.275122,-0.133218 -0.544452,-0.318563 -0.269331,-0.18245 -0.376483,-0.275122 -0.434404,0.188241 -1.088906,0.188241 -0.967272,0 -1.526204,-0.503908 -0.660294,-0.596581 -0.660294,-1.676798 0,-1.048361 0.576309,-1.627566 0.579205,-0.582101 1.615981,-0.582101 1.057049,0 1.630462,0.567621 0.576309,0.567621 0.576309,1.62467 0,0.941208 -0.463364,1.505932 z m -1.00492,-0.671877 q 0.156385,-0.280915 0.156385,-0.839847 0,-0.642918 -0.24037,-0.91804 -0.237474,-0.275122 -0.657398,-0.275122 -0.390963,0 -0.634229,0.280914 -0.243266,0.280914 -0.243266,0.877495 0,0.695046 0.237474,0.975961 0.237474,0.280914 0.651606,0.280914 0.133217,0 0.251954,-0.02606 -0.165074,-0.159282 -0.521285,-0.301187 l 0.205618,-0.472052 q 0.173761,0.03186 0.26933,0.07819 0.09847,0.04634 0.379379,0.243266 0.06661,0.04634 0.144802,0.09557 z"
         style="stroke-width:0.44482931"
         id="path228" />
    </g>
    <g
       aria-label="OM"
       style="font-style:normal;font-variant:normal;font-weight:normal;font-stretch:normal;font-size:3.52777767px;line-height:1.25;font-family:'Arial Black';-inkscape-font-specification:'Arial Black, Normal';font-variant-ligatures:normal;font-variant-caps:normal;font-variant-numeric:normal;font-feature-settings:normal;text-align:center;letter-spacing:0px;word-spacing:0px;writing-mode:lr-tb;text-anchor:middle;fill:#000000;fill-opacity:1;stroke:none;stroke-width:0.26458332"
       id="text84">
      <path
         d="m 3.0452923,-4.6343819 q 0,-0.6183946 0.3445095,-0.9629042 0.3445096,-0.3445095 0.9594591,-0.3445095 0.6304525,0 0.9715169,0.3393419 0.3410645,0.3376194 0.3410645,0.9474012 0,0.4426948 -0.1498617,0.7269152 -0.1481391,0.2824978 -0.4306369,0.4409722 -0.2807753,0.1567518 -0.7010769,0.1567518 -0.4271919,0 -0.7079671,-0.1360813 Q 3.3932469,-3.6025758 3.2192696,-3.8971315 3.0452923,-4.1916871 3.0452923,-4.6343819 Z m 0.7803141,0.00345 q 0,0.3824056 0.1412489,0.5494927 0.1429715,0.1670871 0.3875733,0.1670871 0.2514919,0 0.3892957,-0.163642 0.1378038,-0.163642 0.1378038,-0.5873888 0,-0.3565673 -0.144694,-0.5202094 -0.1429714,-0.1653645 -0.3892957,-0.1653645 -0.2359891,0 -0.3789605,0.1670871 -0.1429715,0.1670871 -0.1429715,0.5529378 z"
         style="fill:#ffff00;stroke-width:0.26458332"
         id="path217" />
      <path
         d="m 6.0735311,-5.8987319 h 1.0266385 l 0.3961859,1.5365125 0.3944634,-1.5365125 H 8.9140123 V -3.373477 H 8.2766696 V -5.2992853 L 7.7822984,-3.373477 H 7.205245 L 6.7125963,-5.2992853 V -3.373477 H 6.0735311 Z"
         style="fill:#ffff00;stroke-width:0.26458332"
         id="path219" />
    </g>
    <g
       aria-label="SING"
       style="font-style:normal;font-variant:normal;font-weight:normal;font-stretch:normal;font-size:3.52777767px;line-height:1.25;font-family:'Arial Black';-inkscape-font-specification:'Arial Black, Normal';font-variant-ligatures:normal;font-variant-caps:normal;font-variant-numeric:normal;font-feature-settings:normal;text-align:center;letter-spacing:0px;word-spacing:0px;writing-mode:lr-tb;text-anchor:middle;fill:#000000;fill-opacity:1;stroke:none;stroke-width:0.26458332"
       id="text100">
      <path
         d="m 14.141075,-4.2750585 0.742418,-0.046509 q 0.02412,0.1808675 0.09819,0.2756076 0.120579,0.1533068 0.34451,0.1533068 0.167087,0 0.256659,-0.077515 0.0913,-0.079237 0.0913,-0.18259 0,-0.098185 -0.08613,-0.1756999 -0.08613,-0.077515 -0.399631,-0.1464165 -0.513319,-0.1154107 -0.732083,-0.3066135 -0.220486,-0.1912028 -0.220486,-0.487481 0,-0.1946479 0.111966,-0.3669027 0.113688,-0.1739773 0.339342,-0.2721625 0.227376,-0.099908 0.621839,-0.099908 0.484036,0 0.737251,0.1808675 0.254937,0.179145 0.303168,0.5718859 l -0.735528,0.043064 q -0.02928,-0.1705322 -0.124023,-0.2480468 -0.09302,-0.077515 -0.258382,-0.077515 -0.136082,0 -0.204983,0.058567 -0.0689,0.056844 -0.0689,0.1395263 0,0.060289 0.05684,0.1085205 0.05512,0.049954 0.261827,0.093018 0.511597,0.110243 0.732083,0.2239312 0.222208,0.1119656 0.322116,0.2790527 0.10163,0.1670871 0.10163,0.3737929 0,0.2428792 -0.134358,0.4478624 -0.134359,0.2049831 -0.375516,0.3117811 -0.241156,0.1050754 -0.608059,0.1050754 -0.644233,0 -0.89228,-0.2480469 -0.248047,-0.2480468 -0.280775,-0.6304524 z"
         style="fill:#ffff00;stroke-width:0.26458332"
         id="path208" />
      <path
         d="m 16.85581,-5.9648778 h 0.782037 v 2.5252549 H 16.85581 Z"
         style="fill:#ffff00;stroke-width:0.26458332"
         id="path210" />
      <path
         d="m 18.202842,-5.9648778 h 0.728638 l 0.950846,1.3969862 v -1.3969862 h 0.735528 v 2.5252549 h -0.735528 l -0.945678,-1.3866509 v 1.3866509 h -0.733806 z"
         style="fill:#ffff00;stroke-width:0.26458332"
         id="path212" />
      <path
         d="m 22.405859,-4.3542957 v -0.525377 h 1.205783 v 1.0765923 q -0.346232,0.235989 -0.613227,0.3221164 -0.265272,0.084405 -0.630452,0.084405 -0.449585,0 -0.733806,-0.1533067 -0.282497,-0.1533068 -0.439249,-0.4564752 -0.15503,-0.3031684 -0.15503,-0.6959092 0,-0.4134115 0.170533,-0.7183024 0.170532,-0.3066135 0.499538,-0.4650879 0.25666,-0.1223009 0.690742,-0.1223009 0.418579,0 0.625285,0.075792 0.208428,0.075792 0.344509,0.235989 0.137804,0.1584744 0.206706,0.4030762 l -0.752753,0.1343587 q -0.04651,-0.1429714 -0.158475,-0.2187635 -0.110243,-0.075792 -0.282497,-0.075792 -0.25666,0 -0.409967,0.1791449 -0.151584,0.1774224 -0.151584,0.5632731 0,0.4099664 0.153307,0.5856662 0.155029,0.1756999 0.430637,0.1756999 0.130913,0 0.249769,-0.037896 0.118856,-0.037896 0.272163,-0.1291911 v -0.2377116 z"
         style="fill:#ffff00;stroke-width:0.26458332"
         id="path214" />
    </g>
    <g
       aria-label="PLK"
       style="font-style:normal;font-variant:normal;font-weight:normal;font-stretch:normal;font-size:3.52777767px;line-height:1.25;font-family:'Arial Black';-inkscape-font-specification:'Arial Black, Normal';font-variant-ligatures:normal;font-variant-caps:normal;font-variant-numeric:normal;font-feature-settings:normal;text-align:center;letter-spacing:0px;word-spacing:0px;writing-mode:lr-tb;text-anchor:middle;fill:#000000;fill-opacity:1;stroke:none;stroke-width:0.26458332"
       id="text116">
      <path
         d="M 2.4206966,10.174705 H 3.717775 q 0.4237467,0 0.6338975,0.201538 0.2118734,0.201538 0.2118734,0.573608 0,0.382406 -0.2308214,0.597724 -0.2290988,0.215319 -0.7010769,0.215319 H 3.2044558 V 12.69996 H 2.4206966 Z m 0.7837592,1.076592 h 0.1912028 q 0.2256537,0 0.3169487,-0.07751 0.091295,-0.07924 0.091295,-0.201539 0,-0.118855 -0.079237,-0.201538 -0.079237,-0.08268 -0.2980008,-0.08268 H 3.2044558 Z"
         style="fill:#ffff00;stroke-width:0.26458332"
         id="path201" />
      <path
         d="M 4.9717896,10.174705 H 5.7521037 V 12.07812 H 6.969945 v 0.62184 H 4.9717896 Z"
         style="fill:#ffff00;stroke-width:0.26458332"
         id="path203" />
      <path
         d="M 7.3282349,10.174705 H 8.108549 v 0.954291 L 8.9267591,10.174705 H 9.9637329 L 9.0438924,11.127274 10.005074,12.69996 H 9.0438924 L 8.5116252,11.661263 8.108549,12.083288 V 12.69996 H 7.3282349 Z"
         style="fill:#ffff00;stroke-width:0.26458332"
         id="path205" />
    </g>
    <g
       aria-label="NTN"
       style="font-style:normal;font-variant:normal;font-weight:normal;font-stretch:normal;font-size:3.52777767px;line-height:1.25;font-family:'Arial Black';-inkscape-font-specification:'Arial Black, Normal';font-variant-ligatures:normal;font-variant-caps:normal;font-variant-numeric:normal;font-feature-settings:normal;text-align:center;letter-spacing:0px;word-spacing:0px;writing-mode:lr-tb;text-anchor:middle;fill:#000000;fill-opacity:1;stroke:none;stroke-width:0.26458332"
       id="text132">
      <path
         d="m 15.365637,10.174705 h 0.728637 l 0.950847,1.396986 v -1.396986 h 0.735527 v 2.525255 h -0.735527 l -0.945679,-1.386651 v 1.386651 h -0.733805 z"
         style="fill:#ffff00;stroke-width:0.26458332"
         id="path194" />
      <path
         d="m 18.121713,10.174705 h 2.371948 v 0.623562 H 19.697844 V 12.69996 H 18.91753 v -1.901693 h -0.795817 z"
         style="fill:#ffff00;stroke-width:0.26458332"
         id="path196" />
      <path
         d="m 20.851951,10.174705 h 0.728637 l 0.950847,1.396986 v -1.396986 h 0.735528 v 2.525255 h -0.735528 l -0.945679,-1.386651 v 1.386651 h -0.733805 z"
         style="fill:#ffff00;stroke-width:0.26458332"
         id="path198" />
    </g>
    <g
       aria-label="MASS"
       style="font-style:normal;font-variant:normal;font-weight:normal;font-stretch:normal;font-size:3.52777767px;line-height:1.25;font-family:'Arial Black';-inkscape-font-specification:'Arial Black, Normal';font-variant-ligatures:normal;font-variant-caps:normal;font-variant-numeric:normal;font-feature-settings:normal;text-align:center;letter-spacing:0px;word-spacing:0px;writing-mode:lr-tb;text-anchor:middle;fill:#000000;fill-opacity:1;stroke:none;stroke-width:0.26458332"
       id="text148">
      <path
         d="m 1.2798533,25.785124 h 1.0266384 l 0.396186,1.536513 0.3944634,-1.536513 h 1.0231933 v 2.525255 H 3.4829918 V 26.384571 L 2.9886206,28.310379 H 2.4115671 L 1.9189185,26.384571 v 1.925808 H 1.2798533 Z"
         style="fill:#ffff00;stroke-width:0.26458332"
         id="path185" />
      <path
         d="M 6.1718888,27.893522 H 5.2830542 L 5.1607533,28.310379 H 4.3632137 L 5.3123375,25.785124 H 6.163276 l 0.9491238,2.525255 H 6.2959122 Z M 6.0082468,27.347475 5.729194,26.439692 5.4518638,27.347475 Z"
         style="fill:#ffff00;stroke-width:0.26458332"
         id="path187" />
      <path
         d="m 7.2260881,27.474943 0.742418,-0.04651 q 0.024116,0.180867 0.098185,0.275607 0.1205784,0.153307 0.3445096,0.153307 0.1670871,0 0.2566596,-0.07751 0.091295,-0.07924 0.091295,-0.18259 0,-0.09819 -0.086127,-0.1757 Q 8.5869007,27.34403 8.273397,27.275128 7.7600778,27.159717 7.5413143,26.968514 7.3208282,26.777312 7.3208282,26.481033 q 0,-0.194648 0.1119656,-0.366902 0.1136881,-0.173978 0.3393419,-0.272163 0.2273763,-0.09991 0.6218397,-0.09991 0.4840359,0 0.7372504,0.180868 0.2549371,0.179145 0.3031684,0.571886 l -0.7355279,0.04306 q -0.029283,-0.170532 -0.1240234,-0.248046 -0.093018,-0.07751 -0.2583822,-0.07751 -0.1360812,0 -0.2049831,0.05857 -0.068902,0.05684 -0.068902,0.139526 0,0.06029 0.056844,0.10852 0.055122,0.04995 0.2618273,0.09302 0.5115966,0.110243 0.7320827,0.223931 0.2222087,0.111966 0.3221165,0.279053 0.1016303,0.167087 0.1016303,0.373793 0,0.242879 -0.1343587,0.447862 -0.1343588,0.204983 -0.3755154,0.311781 -0.2411567,0.105076 -0.6080594,0.105076 -0.6442328,0 -0.8922797,-0.248047 -0.2480468,-0.248047 -0.2807752,-0.630453 z"
         style="fill:#ffff00;stroke-width:0.26458332"
         id="path189" />
      <path
         d="m 9.773736,27.474943 0.742418,-0.04651 q 0.02412,0.180867 0.09818,0.275607 0.120579,0.153307 0.34451,0.153307 0.167087,0 0.256659,-0.07751 0.0913,-0.07924 0.0913,-0.18259 0,-0.09819 -0.08613,-0.1757 -0.08613,-0.07751 -0.399631,-0.146416 -0.513319,-0.115411 -0.732083,-0.306614 -0.2204859,-0.191202 -0.2204859,-0.487481 0,-0.194648 0.1119656,-0.366902 0.1136883,-0.173978 0.3393423,-0.272163 0.227376,-0.09991 0.621839,-0.09991 0.484036,0 0.737251,0.180868 0.254937,0.179145 0.303168,0.571886 l -0.735528,0.04306 q -0.02928,-0.170532 -0.124023,-0.248046 -0.09302,-0.07751 -0.258382,-0.07751 -0.136082,0 -0.204983,0.05857 -0.0689,0.05684 -0.0689,0.139526 0,0.06029 0.05684,0.10852 0.05512,0.04995 0.261827,0.09302 0.511597,0.110243 0.732083,0.223931 0.222208,0.111966 0.322116,0.279053 0.10163,0.167087 0.10163,0.373793 0,0.242879 -0.134358,0.447862 -0.134359,0.204983 -0.375516,0.311781 -0.241156,0.105076 -0.608059,0.105076 -0.644233,0 -0.89228,-0.248047 -0.2480466,-0.248047 -0.280775,-0.630453 z"
         style="fill:#ffff00;stroke-width:0.26458332"
         id="path191" />
    </g>
    <g
       aria-label="ANG"
       style="font-style:normal;font-variant:normal;font-weight:normal;font-stretch:normal;font-size:3.52777767px;line-height:1.25;font-family:'Arial Black';-inkscape-font-specification:'Arial Black, Normal';font-variant-ligatures:normal;font-variant-caps:normal;font-variant-numeric:normal;font-feature-settings:normal;text-align:center;letter-spacing:0px;word-spacing:0px;writing-mode:lr-tb;text-anchor:middle;fill:#000000;fill-opacity:1;stroke:none;stroke-width:0.26458332"
       id="text164">
      <path
         d="m 16.816022,27.959666 h -0.888835 l -0.122301,0.416856 h -0.797539 l 0.949123,-2.525255 h 0.850939 l 0.949124,2.525255 h -0.816488 z m -0.163642,-0.546048 -0.279053,-0.907783 -0.27733,0.907783 z"
         style="fill:#ffff00;stroke-width:0.26458332"
         id="path178" />
      <path
         d="m 18.01147,25.851267 h 0.728638 l 0.950846,1.396986 v -1.396986 h 0.735528 v 2.525255 h -0.735528 l -0.945679,-1.386651 v 1.386651 H 18.01147 Z"
         style="fill:#ffff00;stroke-width:0.26458332"
         id="path180" />
      <path
         d="m 22.214486,27.461849 v -0.525377 h 1.205784 v 1.076593 q -0.346232,0.235989 -0.613227,0.322116 -0.265273,0.08441 -0.630453,0.08441 -0.449585,0 -0.733805,-0.153307 -0.282498,-0.153307 -0.43925,-0.456475 -0.155029,-0.303169 -0.155029,-0.695909 0,-0.413412 0.170532,-0.718303 0.170532,-0.306613 0.499539,-0.465088 0.25666,-0.122301 0.690742,-0.122301 0.418579,0 0.625284,0.07579 0.208429,0.07579 0.34451,0.235989 0.137804,0.158474 0.206706,0.403076 l -0.752754,0.134358 q -0.04651,-0.142971 -0.158474,-0.218763 -0.110243,-0.07579 -0.282498,-0.07579 -0.25666,0 -0.409966,0.179145 -0.151584,0.177422 -0.151584,0.563273 0,0.409966 0.153306,0.585666 0.15503,0.1757 0.430637,0.1757 0.130914,0 0.24977,-0.0379 0.118855,-0.0379 0.272162,-0.129191 v -0.237712 z"
         style="fill:#ffff00;stroke-width:0.26458332"
         id="path182" />
    </g>
    <g
       transform="translate(-0.264577,48.41878)"
       aria-label="OM"
       style="font-style:normal;font-variant:normal;font-weight:normal;font-stretch:normal;font-size:3.52777767px;line-height:1.25;font-family:'Arial Black';-inkscape-font-specification:'Arial Black, Normal';font-variant-ligatures:normal;font-variant-caps:normal;font-variant-numeric:normal;font-feature-settings:normal;text-align:center;letter-spacing:0px;word-spacing:0px;writing-mode:lr-tb;text-anchor:middle;display:inline;fill:#00ff00;fill-opacity:1;stroke:none;stroke-width:0.26458332"
       id="text84-3">
      <path
         inkscape:connector-curvature="0"
         d="m 3.0452923,-4.6343819 q 0,-0.6183946 0.3445095,-0.9629042 0.3445096,-0.3445095 0.9594591,-0.3445095 0.6304525,0 0.9715169,0.3393419 0.3410645,0.3376194 0.3410645,0.9474012 0,0.4426948 -0.1498617,0.7269152 -0.1481391,0.2824978 -0.4306369,0.4409722 -0.2807753,0.1567518 -0.7010769,0.1567518 -0.4271919,0 -0.7079671,-0.1360813 Q 3.3932469,-3.6025758 3.2192696,-3.8971315 3.0452923,-4.1916871 3.0452923,-4.6343819 Z m 0.7803141,0.00345 q 0,0.3824056 0.1412489,0.5494927 0.1429715,0.1670871 0.3875733,0.1670871 0.2514919,0 0.3892957,-0.163642 0.1378038,-0.163642 0.1378038,-0.5873888 0,-0.3565673 -0.144694,-0.5202094 -0.1429714,-0.1653645 -0.3892957,-0.1653645 -0.2359891,0 -0.3789605,0.1670871 -0.1429715,0.1670871 -0.1429715,0.5529378 z"
         style="fill:#00ff00;stroke-width:0.26458332"
         id="path217-6" />
      <path
         inkscape:connector-curvature="0"
         d="m 6.0735311,-5.8987319 h 1.0266385 l 0.3961859,1.5365125 0.3944634,-1.5365125 H 8.9140123 V -3.373477 H 8.2766696 V -5.2992853 L 7.7822984,-3.373477 H 7.205245 L 6.7125963,-5.2992853 V -3.373477 H 6.0735311 Z"
         style="fill:#00ff00;stroke-width:0.26458332"
         id="path219-7" />
    </g>
    <g
       transform="translate(-0.264577,48.41878)"
       aria-label="SING"
       style="font-style:normal;font-variant:normal;font-weight:normal;font-stretch:normal;font-size:3.52777767px;line-height:1.25;font-family:'Arial Black';-inkscape-font-specification:'Arial Black, Normal';font-variant-ligatures:normal;font-variant-caps:normal;font-variant-numeric:normal;font-feature-settings:normal;text-align:center;letter-spacing:0px;word-spacing:0px;writing-mode:lr-tb;text-anchor:middle;display:inline;fill:#00ff00;fill-opacity:1;stroke:none;stroke-width:0.26458332"
       id="text100-5">
      <path
         inkscape:connector-curvature="0"
         d="m 14.141075,-4.2750585 0.742418,-0.046509 q 0.02412,0.1808675 0.09819,0.2756076 0.120579,0.1533068 0.34451,0.1533068 0.167087,0 0.256659,-0.077515 0.0913,-0.079237 0.0913,-0.18259 0,-0.098185 -0.08613,-0.1756999 -0.08613,-0.077515 -0.399631,-0.1464165 -0.513319,-0.1154107 -0.732083,-0.3066135 -0.220486,-0.1912028 -0.220486,-0.487481 0,-0.1946479 0.111966,-0.3669027 0.113688,-0.1739773 0.339342,-0.2721625 0.227376,-0.099908 0.621839,-0.099908 0.484036,0 0.737251,0.1808675 0.254937,0.179145 0.303168,0.5718859 l -0.735528,0.043064 q -0.02928,-0.1705322 -0.124023,-0.2480468 -0.09302,-0.077515 -0.258382,-0.077515 -0.136082,0 -0.204983,0.058567 -0.0689,0.056844 -0.0689,0.1395263 0,0.060289 0.05684,0.1085205 0.05512,0.049954 0.261827,0.093018 0.511597,0.110243 0.732083,0.2239312 0.222208,0.1119656 0.322116,0.2790527 0.10163,0.1670871 0.10163,0.3737929 0,0.2428792 -0.134358,0.4478624 -0.134359,0.2049831 -0.375516,0.3117811 -0.241156,0.1050754 -0.608059,0.1050754 -0.644233,0 -0.89228,-0.2480469 -0.248047,-0.2480468 -0.280775,-0.6304524 z"
         style="fill:#00ff00;stroke-width:0.26458332"
         id="path208-3" />
      <path
         inkscape:connector-curvature="0"
         d="m 16.85581,-5.9648778 h 0.782037 v 2.5252549 H 16.85581 Z"
         style="fill:#00ff00;stroke-width:0.26458332"
         id="path210-5" />
      <path
         inkscape:connector-curvature="0"
         d="m 18.202842,-5.9648778 h 0.728638 l 0.950846,1.3969862 v -1.3969862 h 0.735528 v 2.5252549 h -0.735528 l -0.945678,-1.3866509 v 1.3866509 h -0.733806 z"
         style="fill:#00ff00;stroke-width:0.26458332"
         id="path212-6" />
      <path
         inkscape:connector-curvature="0"
         d="m 22.405859,-4.3542957 v -0.525377 h 1.205783 v 1.0765923 q -0.346232,0.235989 -0.613227,0.3221164 -0.265272,0.084405 -0.630452,0.084405 -0.449585,0 -0.733806,-0.1533067 -0.282497,-0.1533068 -0.439249,-0.4564752 -0.15503,-0.3031684 -0.15503,-0.6959092 0,-0.4134115 0.170533,-0.7183024 0.170532,-0.3066135 0.499538,-0.4650879 0.25666,-0.1223009 0.690742,-0.1223009 0.418579,0 0.625285,0.075792 0.208428,0.075792 0.344509,0.235989 0.137804,0.1584744 0.206706,0.4030762 l -0.752753,0.1343587 q -0.04651,-0.1429714 -0.158475,-0.2187635 -0.110243,-0.075792 -0.282497,-0.075792 -0.25666,0 -0.409967,0.1791449 -0.151584,0.1774224 -0.151584,0.5632731 0,0.4099664 0.153307,0.5856662 0.155029,0.1756999 0.430637,0.1756999 0.130913,0 0.249769,-0.037896 0.118856,-0.037896 0.272163,-0.1291911 v -0.2377116 z"
         style="fill:#00ff00;stroke-width:0.26458332"
         id="path214-2" />
    </g>
    <g
       transform="translate(-0.264577,48.41878)"
       aria-label="PLK"
       style="font-style:normal;font-variant:normal;font-weight:normal;font-stretch:normal;font-size:3.52777767px;line-height:1.25;font-family:'Arial Black';-inkscape-font-specification:'Arial Black, Normal';font-variant-ligatures:normal;font-variant-caps:normal;font-variant-numeric:normal;font-feature-settings:normal;text-align:center;letter-spacing:0px;word-spacing:0px;writing-mode:lr-tb;text-anchor:middle;display:inline;fill:#00ff00;fill-opacity:1;stroke:none;stroke-width:0.26458332"
       id="text116-9">
      <path
         inkscape:connector-curvature="0"
         d="M 2.4206966,10.174705 H 3.717775 q 0.4237467,0 0.6338975,0.201538 0.2118734,0.201538 0.2118734,0.573608 0,0.382406 -0.2308214,0.597724 -0.2290988,0.215319 -0.7010769,0.215319 H 3.2044558 V 12.69996 H 2.4206966 Z m 0.7837592,1.076592 h 0.1912028 q 0.2256537,0 0.3169487,-0.07751 0.091295,-0.07924 0.091295,-0.201539 0,-0.118855 -0.079237,-0.201538 -0.079237,-0.08268 -0.2980008,-0.08268 H 3.2044558 Z"
         style="fill:#00ff00;stroke-width:0.26458332"
         id="path201-1" />
      <path
         inkscape:connector-curvature="0"
         d="M 4.9717896,10.174705 H 5.7521037 V 12.07812 H 6.969945 v 0.62184 H 4.9717896 Z"
         style="fill:#00ff00;stroke-width:0.26458332"
         id="path203-2" />
      <path
         inkscape:connector-curvature="0"
         d="M 7.3282349,10.174705 H 8.108549 v 0.954291 L 8.9267591,10.174705 H 9.9637329 L 9.0438924,11.127274 10.005074,12.69996 H 9.0438924 L 8.5116252,11.661263 8.108549,12.083288 V 12.69996 H 7.3282349 Z"
         style="fill:#00ff00;stroke-width:0.26458332"
         id="path205-7" />
    </g>
    <g
       transform="translate(-0.264577,48.41878)"
       aria-label="NTN"
       style="font-style:normal;font-variant:normal;font-weight:normal;font-stretch:normal;font-size:3.52777767px;line-height:1.25;font-family:'Arial Black';-inkscape-font-specification:'Arial Black, Normal';font-variant-ligatures:normal;font-variant-caps:normal;font-variant-numeric:normal;font-feature-settings:normal;text-align:center;letter-spacing:0px;word-spacing:0px;writing-mode:lr-tb;text-anchor:middle;display:inline;fill:#00ff00;fill-opacity:1;stroke:none;stroke-width:0.26458332"
       id="text132-0">
      <path
         inkscape:connector-curvature="0"
         d="m 15.365637,10.174705 h 0.728637 l 0.950847,1.396986 v -1.396986 h 0.735527 v 2.525255 h -0.735527 l -0.945679,-1.386651 v 1.386651 h -0.733805 z"
         style="fill:#00ff00;stroke-width:0.26458332"
         id="path194-93" />
      <path
         inkscape:connector-curvature="0"
         d="m 18.121713,10.174705 h 2.371948 v 0.623562 H 19.697844 V 12.69996 H 18.91753 v -1.901693 h -0.795817 z"
         style="fill:#00ff00;stroke-width:0.26458332"
         id="path196-6" />
      <path
         inkscape:connector-curvature="0"
         d="m 20.851951,10.174705 h 0.728637 l 0.950847,1.396986 v -1.396986 h 0.735528 v 2.525255 h -0.735528 l -0.945679,-1.386651 v 1.386651 h -0.733805 z"
         style="fill:#00ff00;stroke-width:0.26458332"
         id="path198-06" />
    </g>
    <g
       transform="translate(-0.264577,48.41878)"
       aria-label="MASS"
       style="font-style:normal;font-variant:normal;font-weight:normal;font-stretch:normal;font-size:3.52777767px;line-height:1.25;font-family:'Arial Black';-inkscape-font-specification:'Arial Black, Normal';font-variant-ligatures:normal;font-variant-caps:normal;font-variant-numeric:normal;font-feature-settings:normal;text-align:center;letter-spacing:0px;word-spacing:0px;writing-mode:lr-tb;text-anchor:middle;display:inline;fill:#00ff00;fill-opacity:1;stroke:none;stroke-width:0.26458332"
       id="text148-2">
      <path
         inkscape:connector-curvature="0"
         d="m 1.2798533,25.785124 h 1.0266384 l 0.396186,1.536513 0.3944634,-1.536513 h 1.0231933 v 2.525255 H 3.4829918 V 26.384571 L 2.9886206,28.310379 H 2.4115671 L 1.9189185,26.384571 v 1.925808 H 1.2798533 Z"
         style="fill:#00ff00;stroke-width:0.26458332"
         id="path185-6" />
      <path
         inkscape:connector-curvature="0"
         d="M 6.1718888,27.893522 H 5.2830542 L 5.1607533,28.310379 H 4.3632137 L 5.3123375,25.785124 H 6.163276 l 0.9491238,2.525255 H 6.2959122 Z M 6.0082468,27.347475 5.729194,26.439692 5.4518638,27.347475 Z"
         style="fill:#00ff00;stroke-width:0.26458332"
         id="path187-1" />
      <path
         inkscape:connector-curvature="0"
         d="m 7.2260881,27.474943 0.742418,-0.04651 q 0.024116,0.180867 0.098185,0.275607 0.1205784,0.153307 0.3445096,0.153307 0.1670871,0 0.2566596,-0.07751 0.091295,-0.07924 0.091295,-0.18259 0,-0.09819 -0.086127,-0.1757 Q 8.5869007,27.34403 8.273397,27.275128 7.7600778,27.159717 7.5413143,26.968514 7.3208282,26.777312 7.3208282,26.481033 q 0,-0.194648 0.1119656,-0.366902 0.1136881,-0.173978 0.3393419,-0.272163 0.2273763,-0.09991 0.6218397,-0.09991 0.4840359,0 0.7372504,0.180868 0.2549371,0.179145 0.3031684,0.571886 l -0.7355279,0.04306 q -0.029283,-0.170532 -0.1240234,-0.248046 -0.093018,-0.07751 -0.2583822,-0.07751 -0.1360812,0 -0.2049831,0.05857 -0.068902,0.05684 -0.068902,0.139526 0,0.06029 0.056844,0.10852 0.055122,0.04995 0.2618273,0.09302 0.5115966,0.110243 0.7320827,0.223931 0.2222087,0.111966 0.3221165,0.279053 0.1016303,0.167087 0.1016303,0.373793 0,0.242879 -0.1343587,0.447862 -0.1343588,0.204983 -0.3755154,0.311781 -0.2411567,0.105076 -0.6080594,0.105076 -0.6442328,0 -0.8922797,-0.248047 Q 7.2588164,27.857354 7.226088,27.474948 Z"
         style="fill:#00ff00;stroke-width:0.26458332"
         id="path189-8" />
      <path
         inkscape:connector-curvature="0"
         d="m 9.773736,27.474943 0.742418,-0.04651 q 0.02412,0.180867 0.09818,0.275607 0.120579,0.153307 0.34451,0.153307 0.167087,0 0.256659,-0.07751 0.0913,-0.07924 0.0913,-0.18259 0,-0.09819 -0.08613,-0.1757 -0.08613,-0.07751 -0.399631,-0.146416 -0.513319,-0.115411 -0.732083,-0.306614 -0.2204859,-0.191202 -0.2204859,-0.487481 0,-0.194648 0.1119656,-0.366902 0.1136883,-0.173978 0.3393423,-0.272163 0.227376,-0.09991 0.621839,-0.09991 0.484036,0 0.737251,0.180868 0.254937,0.179145 0.303168,0.571886 l -0.735528,0.04306 q -0.02928,-0.170532 -0.124023,-0.248046 -0.09302,-0.07751 -0.258382,-0.07751 -0.136082,0 -0.204983,0.05857 -0.0689,0.05684 -0.0689,0.139526 0,0.06029 0.05684,0.10852 0.05512,0.04995 0.261827,0.09302 0.511597,0.110243 0.732083,0.223931 0.222208,0.111966 0.322116,0.279053 0.10163,0.167087 0.10163,0.373793 0,0.242879 -0.134358,0.447862 -0.134359,0.204983 -0.375516,0.311781 -0.241156,0.105076 -0.608059,0.105076 -0.644233,0 -0.89228,-0.248047 -0.2480466,-0.248047 -0.280775,-0.630453 z"
         style="fill:#00ff00;stroke-width:0.26458332"
         id="path191-7" />
    </g>
    <g
       transform="translate(-0.264577,48.41878)"
       aria-label="ANG"
       style="font-style:normal;font-variant:normal;font-weight:normal;font-stretch:normal;font-size:3.52777767px;line-height:1.25;font-family:'Arial Black';-inkscape-font-specification:'Arial Black, Normal';font-variant-ligatures:normal;font-variant-caps:normal;font-variant-numeric:normal;font-feature-settings:normal;text-align:center;letter-spacing:0px;word-spacing:0px;writing-mode:lr-tb;text-anchor:middle;display:inline;fill:#00ff00;fill-opacity:1;stroke:none;stroke-width:0.26458332"
       id="text164-9">
      <path
         inkscape:connector-curvature="0"
         d="m 16.816022,27.959666 h -0.888835 l -0.122301,0.416856 h -0.797539 l 0.949123,-2.525255 h 0.850939 l 0.949124,2.525255 h -0.816488 z m -0.163642,-0.546048 -0.279053,-0.907783 -0.27733,0.907783 z"
         style="fill:#00ff00;stroke-width:0.26458332"
         id="path178-2" />
      <path
         inkscape:connector-curvature="0"
         d="m 18.01147,25.851267 h 0.728638 l 0.950846,1.396986 v -1.396986 h 0.735528 v 2.525255 h -0.735528 l -0.945679,-1.386651 v 1.386651 H 18.01147 Z"
         style="fill:#00ff00;stroke-width:0.26458332"
         id="path180-0" />
      <path
         inkscape:connector-curvature="0"
         d="m 22.214486,27.461849 v -0.525377 h 1.205784 v 1.076593 q -0.346232,0.235989 -0.613227,0.322116 -0.265273,0.08441 -0.630453,0.08441 -0.449585,0 -0.733805,-0.153307 -0.282498,-0.153307 -0.43925,-0.456475 -0.155029,-0.303169 -0.155029,-0.695909 0,-0.413412 0.170532,-0.718303 0.170532,-0.306613 0.499539,-0.465088 0.25666,-0.122301 0.690742,-0.122301 0.418579,0 0.625284,0.07579 0.208429,0.07579 0.34451,0.235989 0.137804,0.158474 0.206706,0.403076 l -0.752754,0.134358 q -0.04651,-0.142971 -0.158474,-0.218763 -0.110243,-0.07579 -0.282498,-0.07579 -0.25666,0 -0.409966,0.179145 -0.151584,0.177422 -0.151584,0.563273 0,0.409966 0.153306,0.585666 0.15503,0.1757 0.430637,0.1757 0.130914,0 0.24977,-0.0379 0.118855,-0.0379 0.272162,-0.129191 v -0.237712 z"
         style="fill:#00ff00;stroke-width:0.26458332"
         id="path182-2" />
    </g>
  </g>
</svg>
