<?xml version="1.0" encoding="UTF-8" standalone="no"?>
<!-- Created with Inkscape (http://www.inkscape.org/) -->

<svg
   xmlns:dc="http://purl.org/dc/elements/1.1/"
   xmlns:cc="http://creativecommons.org/ns#"
   xmlns:rdf="http://www.w3.org/1999/02/22-rdf-syntax-ns#"
   xmlns:svg="http://www.w3.org/2000/svg"
   xmlns="http://www.w3.org/2000/svg"
   xmlns:sodipodi="http://sodipodi.sourceforge.net/DTD/sodipodi-0.dtd"
   xmlns:inkscape="http://www.inkscape.org/namespaces/inkscape"
   width="15.24mm"
   height="128.54166mm"
   viewBox="0 0 15.24 128.5417"
   version="1.1"
   id="svg4541"
   sodipodi:docname="R.svg"
   inkscape:version="0.92.5 (2060ec1f9f, 2020-04-08)">
  <defs
     id="defs4535" />
  <sodipodi:namedview
     id="base"
     pagecolor="#ffffff"
     bordercolor="#666666"
     borderopacity="1.0"
     inkscape:pageopacity="0.0"
     inkscape:pageshadow="2"
     inkscape:zoom="2.8284271"
     inkscape:cx="24.048209"
     inkscape:cy="118.95197"
     inkscape:document-units="mm"
     inkscape:current-layer="layer1"
     showgrid="true"
     fit-margin-top="0"
     fit-margin-left="0"
     fit-margin-right="0"
     fit-margin-bottom="0"
     inkscape:window-width="1600"
     inkscape:window-height="845"
     inkscape:window-x="0"
     inkscape:window-y="0"
     inkscape:window-maximized="1"
     units="mm">
    <inkscape:grid
       type="xygrid"
       id="grid76" />
  </sodipodi:namedview>
  <metadata
     id="metadata4538">
    <rdf:RDF>
      <cc:Work
         rdf:about="">
        <dc:format>image/svg+xml</dc:format>
        <dc:type
           rdf:resource="http://purl.org/dc/dcmitype/StillImage" />
        <dc:title />
      </cc:Work>
    </rdf:RDF>
  </metadata>
  <g
     inkscape:groupmode="layer"
     id="layer1"
     inkscape:label="Background"
     style="display:inline;opacity:1">
    <rect
       style="fill:#ffffff;stroke-width:0.21715553"
       id="rect111"
       width="15.610416"
       height="128.32292"
       x="0"
       y="0.21873982" />
    <text
       xml:space="preserve"
       style="font-style:normal;font-variant:normal;font-weight:normal;font-stretch:normal;font-size:3.52777767px;line-height:1.25;font-family:'Arial Black';-inkscape-font-specification:'Arial Black, Normal';font-variant-ligatures:normal;font-variant-caps:normal;font-variant-numeric:normal;font-feature-settings:normal;text-align:center;letter-spacing:0px;word-spacing:0px;writing-mode:lr-tb;text-anchor:middle;fill:#000000;fill-opacity:1;stroke:none;stroke-width:0.26458332"
       x="17.197916"
       y="120.60415"
       id="text168"><tspan
         sodipodi:role="line"
         id="tspan166"
         x="17.197916"
         y="123.76708"
         style="stroke-width:0.26458332" /></text>
    <g
       aria-label="R"
       style="font-style:normal;font-variant:normal;font-weight:normal;font-stretch:normal;font-size:3.52777767px;line-height:1.25;font-family:'Arial Black';-inkscape-font-specification:'Arial Black, Normal';font-variant-ligatures:normal;font-variant-caps:normal;font-variant-numeric:normal;font-feature-settings:normal;text-align:center;letter-spacing:0px;word-spacing:0px;writing-mode:lr-tb;text-anchor:middle;fill:#000000;fill-opacity:1;stroke:none;stroke-width:0.26458332"
       id="text48">
      <path
         d="M 11.06754,10.272906 V 7.7476514 h 1.300523 q 0.361735,0 0.552938,0.062012 0.191203,0.062012 0.308336,0.2308214 0.117133,0.1670871 0.117133,0.4082438 0,0.2101508 -0.08957,0.3634576 -0.08957,0.1515842 -0.246324,0.2463243 -0.09991,0.060289 -0.273885,0.099908 0.139526,0.046509 0.20326,0.093018 0.04306,0.031006 0.124024,0.1326362 0.08268,0.1016303 0.110243,0.1567518 l 0.377238,0.7320825 H 12.669509 L 12.252653,9.5012049 Q 12.173416,9.3513433 12.111404,9.306557 12.026999,9.2479904 11.920201,9.2479904 h -0.0689 v 1.0249156 z m 0.783759,-1.5020613 h 0.329007 q 0.0534,0 0.206705,-0.034451 0.07752,-0.015503 0.125746,-0.079237 0.04995,-0.063734 0.04995,-0.1464166 0,-0.1223009 -0.07751,-0.1877577 -0.07752,-0.065457 -0.291111,-0.065457 h -0.342787 z"
         style="stroke-width:0.26458332"
         id="path60" />
    </g>
    <g
       aria-label="ON"
       style="font-style:normal;font-variant:normal;font-weight:normal;font-stretch:normal;font-size:3.52777767px;line-height:1.25;font-family:'Arial Black';-inkscape-font-specification:'Arial Black, Normal';font-variant-ligatures:normal;font-variant-caps:normal;font-variant-numeric:normal;font-feature-settings:normal;text-align:center;letter-spacing:0px;word-spacing:0px;writing-mode:lr-tb;text-anchor:middle;fill:#000000;fill-opacity:1;stroke:none;stroke-width:0.26458332"
       id="text65">
      <path
         d="m 5.4236103,24.622419 q 0,-0.618395 0.3445096,-0.962904 0.3445095,-0.34451 0.959459,-0.34451 0.6304525,0 0.9715169,0.339342 0.3410645,0.337619 0.3410645,0.947401 0,0.442695 -0.1498617,0.726915 -0.1481391,0.282498 -0.4306369,0.440973 -0.2807753,0.156751 -0.7010769,0.156751 -0.4271918,0 -0.7079671,-0.136081 -0.2790527,-0.136081 -0.45303,-0.430637 -0.1739774,-0.294555 -0.1739774,-0.73725 z m 0.7803142,0.0034 q 0,0.382405 0.1412489,0.549493 0.1429714,0.167087 0.3875732,0.167087 0.251492,0 0.3892958,-0.163642 0.1378038,-0.163642 0.1378038,-0.587389 0,-0.356567 -0.144694,-0.52021 -0.1429715,-0.165364 -0.3892958,-0.165364 -0.235989,0 -0.3789605,0.167087 -0.1429714,0.167087 -0.1429714,0.552938 z"
         style="stroke-width:0.26458332"
         id="path80" />
      <path
         d="m 8.4656296,23.358069 h 0.7286376 l 0.9508468,1.396986 v -1.396986 h 0.735527 v 2.525255 H 10.145114 L 9.1994349,24.496673 v 1.386651 H 8.4656296 Z"
         style="stroke-width:0.26458332"
         id="path82" />
    </g>
    <g
       aria-label="AS"
       style="font-style:normal;font-variant:normal;font-weight:normal;font-stretch:normal;font-size:3.52777767px;line-height:1.25;font-family:'Arial Black';-inkscape-font-specification:'Arial Black, Normal';font-variant-ligatures:normal;font-variant-caps:normal;font-variant-numeric:normal;font-feature-settings:normal;text-align:center;letter-spacing:0px;word-spacing:0px;writing-mode:lr-tb;text-anchor:middle;fill:#000000;fill-opacity:1;stroke:none;stroke-width:0.26458332"
       id="text87"
       transform="translate(-0.52916667)">
      <path
         d="M 7.6329503,44.174387 H 6.7441157 L 6.6218148,44.591244 H 5.8242752 L 6.773399,42.065989 h 0.8509385 l 0.9491238,2.525255 H 7.7569737 Z M 7.4693082,43.62834 7.1902555,42.720557 6.9129253,43.62834 Z"
         style="stroke-width:0.26458332"
         id="path102"
         inkscape:connector-curvature="0" />
      <path
         d="m 8.6871495,43.755808 0.7424181,-0.04651 q 0.024116,0.180868 0.098185,0.275608 0.1205784,0.153307 0.3445096,0.153307 0.1670868,0 0.2566598,-0.07751 0.0913,-0.07924 0.0913,-0.18259 0,-0.09819 -0.08613,-0.1757 -0.08613,-0.07752 -0.3996317,-0.146416 Q 9.2211411,43.440586 9.0023776,43.249383 8.7818915,43.05818 8.7818915,42.761902 q 0,-0.194648 0.1119656,-0.366903 0.1136881,-0.173977 0.3393419,-0.272162 0.2273763,-0.09991 0.6218397,-0.09991 0.4840363,0 0.7372503,0.180868 0.254937,0.179145 0.303169,0.571885 l -0.735528,0.04306 q -0.02928,-0.170532 -0.124024,-0.248047 -0.093017,-0.07751 -0.258382,-0.07751 -0.1360812,0 -0.2049831,0.05857 -0.068902,0.05684 -0.068902,0.139527 0,0.06029 0.056844,0.10852 0.055122,0.04995 0.2618273,0.09302 0.5115968,0.110243 0.7320828,0.223931 0.222209,0.111966 0.322117,0.279053 0.10163,0.167087 0.10163,0.373792 0,0.24288 -0.134359,0.447863 -0.134358,0.204983 -0.375515,0.311781 -0.241157,0.105075 -0.6080598,0.105075 -0.6442328,0 -0.8922797,-0.248046 -0.2480485,-0.248055 -0.280777,-0.630461 z"
         style="stroke-width:0.26458332"
         id="path104"
         inkscape:connector-curvature="0" />
    </g>
    <g
       aria-label="ON"
       style="font-style:normal;font-variant:normal;font-weight:normal;font-stretch:normal;font-size:3.52777767px;line-height:1.25;font-family:'Arial Black';-inkscape-font-specification:'Arial Black, Normal';font-variant-ligatures:normal;font-variant-caps:normal;font-variant-numeric:normal;font-feature-settings:normal;text-align:center;letter-spacing:0px;word-spacing:0px;writing-mode:lr-tb;text-anchor:middle;fill:#008000;fill-opacity:1;stroke:none;stroke-width:0.26458332"
       id="text109"
       transform="translate(-0.52916667)">
      <path
         d="m 5.6881968,80.978666 q 0,-0.618395 0.3445095,-0.962904 0.3445096,-0.34451 0.9594591,-0.34451 0.6304525,0 0.9715169,0.339342 0.3410644,0.337619 0.3410644,0.947401 0,0.442695 -0.1498616,0.726915 -0.1481391,0.282498 -0.4306369,0.440972 -0.2807753,0.156752 -0.7010769,0.156752 -0.4271919,0 -0.7079671,-0.136081 Q 6.0361514,82.010472 5.8621741,81.715916 5.6881968,81.42136 5.6881968,80.978666 Z m 0.7803141,0.0034 q 0,0.382405 0.1412489,0.549493 0.1429715,0.167087 0.3875732,0.167087 0.251492,0 0.3892958,-0.163642 0.1378038,-0.163642 0.1378038,-0.587389 0,-0.356568 -0.144694,-0.52021 -0.1429714,-0.165364 -0.3892957,-0.165364 -0.2359891,0 -0.3789605,0.167087 -0.1429715,0.167087 -0.1429715,0.552938 z"
         style="fill:#008000;stroke-width:0.26458332"
         id="path124"
         inkscape:connector-curvature="0" />
      <path
         d="M 8.730216,79.714316 H 9.4588537 L 10.4097,81.111302 v -1.396986 h 0.735528 v 2.525255 H 10.4097 L 9.4640213,80.85292 v 1.386651 H 8.730216 Z"
         style="fill:#008000;stroke-width:0.26458332"
         id="path126"
         inkscape:connector-curvature="0" />
    </g>
    <g
       aria-label="AS"
       style="font-style:normal;font-variant:normal;font-weight:normal;font-stretch:normal;font-size:3.52777767px;line-height:1.25;font-family:'Arial Black';-inkscape-font-specification:'Arial Black, Normal';font-variant-ligatures:normal;font-variant-caps:normal;font-variant-numeric:normal;font-feature-settings:normal;text-align:center;letter-spacing:0px;word-spacing:0px;writing-mode:lr-tb;text-anchor:middle;fill:#000000;fill-opacity:1;stroke:none;stroke-width:0.26458332"
       id="text131">
      <path
         d="M 7.1037883,102.19563 H 6.2149537 l -0.1223008,0.41686 H 5.2951133 l 0.9491237,-2.52526 h 0.8509386 l 0.9491238,2.52526 H 7.2278118 Z m -0.163642,-0.54605 -0.2790527,-0.90778 -0.2773302,0.90778 z"
         style="fill:#ff0000;stroke-width:0.26458332"
         id="path144" />
      <path
         d="m 8.1579876,101.77705 0.7424181,-0.0465 q 0.024116,0.18087 0.098185,0.27561 0.1205783,0.15331 0.3445095,0.15331 0.1670872,0 0.2566596,-0.0775 0.091295,-0.0792 0.091295,-0.18259 0,-0.0982 -0.086127,-0.1757 -0.086127,-0.0775 -0.3996311,-0.14641 -0.5133192,-0.11541 -0.7320828,-0.30662 -0.2204861,-0.1912 -0.2204861,-0.48748 0,-0.19465 0.1119656,-0.3669 0.1136882,-0.17398 0.3393419,-0.27216 0.2273763,-0.0999 0.6218398,-0.0999 0.4840359,0 0.73725,0.18087 0.254937,0.17914 0.303169,0.57188 l -0.7355281,0.0431 q -0.029283,-0.17054 -0.1240234,-0.24805 -0.093018,-0.0775 -0.2583822,-0.0775 -0.1360813,0 -0.2049832,0.0586 -0.068902,0.0568 -0.068902,0.13953 0,0.0603 0.056844,0.10852 0.055122,0.05 0.2618272,0.093 0.5115967,0.11024 0.7320825,0.22393 0.222209,0.11196 0.322117,0.27905 0.10163,0.16709 0.10163,0.37379 0,0.24288 -0.134359,0.44786 -0.134358,0.20499 -0.3755151,0.31179 -0.2411566,0.10507 -0.6080593,0.10507 -0.6442328,0 -0.8922797,-0.24805 -0.2480469,-0.24804 -0.2807753,-0.63045 z"
         style="fill:#ff0000;stroke-width:0.26458332"
         id="path146" />
    </g>
  </g>
  <g
     inkscape:groupmode="layer"
     id="layer4"
     inkscape:label="graphics"
     transform="translate(0,28.00003)"
     style="display:inline">
    <text
       xml:space="preserve"
       style="font-style:normal;font-variant:normal;font-weight:normal;font-stretch:normal;font-size:4.58611107px;line-height:1.25;font-family:'Arial Black';-inkscape-font-specification:'Arial Black, Normal';font-variant-ligatures:normal;font-variant-caps:normal;font-variant-numeric:normal;text-align:center;letter-spacing:0px;word-spacing:0px;writing-mode:lr-tb;text-anchor:middle;fill:#000000;fill-opacity:1;stroke:none;stroke-width:0.26458332"
       x="11.90625"
       y="-21.166708"
       id="text115"><tspan
         sodipodi:role="line"
         id="tspan113"
         x="11.90625"
         y="-17.054897"
         style="stroke-width:0.26458332" /></text>
    <g
       aria-label="KRT"
       style="font-style:normal;font-variant:normal;font-weight:normal;font-stretch:normal;font-size:3.52777767px;line-height:1.25;font-family:'Arial Black';-inkscape-font-specification:'Arial Black, Normal';font-variant-ligatures:normal;font-variant-caps:normal;font-variant-numeric:normal;font-feature-settings:normal;text-align:center;letter-spacing:0px;word-spacing:0px;writing-mode:lr-tb;text-anchor:middle;fill:#0000ff;fill-opacity:1;stroke:none;stroke-width:0.26458332"
       id="text123"
       transform="translate(-12.170835,-117.47517)">
      <path
         d="m 14.418414,95.635115 h 0.780314 v 0.954291 l 0.81821,-0.954291 h 1.036974 l -0.91984,0.952569 0.961181,1.572686 h -0.961181 l -0.532268,-1.038696 -0.403076,0.422024 v 0.616672 h -0.780314 z"
         style="fill:#0000ff;stroke-width:0.26458332"
         id="path227"
         inkscape:connector-curvature="0" />
      <path
         d="m 17.363971,98.16037 v -2.525255 h 1.300523 q 0.361735,0 0.552938,0.06201 0.191203,0.06201 0.308336,0.230821 0.117133,0.167087 0.117133,0.408244 0,0.210151 -0.08957,0.363457 -0.08957,0.151585 -0.246325,0.246325 -0.09991,0.06029 -0.273885,0.09991 0.139527,0.04651 0.203261,0.09302 0.04306,0.03101 0.124023,0.132636 0.08268,0.101631 0.110243,0.156752 l 0.377238,0.732083 H 18.96594 l -0.416857,-0.771701 q -0.07924,-0.149862 -0.141248,-0.194648 -0.08441,-0.05857 -0.191203,-0.05857 h -0.0689 v 1.024916 z m 0.783759,-1.502062 h 0.329006 q 0.0534,0 0.206706,-0.03445 0.07752,-0.0155 0.125746,-0.07924 0.04995,-0.06373 0.04995,-0.146416 0,-0.122301 -0.07751,-0.187758 -0.07751,-0.06546 -0.29111,-0.06546 H 18.14773 Z"
         style="fill:#0000ff;stroke-width:0.26458332"
         id="path229"
         inkscape:connector-curvature="0" />
      <path
         d="m 19.889226,95.635115 h 2.371948 v 0.623562 h -0.795817 v 1.901693 h -0.780314 v -1.901693 h -0.795817 z"
         style="fill:#0000ff;stroke-width:0.26458332"
         id="path231"
         inkscape:connector-curvature="0" />
    </g>
    <g
       aria-label="μ"
       style="font-style:normal;font-variant:normal;font-weight:normal;font-stretch:normal;font-size:3.52777767px;line-height:1.25;font-family:'Arial Black';-inkscape-font-specification:'Arial Black, Normal';font-variant-ligatures:normal;font-variant-caps:normal;font-variant-numeric:normal;font-feature-settings:normal;text-align:center;letter-spacing:0px;word-spacing:0px;writing-mode:lr-tb;text-anchor:middle;fill:#000000;fill-opacity:1;stroke:none;stroke-width:0.26458332"
       id="text107" />
    <g
       aria-label="IN"
       style="font-style:normal;font-variant:normal;font-weight:normal;font-stretch:normal;font-size:3.52777767px;line-height:1.25;font-family:'Arial Black';-inkscape-font-specification:'Arial Black, Normal';font-variant-ligatures:normal;font-variant-caps:normal;font-variant-numeric:normal;font-feature-settings:normal;text-align:center;letter-spacing:0px;word-spacing:0px;writing-mode:lr-tb;text-anchor:middle;fill:#008000;fill-opacity:1;stroke:none;stroke-width:0.26458332"
       id="text95">
      <path
         d="M 5.8065393,32.664286 H 6.588576 v 2.525255 H 5.8065393 Z"
         style="fill:#008000;stroke-width:0.26458332"
         id="path175" />
      <path
         d="m 7.1535717,32.664286 h 0.7286376 l 0.9508464,1.396986 v -1.396986 h 0.7355278 v 2.525255 H 8.8330557 L 7.887377,33.80289 v 1.386651 H 7.1535717 Z"
         style="fill:#008000;stroke-width:0.26458332"
         id="path177" />
    </g>
    <g
       aria-label="OUT"
       style="font-style:normal;font-variant:normal;font-weight:normal;font-stretch:normal;font-size:3.52777767px;line-height:1.25;font-family:'Arial Black';-inkscape-font-specification:'Arial Black, Normal';font-variant-ligatures:normal;font-variant-caps:normal;font-variant-numeric:normal;font-feature-settings:normal;text-align:center;letter-spacing:0px;word-spacing:0px;writing-mode:lr-tb;text-anchor:middle;fill:#000000;fill-opacity:1;stroke:none;stroke-width:0.26458332"
       id="text142">
      <path
         d="m 3.885208,92.401548 q 0,-0.618395 0.3445095,-0.962904 0.3445096,-0.34451 0.9594591,-0.34451 0.6304524,0 0.9715169,0.339342 0.3410644,0.337619 0.3410644,0.947401 0,0.442695 -0.1498616,0.726915 -0.1481391,0.282498 -0.4306369,0.440973 -0.2807753,0.156751 -0.701077,0.156751 -0.4271918,0 -0.7079671,-0.136081 Q 4.2331626,93.433354 4.0591853,93.138798 3.885208,92.844243 3.885208,92.401548 Z m 0.7803141,0.0034 q 0,0.382405 0.1412489,0.549493 0.1429715,0.167087 0.3875732,0.167087 0.251492,0 0.3892958,-0.163642 0.1378038,-0.163642 0.1378038,-0.587389 0,-0.356567 -0.144694,-0.520209 -0.1429714,-0.165365 -0.3892958,-0.165365 -0.235989,0 -0.3789605,0.167087 -0.1429714,0.167087 -0.1429714,0.552938 z"
         style="fill:#ff0000;stroke-width:0.26458332"
         id="path154" />
      <path
         d="m 8.56537,91.137198 h 0.7785916 v 1.505506 q 0,0.223932 -0.070624,0.423747 -0.068902,0.198093 -0.2187635,0.347955 -0.1481391,0.148139 -0.3117811,0.208428 -0.2273763,0.08441 -0.5460477,0.08441 -0.1843126,0 -0.4030761,-0.02584 Q 7.5766277,93.655563 7.4302111,93.57977 7.2837946,93.502256 7.1614937,93.361007 7.0409153,93.219758 6.9961291,93.069896 6.9237821,92.82874 6.9237821,92.642704 v -1.505506 h 0.7785916 v 1.54168 q 0,0.206706 0.1136881,0.323839 0.1154107,0.115411 0.3186713,0.115411 0.2015381,0 0.3152263,-0.113689 Q 8.56537,92.889029 8.56537,92.678878 Z"
         style="fill:#ff0000;stroke-width:0.26458332"
         id="path156" />
      <path
         d="m 9.6833035,91.137198 h 2.3719485 v 0.623562 h -0.795817 v 1.901693 H 10.479121 V 91.76076 H 9.6833035 Z"
         style="fill:#ff0000;stroke-width:0.26458332"
         id="path158" />
    </g>
  </g>
</svg>
