<?xml version="1.0" encoding="UTF-8" standalone="no"?>
<!-- Created with Inkscape (http://www.inkscape.org/) -->

<svg
   xmlns:dc="http://purl.org/dc/elements/1.1/"
   xmlns:cc="http://creativecommons.org/ns#"
   xmlns:rdf="http://www.w3.org/1999/02/22-rdf-syntax-ns#"
   xmlns:svg="http://www.w3.org/2000/svg"
   xmlns="http://www.w3.org/2000/svg"
   xmlns:sodipodi="http://sodipodi.sourceforge.net/DTD/sodipodi-0.dtd"
   xmlns:inkscape="http://www.inkscape.org/namespaces/inkscape"
   width="15.24mm"
   height="128.54166mm"
   viewBox="0 0 15.24 128.5417"
   version="1.1"
   id="svg4541"
   sodipodi:docname="S.svg"
   inkscape:version="0.92.5 (2060ec1f9f, 2020-04-08)">
  <defs
     id="defs4535" />
  <sodipodi:namedview
     id="base"
     pagecolor="#ffffff"
     bordercolor="#666666"
     borderopacity="1.0"
     inkscape:pageopacity="0.0"
     inkscape:pageshadow="2"
     inkscape:zoom="5.6568542"
     inkscape:cx="44.356644"
     inkscape:cy="91.428876"
     inkscape:document-units="mm"
     inkscape:current-layer="layer4"
     showgrid="true"
     fit-margin-top="0"
     fit-margin-left="0"
     fit-margin-right="0"
     fit-margin-bottom="0"
     inkscape:window-width="1600"
     inkscape:window-height="845"
     inkscape:window-x="0"
     inkscape:window-y="0"
     inkscape:window-maximized="1"
     units="mm">
    <inkscape:grid
       type="xygrid"
       id="grid76" />
  </sodipodi:namedview>
  <metadata
     id="metadata4538">
    <rdf:RDF>
      <cc:Work
         rdf:about="">
        <dc:format>image/svg+xml</dc:format>
        <dc:type
           rdf:resource="http://purl.org/dc/dcmitype/StillImage" />
        <dc:title></dc:title>
      </cc:Work>
    </rdf:RDF>
  </metadata>
  <g
     inkscape:groupmode="layer"
     id="layer1"
     inkscape:label="Background"
     style="display:inline;opacity:1">
    <rect
       style="fill:#b3b3b3;stroke-width:0.21530737"
       id="rect111"
       width="15.345834"
       height="128.32292"
       x="0"
       y="0.21873982" />
    <g
       aria-label="OUT"
       style="font-style:normal;font-variant:normal;font-weight:normal;font-stretch:normal;font-size:3.52777767px;line-height:1.25;font-family:'Arial Black';-inkscape-font-specification:'Arial Black, Normal';font-variant-ligatures:normal;font-variant-caps:normal;font-variant-numeric:normal;font-feature-settings:normal;text-align:center;letter-spacing:0px;word-spacing:0px;writing-mode:lr-tb;text-anchor:middle;fill:#ff0000;fill-opacity:1;stroke:none;stroke-width:0.26458332"
       id="text413"
       transform="translate(-11.40654,0.14399983)">
      <path
         d="m 15.262289,120.40156 q 0,-0.61839 0.34451,-0.9629 0.344509,-0.34451 0.959459,-0.34451 0.630452,0 0.971517,0.33934 0.341064,0.33762 0.341064,0.9474 0,0.4427 -0.149861,0.72692 -0.148139,0.2825 -0.430637,0.44097 -0.280776,0.15675 -0.701077,0.15675 -0.427192,0 -0.707967,-0.13608 -0.279053,-0.13608 -0.45303,-0.43064 -0.173978,-0.29455 -0.173978,-0.73725 z m 0.780314,0.003 q 0,0.3824 0.141249,0.54949 0.142972,0.16709 0.387574,0.16709 0.251492,0 0.389295,-0.16364 0.137804,-0.16365 0.137804,-0.58739 0,-0.35657 -0.144694,-0.52021 -0.142971,-0.16537 -0.389296,-0.16537 -0.235989,0 -0.37896,0.16709 -0.142972,0.16709 -0.142972,0.55294 z"
         style="fill:#ff0000;stroke-width:0.26458332"
         id="path437"
         inkscape:connector-curvature="0" />
      <path
         d="m 19.942451,119.13721 h 0.778592 v 1.50551 q 0,0.22393 -0.07062,0.42375 -0.0689,0.19809 -0.218764,0.34795 -0.148139,0.14814 -0.311781,0.20843 -0.227376,0.0844 -0.546048,0.0844 -0.184312,0 -0.403076,-0.0258 -0.217041,-0.0258 -0.363457,-0.10163 -0.146417,-0.0775 -0.268718,-0.21877 -0.120578,-0.14125 -0.165365,-0.29111 -0.07235,-0.24116 -0.07235,-0.42719 v -1.50551 h 0.778592 v 1.54168 q 0,0.20671 0.113688,0.32384 0.115411,0.11541 0.318672,0.11541 0.201538,0 0.315226,-0.11369 0.11541,-0.11541 0.11541,-0.32556 z"
         style="fill:#ff0000;stroke-width:0.26458332"
         id="path439"
         inkscape:connector-curvature="0" />
      <path
         d="m 21.060385,119.13721 h 2.371948 v 0.62357 h -0.795817 v 1.90169 h -0.780314 v -1.90169 h -0.795817 z"
         style="fill:#ff0000;stroke-width:0.26458332"
         id="path441"
         inkscape:connector-curvature="0" />
    </g>
  </g>
  <g
     inkscape:groupmode="layer"
     id="layer4"
     inkscape:label="graphics"
     transform="translate(0,28.00003)"
     style="display:inline">
    <text
       xml:space="preserve"
       style="font-style:normal;font-variant:normal;font-weight:normal;font-stretch:normal;font-size:4.58611107px;line-height:1.25;font-family:'Arial Black';-inkscape-font-specification:'Arial Black, Normal';font-variant-ligatures:normal;font-variant-caps:normal;font-variant-numeric:normal;text-align:center;letter-spacing:0px;word-spacing:0px;writing-mode:lr-tb;text-anchor:middle;fill:#000000;fill-opacity:1;stroke:none;stroke-width:0.26458332"
       x="11.90625"
       y="-21.166708"
       id="text115"><tspan
         sodipodi:role="line"
         id="tspan113"
         x="11.90625"
         y="-17.054897"
         style="stroke-width:0.26458332" /></text>
    <g
       aria-label="KRT"
       style="font-style:normal;font-variant:normal;font-weight:normal;font-stretch:normal;font-size:3.52777767px;line-height:1.25;font-family:'Arial Black';-inkscape-font-specification:'Arial Black, Normal';font-variant-ligatures:normal;font-variant-caps:normal;font-variant-numeric:normal;font-feature-settings:normal;text-align:center;letter-spacing:0px;word-spacing:0px;writing-mode:lr-tb;text-anchor:middle;fill:#000000;fill-opacity:1;stroke:none;stroke-width:0.26458332"
       id="text123"
       transform="translate(-12.170835,-117.47517)">
      <path
         d="m 14.418414,95.635115 h 0.780314 v 0.954291 l 0.81821,-0.954291 h 1.036974 l -0.91984,0.952569 0.961181,1.572686 h -0.961181 l -0.532268,-1.038696 -0.403076,0.422024 v 0.616672 h -0.780314 z"
         style="fill:#f9f9f9;stroke-width:0.26458332"
         id="path227"
         inkscape:connector-curvature="0" />
      <path
         d="m 17.363971,98.16037 v -2.525255 h 1.300523 q 0.361735,0 0.552938,0.06201 0.191203,0.06201 0.308336,0.230821 0.117133,0.167087 0.117133,0.408244 0,0.210151 -0.08957,0.363457 -0.08957,0.151585 -0.246325,0.246325 -0.09991,0.06029 -0.273885,0.09991 0.139527,0.04651 0.203261,0.09302 0.04306,0.03101 0.124023,0.132636 0.08268,0.101631 0.110243,0.156752 l 0.377238,0.732083 H 18.96594 l -0.416857,-0.771701 q -0.07924,-0.149862 -0.141248,-0.194648 -0.08441,-0.05857 -0.191203,-0.05857 h -0.0689 v 1.024916 z m 0.783759,-1.502062 h 0.329006 q 0.0534,0 0.206706,-0.03445 0.07752,-0.0155 0.125746,-0.07924 0.04995,-0.06373 0.04995,-0.146416 0,-0.122301 -0.07751,-0.187758 -0.07751,-0.06546 -0.29111,-0.06546 H 18.14773 Z"
         style="fill:#f9f9f9;stroke-width:0.26458332"
         id="path229"
         inkscape:connector-curvature="0" />
      <path
         d="m 19.889226,95.635115 h 2.371948 v 0.623562 h -0.795817 v 1.901693 h -0.780314 v -1.901693 h -0.795817 z"
         style="fill:#f9f9f9;stroke-width:0.26458332"
         id="path231"
         inkscape:connector-curvature="0" />
    </g>
    <g
       aria-label="Ω"
       style="font-style:normal;font-variant:normal;font-weight:normal;font-stretch:normal;font-size:3.52777767px;line-height:1.25;font-family:'Arial Black';-inkscape-font-specification:'Arial Black, Normal';font-variant-ligatures:normal;font-variant-caps:normal;font-variant-numeric:normal;font-feature-settings:normal;text-align:center;letter-spacing:0px;word-spacing:0px;writing-mode:lr-tb;text-anchor:middle;fill:#000000;fill-opacity:1;stroke:none;stroke-width:0.26458332"
       id="text107"
       transform="matrix(2.52226,0,0,2.4814703,-16.867486,28.084873)" />
    <g
       aria-label="F"
       transform="scale(1.204776,0.83002985)"
       style="font-style:normal;font-variant:normal;font-weight:normal;font-stretch:normal;font-size:7.14471245px;line-height:1.25;font-family:'Arial Black';-inkscape-font-specification:'Arial Black, Normal';font-variant-ligatures:normal;font-variant-caps:normal;font-variant-numeric:normal;font-feature-settings:normal;text-align:center;letter-spacing:0px;word-spacing:0px;writing-mode:lr-tb;text-anchor:middle;fill:#000000;fill-opacity:1;stroke:none;stroke-width:0.53585339"
       id="text135" />
    <g
       aria-label="E"
       style="font-style:normal;font-variant:normal;font-weight:normal;font-stretch:normal;font-size:3.52777767px;line-height:1.25;font-family:'Arial Black';-inkscape-font-specification:'Arial Black, Normal';font-variant-ligatures:normal;font-variant-caps:normal;font-variant-numeric:normal;font-feature-settings:normal;text-align:center;letter-spacing:0px;word-spacing:0px;writing-mode:lr-tb;text-anchor:middle;fill:#000000;fill-opacity:1;stroke:none;stroke-width:0.26458332"
       id="text110" />
    <g
       aria-label="S"
       style="font-style:normal;font-variant:normal;font-weight:normal;font-stretch:normal;font-size:3.52777767px;line-height:1.25;font-family:'Arial Black';-inkscape-font-specification:'Arial Black, Normal';font-variant-ligatures:normal;font-variant-caps:normal;font-variant-numeric:normal;font-feature-settings:normal;text-align:center;letter-spacing:0px;word-spacing:0px;writing-mode:lr-tb;text-anchor:middle;fill:#000000;fill-opacity:1;stroke:none;stroke-width:0.26458332"
       id="text343">
      <path
         d="m 11.01931,-20.679229 0.742419,-0.04651 q 0.02412,0.180867 0.09818,0.275607 0.120578,0.153307 0.344509,0.153307 0.167087,0 0.25666,-0.07751 0.09129,-0.07924 0.09129,-0.18259 0,-0.09819 -0.08613,-0.175699 -0.08613,-0.07752 -0.399632,-0.146417 -0.513319,-0.115411 -0.732082,-0.306614 -0.220486,-0.191202 -0.220486,-0.487481 0,-0.194647 0.111965,-0.366902 0.113688,-0.173977 0.339342,-0.272163 0.227376,-0.09991 0.62184,-0.09991 0.484036,0 0.73725,0.180867 0.254937,0.179145 0.303169,0.571886 l -0.735528,0.04306 q -0.02928,-0.170533 -0.124024,-0.248047 -0.09302,-0.07751 -0.258382,-0.07751 -0.136081,0 -0.204983,0.05857 -0.0689,0.05684 -0.0689,0.139526 0,0.06029 0.05684,0.108521 0.05512,0.04995 0.261827,0.09302 0.511597,0.110243 0.732083,0.223931 0.222209,0.111966 0.322117,0.279053 0.10163,0.167087 0.10163,0.373793 0,0.242879 -0.134359,0.447862 -0.134359,0.204983 -0.375515,0.311781 -0.241157,0.105076 -0.60806,0.105076 -0.644232,0 -0.892279,-0.248047 -0.248047,-0.248047 -0.280776,-0.630452 z"
         style="stroke-width:0.26458332"
         id="path345" />
    </g>
    <g
       aria-label="BPM"
       style="font-style:normal;font-variant:normal;font-weight:normal;font-stretch:normal;font-size:3.52777767px;line-height:1.25;font-family:'Arial Black';-inkscape-font-specification:'Arial Black, Normal';font-variant-ligatures:normal;font-variant-caps:normal;font-variant-numeric:normal;font-feature-settings:normal;text-align:center;letter-spacing:0px;word-spacing:0px;writing-mode:lr-tb;text-anchor:middle;fill:#000000;fill-opacity:1;stroke:none;stroke-width:0.26458332"
       id="text350">
      <path
         d="m 3.8869291,-5.9648818 h 1.4607204 q 0.3651802,0 0.559828,0.1808675 0.1963705,0.1808675 0.1963705,0.4478624 0,0.2239312 -0.1395264,0.3841281 -0.093018,0.106798 -0.2721625,0.1688097 0.2721625,0.065457 0.399631,0.2256537 0.1291911,0.1584744 0.1291911,0.3996311 0,0.1963704 -0.091295,0.3531223 -0.091295,0.1567518 -0.2497694,0.2480468 -0.098185,0.056844 -0.2962782,0.082682 -0.2635498,0.034451 -0.3496772,0.034451 H 3.8869291 Z m 0.7872043,0.9904649 h 0.3393419 q 0.18259,0 0.2532145,-0.062012 0.072347,-0.063734 0.072347,-0.1825901 0,-0.110243 -0.072347,-0.1722548 -0.070625,-0.062012 -0.2480469,-0.062012 H 4.6741334 Z m 0,0.9921874 h 0.3979085 q 0.2015381,0 0.2842204,-0.070624 0.082682,-0.072347 0.082682,-0.1929254 0,-0.1119656 -0.082682,-0.1791449 -0.08096,-0.068902 -0.2859429,-0.068902 h -0.396186 z"
         style="fill:#0000ff;stroke-width:0.26458332"
         id="path364" />
      <path
         d="m 6.62578,-5.9648818 h 1.2970784 q 0.4237468,0 0.6338976,0.201538 0.2118733,0.2015381 0.2118733,0.5736084 0,0.3824056 -0.2308213,0.5977241 -0.2290989,0.2153184 -0.701077,0.2153184 H 7.4095392 v 0.937066 H 6.62578 Z m 0.7837592,1.0765923 H 7.600742 q 0.2256538,0 0.3169488,-0.077515 0.091295,-0.079237 0.091295,-0.2015381 0,-0.1188558 -0.079237,-0.201538 -0.079237,-0.082682 -0.2980007,-0.082682 H 7.4095392 Z"
         style="fill:#0000ff;stroke-width:0.26458332"
         id="path366" />
      <path
         d="m 9.1682603,-5.9648818 h 1.0266387 l 0.396186,1.5365125 0.394463,-1.5365125 h 1.023193 v 2.5252549 h -0.637342 v -1.9258084 l -0.494371,1.9258084 H 10.299974 L 9.8073255,-5.3654353 v 1.9258084 H 9.1682603 Z"
         style="fill:#0000ff;stroke-width:0.26458332"
         id="path368" />
    </g>
    <g
       aria-label="DIV"
       style="font-style:normal;font-variant:normal;font-weight:normal;font-stretch:normal;font-size:3.52777767px;line-height:1.25;font-family:'Arial Black';-inkscape-font-specification:'Arial Black, Normal';font-variant-ligatures:normal;font-variant-caps:normal;font-variant-numeric:normal;font-feature-settings:normal;text-align:center;letter-spacing:0px;word-spacing:0px;writing-mode:lr-tb;text-anchor:middle;fill:#000000;fill-opacity:1;stroke:none;stroke-width:0.26458332"
       id="text373">
      <path
         d="m 4.246597,10.174702 h 1.1592746 q 0.342787,0 0.5529378,0.09302 0.2118734,0.09302 0.3496772,0.266994 0.1378038,0.173978 0.1998155,0.404799 0.062012,0.230822 0.062012,0.489204 0,0.404798 -0.093018,0.62873 -0.091295,0.222208 -0.2549371,0.373792 -0.163642,0.149862 -0.3513997,0.199816 -0.2566596,0.0689 -0.4650879,0.0689 H 4.246597 Z m 0.7803141,0.571886 v 1.379761 h 0.1912028 q 0.2446018,0 0.3479546,-0.0534 0.1033529,-0.05512 0.1619195,-0.189481 0.058567,-0.136081 0.058567,-0.439249 0,-0.401354 -0.1309137,-0.549493 -0.1309136,-0.148139 -0.434082,-0.148139 z"
         style="fill:#0000ff;stroke-width:0.26458332"
         id="path387" />
      <path
         d="m 7.0112861,10.174702 h 0.7820367 v 2.525255 H 7.0112861 Z"
         style="fill:#0000ff;stroke-width:0.26458332"
         id="path389" />
      <path
         d="M 8.1033813,10.174702 H 8.9198689 L 9.4883097,11.99199 10.048138,10.174702 H 10.84051 L 9.9034437,12.699957 H 9.0576727 Z"
         style="fill:#0000ff;stroke-width:0.26458332"
         id="path391" />
    </g>
    <g
       aria-label="CLK"
       style="font-style:normal;font-variant:normal;font-weight:normal;font-stretch:normal;font-size:3.52777767px;line-height:1.25;font-family:'Arial Black';-inkscape-font-specification:'Arial Black, Normal';font-variant-ligatures:normal;font-variant-caps:normal;font-variant-numeric:normal;font-feature-settings:normal;text-align:center;letter-spacing:0px;word-spacing:0px;writing-mode:lr-tb;text-anchor:middle;fill:#000000;fill-opacity:1;stroke:none;stroke-width:0.26458332"
       id="text396">
      <path
         d="m 5.3300795,28.072316 0.6838514,0.206706 q -0.068902,0.287665 -0.217041,0.480591 -0.1481391,0.192925 -0.3686252,0.29111 -0.2187635,0.09818 -0.5581054,0.09818 -0.4116889,0 -0.6735162,-0.118855 -0.2601047,-0.120579 -0.4495849,-0.422025 -0.1894803,-0.301445 -0.1894803,-0.771701 0,-0.627007 0.3324517,-0.962904 0.3341743,-0.337619 0.9439562,-0.337619 0.4771457,0 0.7493082,0.192925 0.2738851,0.192925 0.4065213,0.592556 l -0.6890191,0.153307 q -0.036173,-0.115411 -0.075792,-0.16881 -0.065457,-0.08957 -0.1601969,-0.137803 -0.09474,-0.04823 -0.2118734,-0.04823 -0.2652723,0 -0.4065213,0.213596 -0.1067979,0.158475 -0.1067979,0.497816 0,0.420302 0.1274685,0.577054 0.1274685,0.155029 0.3582899,0.155029 0.2239312,0 0.3376194,-0.125746 0.1154107,-0.125746 0.1670871,-0.36518 z"
         style="fill:#008000;stroke-width:0.26458332"
         id="path410" />
      <path
         d="m 6.3928915,26.578867 h 0.7803141 v 1.903415 h 1.2178412 v 0.62184 H 6.3928915 Z"
         style="fill:#008000;stroke-width:0.26458332"
         id="path412" />
      <path
         d="m 8.7493368,26.578867 h 0.7803141 v 0.954292 l 0.8182101,-0.954292 h 1.036974 l -0.919841,0.952569 0.961182,1.572686 H 10.464994 L 9.932727,28.065426 9.5296509,28.48745 v 0.616672 H 8.7493368 Z"
         style="fill:#008000;stroke-width:0.26458332"
         id="path414" />
    </g>
    <g
       aria-label="STRT"
       style="font-style:normal;font-variant:normal;font-weight:normal;font-stretch:normal;font-size:3.52777767px;line-height:1.25;font-family:'Arial Black';-inkscape-font-specification:'Arial Black, Normal';font-variant-ligatures:normal;font-variant-caps:normal;font-variant-numeric:normal;font-feature-settings:normal;text-align:center;letter-spacing:0px;word-spacing:0px;writing-mode:lr-tb;text-anchor:middle;fill:#000000;fill-opacity:1;stroke:none;stroke-width:0.26458332"
       id="text419">
      <path
         d="m 2.3526558,44.937437 0.7424181,-0.04651 q 0.024116,0.180867 0.098185,0.275607 0.1205783,0.153307 0.3445095,0.153307 0.1670872,0 0.2566596,-0.07751 0.091295,-0.07924 0.091295,-0.18259 0,-0.09819 -0.086127,-0.1757 Q 3.7134685,44.806524 3.3999648,44.737622 2.8866456,44.622211 2.6678821,44.431008 2.447396,44.239805 2.447396,43.943527 q 0,-0.194648 0.1119656,-0.366902 0.1136881,-0.173978 0.3393418,-0.272163 0.2273763,-0.09991 0.6218398,-0.09991 0.4840359,0 0.7372504,0.180868 0.254937,0.179145 0.3031684,0.571886 l -0.7355279,0.04306 q -0.029283,-0.170532 -0.1240234,-0.248047 -0.093018,-0.07751 -0.2583822,-0.07751 -0.1360813,0 -0.2049832,0.05857 -0.068902,0.05685 -0.068902,0.139527 0,0.06029 0.056844,0.10852 0.055121,0.04995 0.2618273,0.09302 0.5115966,0.110243 0.7320827,0.223931 0.2222087,0.111966 0.3221164,0.279053 0.1016304,0.167087 0.1016304,0.373793 0,0.242879 -0.1343588,0.447862 -0.1343587,0.204983 -0.3755154,0.311781 -0.2411566,0.105076 -0.6080593,0.105076 -0.6442328,0 -0.8922797,-0.248047 -0.2480469,-0.248047 -0.2807753,-0.630453 z"
         style="fill:#008000;stroke-width:0.26458332"
         id="path432" />
      <path
         d="m 4.8589626,43.247618 h 2.3719482 v 0.623562 h -0.795817 v 1.901693 H 5.6547797 V 43.87118 H 4.8589626 Z"
         style="fill:#008000;stroke-width:0.26458332"
         id="path434" />
      <path
         d="m 7.5943683,45.772873 v -2.525255 h 1.3005235 q 0.361735,0 0.5529378,0.06201 0.1912028,0.06201 0.308336,0.230821 0.1171333,0.167087 0.1171333,0.408244 0,0.210151 -0.089572,0.363457 -0.089573,0.151585 -0.2463243,0.246325 -0.099908,0.06029 -0.2738851,0.09991 0.1395264,0.04651 0.2032606,0.09302 0.043064,0.03101 0.1240235,0.132636 0.082682,0.101631 0.110243,0.156752 l 0.3772379,0.732083 H 9.1963376 L 8.7794811,45.001172 Q 8.7002439,44.85131 8.6382322,44.806524 8.5538274,44.747957 8.4470294,44.747957 h -0.068902 v 1.024916 z m 0.7837592,-1.502062 h 0.3290066 q 0.053399,0 0.2067057,-0.03445 0.077515,-0.0155 0.125746,-0.07924 0.049954,-0.06373 0.049954,-0.146416 0,-0.122301 -0.077515,-0.187758 -0.077515,-0.06546 -0.2911105,-0.06546 h -0.342787 z"
         style="fill:#008000;stroke-width:0.26458332"
         id="path436" />
      <path
         d="m 10.119623,43.247618 h 2.371948 v 0.623562 h -0.795817 v 1.901693 H 10.91544 V 43.87118 h -0.795817 z"
         style="fill:#008000;stroke-width:0.26458332"
         id="path438" />
    </g>
    <g
       aria-label="STOP"
       style="font-style:normal;font-variant:normal;font-weight:normal;font-stretch:normal;font-size:3.52777767px;line-height:1.25;font-family:'Arial Black';-inkscape-font-specification:'Arial Black, Normal';font-variant-ligatures:normal;font-variant-caps:normal;font-variant-numeric:normal;font-feature-settings:normal;text-align:center;letter-spacing:0px;word-spacing:0px;writing-mode:lr-tb;text-anchor:middle;fill:#000000;fill-opacity:1;stroke:none;stroke-width:0.26458332"
       id="text443">
      <path
         d="m 2.5647017,61.341604 0.7424181,-0.04651 q 0.024116,0.180867 0.098185,0.275607 0.1205783,0.153307 0.3445095,0.153307 0.1670871,0 0.2566596,-0.07751 0.091295,-0.07924 0.091295,-0.18259 0,-0.09818 -0.086127,-0.1757 -0.086127,-0.07751 -0.3996311,-0.146416 -0.5133192,-0.115411 -0.7320828,-0.306614 -0.2204861,-0.191202 -0.2204861,-0.487481 0,-0.194647 0.1119656,-0.366902 0.1136882,-0.173978 0.3393419,-0.272163 0.2273763,-0.09991 0.6218397,-0.09991 0.4840359,0 0.7372505,0.180868 0.254937,0.179145 0.3031684,0.571886 L 4.03748,60.404539 q -0.029283,-0.170533 -0.1240234,-0.248047 -0.093018,-0.07751 -0.2583822,-0.07751 -0.1360813,0 -0.2049832,0.05857 -0.068902,0.05684 -0.068902,0.139526 0,0.06029 0.056844,0.108521 0.055121,0.04995 0.2618272,0.09302 0.5115967,0.110243 0.7320828,0.223931 0.2222087,0.111966 0.3221164,0.279053 0.1016303,0.167087 0.1016303,0.373793 0,0.242879 -0.1343587,0.447862 -0.1343587,0.204983 -0.3755154,0.311781 -0.2411567,0.105076 -0.6080593,0.105076 -0.6442328,0 -0.8922797,-0.248047 Q 2.5974301,61.72401 2.5647017,61.341604 Z"
         style="fill:#008000;stroke-width:0.26458332"
         id="path458" />
      <path
         d="m 5.0710085,59.651785 h 2.3719482 v 0.623562 H 6.6471397 V 62.17704 H 5.8668256 V 60.275347 H 5.0710085 Z"
         style="fill:#008000;stroke-width:0.26458332"
         id="path460" />
      <path
         d="m 7.5773154,60.916135 q 0,-0.618394 0.3445095,-0.962904 0.3445096,-0.34451 0.9594591,-0.34451 0.6304524,0 0.9715169,0.339342 0.3410641,0.33762 0.3410641,0.947402 0,0.442694 -0.149861,0.726915 -0.1481394,0.282498 -0.4306373,0.440972 -0.2807752,0.156752 -0.7010769,0.156752 -0.4271918,0 -0.7079671,-0.136081 Q 7.92527,61.947941 7.7512927,61.653386 7.5773154,61.35883 7.5773154,60.916135 Z m 0.7803141,0.0034 q 0,0.382406 0.1412489,0.549493 0.1429715,0.167087 0.3875732,0.167087 0.251492,0 0.3892958,-0.163642 0.1378038,-0.163642 0.1378038,-0.587389 0,-0.356567 -0.144694,-0.520209 -0.1429714,-0.165365 -0.3892958,-0.165365 -0.235989,0 -0.3789605,0.167087 -0.1429714,0.167088 -0.1429714,0.552938 z"
         style="fill:#008000;stroke-width:0.26458332"
         id="path462" />
      <path
         d="M 10.610722,59.651785 H 11.9078 q 0.423747,0 0.633898,0.201538 0.211873,0.201538 0.211873,0.573609 0,0.382405 -0.230821,0.597724 -0.229099,0.215318 -0.701077,0.215318 h -0.427192 v 0.937066 h -0.783759 z m 0.783759,1.076592 h 0.191203 q 0.225654,0 0.316949,-0.07751 0.0913,-0.07924 0.0913,-0.201538 0,-0.118856 -0.07924,-0.201538 -0.07924,-0.08268 -0.298,-0.08268 h -0.222209 z"
         style="fill:#008000;stroke-width:0.26458332"
         id="path464" />
    </g>
    <g
       aria-label="CONT"
       style="font-style:normal;font-variant:normal;font-weight:normal;font-stretch:normal;font-size:3.52777767px;line-height:1.25;font-family:'Arial Black';-inkscape-font-specification:'Arial Black, Normal';font-variant-ligatures:normal;font-variant-caps:normal;font-variant-numeric:normal;font-feature-settings:normal;text-align:center;letter-spacing:0px;word-spacing:0px;writing-mode:lr-tb;text-anchor:middle;fill:#000000;fill-opacity:1;stroke:none;stroke-width:0.26458332"
       id="text469">
      <path
         d="m 4.028006,77.020234 0.6838514,0.206706 q -0.068902,0.287665 -0.217041,0.480591 -0.1481391,0.192925 -0.3686252,0.29111 -0.2187636,0.09818 -0.5581055,0.09818 -0.4116889,0 -0.6735161,-0.118855 -0.2601047,-0.120579 -0.449585,-0.422025 -0.1894802,-0.301445 -0.1894802,-0.771701 0,-0.627007 0.3324517,-0.962904 0.3341743,-0.33762 0.9439561,-0.33762 0.4771457,0 0.7493083,0.192926 0.2738851,0.192925 0.4065212,0.592556 l -0.689019,0.153307 q -0.036173,-0.115411 -0.075792,-0.16881 -0.065457,-0.08957 -0.160197,-0.137804 -0.09474,-0.04823 -0.2118733,-0.04823 -0.2652724,0 -0.4065213,0.213596 -0.1067979,0.158474 -0.1067979,0.497816 0,0.420302 0.1274685,0.577054 0.1274685,0.155029 0.3582899,0.155029 0.2239312,0 0.3376193,-0.125746 0.1154107,-0.125746 0.1670872,-0.36518 z"
         style="fill:#008000;stroke-width:0.26458332"
         id="path483" />
      <path
         d="m 4.9926328,76.791135 q 0,-0.618394 0.3445095,-0.962904 0.3445095,-0.34451 0.9594591,-0.34451 0.6304524,0 0.9715169,0.339342 0.3410644,0.33762 0.3410644,0.947402 0,0.442694 -0.1498616,0.726915 -0.1481391,0.282498 -0.430637,0.440972 -0.2807752,0.156752 -0.7010769,0.156752 -0.4271918,0 -0.7079671,-0.136081 Q 5.3405874,77.822941 5.1666101,77.528386 4.9926328,77.23383 4.9926328,76.791135 Z m 0.7803141,0.0034 q 0,0.382406 0.1412489,0.549493 0.1429714,0.167087 0.3875732,0.167087 0.251492,0 0.3892958,-0.163642 0.1378038,-0.163642 0.1378038,-0.587389 0,-0.356567 -0.144694,-0.520209 -0.1429715,-0.165365 -0.3892958,-0.165365 -0.235989,0 -0.3789605,0.167087 -0.1429714,0.167088 -0.1429714,0.552938 z"
         style="fill:#008000;stroke-width:0.26458332"
         id="path485" />
      <path
         d="m 8.034652,75.526785 h 0.7286376 l 0.9508464,1.396986 v -1.396986 h 0.735528 V 78.05204 H 9.714136 L 8.7684573,76.665389 V 78.05204 H 8.034652 Z"
         style="fill:#008000;stroke-width:0.26458332"
         id="path487" />
      <path
         d="m 10.790728,75.526785 h 2.371948 v 0.623562 h -0.795817 v 1.901693 h -0.780314 v -1.901693 h -0.795817 z"
         style="fill:#008000;stroke-width:0.26458332"
         id="path489" />
    </g>
  </g>
</svg>
