<?xml version="1.0" encoding="UTF-8" standalone="no"?>
<!-- Created with Inkscape (http://www.inkscape.org/) -->

<svg
   xmlns:dc="http://purl.org/dc/elements/1.1/"
   xmlns:cc="http://creativecommons.org/ns#"
   xmlns:rdf="http://www.w3.org/1999/02/22-rdf-syntax-ns#"
   xmlns:svg="http://www.w3.org/2000/svg"
   xmlns="http://www.w3.org/2000/svg"
   xmlns:sodipodi="http://sodipodi.sourceforge.net/DTD/sodipodi-0.dtd"
   xmlns:inkscape="http://www.inkscape.org/namespaces/inkscape"
   width="15.24mm"
   height="128.54166mm"
   viewBox="0 0 15.24 128.5417"
   version="1.1"
   id="svg4541"
   sodipodi:docname="T.svg"
   inkscape:version="0.92.5 (2060ec1f9f, 2020-04-08)">
  <defs
     id="defs4535" />
  <sodipodi:namedview
     id="base"
     pagecolor="#ffffff"
     bordercolor="#666666"
     borderopacity="1.0"
     inkscape:pageopacity="0.0"
     inkscape:pageshadow="2"
     inkscape:zoom="2.8284271"
     inkscape:cx="112.79011"
     inkscape:cy="316.94187"
     inkscape:document-units="mm"
     inkscape:current-layer="layer1"
     showgrid="true"
     fit-margin-top="0"
     fit-margin-left="0"
     fit-margin-right="0"
     fit-margin-bottom="0"
     inkscape:window-width="1600"
     inkscape:window-height="845"
     inkscape:window-x="0"
     inkscape:window-y="0"
     inkscape:window-maximized="1"
     units="mm">
    <inkscape:grid
       type="xygrid"
       id="grid76" />
  </sodipodi:namedview>
  <metadata
     id="metadata4538">
    <rdf:RDF>
      <cc:Work
         rdf:about="">
        <dc:format>image/svg+xml</dc:format>
        <dc:type
           rdf:resource="http://purl.org/dc/dcmitype/StillImage" />
        <dc:title />
      </cc:Work>
    </rdf:RDF>
  </metadata>
  <g
     inkscape:groupmode="layer"
     id="layer1"
     inkscape:label="Background"
     style="display:inline;opacity:1">
    <rect
       style="fill:#ffffff;stroke-width:0.21715553"
       id="rect111"
       width="15.610416"
       height="128.32292"
       x="0"
       y="0.21873982" />
    <text
       xml:space="preserve"
       style="font-style:normal;font-variant:normal;font-weight:normal;font-stretch:normal;font-size:3.52777767px;line-height:1.25;font-family:'Arial Black';-inkscape-font-specification:'Arial Black, Normal';font-variant-ligatures:normal;font-variant-caps:normal;font-variant-numeric:normal;font-feature-settings:normal;text-align:center;letter-spacing:0px;word-spacing:0px;writing-mode:lr-tb;text-anchor:middle;fill:#000000;fill-opacity:1;stroke:none;stroke-width:0.26458332"
       x="17.197916"
       y="120.60415"
       id="text168"><tspan
         sodipodi:role="line"
         id="tspan166"
         x="17.197916"
         y="123.76708"
         style="stroke-width:0.26458332" /></text>
    <g
       aria-label="Tune"
       style="font-style:normal;font-variant:normal;font-weight:normal;font-stretch:normal;font-size:3.52777767px;line-height:1.25;font-family:'Arial Black';-inkscape-font-specification:'Arial Black, Normal';font-variant-ligatures:normal;font-variant-caps:normal;font-variant-numeric:normal;font-feature-settings:normal;text-align:center;letter-spacing:0px;word-spacing:0px;writing-mode:lr-tb;text-anchor:middle;fill:#000000;fill-opacity:1;stroke:none;stroke-width:0.26458332"
       id="text49">
      <path
         d="M 3.2909338,23.358069 H 5.662882 v 0.623562 H 4.8670649 v 1.901693 H 4.0867508 v -1.901693 h -0.795817 z"
         style="stroke-width:0.26458332;fill:#000000"
         id="path189" />
      <path
         d="M 7.7454421,25.883324 H 7.090874 v -0.296279 q -0.1464166,0.182591 -0.2962782,0.260105 -0.1481391,0.07752 -0.3651801,0.07752 -0.2893881,0 -0.4547526,-0.172255 Q 5.811021,25.578433 5.811021,25.21842 v -1.164442 h 0.704522 v 1.005968 q 0,0.172255 0.063734,0.244602 0.063734,0.07235 0.179145,0.07235 0.125746,0 0.2049831,-0.09646 0.08096,-0.09646 0.08096,-0.346232 v -0.880222 h 0.7010769 z"
         style="stroke-width:0.26458332;fill:#000000"
         id="path191" />
      <path
         d="M 8.1709114,24.053978 H 8.823757 v 0.298001 q 0.1464165,-0.18259 0.2962782,-0.260105 0.1498616,-0.07924 0.3651801,-0.07924 0.2911105,0 0.4547526,0.173977 0.1653641,0.172255 0.1653641,0.53399 v 1.16272 H 9.4008104 v -1.005968 q 0,-0.172255 -0.063734,-0.242879 -0.063734,-0.07235 -0.179145,-0.07235 -0.1274685,0 -0.2067057,0.09646 -0.079237,0.09646 -0.079237,0.346232 v 0.8785 H 8.1709114 Z"
         style="stroke-width:0.26458332;fill:#000000"
         id="path193" />
      <path
         d="m 12.554795,25.142628 h -1.405599 q 0.01895,0.16881 0.0913,0.251492 0.101631,0.118856 0.265273,0.118856 0.103353,0 0.19637,-0.05168 0.05684,-0.03273 0.122301,-0.11541 l 0.690742,0.06373 q -0.158475,0.275608 -0.382406,0.396186 -0.223931,0.118856 -0.64251,0.118856 -0.363458,0 -0.571886,-0.10163 -0.208428,-0.103353 -0.346232,-0.325562 -0.136081,-0.223931 -0.136081,-0.525377 0,-0.428914 0.273885,-0.694187 0.275607,-0.265272 0.759643,-0.265272 0.392741,0 0.620117,0.118856 0.227377,0.118855 0.346232,0.344509 0.118856,0.225654 0.118856,0.587389 z m -0.713134,-0.335897 q -0.02067,-0.20326 -0.110244,-0.29111 -0.08785,-0.08785 -0.232543,-0.08785 -0.167088,0 -0.266995,0.132636 -0.06373,0.08268 -0.08096,0.246324 z"
         style="stroke-width:0.26458332;fill:#000000"
         id="path195" />
    </g>
  </g>
  <g
     inkscape:groupmode="layer"
     id="layer4"
     inkscape:label="graphics"
     transform="translate(0,28.00003)"
     style="display:inline">
    <text
       xml:space="preserve"
       style="font-style:normal;font-variant:normal;font-weight:normal;font-stretch:normal;font-size:4.58611107px;line-height:1.25;font-family:'Arial Black';-inkscape-font-specification:'Arial Black, Normal';font-variant-ligatures:normal;font-variant-caps:normal;font-variant-numeric:normal;text-align:center;letter-spacing:0px;word-spacing:0px;writing-mode:lr-tb;text-anchor:middle;fill:#000000;fill-opacity:1;stroke:none;stroke-width:0.26458332"
       x="11.90625"
       y="-21.166708"
       id="text115"><tspan
         sodipodi:role="line"
         id="tspan113"
         x="11.90625"
         y="-17.054897"
         style="stroke-width:0.26458332" /></text>
    <g
       aria-label="KRT"
       style="font-style:normal;font-variant:normal;font-weight:normal;font-stretch:normal;font-size:3.52777767px;line-height:1.25;font-family:'Arial Black';-inkscape-font-specification:'Arial Black, Normal';font-variant-ligatures:normal;font-variant-caps:normal;font-variant-numeric:normal;font-feature-settings:normal;text-align:center;letter-spacing:0px;word-spacing:0px;writing-mode:lr-tb;text-anchor:middle;fill:#0000ff;fill-opacity:1;stroke:none;stroke-width:0.26458332"
       id="text123"
       transform="translate(-12.170835,-117.47517)">
      <path
         d="m 14.418414,95.635115 h 0.780314 v 0.954291 l 0.81821,-0.954291 h 1.036974 l -0.91984,0.952569 0.961181,1.572686 h -0.961181 l -0.532268,-1.038696 -0.403076,0.422024 v 0.616672 h -0.780314 z"
         style="fill:#0000ff;stroke-width:0.26458332"
         id="path227"
         inkscape:connector-curvature="0" />
      <path
         d="m 17.363971,98.16037 v -2.525255 h 1.300523 q 0.361735,0 0.552938,0.06201 0.191203,0.06201 0.308336,0.230821 0.117133,0.167087 0.117133,0.408244 0,0.210151 -0.08957,0.363457 -0.08957,0.151585 -0.246325,0.246325 -0.09991,0.06029 -0.273885,0.09991 0.139527,0.04651 0.203261,0.09302 0.04306,0.03101 0.124023,0.132636 0.08268,0.101631 0.110243,0.156752 l 0.377238,0.732083 H 18.96594 l -0.416857,-0.771701 q -0.07924,-0.149862 -0.141248,-0.194648 -0.08441,-0.05857 -0.191203,-0.05857 h -0.0689 v 1.024916 z m 0.783759,-1.502062 h 0.329006 q 0.0534,0 0.206706,-0.03445 0.07752,-0.0155 0.125746,-0.07924 0.04995,-0.06373 0.04995,-0.146416 0,-0.122301 -0.07751,-0.187758 -0.07751,-0.06546 -0.29111,-0.06546 H 18.14773 Z"
         style="fill:#0000ff;stroke-width:0.26458332"
         id="path229"
         inkscape:connector-curvature="0" />
      <path
         d="m 19.889226,95.635115 h 2.371948 v 0.623562 h -0.795817 v 1.901693 h -0.780314 v -1.901693 h -0.795817 z"
         style="fill:#0000ff;stroke-width:0.26458332"
         id="path231"
         inkscape:connector-curvature="0" />
    </g>
    <g
       aria-label="μ"
       style="font-style:normal;font-variant:normal;font-weight:normal;font-stretch:normal;font-size:3.52777767px;line-height:1.25;font-family:'Arial Black';-inkscape-font-specification:'Arial Black, Normal';font-variant-ligatures:normal;font-variant-caps:normal;font-variant-numeric:normal;font-feature-settings:normal;text-align:center;letter-spacing:0px;word-spacing:0px;writing-mode:lr-tb;text-anchor:middle;fill:#000000;fill-opacity:1;stroke:none;stroke-width:0.26458332"
       id="text107" />
    <g
       aria-label="T"
       style="font-style:normal;font-variant:normal;font-weight:normal;font-stretch:normal;font-size:3.52777767px;line-height:1.25;font-family:'Arial Black';-inkscape-font-specification:'Arial Black, Normal';font-variant-ligatures:normal;font-variant-caps:normal;font-variant-numeric:normal;font-feature-settings:normal;text-align:center;letter-spacing:0px;word-spacing:0px;writing-mode:lr-tb;text-anchor:middle;fill:#000000;fill-opacity:1;stroke:none;stroke-width:0.26458332"
       id="text73"
       transform="translate(-0.52916663)">
      <path
         d="M 11.242552,-20.25238 H 13.6145 v 0.623562 h -0.795817 v 1.901693 h -0.780314 v -1.901693 h -0.795817 z"
         style="stroke-width:0.26458332"
         id="path75"
         inkscape:connector-curvature="0" />
    </g>
    <g
       aria-label="Fine"
       style="font-style:normal;font-variant:normal;font-weight:normal;font-stretch:normal;font-size:3.52777767px;line-height:1.25;font-family:'Arial Black';-inkscape-font-specification:'Arial Black, Normal';font-variant-ligatures:normal;font-variant-caps:normal;font-variant-numeric:normal;font-feature-settings:normal;text-align:center;letter-spacing:0px;word-spacing:0px;writing-mode:lr-tb;text-anchor:middle;fill:#000000;fill-opacity:1;stroke:none;stroke-width:0.26458332"
       id="text80">
      <path
         d="M 4.0824426,14.143454 H 6.011696 v 0.542602 H 4.8662018 v 0.440973 h 0.978407 v 0.509874 h -0.978407 v 1.031806 H 4.0824426 Z"
         style="stroke-width:0.26458332"
         id="path180" />
      <path
         d="M 6.4113271,14.143454 H 7.112404 V 14.6206 H 6.4113271 Z m 0,0.695909 H 7.112404 v 1.829346 H 6.4113271 Z"
         style="stroke-width:0.26458332"
         id="path182" />
      <path
         d="m 7.5602663,14.839363 h 0.6528456 v 0.298001 q 0.1464166,-0.18259 0.2962782,-0.260105 0.1498617,-0.07924 0.3651801,-0.07924 0.2911106,0 0.4547526,0.173977 0.1653646,0.172255 0.1653646,0.53399 v 1.16272 h -0.704522 v -1.005968 q 0,-0.172255 -0.063734,-0.242879 -0.063734,-0.07235 -0.1791449,-0.07235 -0.1274686,0 -0.2067057,0.09646 -0.079237,0.09646 -0.079237,0.346232 v 0.8785 h -0.701077 z"
         style="stroke-width:0.26458332"
         id="path184" />
      <path
         d="m 11.94415,15.928013 h -1.405599 q 0.01895,0.16881 0.0913,0.251492 0.101631,0.118856 0.265273,0.118856 0.103353,0 0.19637,-0.05168 0.05684,-0.03273 0.122301,-0.115411 l 0.690742,0.06373 q -0.158475,0.275608 -0.382406,0.396186 -0.223931,0.118856 -0.64251,0.118856 -0.363458,0 -0.571886,-0.10163 -0.208428,-0.103353 -0.3462322,-0.325562 -0.1360812,-0.223931 -0.1360812,-0.525377 0,-0.428914 0.2738854,-0.694187 0.275607,-0.265272 0.759643,-0.265272 0.392741,0 0.620117,0.118856 0.227377,0.118856 0.346232,0.344509 0.118856,0.225654 0.118856,0.587389 z m -0.713135,-0.335897 q -0.02067,-0.20326 -0.110243,-0.29111 -0.08785,-0.08785 -0.232543,-0.08785 -0.167088,0 -0.266995,0.132636 -0.06373,0.08268 -0.08096,0.246324 z"
         style="stroke-width:0.26458332"
         id="path186" />
    </g>
    <g
       aria-label="IN"
       style="font-style:normal;font-variant:normal;font-weight:normal;font-stretch:normal;font-size:3.52777767px;line-height:1.25;font-family:'Arial Black';-inkscape-font-specification:'Arial Black, Normal';font-variant-ligatures:normal;font-variant-caps:normal;font-variant-numeric:normal;font-feature-settings:normal;text-align:center;letter-spacing:0px;word-spacing:0px;writing-mode:lr-tb;text-anchor:middle;fill:#000000;fill-opacity:1;stroke:none;stroke-width:0.26458332"
       id="text95">
      <path
         d="M 5.8065393,32.664286 H 6.588576 v 2.525255 H 5.8065393 Z"
         style="fill:#00ff00;stroke-width:0.26458332"
         id="path175" />
      <path
         d="m 7.1535717,32.664286 h 0.7286376 l 0.9508464,1.396986 v -1.396986 h 0.7355278 v 2.525255 H 8.8330557 L 7.887377,33.80289 v 1.386651 H 7.1535717 Z"
         style="fill:#00ff00;stroke-width:0.26458332"
         id="path177" />
    </g>
    <g
       aria-label="TRIG"
       style="font-style:normal;font-variant:normal;font-weight:normal;font-stretch:normal;font-size:3.52777767px;line-height:1.25;font-family:'Arial Black';-inkscape-font-specification:'Arial Black, Normal';font-variant-ligatures:normal;font-variant-caps:normal;font-variant-numeric:normal;font-feature-settings:normal;text-align:center;letter-spacing:0px;word-spacing:0px;writing-mode:lr-tb;text-anchor:middle;fill:#000000;fill-opacity:1;stroke:none;stroke-width:0.26458332"
       id="text112">
      <path
         d="m 2.9522711,51.714285 h 2.3719482 v 0.623562 H 4.5284023 V 54.23954 H 3.7480882 V 52.337847 H 2.9522711 Z"
         style="fill:#00ff00;stroke-width:0.26458332"
         id="path166" />
      <path
         d="m 5.6876768,54.23954 v -2.525255 h 1.3005235 q 0.361735,0 0.5529378,0.06201 0.1912028,0.06201 0.308336,0.230821 0.1171333,0.167087 0.1171333,0.408244 0,0.210151 -0.089573,0.363458 -0.089573,0.151584 -0.2463243,0.246324 -0.099908,0.06029 -0.2738851,0.09991 0.1395264,0.04651 0.2032606,0.09302 0.043064,0.03101 0.1240235,0.132636 0.082682,0.101631 0.110243,0.156752 L 8.1715905,54.23954 H 7.2896461 L 6.8727896,53.467839 Q 6.7935524,53.317977 6.7315407,53.273191 6.6471358,53.214624 6.5403379,53.214624 H 6.471436 V 54.23954 Z M 6.471436,52.737479 h 0.3290066 q 0.053399,0 0.2067057,-0.03445 0.077515,-0.0155 0.125746,-0.07924 0.049954,-0.06373 0.049954,-0.146416 0,-0.122301 -0.077515,-0.187758 -0.077515,-0.06546 -0.2911105,-0.06546 H 6.471436 Z"
         style="fill:#00ff00;stroke-width:0.26458332"
         id="path168" />
      <path
         d="M 8.4523659,51.714285 H 9.2344026 V 54.23954 H 8.4523659 Z"
         style="fill:#00ff00;stroke-width:0.26458332"
         id="path170" />
      <path
         d="M 11.063748,53.324867 V 52.79949 h 1.205784 v 1.076593 q -0.346233,0.235989 -0.613227,0.322116 -0.265273,0.0844 -0.630453,0.0844 -0.449585,0 -0.733805,-0.153307 -0.282498,-0.153307 -0.4392499,-0.456475 -0.1550293,-0.303168 -0.1550293,-0.695909 0,-0.413412 0.1705322,-0.718303 0.170532,-0.306613 0.499539,-0.465088 0.256659,-0.122301 0.690741,-0.122301 0.41858,0 0.625285,0.07579 0.208429,0.07579 0.34451,0.235989 0.137804,0.158474 0.206706,0.403076 l -0.752754,0.134359 q -0.04651,-0.142972 -0.158474,-0.218764 -0.110243,-0.07579 -0.282498,-0.07579 -0.25666,0 -0.409966,0.179145 -0.151585,0.177422 -0.151585,0.563273 0,0.409966 0.153307,0.585666 0.15503,0.1757 0.430637,0.1757 0.130914,0 0.24977,-0.0379 0.118855,-0.0379 0.272162,-0.129191 v -0.237712 z"
         style="fill:#00ff00;stroke-width:0.26458332"
         id="path172" />
    </g>
    <g
       aria-label="HI"
       style="font-style:normal;font-variant:normal;font-weight:normal;font-stretch:normal;font-size:3.52777767px;line-height:1.25;font-family:'Arial Black';-inkscape-font-specification:'Arial Black, Normal';font-variant-ligatures:normal;font-variant-caps:normal;font-variant-numeric:normal;font-feature-settings:normal;text-align:center;letter-spacing:0px;word-spacing:0px;writing-mode:lr-tb;text-anchor:middle;fill:#000000;fill-opacity:1;stroke:none;stroke-width:0.26458332"
       id="text128">
      <path
         d="m 6.0435631,72.087202 h 0.7803141 v 0.883667 h 0.8526611 v -0.883667 h 0.7837592 v 2.525255 H 7.6765383 V 73.590986 H 6.8238772 v 1.021471 H 6.0435631 Z"
         style="fill:#ff0000;stroke-width:0.26458332"
         id="path161" />
      <path
         d="m 9.0097902,72.087202 h 0.7820367 v 2.525255 H 9.0097902 Z"
         style="fill:#ff0000;stroke-width:0.26458332"
         id="path163" />
    </g>
    <g
       aria-label="OUT"
       style="font-style:normal;font-variant:normal;font-weight:normal;font-stretch:normal;font-size:3.52777767px;line-height:1.25;font-family:'Arial Black';-inkscape-font-specification:'Arial Black, Normal';font-variant-ligatures:normal;font-variant-caps:normal;font-variant-numeric:normal;font-feature-settings:normal;text-align:center;letter-spacing:0px;word-spacing:0px;writing-mode:lr-tb;text-anchor:middle;fill:#000000;fill-opacity:1;stroke:none;stroke-width:0.26458332"
       id="text142">
      <path
         d="m 3.885208,92.401548 q 0,-0.618395 0.3445095,-0.962904 0.3445096,-0.34451 0.9594591,-0.34451 0.6304524,0 0.9715169,0.339342 0.3410644,0.337619 0.3410644,0.947401 0,0.442695 -0.1498616,0.726915 -0.1481391,0.282498 -0.4306369,0.440973 -0.2807753,0.156751 -0.701077,0.156751 -0.4271918,0 -0.7079671,-0.136081 Q 4.2331626,93.433354 4.0591853,93.138798 3.885208,92.844243 3.885208,92.401548 Z m 0.7803141,0.0034 q 0,0.382405 0.1412489,0.549493 0.1429715,0.167087 0.3875732,0.167087 0.251492,0 0.3892958,-0.163642 0.1378038,-0.163642 0.1378038,-0.587389 0,-0.356567 -0.144694,-0.520209 -0.1429714,-0.165365 -0.3892958,-0.165365 -0.235989,0 -0.3789605,0.167087 -0.1429714,0.167087 -0.1429714,0.552938 z"
         style="fill:#ff0000;stroke-width:0.26458332"
         id="path154" />
      <path
         d="m 8.56537,91.137198 h 0.7785916 v 1.505506 q 0,0.223932 -0.070624,0.423747 -0.068902,0.198093 -0.2187635,0.347955 -0.1481391,0.148139 -0.3117811,0.208428 -0.2273763,0.08441 -0.5460477,0.08441 -0.1843126,0 -0.4030761,-0.02584 Q 7.5766277,93.655563 7.4302111,93.57977 7.2837946,93.502256 7.1614937,93.361007 7.0409153,93.219758 6.9961291,93.069896 6.9237821,92.82874 6.9237821,92.642704 v -1.505506 h 0.7785916 v 1.54168 q 0,0.206706 0.1136881,0.323839 0.1154107,0.115411 0.3186713,0.115411 0.2015381,0 0.3152263,-0.113689 Q 8.56537,92.889029 8.56537,92.678878 Z"
         style="fill:#ff0000;stroke-width:0.26458332"
         id="path156" />
      <path
         d="m 9.6833035,91.137198 h 2.3719485 v 0.623562 h -0.795817 v 1.901693 H 10.479121 V 91.76076 H 9.6833035 Z"
         style="fill:#ff0000;stroke-width:0.26458332"
         id="path158" />
    </g>
  </g>
</svg>
