<?xml version="1.0" encoding="UTF-8" standalone="no"?>
<!-- Created with Inkscape (http://www.inkscape.org/) -->

<svg
   xmlns:dc="http://purl.org/dc/elements/1.1/"
   xmlns:cc="http://creativecommons.org/ns#"
   xmlns:rdf="http://www.w3.org/1999/02/22-rdf-syntax-ns#"
   xmlns:svg="http://www.w3.org/2000/svg"
   xmlns="http://www.w3.org/2000/svg"
   xmlns:sodipodi="http://sodipodi.sourceforge.net/DTD/sodipodi-0.dtd"
   xmlns:inkscape="http://www.inkscape.org/namespaces/inkscape"
   width="15.24mm"
   height="128.54166mm"
   viewBox="0 0 15.24 128.5417"
   version="1.1"
   id="svg4541"
   sodipodi:docname="T.svg"
   inkscape:version="0.92.5 (2060ec1f9f, 2020-04-08)">
  <defs
     id="defs4535" />
  <sodipodi:namedview
     id="base"
     pagecolor="#ffffff"
     bordercolor="#666666"
     borderopacity="1.0"
     inkscape:pageopacity="0.0"
     inkscape:pageshadow="2"
     inkscape:zoom="2"
     inkscape:cx="86.756731"
     inkscape:cy="270.44052"
     inkscape:document-units="mm"
     inkscape:current-layer="layer4"
     showgrid="true"
     fit-margin-top="0"
     fit-margin-left="0"
     fit-margin-right="0"
     fit-margin-bottom="0"
     inkscape:window-width="1600"
     inkscape:window-height="845"
     inkscape:window-x="0"
     inkscape:window-y="0"
     inkscape:window-maximized="1"
     units="mm">
    <inkscape:grid
       type="xygrid"
       id="grid76" />
  </sodipodi:namedview>
  <metadata
     id="metadata4538">
    <rdf:RDF>
      <cc:Work
         rdf:about="">
        <dc:format>image/svg+xml</dc:format>
        <dc:type
           rdf:resource="http://purl.org/dc/dcmitype/StillImage" />
        <dc:title></dc:title>
      </cc:Work>
    </rdf:RDF>
  </metadata>
  <g
     inkscape:groupmode="layer"
     id="layer1"
     inkscape:label="Background"
     style="display:inline;opacity:0.86000001">
    <rect
       style="fill:#ffff00;stroke-width:0.21715553"
       id="rect111"
       width="15.610416"
       height="128.32292"
       x="0"
       y="0.21873982" />
    <g
       aria-label="Δ"
       style="font-style:normal;font-variant:normal;font-weight:normal;font-stretch:normal;font-size:3.52777767px;line-height:1.25;font-family:'Arial Black';-inkscape-font-specification:'Arial Black, Normal';font-variant-ligatures:normal;font-variant-caps:normal;font-variant-numeric:normal;font-feature-settings:normal;text-align:center;letter-spacing:0px;word-spacing:0px;writing-mode:lr-tb;text-anchor:middle;fill:#000000;fill-opacity:1;stroke:none;stroke-width:0.26458332"
       id="text114">
      <path
         d="M 9.3129543,102.34791 H 6.5620457 l 0.9491237,-2.525257 h 0.8526612 z m -0.9732394,-0.5426 -0.4047987,-1.32637 -0.4168566,1.32637 z"
         style="fill:#ff0000;stroke-width:0.26458332"
         id="path136"
         inkscape:connector-curvature="0" />
    </g>
    <g
       aria-label="Σ"
       style="font-style:normal;font-variant:normal;font-weight:normal;font-stretch:normal;font-size:3.52777767px;line-height:1.25;font-family:'Arial Black';-inkscape-font-specification:'Arial Black, Normal';font-variant-ligatures:normal;font-variant-caps:normal;font-variant-numeric:normal;font-feature-settings:normal;text-align:center;letter-spacing:0px;word-spacing:0px;writing-mode:lr-tb;text-anchor:middle;fill:#000000;fill-opacity:1;stroke:none;stroke-width:0.26458332"
       id="text153">
      <path
         d="M 6.4104612,120.60415 H 4.2796697 v -0.54605 l 0.7475857,-0.75964 -0.7475857,-0.69763 v -0.52194 h 2.0911729 v 0.54261 h -1.248847 l 0.7406955,0.67696 -0.7406955,0.7338 h 1.2884656 z"
         style="fill:#ff0000;stroke-width:0.26458332"
         id="path225"
         inkscape:connector-curvature="0" />
    </g>
    <text
       xml:space="preserve"
       style="font-style:normal;font-variant:normal;font-weight:normal;font-stretch:normal;font-size:3.52777767px;line-height:1.25;font-family:'Arial Black';-inkscape-font-specification:'Arial Black, Normal';font-variant-ligatures:normal;font-variant-caps:normal;font-variant-numeric:normal;font-feature-settings:normal;text-align:center;letter-spacing:0px;word-spacing:0px;writing-mode:lr-tb;text-anchor:middle;fill:#000000;fill-opacity:1;stroke:none;stroke-width:0.26458332"
       x="17.197916"
       y="120.60415"
       id="text168"><tspan
         sodipodi:role="line"
         id="tspan166"
         x="17.197916"
         y="123.76708"
         style="stroke-width:0.26458332" /></text>
    <g
       aria-label="dB"
       style="font-style:normal;font-variant:normal;font-weight:normal;font-stretch:normal;font-size:3.52777767px;line-height:1.25;font-family:'Arial Black';-inkscape-font-specification:'Arial Black, Normal';font-variant-ligatures:normal;font-variant-caps:normal;font-variant-numeric:normal;font-feature-settings:normal;text-align:center;letter-spacing:0px;word-spacing:0px;writing-mode:lr-tb;text-anchor:middle;fill:#000000;fill-opacity:1;stroke:none;stroke-width:0.26458332"
       id="text190">
      <path
         d="m 6.468339,23.358069 v 2.525255 H 5.8120483 v -0.27044 q -0.1378038,0.172254 -0.251492,0.232544 -0.1515842,0.07924 -0.3376193,0.07924 -0.3737929,0 -0.5718858,-0.284221 -0.1963705,-0.28422 -0.1963705,-0.690741 0,-0.454753 0.217041,-0.695909 0.2187636,-0.241157 0.5546604,-0.241157 0.163642,0 0.2962782,0.05512 0.1343587,0.05512 0.2377116,0.165365 v -0.875054 z m -0.7027995,1.605414 q 0,-0.215318 -0.091295,-0.320394 -0.091295,-0.106798 -0.2308214,-0.106798 -0.1223009,0 -0.2049832,0.101631 -0.082682,0.10163 -0.082682,0.341064 0,0.223931 0.084405,0.329007 0.086127,0.103353 0.2118733,0.103353 0.1343588,0 0.2239312,-0.105076 0.089573,-0.105075 0.089572,-0.342787 z"
         style="fill:#0000ff;stroke-width:0.26458332"
         id="path233"
         inkscape:connector-curvature="0" />
      <path
         d="m 6.9437622,23.358069 h 1.4607204 q 0.3651801,0 0.559828,0.180867 0.1963704,0.180868 0.1963704,0.447863 0,0.223931 -0.1395263,0.384128 -0.093018,0.106798 -0.2721626,0.168809 0.2721626,0.06546 0.3996311,0.225654 0.1291911,0.158475 0.1291911,0.399631 0,0.196371 -0.091295,0.353123 -0.091295,0.156751 -0.2497695,0.248046 -0.098185,0.05684 -0.2962782,0.08268 -0.2635498,0.03445 -0.3496771,0.03445 H 6.9437622 Z m 0.7872043,0.990465 h 0.3393418 q 0.1825901,0 0.2532146,-0.06201 0.072347,-0.06373 0.072347,-0.18259 0,-0.110243 -0.072347,-0.172255 -0.070625,-0.06201 -0.2480469,-0.06201 H 7.7309665 Z m 0,0.992187 H 8.128875 q 0.2015381,0 0.2842203,-0.07062 0.082682,-0.07235 0.082682,-0.192926 0,-0.111965 -0.082682,-0.179145 -0.08096,-0.0689 -0.2859429,-0.0689 H 7.7309665 Z"
         style="fill:#0000ff;stroke-width:0.26458332"
         id="path235"
         inkscape:connector-curvature="0" />
    </g>
    <g
       aria-label="G1"
       style="font-style:normal;font-variant:normal;font-weight:normal;font-stretch:normal;font-size:3.52777767px;line-height:1.25;font-family:'Arial Black';-inkscape-font-specification:'Arial Black, Normal';font-variant-ligatures:normal;font-variant-caps:normal;font-variant-numeric:normal;font-feature-settings:normal;text-align:center;letter-spacing:0px;word-spacing:0px;writing-mode:lr-tb;text-anchor:middle;fill:#000000;fill-opacity:1;stroke:none;stroke-width:0.26458332"
       id="text252"
       transform="translate(-0.61701627,0.38171716)">
      <path
         d="m 6.0258163,43.489483 v -0.525377 h 1.2057833 v 1.076592 q -0.346232,0.235989 -0.6132269,0.322117 -0.2652724,0.0844 -0.6304525,0.0844 -0.4495849,0 -0.7338053,-0.153306 -0.2824978,-0.153307 -0.4392497,-0.456475 -0.1550293,-0.303169 -0.1550293,-0.69591 0,-0.413411 0.1705323,-0.718302 0.1705322,-0.306614 0.4995388,-0.465088 0.2566596,-0.122301 0.6907416,-0.122301 0.4185791,0 0.6252848,0.07579 0.2084283,0.07579 0.3445096,0.235989 0.1378038,0.158475 0.2067057,0.403076 L 6.4443954,42.685053 Q 6.3978866,42.542082 6.285921,42.46629 6.1756779,42.3905 6.0034231,42.3905 q -0.2566596,0 -0.4099663,0.179145 -0.1515842,0.177423 -0.1515842,0.563274 0,0.409966 0.1533067,0.585666 0.1550293,0.1757 0.430637,0.1757 0.1309136,0 0.2497694,-0.0379 0.1188558,-0.0379 0.2721625,-0.129192 v -0.237711 z"
         style="fill:#0000ff;stroke-width:0.26458332"
         id="path299"
         inkscape:connector-curvature="0" />
      <path
         d="m 9.1711883,41.835837 v 2.568319 H 8.4614987 V 42.721227 Q 8.2892439,42.85214 8.1273244,42.9331 7.9671275,43.01406 7.7242483,43.088129 v -0.575331 q 0.3582899,-0.11541 0.5563829,-0.27733 0.198093,-0.161919 0.3100586,-0.399631 z"
         style="fill:#0000ff;stroke-width:0.26458332"
         id="path301"
         inkscape:connector-curvature="0" />
    </g>
    <g
       aria-label="IN1"
       style="font-style:normal;font-variant:normal;font-weight:normal;font-stretch:normal;font-size:3.52777767px;line-height:1.25;font-family:'Arial Black';-inkscape-font-specification:'Arial Black, Normal';font-variant-ligatures:normal;font-variant-caps:normal;font-variant-numeric:normal;font-feature-settings:normal;text-align:center;letter-spacing:0px;word-spacing:0px;writing-mode:lr-tb;text-anchor:middle;fill:#000000;fill-opacity:1;stroke:none;stroke-width:0.26458332"
       id="text318">
      <path
         d="m 3.571703,79.714316 h 0.7820366 v 2.525255 H 3.571703 Z"
         style="fill:#00ff00;stroke-width:0.26458332"
         id="path366"
         inkscape:connector-curvature="0" />
      <path
         d="M 4.9187353,79.714316 H 5.647373 l 0.9508463,1.396986 v -1.396986 h 0.7355279 v 2.525255 H 6.5982193 L 5.6525407,80.85292 v 1.386651 H 4.9187353 Z"
         style="fill:#00ff00;stroke-width:0.26458332"
         id="path368"
         inkscape:connector-curvature="0" />
      <path
         d="m 9.3284573,79.671252 v 2.568319 H 8.6187676 v -1.682929 q -0.1722547,0.130913 -0.3341742,0.211873 -0.1601969,0.08096 -0.4030762,0.155029 v -0.575331 q 0.35829,-0.11541 0.5563829,-0.27733 0.198093,-0.161919 0.3100586,-0.399631 z"
         style="fill:#00ff00;stroke-width:0.26458332"
         id="path370"
         inkscape:connector-curvature="0" />
    </g>
    <g
       aria-label="CVdB"
       style="font-style:normal;font-variant:normal;font-weight:normal;font-stretch:normal;font-size:3.52777767px;line-height:1.25;font-family:'Arial Black';-inkscape-font-specification:'Arial Black, Normal';font-variant-ligatures:normal;font-variant-caps:normal;font-variant-numeric:normal;font-feature-settings:normal;text-align:center;letter-spacing:0px;word-spacing:0px;writing-mode:lr-tb;text-anchor:middle;fill:#000000;fill-opacity:1;stroke:none;stroke-width:0.26458332"
       id="text387">
      <path
         d="m 3.2616444,62.188493 0.6838514,0.206705 q -0.068902,0.287666 -0.217041,0.480591 -0.1481391,0.192926 -0.3686252,0.291111 -0.2187635,0.09819 -0.5581054,0.09819 -0.4116889,0 -0.6735162,-0.118856 Q 1.8681033,63.025656 1.6786231,62.72421 1.4891428,62.422764 1.4891428,61.952509 q 0,-0.627008 0.3324517,-0.962904 0.3341743,-0.33762 0.9439562,-0.33762 0.4771457,0 0.7493082,0.192926 0.2738851,0.192925 0.4065213,0.592556 l -0.6890191,0.153307 q -0.036173,-0.115411 -0.075792,-0.16881 -0.065457,-0.08957 -0.1601969,-0.137804 -0.09474,-0.04823 -0.2118734,-0.04823 -0.2652723,0 -0.4065213,0.213596 -0.1067979,0.158474 -0.1067979,0.497816 0,0.420302 0.1274685,0.577053 0.1274685,0.15503 0.3582899,0.15503 0.2239312,0 0.3376194,-0.125746 0.1154107,-0.125746 0.1670871,-0.36518 z"
         style="fill:#00ff00;stroke-width:0.26458332"
         id="path436"
         inkscape:connector-curvature="0" />
      <path
         d="m 4.074687,60.695044 h 0.8164876 l 0.5684407,1.817288 0.559828,-1.817288 h 0.792372 l -0.937066,2.525255 H 5.0289784 Z"
         style="fill:#00ff00;stroke-width:0.26458332"
         id="path438"
         inkscape:connector-curvature="0" />
      <path
         d="m 8.9477745,60.695044 v 2.525255 H 8.2914838 v -0.27044 q -0.1378038,0.172255 -0.2514919,0.232544 -0.1515842,0.07924 -0.3376194,0.07924 -0.3737928,0 -0.5718858,-0.28422 -0.1963704,-0.284221 -0.1963704,-0.690742 0,-0.454753 0.217041,-0.695909 0.2187635,-0.241157 0.5546603,-0.241157 0.1636421,0 0.2962782,0.05512 0.1343587,0.05512 0.2377116,0.165364 V 60.695044 Z M 8.244975,62.300458 q 0,-0.215318 -0.091295,-0.320394 -0.091295,-0.106798 -0.2308214,-0.106798 -0.1223009,0 -0.2049831,0.101631 -0.082682,0.10163 -0.082682,0.341064 0,0.223931 0.084405,0.329007 0.086127,0.103353 0.2118734,0.103353 0.1343587,0 0.2239312,-0.105076 0.089572,-0.105075 0.089572,-0.342787 z"
         style="fill:#00ff00;stroke-width:0.26458332"
         id="path440"
         inkscape:connector-curvature="0" />
      <path
         d="m 9.4231977,60.695044 h 1.4607203 q 0.36518,0 0.559828,0.180867 0.196371,0.180868 0.196371,0.447863 0,0.223931 -0.139527,0.384128 -0.09302,0.106798 -0.272162,0.16881 0.272162,0.06546 0.399631,0.225653 0.129191,0.158475 0.129191,0.399631 0,0.196371 -0.0913,0.353123 -0.0913,0.156751 -0.24977,0.248047 -0.09819,0.05684 -0.296278,0.08268 -0.26355,0.03445 -0.349677,0.03445 H 9.4231977 Z m 0.7872043,0.990465 h 0.339342 q 0.18259,0 0.253214,-0.06201 0.07235,-0.06373 0.07235,-0.18259 0,-0.110243 -0.07235,-0.172255 -0.07062,-0.06201 -0.248046,-0.06201 h -0.34451 z m 0,0.992187 h 0.397908 q 0.201539,0 0.284221,-0.07062 0.08268,-0.07235 0.08268,-0.192926 0,-0.111965 -0.08268,-0.179145 -0.08096,-0.0689 -0.285943,-0.0689 h -0.396186 z"
         style="fill:#00ff00;stroke-width:0.26458332"
         id="path442"
         inkscape:connector-curvature="0" />
    </g>
  </g>
  <g
     inkscape:groupmode="layer"
     id="layer4"
     inkscape:label="graphics"
     transform="translate(0,28.00003)"
     style="display:inline">
    <text
       xml:space="preserve"
       style="font-style:normal;font-variant:normal;font-weight:normal;font-stretch:normal;font-size:4.58611107px;line-height:1.25;font-family:'Arial Black';-inkscape-font-specification:'Arial Black, Normal';font-variant-ligatures:normal;font-variant-caps:normal;font-variant-numeric:normal;text-align:center;letter-spacing:0px;word-spacing:0px;writing-mode:lr-tb;text-anchor:middle;fill:#000000;fill-opacity:1;stroke:none;stroke-width:0.26458332"
       x="11.90625"
       y="-21.166708"
       id="text115"><tspan
         sodipodi:role="line"
         id="tspan113"
         x="11.90625"
         y="-17.054897"
         style="stroke-width:0.26458332" /></text>
    <g
       aria-label="KRT"
       style="font-style:normal;font-variant:normal;font-weight:normal;font-stretch:normal;font-size:3.52777767px;line-height:1.25;font-family:'Arial Black';-inkscape-font-specification:'Arial Black, Normal';font-variant-ligatures:normal;font-variant-caps:normal;font-variant-numeric:normal;font-feature-settings:normal;text-align:center;letter-spacing:0px;word-spacing:0px;writing-mode:lr-tb;text-anchor:middle;fill:#000000;fill-opacity:1;stroke:none;stroke-width:0.26458332"
       id="text123"
       transform="translate(-12.170835,-117.47517)">
      <path
         d="m 14.418414,95.635115 h 0.780314 v 0.954291 l 0.81821,-0.954291 h 1.036974 l -0.91984,0.952569 0.961181,1.572686 h -0.961181 l -0.532268,-1.038696 -0.403076,0.422024 v 0.616672 h -0.780314 z"
         style="fill:#f9f9f9;stroke-width:0.26458332"
         id="path227"
         inkscape:connector-curvature="0" />
      <path
         d="m 17.363971,98.16037 v -2.525255 h 1.300523 q 0.361735,0 0.552938,0.06201 0.191203,0.06201 0.308336,0.230821 0.117133,0.167087 0.117133,0.408244 0,0.210151 -0.08957,0.363457 -0.08957,0.151585 -0.246325,0.246325 -0.09991,0.06029 -0.273885,0.09991 0.139527,0.04651 0.203261,0.09302 0.04306,0.03101 0.124023,0.132636 0.08268,0.101631 0.110243,0.156752 l 0.377238,0.732083 H 18.96594 l -0.416857,-0.771701 q -0.07924,-0.149862 -0.141248,-0.194648 -0.08441,-0.05857 -0.191203,-0.05857 h -0.0689 v 1.024916 z m 0.783759,-1.502062 h 0.329006 q 0.0534,0 0.206706,-0.03445 0.07752,-0.0155 0.125746,-0.07924 0.04995,-0.06373 0.04995,-0.146416 0,-0.122301 -0.07751,-0.187758 -0.07751,-0.06546 -0.29111,-0.06546 H 18.14773 Z"
         style="fill:#f9f9f9;stroke-width:0.26458332"
         id="path229"
         inkscape:connector-curvature="0" />
      <path
         d="m 19.889226,95.635115 h 2.371948 v 0.623562 h -0.795817 v 1.901693 h -0.780314 v -1.901693 h -0.795817 z"
         style="fill:#f9f9f9;stroke-width:0.26458332"
         id="path231"
         inkscape:connector-curvature="0" />
    </g>
    <g
       aria-label="μ"
       style="font-style:normal;font-variant:normal;font-weight:normal;font-stretch:normal;font-size:3.52777767px;line-height:1.25;font-family:'Arial Black';-inkscape-font-specification:'Arial Black, Normal';font-variant-ligatures:normal;font-variant-caps:normal;font-variant-numeric:normal;font-feature-settings:normal;text-align:center;letter-spacing:0px;word-spacing:0px;writing-mode:lr-tb;text-anchor:middle;fill:#000000;fill-opacity:1;stroke:none;stroke-width:0.26458332"
       id="text107">
      <path
         d="m 12.870879,-20.637543 h -0.659736 v -0.144694 q -0.111966,0.187758 -0.282498,0.187758 -0.208428,0 -0.292833,-0.173977 v 0.821655 h -0.701077 v -2.518365 h 0.701077 v 0.918118 q 0,0.124024 0.01378,0.201538 0.0155,0.07752 0.07407,0.139527 0.06029,0.06029 0.184312,0.06029 0.129192,0 0.194648,-0.08096 0.06718,-0.08096 0.06718,-0.339342 v -0.89917 h 0.701077 z"
         style="stroke-width:0.26458332"
         id="path109"
         inkscape:connector-curvature="0" />
    </g>
  </g>
</svg>
