<?xml version="1.0" encoding="UTF-8" standalone="no"?>
<!-- Created with Inkscape (http://www.inkscape.org/) -->

<svg
   xmlns:dc="http://purl.org/dc/elements/1.1/"
   xmlns:cc="http://creativecommons.org/ns#"
   xmlns:rdf="http://www.w3.org/1999/02/22-rdf-syntax-ns#"
   xmlns:svg="http://www.w3.org/2000/svg"
   xmlns="http://www.w3.org/2000/svg"
   xmlns:sodipodi="http://sodipodi.sourceforge.net/DTD/sodipodi-0.dtd"
   xmlns:inkscape="http://www.inkscape.org/namespaces/inkscape"
   width="25.4mm"
   height="128.54166mm"
   viewBox="0 0 25.4 128.5417"
   version="1.1"
   id="svg4541"
   sodipodi:docname="U.svg"
   inkscape:version="0.92.5 (2060ec1f9f, 2020-04-08)">
  <defs
     id="defs4535" />
  <sodipodi:namedview
     id="base"
     pagecolor="#ffffff"
     bordercolor="#666666"
     borderopacity="1.0"
     inkscape:pageopacity="0.0"
     inkscape:pageshadow="2"
     inkscape:zoom="5.6568542"
     inkscape:cx="53.651703"
     inkscape:cy="381.52576"
     inkscape:document-units="mm"
     inkscape:current-layer="layer4"
     showgrid="true"
     fit-margin-top="0"
     fit-margin-left="0"
     fit-margin-right="0"
     fit-margin-bottom="0"
     inkscape:window-width="1600"
     inkscape:window-height="845"
     inkscape:window-x="0"
     inkscape:window-y="0"
     inkscape:window-maximized="1"
     units="mm">
    <inkscape:grid
       type="xygrid"
       id="grid76" />
  </sodipodi:namedview>
  <metadata
     id="metadata4538">
    <rdf:RDF>
      <cc:Work
         rdf:about="">
        <dc:format>image/svg+xml</dc:format>
        <dc:type
           rdf:resource="http://purl.org/dc/dcmitype/StillImage" />
        <dc:title />
      </cc:Work>
    </rdf:RDF>
  </metadata>
  <g
     inkscape:groupmode="layer"
     id="layer1"
     inkscape:label="Background"
     style="display:inline;opacity:1">
    <rect
       style="fill:#c83737;stroke-width:0.27736092"
       id="rect111"
       width="25.466146"
       height="128.32292"
       x="0"
       y="0.21873982" />
  </g>
  <g
     inkscape:groupmode="layer"
     id="layer4"
     inkscape:label="graphics"
     transform="translate(0,28.00003)"
     style="display:inline">
    <text
       xml:space="preserve"
       style="font-style:normal;font-variant:normal;font-weight:normal;font-stretch:normal;font-size:4.58611107px;line-height:1.25;font-family:'Arial Black';-inkscape-font-specification:'Arial Black, Normal';font-variant-ligatures:normal;font-variant-caps:normal;font-variant-numeric:normal;text-align:center;letter-spacing:0px;word-spacing:0px;writing-mode:lr-tb;text-anchor:middle;fill:#000000;fill-opacity:1;stroke:none;stroke-width:0.26458332"
       x="11.90625"
       y="-21.166708"
       id="text115"><tspan
         sodipodi:role="line"
         id="tspan113"
         x="11.90625"
         y="-17.054897"
         style="stroke-width:0.26458332" /></text>
    <g
       aria-label="KRT"
       style="font-style:normal;font-variant:normal;font-weight:normal;font-stretch:normal;font-size:3.52777767px;line-height:1.25;font-family:'Arial Black';-inkscape-font-specification:'Arial Black, Normal';font-variant-ligatures:normal;font-variant-caps:normal;font-variant-numeric:normal;font-feature-settings:normal;text-align:center;letter-spacing:0px;word-spacing:0px;writing-mode:lr-tb;text-anchor:middle;fill:#000000;fill-opacity:1;stroke:none;stroke-width:0.26458332"
       id="text123"
       transform="translate(-12.170835,-117.47517)">
      <path
         d="m 14.418414,95.635115 h 0.780314 v 0.954291 l 0.81821,-0.954291 h 1.036974 l -0.91984,0.952569 0.961181,1.572686 h -0.961181 l -0.532268,-1.038696 -0.403076,0.422024 v 0.616672 h -0.780314 z"
         style="fill:#f9f9f9;stroke-width:0.26458332"
         id="path227"
         inkscape:connector-curvature="0" />
      <path
         d="m 17.363971,98.16037 v -2.525255 h 1.300523 q 0.361735,0 0.552938,0.06201 0.191203,0.06201 0.308336,0.230821 0.117133,0.167087 0.117133,0.408244 0,0.210151 -0.08957,0.363457 -0.08957,0.151585 -0.246325,0.246325 -0.09991,0.06029 -0.273885,0.09991 0.139527,0.04651 0.203261,0.09302 0.04306,0.03101 0.124023,0.132636 0.08268,0.101631 0.110243,0.156752 l 0.377238,0.732083 H 18.96594 l -0.416857,-0.771701 q -0.07924,-0.149862 -0.141248,-0.194648 -0.08441,-0.05857 -0.191203,-0.05857 h -0.0689 v 1.024916 z m 0.783759,-1.502062 h 0.329006 q 0.0534,0 0.206706,-0.03445 0.07752,-0.0155 0.125746,-0.07924 0.04995,-0.06373 0.04995,-0.146416 0,-0.122301 -0.07751,-0.187758 -0.07751,-0.06546 -0.29111,-0.06546 H 18.14773 Z"
         style="fill:#f9f9f9;stroke-width:0.26458332"
         id="path229"
         inkscape:connector-curvature="0" />
      <path
         d="m 19.889226,95.635115 h 2.371948 v 0.623562 h -0.795817 v 1.901693 h -0.780314 v -1.901693 h -0.795817 z"
         style="fill:#f9f9f9;stroke-width:0.26458332"
         id="path231"
         inkscape:connector-curvature="0" />
    </g>
    <g
       aria-label="Ω"
       style="font-style:normal;font-variant:normal;font-weight:normal;font-stretch:normal;font-size:3.52777767px;line-height:1.25;font-family:'Arial Black';-inkscape-font-specification:'Arial Black, Normal';font-variant-ligatures:normal;font-variant-caps:normal;font-variant-numeric:normal;font-feature-settings:normal;text-align:center;letter-spacing:0px;word-spacing:0px;writing-mode:lr-tb;text-anchor:middle;fill:#000000;fill-opacity:1;stroke:none;stroke-width:0.26458332"
       id="text107"
       transform="matrix(2.52226,0,0,2.4814703,-16.867486,28.084873)" />
    <g
       aria-label="U"
       style="font-style:normal;font-variant:normal;font-weight:normal;font-stretch:normal;font-size:3.52777767px;line-height:1.25;font-family:'Arial Black';-inkscape-font-specification:'Arial Black, Normal';font-variant-ligatures:normal;font-variant-caps:normal;font-variant-numeric:normal;font-feature-settings:normal;text-align:center;letter-spacing:0px;word-spacing:0px;writing-mode:lr-tb;text-anchor:middle;fill:#000000;fill-opacity:1;stroke:none;stroke-width:0.26458332"
       id="text181">
      <path
         d="m 12.398677,-22.422701 h 0.778591 v 1.505507 q 0,0.223931 -0.07062,0.423747 -0.0689,0.198093 -0.218764,0.347954 -0.148139,0.14814 -0.311781,0.208429 -0.227376,0.08441 -0.546048,0.08441 -0.184312,0 -0.403076,-0.02584 -0.217041,-0.02584 -0.363457,-0.10163 -0.146417,-0.07751 -0.268718,-0.218764 -0.120578,-0.141248 -0.165364,-0.29111 -0.07235,-0.241157 -0.07235,-0.427192 v -1.505507 h 0.778591 v 1.541681 q 0,0.206705 0.113688,0.323839 0.115411,0.11541 0.318672,0.11541 0.201538,0 0.315226,-0.113688 0.115411,-0.115411 0.115411,-0.325561 z"
         style="stroke-width:0.26458332"
         id="path183" />
    </g>
    <g
       aria-label="QOUT"
       style="font-style:normal;font-variant:normal;font-weight:normal;font-stretch:normal;font-size:3.52777767px;line-height:1.25;font-family:'Arial Black';-inkscape-font-specification:'Arial Black, Normal';font-variant-ligatures:normal;font-variant-caps:normal;font-variant-numeric:normal;font-feature-settings:normal;text-align:center;letter-spacing:0px;word-spacing:0px;writing-mode:lr-tb;text-anchor:middle;fill:#aa0000;fill-opacity:1;stroke:none;stroke-width:0.26458332"
       id="text83">
      <path
         d="m 15.604726,93.169568 q 0.146416,0.10163 0.191202,0.127468 0.06718,0.0379 0.180868,0.08785 l -0.217041,0.437527 q -0.163642,-0.07924 -0.323839,-0.18948 -0.160197,-0.108521 -0.223931,-0.163642 -0.258382,0.111965 -0.647678,0.111965 -0.575331,0 -0.907783,-0.299723 -0.392741,-0.354845 -0.392741,-0.997355 0,-0.623562 0.342787,-0.968072 0.34451,-0.346232 0.961182,-0.346232 0.62873,0 0.969794,0.337619 0.342787,0.33762 0.342787,0.96635 0,0.559828 -0.275607,0.895725 z m -0.597724,-0.399632 q 0.09302,-0.167087 0.09302,-0.499538 0,-0.382406 -0.142971,-0.546048 -0.141249,-0.163642 -0.391019,-0.163642 -0.232544,0 -0.377238,0.167087 -0.144694,0.167087 -0.144694,0.521932 0,0.413412 0.141249,0.580499 0.141249,0.167087 0.387574,0.167087 0.07924,0 0.149861,-0.0155 -0.09818,-0.09474 -0.310058,-0.179145 l 0.1223,-0.280775 q 0.103353,0.01895 0.160197,0.04651 0.05857,0.02756 0.225654,0.144694 0.03962,0.02756 0.08613,0.05684 z"
         style="fill:#aa0000;stroke-width:0.26458332"
         id="path166" />
      <path
         d="m 16.20245,92.277288 q 0,-0.618395 0.344509,-0.962904 0.34451,-0.34451 0.959459,-0.34451 0.630453,0 0.971517,0.339342 0.341065,0.337619 0.341065,0.947401 0,0.442695 -0.149862,0.726915 -0.148139,0.282498 -0.430637,0.440973 -0.280775,0.156751 -0.701077,0.156751 -0.427192,0 -0.707967,-0.136081 -0.279053,-0.136081 -0.45303,-0.430637 -0.173977,-0.294555 -0.173977,-0.73725 z m 0.780314,0.0034 q 0,0.382406 0.141249,0.549493 0.142971,0.167087 0.387573,0.167087 0.251492,0 0.389296,-0.163642 0.137803,-0.163642 0.137803,-0.587389 0,-0.356567 -0.144694,-0.520209 -0.142971,-0.165365 -0.389295,-0.165365 -0.235989,0 -0.378961,0.167087 -0.142971,0.167087 -0.142971,0.552938 z"
         style="fill:#aa0000;stroke-width:0.26458332"
         id="path168" />
      <path
         d="m 20.882612,91.012938 h 0.778591 v 1.505507 q 0,0.223931 -0.07062,0.423746 -0.0689,0.198093 -0.218764,0.347955 -0.148139,0.148139 -0.311781,0.208428 -0.227376,0.0844 -0.546047,0.0844 -0.184313,0 -0.403077,-0.02584 -0.217041,-0.02584 -0.363457,-0.101631 -0.146417,-0.07751 -0.268718,-0.218763 -0.120578,-0.141249 -0.165364,-0.291111 -0.07235,-0.241156 -0.07235,-0.427191 v -1.505507 h 0.778591 v 1.54168 q 0,0.206706 0.113688,0.323839 0.115411,0.115411 0.318672,0.115411 0.201538,0 0.315226,-0.113688 0.115411,-0.115411 0.115411,-0.325562 z"
         style="fill:#aa0000;stroke-width:0.26458332"
         id="path170" />
      <path
         d="m 22.000545,91.012938 h 2.371948 V 91.6365 h -0.795817 v 1.901693 H 22.796362 V 91.6365 h -0.795817 z"
         style="fill:#aa0000;stroke-width:0.26458332"
         id="path172" />
    </g>
    <g
       aria-label="OUT"
       style="font-style:normal;font-variant:normal;font-weight:normal;font-stretch:normal;font-size:3.52777767px;line-height:1.25;font-family:'Arial Black';-inkscape-font-specification:'Arial Black, Normal';font-variant-ligatures:normal;font-variant-caps:normal;font-variant-numeric:normal;font-feature-settings:normal;text-align:center;letter-spacing:0px;word-spacing:0px;writing-mode:lr-tb;text-anchor:middle;fill:#aa0000;fill-opacity:1;stroke:none;stroke-width:0.26458332"
       id="text99">
      <path
         d="m 2.6251119,92.432271 q 0,-0.618394 0.3445096,-0.962904 0.3445095,-0.344509 0.959459,-0.344509 0.6304525,0 0.9715169,0.339342 0.3410645,0.337619 0.3410645,0.947401 0,0.442695 -0.1498617,0.726915 -0.1481391,0.282498 -0.4306369,0.440972 -0.2807753,0.156752 -0.7010769,0.156752 -0.4271919,0 -0.7079671,-0.136081 Q 2.9730665,93.464077 2.7990892,93.169522 2.6251119,92.874966 2.6251119,92.432271 Z m 0.7803141,0.0034 q 0,0.382406 0.1412489,0.549493 0.1429715,0.167087 0.3875733,0.167087 0.2514919,0 0.3892957,-0.163642 0.1378039,-0.163642 0.1378039,-0.587388 0,-0.356568 -0.1446941,-0.52021 -0.1429714,-0.165364 -0.3892957,-0.165364 -0.2359891,0 -0.3789605,0.167087 -0.1429715,0.167087 -0.1429715,0.552937 z"
         style="fill:#aa0000;stroke-width:0.26458332"
         id="path159" />
      <path
         d="m 7.305274,91.167921 h 0.7785915 v 1.505507 q 0,0.223931 -0.070624,0.423747 -0.068902,0.198093 -0.2187636,0.347954 -0.1481391,0.14814 -0.3117811,0.208429 -0.2273763,0.0844 -0.5460476,0.0844 -0.1843126,0 -0.4030762,-0.02584 Q 6.3165316,93.686286 6.170115,93.610494 6.0236985,93.532979 5.9013976,93.39173 5.7808193,93.250482 5.736033,93.10062 5.663686,92.859463 5.663686,92.673428 v -1.505507 h 0.7785916 v 1.541681 q 0,0.206705 0.1136881,0.323839 0.1154107,0.11541 0.3186714,0.11541 0.201538,0 0.3152262,-0.113688 0.1154107,-0.115411 0.1154107,-0.325561 z"
         style="fill:#aa0000;stroke-width:0.26458332"
         id="path161" />
      <path
         d="m 8.4232074,91.167921 h 2.3719486 v 0.623563 H 9.9993385 v 1.901692 H 9.2190244 v -1.901692 h -0.795817 z"
         style="fill:#aa0000;stroke-width:0.26458332"
         id="path163" />
    </g>
    <g
       aria-label="IN"
       style="font-style:normal;font-variant:normal;font-weight:normal;font-stretch:normal;font-size:3.52777767px;line-height:1.25;font-family:'Arial Black';-inkscape-font-specification:'Arial Black, Normal';font-variant-ligatures:normal;font-variant-caps:normal;font-variant-numeric:normal;font-feature-settings:normal;text-align:center;letter-spacing:0px;word-spacing:0px;writing-mode:lr-tb;text-anchor:middle;fill:#000000;fill-opacity:1;stroke:none;stroke-width:0.26458332"
       id="text116">
      <path
         d="m 16.91903,74.203863 h 0.782036 v 2.525255 H 16.91903 Z"
         style="fill:#00ff00;stroke-width:0.26458332"
         id="path154" />
      <path
         d="M 18.266062,74.203863 H 18.9947 l 0.950846,1.396987 v -1.396987 h 0.735528 v 2.525255 h -0.735528 l -0.945679,-1.386651 v 1.386651 h -0.733805 z"
         style="fill:#00ff00;stroke-width:0.26458332"
         id="path156" />
    </g>
    <g
       aria-label="CLK"
       style="font-style:normal;font-variant:normal;font-weight:normal;font-stretch:normal;font-size:3.52777767px;line-height:1.25;font-family:'Arial Black';-inkscape-font-specification:'Arial Black, Normal';font-variant-ligatures:normal;font-variant-caps:normal;font-variant-numeric:normal;font-feature-settings:normal;text-align:center;letter-spacing:0px;word-spacing:0px;writing-mode:lr-tb;text-anchor:middle;fill:#000000;fill-opacity:1;stroke:none;stroke-width:0.26458332"
       id="text133">
      <path
         d="m 4.8009128,75.697312 0.6838514,0.206706 q -0.068902,0.287665 -0.217041,0.480591 -0.1481391,0.192925 -0.3686252,0.29111 -0.2187635,0.09819 -0.5581054,0.09819 -0.4116889,0 -0.6735162,-0.118856 Q 3.4073717,76.53447 3.2178915,76.233025 3.0284112,75.931579 3.0284112,75.461323 q 0,-0.627007 0.3324517,-0.962904 0.3341743,-0.337619 0.9439562,-0.337619 0.4771457,0 0.7493082,0.192925 0.2738851,0.192925 0.4065213,0.592556 l -0.6890191,0.153307 q -0.036174,-0.11541 -0.075792,-0.168809 -0.065457,-0.08957 -0.1601969,-0.137804 -0.09474,-0.04823 -0.2118734,-0.04823 -0.2652723,0 -0.4065213,0.213596 -0.1067979,0.158475 -0.1067979,0.497817 0,0.420301 0.1274685,0.577053 0.1274685,0.155029 0.3582899,0.155029 0.2239312,0 0.3376194,-0.125746 0.1154107,-0.125746 0.1670871,-0.36518 z"
         style="fill:#00ff00;stroke-width:0.26458332"
         id="path147" />
      <path
         d="m 5.8637248,74.203863 h 0.7803141 v 1.903416 h 1.2178412 v 0.621839 H 5.8637248 Z"
         style="fill:#00ff00;stroke-width:0.26458332"
         id="path149" />
      <path
         d="m 8.2201701,74.203863 h 0.7803141 v 0.954292 l 0.8182101,-0.954292 h 1.0369737 l -0.9198404,0.952569 0.9611814,1.572686 H 9.9358276 L 9.4035603,75.690422 9.0004842,76.112446 v 0.616672 H 8.2201701 Z"
         style="fill:#00ff00;stroke-width:0.26458332"
         id="path151" />
    </g>
    <g
       transform="translate(7.2633333e-6,-32.279179)"
       aria-label="QOUT"
       style="font-style:normal;font-variant:normal;font-weight:normal;font-stretch:normal;font-size:3.52777767px;line-height:1.25;font-family:'Arial Black';-inkscape-font-specification:'Arial Black, Normal';font-variant-ligatures:normal;font-variant-caps:normal;font-variant-numeric:normal;font-feature-settings:normal;text-align:center;letter-spacing:0px;word-spacing:0px;writing-mode:lr-tb;text-anchor:middle;display:inline;fill:#aa0000;fill-opacity:1;stroke:none;stroke-width:0.26458332"
       id="text83-3">
      <path
         inkscape:connector-curvature="0"
         d="m 15.604726,93.169568 q 0.146416,0.10163 0.191202,0.127468 0.06718,0.0379 0.180868,0.08785 l -0.217041,0.437527 q -0.163642,-0.07924 -0.323839,-0.18948 -0.160197,-0.108521 -0.223931,-0.163642 -0.258382,0.111965 -0.647678,0.111965 -0.575331,0 -0.907783,-0.299723 -0.392741,-0.354845 -0.392741,-0.997355 0,-0.623562 0.342787,-0.968072 0.34451,-0.346232 0.961182,-0.346232 0.62873,0 0.969794,0.337619 0.342787,0.33762 0.342787,0.96635 0,0.559828 -0.275607,0.895725 z m -0.597724,-0.399632 q 0.09302,-0.167087 0.09302,-0.499538 0,-0.382406 -0.142971,-0.546048 -0.141249,-0.163642 -0.391019,-0.163642 -0.232544,0 -0.377238,0.167087 -0.144694,0.167087 -0.144694,0.521932 0,0.413412 0.141249,0.580499 0.141249,0.167087 0.387574,0.167087 0.07924,0 0.149861,-0.0155 -0.09818,-0.09474 -0.310058,-0.179145 l 0.1223,-0.280775 q 0.103353,0.01895 0.160197,0.04651 0.05857,0.02756 0.225654,0.144694 0.03962,0.02756 0.08613,0.05684 z"
         style="fill:#aa0000;stroke-width:0.26458332"
         id="path166-6" />
      <path
         inkscape:connector-curvature="0"
         d="m 16.20245,92.277288 q 0,-0.618395 0.344509,-0.962904 0.34451,-0.34451 0.959459,-0.34451 0.630453,0 0.971517,0.339342 0.341065,0.337619 0.341065,0.947401 0,0.442695 -0.149862,0.726915 -0.148139,0.282498 -0.430637,0.440973 -0.280775,0.156751 -0.701077,0.156751 -0.427192,0 -0.707967,-0.136081 -0.279053,-0.136081 -0.45303,-0.430637 -0.173977,-0.294555 -0.173977,-0.73725 z m 0.780314,0.0034 q 0,0.382406 0.141249,0.549493 0.142971,0.167087 0.387573,0.167087 0.251492,0 0.389296,-0.163642 0.137803,-0.163642 0.137803,-0.587389 0,-0.356567 -0.144694,-0.520209 -0.142971,-0.165365 -0.389295,-0.165365 -0.235989,0 -0.378961,0.167087 -0.142971,0.167087 -0.142971,0.552938 z"
         style="fill:#aa0000;stroke-width:0.26458332"
         id="path168-7" />
      <path
         inkscape:connector-curvature="0"
         d="m 20.882612,91.012938 h 0.778591 v 1.505507 q 0,0.223931 -0.07062,0.423746 -0.0689,0.198093 -0.218764,0.347955 -0.148139,0.148139 -0.311781,0.208428 -0.227376,0.0844 -0.546047,0.0844 -0.184313,0 -0.403077,-0.02584 -0.217041,-0.02584 -0.363457,-0.101631 -0.146417,-0.07751 -0.268718,-0.218763 -0.120578,-0.141249 -0.165364,-0.291111 -0.07235,-0.241156 -0.07235,-0.427191 v -1.505507 h 0.778591 v 1.54168 q 0,0.206706 0.113688,0.323839 0.115411,0.115411 0.318672,0.115411 0.201538,0 0.315226,-0.113688 0.115411,-0.115411 0.115411,-0.325562 z"
         style="fill:#aa0000;stroke-width:0.26458332"
         id="path170-5" />
      <path
         inkscape:connector-curvature="0"
         d="m 22.000545,91.012938 h 2.371948 V 91.6365 h -0.795817 v 1.901693 H 22.796362 V 91.6365 h -0.795817 z"
         style="fill:#aa0000;stroke-width:0.26458332"
         id="path172-3" />
    </g>
    <g
       transform="translate(7.2333333e-6,-32.279179)"
       aria-label="OUT"
       style="font-style:normal;font-variant:normal;font-weight:normal;font-stretch:normal;font-size:3.52777767px;line-height:1.25;font-family:'Arial Black';-inkscape-font-specification:'Arial Black, Normal';font-variant-ligatures:normal;font-variant-caps:normal;font-variant-numeric:normal;font-feature-settings:normal;text-align:center;letter-spacing:0px;word-spacing:0px;writing-mode:lr-tb;text-anchor:middle;display:inline;fill:#aa0000;fill-opacity:1;stroke:none;stroke-width:0.26458332"
       id="text99-5">
      <path
         inkscape:connector-curvature="0"
         d="m 2.6251119,92.432271 q 0,-0.618394 0.3445096,-0.962904 0.3445095,-0.344509 0.959459,-0.344509 0.6304525,0 0.9715169,0.339342 0.3410645,0.337619 0.3410645,0.947401 0,0.442695 -0.1498617,0.726915 -0.1481391,0.282498 -0.4306369,0.440972 -0.2807753,0.156752 -0.7010769,0.156752 -0.4271919,0 -0.7079671,-0.136081 Q 2.9730665,93.464077 2.7990892,93.169522 2.6251119,92.874966 2.6251119,92.432271 Z m 0.7803141,0.0034 q 0,0.382406 0.1412489,0.549493 0.1429715,0.167087 0.3875733,0.167087 0.2514919,0 0.3892957,-0.163642 0.1378039,-0.163642 0.1378039,-0.587388 0,-0.356568 -0.1446941,-0.52021 -0.1429714,-0.165364 -0.3892957,-0.165364 -0.2359891,0 -0.3789605,0.167087 -0.1429715,0.167087 -0.1429715,0.552937 z"
         style="fill:#aa0000;stroke-width:0.26458332"
         id="path159-6" />
      <path
         inkscape:connector-curvature="0"
         d="m 7.305274,91.167921 h 0.7785915 v 1.505507 q 0,0.223931 -0.070624,0.423747 -0.068902,0.198093 -0.2187636,0.347954 -0.1481391,0.14814 -0.3117811,0.208429 -0.2273763,0.0844 -0.5460476,0.0844 -0.1843126,0 -0.4030762,-0.02584 Q 6.3165316,93.686286 6.170115,93.610494 6.0236985,93.532979 5.9013976,93.39173 5.7808193,93.250482 5.736033,93.10062 5.663686,92.859463 5.663686,92.673428 v -1.505507 h 0.7785916 v 1.541681 q 0,0.206705 0.1136881,0.323839 0.1154107,0.11541 0.3186714,0.11541 0.201538,0 0.3152262,-0.113688 0.1154107,-0.115411 0.1154107,-0.325561 z"
         style="fill:#aa0000;stroke-width:0.26458332"
         id="path161-2" />
      <path
         inkscape:connector-curvature="0"
         d="m 8.4232074,91.167921 h 2.3719486 v 0.623563 H 9.9993385 v 1.901692 H 9.2190244 v -1.901692 h -0.795817 z"
         style="fill:#aa0000;stroke-width:0.26458332"
         id="path163-9" />
    </g>
    <g
       transform="translate(7.2366667e-6,-32.279179)"
       aria-label="IN"
       style="font-style:normal;font-variant:normal;font-weight:normal;font-stretch:normal;font-size:3.52777767px;line-height:1.25;font-family:'Arial Black';-inkscape-font-specification:'Arial Black, Normal';font-variant-ligatures:normal;font-variant-caps:normal;font-variant-numeric:normal;font-feature-settings:normal;text-align:center;letter-spacing:0px;word-spacing:0px;writing-mode:lr-tb;text-anchor:middle;display:inline;fill:#000000;fill-opacity:1;stroke:none;stroke-width:0.26458332"
       id="text116-1">
      <path
         inkscape:connector-curvature="0"
         d="m 16.91903,74.203863 h 0.782036 v 2.525255 H 16.91903 Z"
         style="fill:#00ff00;stroke-width:0.26458332"
         id="path154-2" />
      <path
         inkscape:connector-curvature="0"
         d="M 18.266062,74.203863 H 18.9947 l 0.950846,1.396987 v -1.396987 h 0.735528 v 2.525255 h -0.735528 l -0.945679,-1.386651 v 1.386651 h -0.733805 z"
         style="fill:#00ff00;stroke-width:0.26458332"
         id="path156-7" />
    </g>
    <g
       transform="translate(7.2366667e-6,-32.279179)"
       aria-label="CLK"
       style="font-style:normal;font-variant:normal;font-weight:normal;font-stretch:normal;font-size:3.52777767px;line-height:1.25;font-family:'Arial Black';-inkscape-font-specification:'Arial Black, Normal';font-variant-ligatures:normal;font-variant-caps:normal;font-variant-numeric:normal;font-feature-settings:normal;text-align:center;letter-spacing:0px;word-spacing:0px;writing-mode:lr-tb;text-anchor:middle;display:inline;fill:#000000;fill-opacity:1;stroke:none;stroke-width:0.26458332"
       id="text133-0">
      <path
         inkscape:connector-curvature="0"
         d="m 4.8009128,75.697312 0.6838514,0.206706 q -0.068902,0.287665 -0.217041,0.480591 -0.1481391,0.192925 -0.3686252,0.29111 -0.2187635,0.09819 -0.5581054,0.09819 -0.4116889,0 -0.6735162,-0.118856 Q 3.4073717,76.53447 3.2178915,76.233025 3.0284112,75.931579 3.0284112,75.461323 q 0,-0.627007 0.3324517,-0.962904 0.3341743,-0.337619 0.9439562,-0.337619 0.4771457,0 0.7493082,0.192925 0.2738851,0.192925 0.4065213,0.592556 l -0.6890191,0.153307 q -0.036174,-0.11541 -0.075792,-0.168809 -0.065457,-0.08957 -0.1601969,-0.137804 -0.09474,-0.04823 -0.2118734,-0.04823 -0.2652723,0 -0.4065213,0.213596 -0.1067979,0.158475 -0.1067979,0.497817 0,0.420301 0.1274685,0.577053 0.1274685,0.155029 0.3582899,0.155029 0.2239312,0 0.3376194,-0.125746 0.1154107,-0.125746 0.1670871,-0.36518 z"
         style="fill:#00ff00;stroke-width:0.26458332"
         id="path147-9" />
      <path
         inkscape:connector-curvature="0"
         d="m 5.8637248,74.203863 h 0.7803141 v 1.903416 h 1.2178412 v 0.621839 H 5.8637248 Z"
         style="fill:#00ff00;stroke-width:0.26458332"
         id="path149-3" />
      <path
         inkscape:connector-curvature="0"
         d="m 8.2201701,74.203863 h 0.7803141 v 0.954292 l 0.8182101,-0.954292 h 1.0369737 l -0.9198404,0.952569 0.9611814,1.572686 H 9.9358276 L 9.4035603,75.690422 9.0004842,76.112446 v 0.616672 H 8.2201701 Z"
         style="fill:#00ff00;stroke-width:0.26458332"
         id="path151-6" />
    </g>
    <g
       transform="translate(-0.26457791,-65.352125)"
       aria-label="QOUT"
       style="font-style:normal;font-variant:normal;font-weight:normal;font-stretch:normal;font-size:3.52777767px;line-height:1.25;font-family:'Arial Black';-inkscape-font-specification:'Arial Black, Normal';font-variant-ligatures:normal;font-variant-caps:normal;font-variant-numeric:normal;font-feature-settings:normal;text-align:center;letter-spacing:0px;word-spacing:0px;writing-mode:lr-tb;text-anchor:middle;display:inline;fill:#aa0000;fill-opacity:1;stroke:none;stroke-width:0.26458332"
       id="text83-3-0">
      <path
         inkscape:connector-curvature="0"
         d="m 15.604726,93.169568 q 0.146416,0.10163 0.191202,0.127468 0.06718,0.0379 0.180868,0.08785 l -0.217041,0.437527 q -0.163642,-0.07924 -0.323839,-0.18948 -0.160197,-0.108521 -0.223931,-0.163642 -0.258382,0.111965 -0.647678,0.111965 -0.575331,0 -0.907783,-0.299723 -0.392741,-0.354845 -0.392741,-0.997355 0,-0.623562 0.342787,-0.968072 0.34451,-0.346232 0.961182,-0.346232 0.62873,0 0.969794,0.337619 0.342787,0.33762 0.342787,0.96635 0,0.559828 -0.275607,0.895725 z m -0.597724,-0.399632 q 0.09302,-0.167087 0.09302,-0.499538 0,-0.382406 -0.142971,-0.546048 -0.141249,-0.163642 -0.391019,-0.163642 -0.232544,0 -0.377238,0.167087 -0.144694,0.167087 -0.144694,0.521932 0,0.413412 0.141249,0.580499 0.141249,0.167087 0.387574,0.167087 0.07924,0 0.149861,-0.0155 -0.09818,-0.09474 -0.310058,-0.179145 l 0.1223,-0.280775 q 0.103353,0.01895 0.160197,0.04651 0.05857,0.02756 0.225654,0.144694 0.03962,0.02756 0.08613,0.05684 z"
         style="fill:#aa0000;stroke-width:0.26458332"
         id="path166-6-6" />
      <path
         inkscape:connector-curvature="0"
         d="m 16.20245,92.277288 q 0,-0.618395 0.344509,-0.962904 0.34451,-0.34451 0.959459,-0.34451 0.630453,0 0.971517,0.339342 0.341065,0.337619 0.341065,0.947401 0,0.442695 -0.149862,0.726915 -0.148139,0.282498 -0.430637,0.440973 -0.280775,0.156751 -0.701077,0.156751 -0.427192,0 -0.707967,-0.136081 -0.279053,-0.136081 -0.45303,-0.430637 -0.173977,-0.294555 -0.173977,-0.73725 z m 0.780314,0.0034 q 0,0.382406 0.141249,0.549493 0.142971,0.167087 0.387573,0.167087 0.251492,0 0.389296,-0.163642 0.137803,-0.163642 0.137803,-0.587389 0,-0.356567 -0.144694,-0.520209 -0.142971,-0.165365 -0.389295,-0.165365 -0.235989,0 -0.378961,0.167087 -0.142971,0.167087 -0.142971,0.552938 z"
         style="fill:#aa0000;stroke-width:0.26458332"
         id="path168-7-2" />
      <path
         inkscape:connector-curvature="0"
         d="m 20.882612,91.012938 h 0.778591 v 1.505507 q 0,0.223931 -0.07062,0.423746 -0.0689,0.198093 -0.218764,0.347955 -0.148139,0.148139 -0.311781,0.208428 -0.227376,0.0844 -0.546047,0.0844 -0.184313,0 -0.403077,-0.02584 -0.217041,-0.02584 -0.363457,-0.101631 -0.146417,-0.07751 -0.268718,-0.218763 -0.120578,-0.141249 -0.165364,-0.291111 -0.07235,-0.241156 -0.07235,-0.427191 v -1.505507 h 0.778591 v 1.54168 q 0,0.206706 0.113688,0.323839 0.115411,0.115411 0.318672,0.115411 0.201538,0 0.315226,-0.113688 0.115411,-0.115411 0.115411,-0.325562 z"
         style="fill:#aa0000;stroke-width:0.26458332"
         id="path170-5-6" />
      <path
         inkscape:connector-curvature="0"
         d="m 22.000545,91.012938 h 2.371948 V 91.6365 h -0.795817 v 1.901693 H 22.796362 V 91.6365 h -0.795817 z"
         style="fill:#aa0000;stroke-width:0.26458332"
         id="path172-3-1" />
    </g>
    <g
       transform="translate(0.26458876,-65.352125)"
       aria-label="OUT"
       style="font-style:normal;font-variant:normal;font-weight:normal;font-stretch:normal;font-size:3.52777767px;line-height:1.25;font-family:'Arial Black';-inkscape-font-specification:'Arial Black, Normal';font-variant-ligatures:normal;font-variant-caps:normal;font-variant-numeric:normal;font-feature-settings:normal;text-align:center;letter-spacing:0px;word-spacing:0px;writing-mode:lr-tb;text-anchor:middle;display:inline;fill:#aa0000;fill-opacity:1;stroke:none;stroke-width:0.26458332"
       id="text99-5-8">
      <path
         inkscape:connector-curvature="0"
         d="m 2.6251119,92.432271 q 0,-0.618394 0.3445096,-0.962904 0.3445095,-0.344509 0.959459,-0.344509 0.6304525,0 0.9715169,0.339342 0.3410645,0.337619 0.3410645,0.947401 0,0.442695 -0.1498617,0.726915 -0.1481391,0.282498 -0.4306369,0.440972 -0.2807753,0.156752 -0.7010769,0.156752 -0.4271919,0 -0.7079671,-0.136081 Q 2.9730665,93.464077 2.7990892,93.169522 2.6251119,92.874966 2.6251119,92.432271 Z m 0.7803141,0.0034 q 0,0.382406 0.1412489,0.549493 0.1429715,0.167087 0.3875733,0.167087 0.2514919,0 0.3892957,-0.163642 0.1378039,-0.163642 0.1378039,-0.587388 0,-0.356568 -0.1446941,-0.52021 -0.1429714,-0.165364 -0.3892957,-0.165364 -0.2359891,0 -0.3789605,0.167087 -0.1429715,0.167087 -0.1429715,0.552937 z"
         style="fill:#aa0000;stroke-width:0.26458332"
         id="path159-6-7" />
      <path
         inkscape:connector-curvature="0"
         d="m 7.305274,91.167921 h 0.7785915 v 1.505507 q 0,0.223931 -0.070624,0.423747 -0.068902,0.198093 -0.2187636,0.347954 -0.1481391,0.14814 -0.3117811,0.208429 -0.2273763,0.0844 -0.5460476,0.0844 -0.1843126,0 -0.4030762,-0.02584 Q 6.3165316,93.686286 6.170115,93.610494 6.0236985,93.532979 5.9013976,93.39173 5.7808193,93.250482 5.736033,93.10062 5.663686,92.859463 5.663686,92.673428 v -1.505507 h 0.7785916 v 1.541681 q 0,0.206705 0.1136881,0.323839 0.1154107,0.11541 0.3186714,0.11541 0.201538,0 0.3152262,-0.113688 0.1154107,-0.115411 0.1154107,-0.325561 z"
         style="fill:#aa0000;stroke-width:0.26458332"
         id="path161-2-9" />
      <path
         inkscape:connector-curvature="0"
         d="m 8.4232074,91.167921 h 2.3719486 v 0.623563 H 9.9993385 v 1.901692 H 9.2190244 v -1.901692 h -0.795817 z"
         style="fill:#aa0000;stroke-width:0.26458332"
         id="path163-9-2" />
    </g>
    <g
       transform="translate(0.26458876,-65.352125)"
       aria-label="IN"
       style="font-style:normal;font-variant:normal;font-weight:normal;font-stretch:normal;font-size:3.52777767px;line-height:1.25;font-family:'Arial Black';-inkscape-font-specification:'Arial Black, Normal';font-variant-ligatures:normal;font-variant-caps:normal;font-variant-numeric:normal;font-feature-settings:normal;text-align:center;letter-spacing:0px;word-spacing:0px;writing-mode:lr-tb;text-anchor:middle;display:inline;fill:#000000;fill-opacity:1;stroke:none;stroke-width:0.26458332"
       id="text116-1-0">
      <path
         inkscape:connector-curvature="0"
         d="m 16.91903,74.203863 h 0.782036 v 2.525255 H 16.91903 Z"
         style="fill:#00ff00;stroke-width:0.26458332"
         id="path154-2-2" />
      <path
         inkscape:connector-curvature="0"
         d="M 18.266062,74.203863 H 18.9947 l 0.950846,1.396987 v -1.396987 h 0.735528 v 2.525255 h -0.735528 l -0.945679,-1.386651 v 1.386651 h -0.733805 z"
         style="fill:#00ff00;stroke-width:0.26458332"
         id="path156-7-3" />
    </g>
    <g
       transform="translate(0.26458876,-65.352125)"
       aria-label="CLK"
       style="font-style:normal;font-variant:normal;font-weight:normal;font-stretch:normal;font-size:3.52777767px;line-height:1.25;font-family:'Arial Black';-inkscape-font-specification:'Arial Black, Normal';font-variant-ligatures:normal;font-variant-caps:normal;font-variant-numeric:normal;font-feature-settings:normal;text-align:center;letter-spacing:0px;word-spacing:0px;writing-mode:lr-tb;text-anchor:middle;display:inline;fill:#000000;fill-opacity:1;stroke:none;stroke-width:0.26458332"
       id="text133-0-7">
      <path
         inkscape:connector-curvature="0"
         d="m 4.8009128,75.697312 0.6838514,0.206706 q -0.068902,0.287665 -0.217041,0.480591 -0.1481391,0.192925 -0.3686252,0.29111 -0.2187635,0.09819 -0.5581054,0.09819 -0.4116889,0 -0.6735162,-0.118856 Q 3.4073717,76.53447 3.2178915,76.233025 3.0284112,75.931579 3.0284112,75.461323 q 0,-0.627007 0.3324517,-0.962904 0.3341743,-0.337619 0.9439562,-0.337619 0.4771457,0 0.7493082,0.192925 0.2738851,0.192925 0.4065213,0.592556 l -0.6890191,0.153307 q -0.036174,-0.11541 -0.075792,-0.168809 -0.065457,-0.08957 -0.1601969,-0.137804 -0.09474,-0.04823 -0.2118734,-0.04823 -0.2652723,0 -0.4065213,0.213596 -0.1067979,0.158475 -0.1067979,0.497817 0,0.420301 0.1274685,0.577053 0.1274685,0.155029 0.3582899,0.155029 0.2239312,0 0.3376194,-0.125746 0.1154107,-0.125746 0.1670871,-0.36518 z"
         style="fill:#00ff00;stroke-width:0.26458332"
         id="path147-9-5" />
      <path
         inkscape:connector-curvature="0"
         d="m 5.8637248,74.203863 h 0.7803141 v 1.903416 h 1.2178412 v 0.621839 H 5.8637248 Z"
         style="fill:#00ff00;stroke-width:0.26458332"
         id="path149-3-9" />
      <path
         inkscape:connector-curvature="0"
         d="m 8.2201701,74.203863 h 0.7803141 v 0.954292 l 0.8182101,-0.954292 h 1.0369737 l -0.9198404,0.952569 0.9611814,1.572686 H 9.9358276 L 9.4035603,75.690422 9.0004842,76.112446 v 0.616672 H 8.2201701 Z"
         style="fill:#00ff00;stroke-width:0.26458332"
         id="path151-6-2" />
    </g>
    <g
       aria-label="QUNT"
       style="font-style:normal;font-variant:normal;font-weight:normal;font-stretch:normal;font-size:3.52777767px;line-height:1.25;font-family:'Arial Black';-inkscape-font-specification:'Arial Black, Normal';font-variant-ligatures:normal;font-variant-caps:normal;font-variant-numeric:normal;font-feature-settings:normal;text-align:center;letter-spacing:0px;word-spacing:0px;writing-mode:lr-tb;text-anchor:middle;fill:#000000;fill-opacity:1;stroke:none;stroke-width:0.26458332"
       id="text401">
      <path
         d="m 3.6718905,-3.8229208 q 0.1464166,0.1016303 0.1912028,0.1274685 0.067179,0.037896 0.1808675,0.08785 l -0.217041,0.4375271 q -0.163642,-0.079237 -0.323839,-0.1894802 -0.1601969,-0.1085205 -0.2239312,-0.163642 -0.2583821,0.1119656 -0.6476779,0.1119656 -0.5753309,0 -0.9077826,-0.2997233 -0.3927409,-0.3548449 -0.3927409,-0.9973552 0,-0.6235622 0.342787,-0.9680718 0.3445095,-0.346232 0.9611816,-0.346232 0.6287299,0 0.9697944,0.3376193 0.3427869,0.3376194 0.3427869,0.9663493 0,0.559828 -0.2756076,0.8957248 z m -0.597724,-0.3996311 q 0.093018,-0.1670871 0.093018,-0.4995388 0,-0.3824056 -0.1429714,-0.5460477 -0.1412489,-0.163642 -0.3910183,-0.163642 -0.232544,0 -0.377238,0.1670871 -0.144694,0.1670872 -0.144694,0.521932 0,0.4134114 0.1412489,0.5804986 0.1412489,0.1670871 0.3875732,0.1670871 0.079237,0 0.1498617,-0.015503 -0.098185,-0.09474 -0.3100586,-0.179145 l 0.1223009,-0.2807753 q 0.1033529,0.018948 0.1601969,0.046509 0.058567,0.027561 0.2256538,0.144694 0.039619,0.027561 0.086127,0.056844 z"
         style="fill:#ffff00;stroke-width:0.26458332"
         id="path436" />
      <path
         d="m 6.0111103,-5.9795506 h 0.7785915 v 1.5055067 q 0,0.2239312 -0.070624,0.4237468 -0.068902,0.1980929 -0.2187636,0.3479546 -0.1481391,0.1481391 -0.3117811,0.2084283 -0.2273763,0.084405 -0.5460476,0.084405 -0.1843126,0 -0.4030762,-0.025838 Q 5.0223679,-3.4611858 4.8759513,-3.5369779 4.7295348,-3.6144926 4.6072339,-3.7557415 4.4866556,-3.8969904 4.4418693,-4.046852 4.3695223,-4.2880087 4.3695223,-4.4740439 v -1.5055067 h 0.7785916 v 1.5416802 q 0,0.2067058 0.1136881,0.323839 0.1154107,0.1154107 0.3186713,0.1154107 0.2015381,0 0.3152263,-0.1136882 0.1154107,-0.1154106 0.1154107,-0.3255615 z"
         style="fill:#ffff00;stroke-width:0.26458332"
         id="path438" />
      <path
         d="m 7.3116337,-5.9795506 h 0.7286377 l 0.9508463,1.3969862 v -1.3969862 h 0.7355279 v 2.525255 H 8.9911177 L 8.0454391,-4.8409465 v 1.3866509 H 7.3116337 Z"
         style="fill:#ffff00;stroke-width:0.26458332"
         id="path440" />
      <path
         d="m 10.06771,-5.9795506 h 2.371948 v 0.6235623 h -0.795817 v 1.9016927 H 10.863527 V -5.3559883 H 10.06771 Z"
         style="fill:#ffff00;stroke-width:0.26458332"
         id="path442" />
    </g>
    <g
       aria-label="NSE"
       style="font-style:normal;font-variant:normal;font-weight:normal;font-stretch:normal;font-size:3.52777767px;line-height:1.25;font-family:'Arial Black';-inkscape-font-specification:'Arial Black, Normal';font-variant-ligatures:normal;font-variant-caps:normal;font-variant-numeric:normal;font-feature-settings:normal;text-align:center;letter-spacing:0px;word-spacing:0px;writing-mode:lr-tb;text-anchor:middle;fill:#000000;fill-opacity:1;stroke:none;stroke-width:0.26458332"
       id="text427">
      <path
         d="m 15.244291,-5.9795506 h 0.728638 l 0.950846,1.3969862 v -1.3969862 h 0.735528 v 2.525255 h -0.735528 l -0.945678,-1.3866509 v 1.3866509 h -0.733806 z"
         style="fill:#ffff00;stroke-width:0.26458332"
         id="path429" />
      <path
         d="m 18.041709,-4.2897313 0.742418,-0.046509 q 0.02411,0.1808676 0.09818,0.2756077 0.120578,0.1533067 0.344509,0.1533067 0.167088,0 0.25666,-0.077515 0.09129,-0.079237 0.09129,-0.1825901 0,-0.098185 -0.08613,-0.1756998 -0.08613,-0.077515 -0.399631,-0.1464166 -0.51332,-0.1154107 -0.732083,-0.3066135 -0.220486,-0.1912028 -0.220486,-0.487481 0,-0.1946479 0.111965,-0.3669026 0.113689,-0.1739774 0.339342,-0.2721626 0.227377,-0.099908 0.62184,-0.099908 0.484036,0 0.73725,0.1808675 0.254937,0.1791449 0.303169,0.5718858 l -0.735528,0.043064 q -0.02928,-0.1705322 -0.124024,-0.2480469 -0.09302,-0.077515 -0.258382,-0.077515 -0.136081,0 -0.204983,0.058567 -0.0689,0.056844 -0.0689,0.1395264 0,0.060289 0.05684,0.1085205 0.05512,0.049954 0.261828,0.093018 0.511596,0.1102431 0.732082,0.2239312 0.222209,0.1119656 0.322117,0.2790528 0.10163,0.1670871 0.10163,0.3737928 0,0.2428792 -0.134359,0.4478624 -0.134358,0.2049832 -0.375515,0.3117811 -0.241157,0.1050755 -0.608059,0.1050755 -0.644233,0 -0.89228,-0.2480469 -0.248047,-0.2480469 -0.280775,-0.6304525 z"
         style="fill:#ffff00;stroke-width:0.26458332"
         id="path431" />
      <path
         d="m 20.723715,-5.9795506 h 2.091173 v 0.5391575 h -1.309136 v 0.4013536 h 1.214396 v 0.5150417 h -1.214396 v 0.4978163 h 1.347032 v 0.5718859 h -2.129069 z"
         style="fill:#ffff00;stroke-width:0.26458332"
         id="path433" />
    </g>
  </g>
</svg>
