<?xml version="1.0" encoding="UTF-8" standalone="no"?>
<!-- Created with Inkscape (http://www.inkscape.org/) -->

<svg
   xmlns:dc="http://purl.org/dc/elements/1.1/"
   xmlns:cc="http://creativecommons.org/ns#"
   xmlns:rdf="http://www.w3.org/1999/02/22-rdf-syntax-ns#"
   xmlns:svg="http://www.w3.org/2000/svg"
   xmlns="http://www.w3.org/2000/svg"
   xmlns:sodipodi="http://sodipodi.sourceforge.net/DTD/sodipodi-0.dtd"
   xmlns:inkscape="http://www.inkscape.org/namespaces/inkscape"
   width="86.360001mm"
   height="128.54166mm"
   viewBox="0 0 86.360002 128.5417"
   version="1.1"
   id="svg4541"
   sodipodi:docname="Y.svg"
   inkscape:version="0.92.5 (2060ec1f9f, 2020-04-08)">
  <defs
     id="defs4535" />
  <sodipodi:namedview
     id="base"
     pagecolor="#ffffff"
     bordercolor="#666666"
     borderopacity="1.0"
     inkscape:pageopacity="0.0"
     inkscape:pageshadow="2"
     inkscape:zoom="2"
     inkscape:cx="181.255"
     inkscape:cy="-98.29504"
     inkscape:document-units="mm"
     inkscape:current-layer="layer4"
     showgrid="true"
     fit-margin-top="0"
     fit-margin-left="0"
     fit-margin-right="0"
     fit-margin-bottom="0"
     inkscape:window-width="1600"
     inkscape:window-height="845"
     inkscape:window-x="0"
     inkscape:window-y="0"
     inkscape:window-maximized="1"
     units="mm">
    <inkscape:grid
       type="xygrid"
       id="grid76" />
  </sodipodi:namedview>
  <metadata
     id="metadata4538">
    <rdf:RDF>
      <cc:Work
         rdf:about="">
        <dc:format>image/svg+xml</dc:format>
        <dc:type
           rdf:resource="http://purl.org/dc/dcmitype/StillImage" />
        <dc:title></dc:title>
      </cc:Work>
    </rdf:RDF>
  </metadata>
  <g
     inkscape:groupmode="layer"
     id="layer1"
     inkscape:label="Background"
     style="display:inline;opacity:1">
    <rect
       style="fill:#f9f9f9;stroke-width:0.51543033"
       id="rect111"
       width="87.04792"
       height="129.64583"
       x="-2.7815501e-08"
       y="0.21873982" />
    <g
       aria-label="+"
       style="font-style:normal;font-variant:normal;font-weight:normal;font-stretch:normal;font-size:3.52777767px;line-height:1.25;font-family:'Arial Black';-inkscape-font-specification:'Arial Black, Normal';font-variant-ligatures:normal;font-variant-caps:normal;font-variant-numeric:normal;font-feature-settings:normal;text-align:center;letter-spacing:0px;word-spacing:0px;writing-mode:lr-tb;text-anchor:middle;fill:#000000;fill-opacity:1;stroke:none;stroke-width:0.26458332"
       id="text121"
       transform="translate(-1.5875)">
      <path
         d="m 5.9334894,120.12253 h 0.6597357 v -0.66319 H 7.149608 v 0.66319 h 0.6631809 v 0.5581 H 7.149608 v 0.65974 H 6.5932251 v -0.65974 H 5.9334894 Z"
         style="fill:#ff6600;stroke-width:0.26458332"
         id="path388"
         inkscape:connector-curvature="0" />
    </g>
    <g
       aria-label="-"
       style="font-style:normal;font-variant:normal;font-weight:normal;font-stretch:normal;font-size:3.52777767px;line-height:1.25;font-family:'Arial Black';-inkscape-font-specification:'Arial Black, Normal';font-variant-ligatures:normal;font-variant-caps:normal;font-variant-numeric:normal;font-feature-settings:normal;text-align:center;letter-spacing:0px;word-spacing:0px;writing-mode:lr-tb;text-anchor:middle;fill:#000000;fill-opacity:1;stroke:none;stroke-width:0.26458332"
       id="text125"
       transform="translate(-4.2333335)">
      <path
         d="m 18.01096,120.2059 h 1.019748 v 0.5426 H 18.01096 Z"
         style="fill:#ff6600;stroke-width:0.26458332"
         id="path385"
         inkscape:connector-curvature="0" />
    </g>
    <g
       aria-label="10"
       style="font-style:normal;font-variant:normal;font-weight:normal;font-stretch:normal;font-size:3.52777767px;line-height:1.25;font-family:'Arial Black';-inkscape-font-specification:'Arial Black, Normal';font-variant-ligatures:normal;font-variant-caps:normal;font-variant-numeric:normal;font-feature-settings:normal;text-align:center;letter-spacing:0px;word-spacing:0px;writing-mode:lr-tb;text-anchor:middle;fill:#000000;fill-opacity:1;stroke:none;stroke-width:0.26458332"
       id="text152"
       transform="translate(-1.0583333)">
      <path
         d="m 6.260772,102.42542 v 2.56832 H 5.5510823 v -1.68293 q -0.1722547,0.13091 -0.3341742,0.21187 -0.160197,0.081 -0.4030762,0.15503 v -0.57533 q 0.3582899,-0.11541 0.5563829,-0.27733 0.198093,-0.16192 0.3100586,-0.39963 z"
         style="fill:#00ff00;stroke-width:0.26458332"
         id="path380"
         inkscape:connector-curvature="0" />
      <path
         d="m 7.0238606,103.72077 q 0,-0.72002 0.2583822,-1.00769 0.2601047,-0.28766 0.7906494,-0.28766 0.254937,0 0.4185791,0.0637 0.163642,0.062 0.2669949,0.16364 0.1033528,0.0999 0.1619194,0.21188 0.060289,0.11024 0.096463,0.25838 0.070625,0.2825 0.070625,0.58911 0,0.6873 -0.232544,1.00597 -0.2325439,0.31867 -0.8009847,0.31867 -0.3186713,0 -0.5150417,-0.10163 -0.1963705,-0.10163 -0.3221164,-0.298 -0.091295,-0.13953 -0.1429715,-0.38068 -0.049954,-0.24288 -0.049954,-0.53572 z m 0.6959093,0.002 q 0,0.48231 0.084405,0.65973 0.086127,0.1757 0.2480469,0.1757 0.106798,0 0.1843126,-0.0741 0.079237,-0.0758 0.1154107,-0.23771 0.037896,-0.16192 0.037896,-0.50471 0,-0.50298 -0.086127,-0.67523 -0.084405,-0.17398 -0.2549371,-0.17398 -0.1739773,0 -0.251492,0.17742 -0.077515,0.1757 -0.077515,0.65285 z"
         style="fill:#00ff00;stroke-width:0.26458332"
         id="path382"
         inkscape:connector-curvature="0" />
    </g>
    <g
       aria-label="11"
       style="font-style:normal;font-variant:normal;font-weight:normal;font-stretch:normal;font-size:3.52777767px;line-height:1.25;font-family:'Arial Black';-inkscape-font-specification:'Arial Black, Normal';font-variant-ligatures:normal;font-variant-caps:normal;font-variant-numeric:normal;font-feature-settings:normal;text-align:center;letter-spacing:0px;word-spacing:0px;writing-mode:lr-tb;text-anchor:middle;fill:#000000;fill-opacity:1;stroke:none;stroke-width:0.26458332"
       id="text156"
       transform="translate(-3.7041668)">
      <path
         d="m 18.167021,102.42542 v 2.56832 h -0.70969 v -1.68293 q -0.172254,0.13091 -0.334174,0.21187 -0.160197,0.081 -0.403076,0.15503 v -0.57533 q 0.35829,-0.11541 0.556383,-0.27733 0.198093,-0.16192 0.310058,-0.39963 z"
         style="fill:#00ff00;stroke-width:0.26458332"
         id="path375"
         inkscape:connector-curvature="0" />
      <path
         d="m 20.520021,102.42542 v 2.56832 h -0.709689 v -1.68293 q -0.172255,0.13091 -0.334175,0.21187 -0.160197,0.081 -0.403076,0.15503 v -0.57533 q 0.35829,-0.11541 0.556383,-0.27733 0.198093,-0.16192 0.310059,-0.39963 z"
         style="fill:#00ff00;stroke-width:0.26458332"
         id="path377"
         inkscape:connector-curvature="0" />
    </g>
    <g
       aria-label="8"
       style="font-style:normal;font-variant:normal;font-weight:normal;font-stretch:normal;font-size:3.52777767px;line-height:1.25;font-family:'Arial Black';-inkscape-font-specification:'Arial Black, Normal';font-variant-ligatures:normal;font-variant-caps:normal;font-variant-numeric:normal;font-feature-settings:normal;text-align:center;letter-spacing:0px;word-spacing:0px;writing-mode:lr-tb;text-anchor:middle;fill:#000000;fill-opacity:1;stroke:none;stroke-width:0.26458332"
       id="text184"
       transform="translate(-1.5875)">
      <path
         d="m 6.0048011,87.496781 q -0.1653645,-0.08785 -0.2411566,-0.19637 -0.1033529,-0.148139 -0.1033529,-0.341065 0,-0.316948 0.2980007,-0.518486 0.232544,-0.15503 0.6149496,-0.15503 0.506429,0 0.7475857,0.192926 0.2428792,0.192925 0.2428792,0.485758 0,0.170532 -0.096463,0.318671 -0.072347,0.110243 -0.2273763,0.213596 0.2049832,0.09819 0.304891,0.260105 0.1016303,0.161919 0.1016303,0.35829 0,0.18948 -0.08785,0.354845 -0.086127,0.163642 -0.213596,0.253214 -0.1257459,0.08957 -0.3152262,0.130914 -0.1877577,0.04306 -0.4013536,0.04306 -0.4013536,0 -0.613227,-0.09474 Q 5.8032631,88.707732 5.69302,88.52342 5.5827769,88.339107 5.5827769,88.111731 q 0,-0.222209 0.1033529,-0.375516 0.1033529,-0.155029 0.3186713,-0.239434 z m 0.3152263,-0.496093 q 0,0.130913 0.08096,0.211873 0.082682,0.07924 0.2187636,0.07924 0.1205783,0 0.1980929,-0.07924 0.077515,-0.07924 0.077515,-0.204983 0,-0.130914 -0.08096,-0.211874 -0.08096,-0.08268 -0.2067057,-0.08268 -0.1274685,0 -0.2084282,0.08096 -0.079237,0.07924 -0.079237,0.206706 z m -0.037896,1.086927 q 0,0.167087 0.1016303,0.273885 0.1016303,0.105076 0.232544,0.105076 0.1257459,0 0.2256537,-0.106798 0.099908,-0.108521 0.099908,-0.273885 0,-0.167088 -0.1016303,-0.273885 -0.099908,-0.106798 -0.232544,-0.106798 -0.1309136,0 -0.2290988,0.103352 -0.096463,0.103353 -0.096463,0.279053 z"
         style="fill:#00ff00;stroke-width:0.26458332"
         id="path372"
         inkscape:connector-curvature="0" />
    </g>
    <g
       aria-label="9"
       style="font-style:normal;font-variant:normal;font-weight:normal;font-stretch:normal;font-size:3.52777767px;line-height:1.25;font-family:'Arial Black';-inkscape-font-specification:'Arial Black, Normal';font-variant-ligatures:normal;font-variant-caps:normal;font-variant-numeric:normal;font-feature-settings:normal;text-align:center;letter-spacing:0px;word-spacing:0px;writing-mode:lr-tb;text-anchor:middle;fill:#000000;fill-opacity:1;stroke:none;stroke-width:0.26458332"
       id="text188"
       transform="translate(-3.1750001)">
      <path
         d="m 17.520034,88.287431 0.697632,-0.08785 q 0.02756,0.146416 0.09302,0.206705 0.06546,0.06029 0.160197,0.06029 0.16881,0 0.26355,-0.170533 0.0689,-0.125746 0.103353,-0.532267 -0.125746,0.129191 -0.258382,0.18948 -0.132637,0.06029 -0.306614,0.06029 -0.339342,0 -0.573608,-0.241157 -0.232544,-0.241157 -0.232544,-0.609782 0,-0.251492 0.118856,-0.458198 0.118855,-0.206705 0.327284,-0.311781 0.208428,-0.106798 0.523654,-0.106798 0.378961,0 0.608059,0.130914 0.229099,0.129191 0.365181,0.413411 0.137803,0.282498 0.137803,0.747586 0,0.683851 -0.287665,1.002523 -0.287666,0.316949 -0.79754,0.316949 -0.301445,0 -0.475423,-0.0689 -0.173977,-0.07062 -0.289388,-0.204984 -0.115411,-0.134358 -0.177422,-0.335896 z m 1.291911,-1.126547 q 0,-0.204983 -0.103353,-0.320393 -0.103353,-0.117134 -0.251492,-0.117134 -0.139527,0 -0.232544,0.105076 -0.09129,0.105075 -0.09129,0.315226 0,0.211873 0.09474,0.323839 0.09646,0.111966 0.239434,0.111966 0.148139,0 0.246324,-0.108521 0.09819,-0.10852 0.09819,-0.310059 z"
         style="fill:#00ff00;stroke-width:0.26458332"
         id="path369"
         inkscape:connector-curvature="0" />
    </g>
    <g
       aria-label="6"
       style="font-style:normal;font-variant:normal;font-weight:normal;font-stretch:normal;font-size:3.52777767px;line-height:1.25;font-family:'Arial Black';-inkscape-font-specification:'Arial Black, Normal';font-variant-ligatures:normal;font-variant-caps:normal;font-variant-numeric:normal;font-feature-settings:normal;text-align:center;letter-spacing:0px;word-spacing:0px;writing-mode:lr-tb;text-anchor:middle;fill:#000000;fill-opacity:1;stroke:none;stroke-width:0.26458332"
       id="text217"
       transform="translate(-1.5875)">
      <path
         d="m 7.6136607,70.757747 -0.6976318,0.08613 q -0.027561,-0.146417 -0.093018,-0.206706 -0.063734,-0.06029 -0.1584744,-0.06029 -0.1705322,0 -0.2652723,0.172255 -0.068902,0.124023 -0.1016304,0.530544 0.125746,-0.127468 0.2583822,-0.187757 0.1326362,-0.06201 0.3066135,-0.06201 0.3376193,0 0.5701633,0.241156 0.2342665,0.241157 0.2342665,0.611505 0,0.249769 -0.1188558,0.456475 -0.1171333,0.206706 -0.3272841,0.313504 -0.2084283,0.105075 -0.5236545,0.105075 -0.3789605,0 -0.6080593,-0.129191 Q 5.8601071,72.499243 5.7223033,72.216745 5.586222,71.932525 5.586222,71.465714 q 0,-0.683851 0.2876655,-1.0008 0.2876655,-0.318671 0.7975396,-0.318671 0.3014458,0 0.4754232,0.07062 0.1756998,0.0689 0.2911105,0.203261 0.1154107,0.134359 0.1756999,0.337619 z m -1.2919108,1.124824 q 0,0.204983 0.1033529,0.322116 0.1033528,0.115411 0.2532145,0.115411 0.1378038,0 0.2308214,-0.105075 0.093018,-0.105076 0.093018,-0.313504 0,-0.213596 -0.096463,-0.325562 -0.096463,-0.111965 -0.2394342,-0.111965 -0.1464165,0 -0.2463243,0.10852 -0.098185,0.108521 -0.098185,0.310059 z"
         style="fill:#00ff00;stroke-width:0.26458332"
         id="path366"
         inkscape:connector-curvature="0" />
    </g>
    <g
       aria-label="7"
       style="font-style:normal;font-variant:normal;font-weight:normal;font-stretch:normal;font-size:3.52777767px;line-height:1.25;font-family:'Arial Black';-inkscape-font-specification:'Arial Black, Normal';font-variant-ligatures:normal;font-variant-caps:normal;font-variant-numeric:normal;font-feature-settings:normal;text-align:center;letter-spacing:0px;word-spacing:0px;writing-mode:lr-tb;text-anchor:middle;fill:#000000;fill-opacity:1;stroke:none;stroke-width:0.26458332"
       id="text221"
       transform="translate(-3.7041668)">
      <path
         d="m 17.765667,70.189307 h 2.04811 v 0.4737 q -0.266995,0.241157 -0.44614,0.521932 -0.217041,0.341065 -0.342787,0.759644 -0.09991,0.325561 -0.134359,0.769978 h -0.699354 q 0.08268,-0.618394 0.260104,-1.036973 0.177423,-0.418579 0.561551,-0.895725 h -1.247125 z"
         style="fill:#00ff00;stroke-width:0.26458332"
         id="path363"
         inkscape:connector-curvature="0" />
    </g>
    <g
       aria-label="4"
       style="font-style:normal;font-variant:normal;font-weight:normal;font-stretch:normal;font-size:3.52777767px;line-height:1.25;font-family:'Arial Black';-inkscape-font-specification:'Arial Black, Normal';font-variant-ligatures:normal;font-variant-caps:normal;font-variant-numeric:normal;font-feature-settings:normal;text-align:center;letter-spacing:0px;word-spacing:0px;writing-mode:lr-tb;text-anchor:middle;fill:#000000;fill-opacity:1;stroke:none;stroke-width:0.26458332"
       id="text249"
       transform="translate(-1.5875)">
      <path
         d="M 6.7885603,56.103004 H 5.5104299 V 55.52595 l 1.2781304,-1.519287 h 0.6115045 v 1.552016 h 0.3169487 v 0.544325 H 7.4000648 v 0.471978 H 6.7885603 Z m 0,-0.544325 v -0.794095 l -0.6752387,0.794095 z"
         style="fill:#00ff00;stroke-width:0.26458332"
         id="path360"
         inkscape:connector-curvature="0" />
    </g>
    <g
       aria-label="5"
       style="font-style:normal;font-variant:normal;font-weight:normal;font-stretch:normal;font-size:3.52777767px;line-height:1.25;font-family:'Arial Black';-inkscape-font-specification:'Arial Black, Normal';font-variant-ligatures:normal;font-variant-caps:normal;font-variant-numeric:normal;font-feature-settings:normal;text-align:center;letter-spacing:0px;word-spacing:0px;writing-mode:lr-tb;text-anchor:middle;fill:#000000;fill-opacity:1;stroke:none;stroke-width:0.26458332"
       id="text253"
       transform="translate(-3.7041668)">
      <path
         d="m 18.302415,54.049727 h 1.665704 v 0.559828 H 18.83985 l -0.06029,0.37896 q 0.117133,-0.05512 0.230822,-0.08268 0.11541,-0.02756 0.227376,-0.02756 0.37896,0 0.614949,0.229099 0.235989,0.229099 0.235989,0.577054 0,0.244601 -0.1223,0.470255 -0.120579,0.225654 -0.34451,0.34451 -0.222209,0.118855 -0.570163,0.118855 -0.24977,0 -0.428915,-0.04651 -0.177422,-0.04823 -0.303168,-0.141249 -0.124024,-0.09474 -0.201538,-0.213596 -0.07752,-0.118856 -0.129191,-0.296278 l 0.709689,-0.07751 q 0.02584,0.170532 0.120579,0.260105 0.09474,0.08785 0.225654,0.08785 0.146416,0 0.241156,-0.110243 0.09646,-0.111966 0.09646,-0.332452 0,-0.225654 -0.09646,-0.330729 -0.09646,-0.105076 -0.256659,-0.105076 -0.101631,0 -0.196371,0.04995 -0.07062,0.03617 -0.155029,0.130914 l -0.597724,-0.08613 z"
         style="fill:#00ff00;stroke-width:0.26458332"
         id="path357"
         inkscape:connector-curvature="0" />
    </g>
    <g
       aria-label="2"
       style="font-style:normal;font-variant:normal;font-weight:normal;font-stretch:normal;font-size:3.52777767px;line-height:1.25;font-family:'Arial Black';-inkscape-font-specification:'Arial Black, Normal';font-variant-ligatures:normal;font-variant-caps:normal;font-variant-numeric:normal;font-feature-settings:normal;text-align:center;letter-spacing:0px;word-spacing:0px;writing-mode:lr-tb;text-anchor:middle;fill:#000000;fill-opacity:1;stroke:none;stroke-width:0.26458332"
       id="text281"
       transform="translate(-1.5875)">
      <path
         d="M 7.6360538,40.170815 H 5.5311005 q 0.036174,-0.311782 0.2187636,-0.585667 0.1843126,-0.275607 0.6890191,-0.6494 0.308336,-0.229099 0.3944634,-0.347955 0.086127,-0.118856 0.086127,-0.225654 0,-0.11541 -0.086127,-0.19637 -0.084405,-0.08268 -0.2135959,-0.08268 -0.1343588,0 -0.2204861,0.08441 -0.084405,0.0844 -0.1136882,0.298 l -0.7027995,-0.05684 q 0.041341,-0.296278 0.1515842,-0.461643 0.1102431,-0.167087 0.3100586,-0.254937 0.2015381,-0.08957 0.5563829,-0.08957 0.3703478,0 0.575331,0.0844 0.2067057,0.08441 0.3238389,0.260104 0.1188558,0.173978 0.1188558,0.391019 0,0.230821 -0.1360812,0.440972 -0.1343588,0.210151 -0.4909261,0.461643 -0.2118734,0.146416 -0.2842204,0.204983 -0.070625,0.05857 -0.1670871,0.153307 h 1.0955403 z"
         style="fill:#00ff00;stroke-width:0.26458332"
         id="path354"
         inkscape:connector-curvature="0" />
    </g>
    <g
       aria-label="3"
       style="font-style:normal;font-variant:normal;font-weight:normal;font-stretch:normal;font-size:3.52777767px;line-height:1.25;font-family:'Arial Black';-inkscape-font-specification:'Arial Black, Normal';font-variant-ligatures:normal;font-variant-caps:normal;font-variant-numeric:normal;font-feature-settings:normal;text-align:center;letter-spacing:0px;word-spacing:0px;writing-mode:lr-tb;text-anchor:middle;fill:#00ff00;fill-opacity:1;stroke:none;stroke-width:0.26458332"
       id="text285"
       transform="translate(-3.7041668)">
      <path
         d="m 18.698601,38.37592 -0.66318,-0.118856 q 0.08268,-0.316949 0.316948,-0.485758 0.235989,-0.16881 0.666626,-0.16881 0.494371,0 0.714858,0.184313 0.220486,0.184312 0.220486,0.463365 0,0.163642 -0.08957,0.296278 -0.08957,0.132636 -0.27044,0.232544 0.146417,0.03617 0.223931,0.08441 0.125746,0.07751 0.194648,0.204983 0.07062,0.125746 0.07062,0.301446 0,0.220486 -0.115411,0.423747 -0.115411,0.201538 -0.332452,0.311781 -0.217041,0.10852 -0.570163,0.10852 -0.344509,0 -0.544325,-0.08096 -0.198093,-0.08096 -0.327284,-0.235989 -0.127469,-0.156751 -0.19637,-0.39274 l 0.701076,-0.09302 q 0.04134,0.211873 0.127469,0.294556 0.08785,0.08096 0.222209,0.08096 0.141249,0 0.234266,-0.103352 0.09474,-0.103353 0.09474,-0.275608 0,-0.1757 -0.09129,-0.272163 -0.08957,-0.09646 -0.244602,-0.09646 -0.08268,0 -0.227376,0.04134 l 0.03617,-0.501262 q 0.05857,0.0086 0.09129,0.0086 0.137803,0 0.229098,-0.08785 0.09302,-0.08785 0.09302,-0.208428 0,-0.115411 -0.0689,-0.184313 -0.0689,-0.0689 -0.18948,-0.0689 -0.124024,0 -0.201538,0.07579 -0.07752,0.07407 -0.105076,0.261827 z"
         style="fill:#00ff00;stroke-width:0.26458332"
         id="path351"
         inkscape:connector-curvature="0" />
    </g>
    <g
       aria-label="IN"
       style="font-style:normal;font-variant:normal;font-weight:normal;font-stretch:normal;font-size:3.52777767px;line-height:1.25;font-family:'Arial Black';-inkscape-font-specification:'Arial Black, Normal';font-variant-ligatures:normal;font-variant-caps:normal;font-variant-numeric:normal;font-feature-settings:normal;text-align:center;letter-spacing:0px;word-spacing:0px;writing-mode:lr-tb;text-anchor:middle;fill:#000000;fill-opacity:1;stroke:none;stroke-width:0.26458332"
       id="text337"
       transform="translate(-1.5875)">
      <path
         d="m 5.0127862,20.976815 h 0.7820366 v 2.525254 H 5.0127862 Z"
         style="fill:#00ff00;stroke-width:0.26458332"
         id="path346"
         inkscape:connector-curvature="0" />
      <path
         d="m 6.3598185,20.976815 h 0.7286377 l 0.9508463,1.396986 v -1.396986 h 0.7355279 v 2.525254 H 8.0393025 l -0.9456787,-1.38665 v 1.38665 H 6.3598185 Z"
         style="fill:#00ff00;stroke-width:0.26458332"
         id="path348"
         inkscape:connector-curvature="0" />
    </g>
    <g
       aria-label="1"
       style="font-style:normal;font-variant:normal;font-weight:normal;font-stretch:normal;font-size:3.52777767px;line-height:1.25;font-family:'Arial Black';-inkscape-font-specification:'Arial Black, Normal';font-variant-ligatures:normal;font-variant-caps:normal;font-variant-numeric:normal;font-feature-settings:normal;text-align:center;letter-spacing:0px;word-spacing:0px;writing-mode:lr-tb;text-anchor:middle;fill:#000000;fill-opacity:1;stroke:none;stroke-width:0.26458332"
       id="text341"
       transform="translate(-3.7041668)">
      <path
         d="m 19.608107,20.933751 v 2.568318 h -0.70969 V 21.81914 q -0.172255,0.130914 -0.334174,0.211874 -0.160197,0.08096 -0.403076,0.155029 v -0.575331 q 0.358289,-0.115411 0.556382,-0.27733 0.198093,-0.16192 0.310059,-0.399631 z"
         style="fill:#00ff00;stroke-width:0.26458332"
         id="path343"
         inkscape:connector-curvature="0" />
    </g>
  </g>
  <g
     inkscape:groupmode="layer"
     id="layer4"
     inkscape:label="graphics"
     transform="translate(0,28.00003)"
     style="display:inline">
    <text
       xml:space="preserve"
       style="font-style:normal;font-variant:normal;font-weight:normal;font-stretch:normal;font-size:4.58611107px;line-height:1.25;font-family:'Arial Black';-inkscape-font-specification:'Arial Black, Normal';font-variant-ligatures:normal;font-variant-caps:normal;font-variant-numeric:normal;text-align:center;letter-spacing:0px;word-spacing:0px;writing-mode:lr-tb;text-anchor:middle;fill:#000000;fill-opacity:1;stroke:none;stroke-width:0.26458332"
       x="11.90625"
       y="-21.166708"
       id="text115"><tspan
         sodipodi:role="line"
         id="tspan113"
         x="11.90625"
         y="-17.054897"
         style="stroke-width:0.26458332" /></text>
    <g
       aria-label="KRT"
       style="font-style:normal;font-variant:normal;font-weight:normal;font-stretch:normal;font-size:3.52777767px;line-height:1.25;font-family:'Arial Black';-inkscape-font-specification:'Arial Black, Normal';font-variant-ligatures:normal;font-variant-caps:normal;font-variant-numeric:normal;font-feature-settings:normal;text-align:center;letter-spacing:0px;word-spacing:0px;writing-mode:lr-tb;text-anchor:middle;fill:#000000;fill-opacity:1;stroke:none;stroke-width:0.26458332"
       id="text123"
       transform="translate(-12.170835,-117.47517)">
      <path
         d="m 14.418414,95.635115 h 0.780314 v 0.954291 l 0.81821,-0.954291 h 1.036974 l -0.91984,0.952569 0.961181,1.572686 h -0.961181 l -0.532268,-1.038696 -0.403076,0.422024 v 0.616672 h -0.780314 z"
         style="fill:#f9f9f9;stroke-width:0.26458332"
         id="path227"
         inkscape:connector-curvature="0" />
      <path
         d="m 17.363971,98.16037 v -2.525255 h 1.300523 q 0.361735,0 0.552938,0.06201 0.191203,0.06201 0.308336,0.230821 0.117133,0.167087 0.117133,0.408244 0,0.210151 -0.08957,0.363457 -0.08957,0.151585 -0.246325,0.246325 -0.09991,0.06029 -0.273885,0.09991 0.139527,0.04651 0.203261,0.09302 0.04306,0.03101 0.124023,0.132636 0.08268,0.101631 0.110243,0.156752 l 0.377238,0.732083 H 18.96594 l -0.416857,-0.771701 q -0.07924,-0.149862 -0.141248,-0.194648 -0.08441,-0.05857 -0.191203,-0.05857 h -0.0689 v 1.024916 z m 0.783759,-1.502062 h 0.329006 q 0.0534,0 0.206706,-0.03445 0.07752,-0.0155 0.125746,-0.07924 0.04995,-0.06373 0.04995,-0.146416 0,-0.122301 -0.07751,-0.187758 -0.07751,-0.06546 -0.29111,-0.06546 H 18.14773 Z"
         style="fill:#f9f9f9;stroke-width:0.26458332"
         id="path229"
         inkscape:connector-curvature="0" />
      <path
         d="m 19.889226,95.635115 h 2.371948 v 0.623562 h -0.795817 v 1.901693 h -0.780314 v -1.901693 h -0.795817 z"
         style="fill:#f9f9f9;stroke-width:0.26458332"
         id="path231"
         inkscape:connector-curvature="0" />
    </g>
    <g
       aria-label="Ω"
       style="font-style:normal;font-variant:normal;font-weight:normal;font-stretch:normal;font-size:3.52777767px;line-height:1.25;font-family:'Arial Black';-inkscape-font-specification:'Arial Black, Normal';font-variant-ligatures:normal;font-variant-caps:normal;font-variant-numeric:normal;font-feature-settings:normal;text-align:center;letter-spacing:0px;word-spacing:0px;writing-mode:lr-tb;text-anchor:middle;fill:#000000;fill-opacity:1;stroke:none;stroke-width:0.26458332"
       id="text107"
       transform="matrix(2.52226,0,0,2.4814703,-16.867486,28.084873)" />
    <g
       aria-label="W"
       transform="scale(0.99442366,1.0056076)"
       style="font-style:normal;font-variant:normal;font-weight:normal;font-stretch:normal;font-size:4.61078978px;line-height:1.25;font-family:'Arial Black';-inkscape-font-specification:'Arial Black, Normal';font-variant-ligatures:normal;font-variant-caps:normal;font-variant-numeric:normal;font-feature-settings:normal;text-align:center;letter-spacing:0px;word-spacing:0px;writing-mode:lr-tb;text-anchor:middle;fill:#000000;fill-opacity:1;stroke:none;stroke-width:0.34580922"
       id="text114">
      <path
         d="m 10.929187,-22.967857 h 0.968086 l 0.348961,1.843865 0.508808,-1.843865 h 0.965834 l 0.51106,1.843865 0.348961,-1.843865 h 0.963583 l -0.72719,3.300497 h -0.999605 l -0.5786,-2.078008 -0.576349,2.078008 h -0.999605 z"
         style="stroke-width:0.34580922"
         id="path116"
         inkscape:connector-curvature="0" />
    </g>
  </g>
</svg>
