<?xml version="1.0" encoding="UTF-8" standalone="no"?>
<!-- Created with Inkscape (http://www.inkscape.org/) -->

<svg
   xmlns:dc="http://purl.org/dc/elements/1.1/"
   xmlns:cc="http://creativecommons.org/ns#"
   xmlns:rdf="http://www.w3.org/1999/02/22-rdf-syntax-ns#"
   xmlns:svg="http://www.w3.org/2000/svg"
   xmlns="http://www.w3.org/2000/svg"
   xmlns:sodipodi="http://sodipodi.sourceforge.net/DTD/sodipodi-0.dtd"
   xmlns:inkscape="http://www.inkscape.org/namespaces/inkscape"
   width="86.360001mm"
   height="128.54166mm"
   viewBox="0 0 86.360002 128.5417"
   version="1.1"
   id="svg4541"
   sodipodi:docname="Y.svg"
   inkscape:version="0.92.5 (2060ec1f9f, 2020-04-08)">
  <defs
     id="defs4535" />
  <sodipodi:namedview
     id="base"
     pagecolor="#ffffff"
     bordercolor="#666666"
     borderopacity="1.0"
     inkscape:pageopacity="0.0"
     inkscape:pageshadow="2"
     inkscape:zoom="2.8284271"
     inkscape:cx="239.6735"
     inkscape:cy="283.07071"
     inkscape:document-units="mm"
     inkscape:current-layer="layer4"
     showgrid="true"
     fit-margin-top="0"
     fit-margin-left="0"
     fit-margin-right="0"
     fit-margin-bottom="0"
     inkscape:window-width="1600"
     inkscape:window-height="845"
     inkscape:window-x="0"
     inkscape:window-y="0"
     inkscape:window-maximized="1"
     units="mm"
     objecttolerance="1">
    <inkscape:grid
       type="xygrid"
       id="grid76"
       spacingx="0.52916677"
       spacingy="0.52916677" />
  </sodipodi:namedview>
  <metadata
     id="metadata4538">
    <rdf:RDF>
      <cc:Work
         rdf:about="">
        <dc:format>image/svg+xml</dc:format>
        <dc:type
           rdf:resource="http://purl.org/dc/dcmitype/StillImage" />
        <dc:title />
      </cc:Work>
    </rdf:RDF>
  </metadata>
  <g
     inkscape:groupmode="layer"
     id="layer1"
     inkscape:label="Background"
     style="display:inline;opacity:1">
    <rect
       style="fill:#f9f9f9;stroke-width:0.51543033"
       id="rect111"
       width="87.04792"
       height="129.64583"
       x="-2.7815501e-08"
       y="0.21873982" />
  </g>
  <g
     inkscape:groupmode="layer"
     id="layer4"
     inkscape:label="graphics"
     transform="translate(0,28.00003)"
     style="display:inline">
    <text
       xml:space="preserve"
       style="font-style:normal;font-variant:normal;font-weight:normal;font-stretch:normal;font-size:4.58611107px;line-height:1.25;font-family:'Arial Black';-inkscape-font-specification:'Arial Black, Normal';font-variant-ligatures:normal;font-variant-caps:normal;font-variant-numeric:normal;text-align:center;letter-spacing:0px;word-spacing:0px;writing-mode:lr-tb;text-anchor:middle;fill:#000000;fill-opacity:1;stroke:none;stroke-width:0.26458332"
       x="11.90625"
       y="-21.166708"
       id="text115"><tspan
         sodipodi:role="line"
         id="tspan113"
         x="11.90625"
         y="-17.054897"
         style="stroke-width:0.26458332" /></text>
    <g
       aria-label="KRT"
       style="font-style:normal;font-variant:normal;font-weight:normal;font-stretch:normal;font-size:3.52777767px;line-height:1.25;font-family:'Arial Black';-inkscape-font-specification:'Arial Black, Normal';font-variant-ligatures:normal;font-variant-caps:normal;font-variant-numeric:normal;font-feature-settings:normal;text-align:center;letter-spacing:0px;word-spacing:0px;writing-mode:lr-tb;text-anchor:middle;fill:#000000;fill-opacity:1;stroke:none;stroke-width:0.26458332"
       id="text123"
       transform="translate(-12.170835,-117.47517)">
      <path
         d="m 14.418414,95.635115 h 0.780314 v 0.954291 l 0.81821,-0.954291 h 1.036974 l -0.91984,0.952569 0.961181,1.572686 h -0.961181 l -0.532268,-1.038696 -0.403076,0.422024 v 0.616672 h -0.780314 z"
         style="fill:#000000;stroke-width:0.26458332"
         id="path227"
         inkscape:connector-curvature="0" />
      <path
         d="m 17.363971,98.16037 v -2.525255 h 1.300523 q 0.361735,0 0.552938,0.06201 0.191203,0.06201 0.308336,0.230821 0.117133,0.167087 0.117133,0.408244 0,0.210151 -0.08957,0.363457 -0.08957,0.151585 -0.246325,0.246325 -0.09991,0.06029 -0.273885,0.09991 0.139527,0.04651 0.203261,0.09302 0.04306,0.03101 0.124023,0.132636 0.08268,0.101631 0.110243,0.156752 l 0.377238,0.732083 H 18.96594 l -0.416857,-0.771701 q -0.07924,-0.149862 -0.141248,-0.194648 -0.08441,-0.05857 -0.191203,-0.05857 h -0.0689 v 1.024916 z m 0.783759,-1.502062 h 0.329006 q 0.0534,0 0.206706,-0.03445 0.07752,-0.0155 0.125746,-0.07924 0.04995,-0.06373 0.04995,-0.146416 0,-0.122301 -0.07751,-0.187758 -0.07751,-0.06546 -0.29111,-0.06546 H 18.14773 Z"
         style="fill:#000000;stroke-width:0.26458332"
         id="path229"
         inkscape:connector-curvature="0" />
      <path
         d="m 19.889226,95.635115 h 2.371948 v 0.623562 h -0.795817 v 1.901693 h -0.780314 v -1.901693 h -0.795817 z"
         style="fill:#000000;stroke-width:0.26458332"
         id="path231"
         inkscape:connector-curvature="0" />
    </g>
    <g
       aria-label="Ω"
       style="font-style:normal;font-variant:normal;font-weight:normal;font-stretch:normal;font-size:3.52777767px;line-height:1.25;font-family:'Arial Black';-inkscape-font-specification:'Arial Black, Normal';font-variant-ligatures:normal;font-variant-caps:normal;font-variant-numeric:normal;font-feature-settings:normal;text-align:center;letter-spacing:0px;word-spacing:0px;writing-mode:lr-tb;text-anchor:middle;fill:#000000;fill-opacity:1;stroke:none;stroke-width:0.26458332"
       id="text107"
       transform="matrix(2.52226,0,0,2.4814703,-16.867486,28.084873)" />
    <g
       aria-label="Y"
       style="font-style:normal;font-variant:normal;font-weight:normal;font-stretch:normal;font-size:3.52777767px;line-height:1.25;font-family:'Arial Black';-inkscape-font-specification:'Arial Black, Normal';font-variant-ligatures:normal;font-variant-caps:normal;font-variant-numeric:normal;font-feature-settings:normal;text-align:center;letter-spacing:0px;word-spacing:0px;writing-mode:lr-tb;text-anchor:middle;fill:#000000;fill-opacity:1;stroke:none;stroke-width:0.26458332"
       id="text70">
      <path
         d="m 10.273103,-22.898212 h 0.866442 l 0.509874,0.852661 0.509874,-0.852661 h 0.861274 l -0.981852,1.46761 v 1.057645 h -0.782037 v -1.057645 z"
         style="stroke-width:0.26458332;fill:#ff00ff"
         id="path72" />
    </g>
    <g
       aria-label="OUTPUT GATES"
       style="font-style:normal;font-variant:normal;font-weight:normal;font-stretch:normal;font-size:3.52777767px;line-height:1.25;font-family:'Arial Black';-inkscape-font-specification:'Arial Black, Normal';font-variant-ligatures:normal;font-variant-caps:normal;font-variant-numeric:normal;font-feature-settings:normal;text-align:center;letter-spacing:0px;word-spacing:0px;writing-mode:lr-tb;text-anchor:middle;fill:#000000;fill-opacity:1;stroke:none;stroke-width:0.26458332"
       id="text77">
      <path
         d="m 28.721942,7.2057222 q 0,-0.6183946 0.344509,-0.9629041 0.34451,-0.3445096 0.959459,-0.3445096 0.630453,0 0.971517,0.3393419 0.341065,0.3376194 0.341065,0.9474012 0,0.4426948 -0.149862,0.7269152 -0.148139,0.2824978 -0.430637,0.4409722 -0.280775,0.1567518 -0.701077,0.1567518 -0.427192,0 -0.707967,-0.1360813 Q 29.069896,8.2375283 28.895919,7.9429726 28.721942,7.648417 28.721942,7.2057222 Z m 0.780314,0.00345 q 0,0.3824056 0.141249,0.5494927 0.142971,0.1670871 0.387573,0.1670871 0.251492,0 0.389296,-0.163642 0.137804,-0.163642 0.137804,-0.5873887 0,-0.3565674 -0.144695,-0.5202095 -0.142971,-0.1653645 -0.389295,-0.1653645 -0.235989,0 -0.378961,0.1670871 -0.142971,0.1670871 -0.142971,0.5529378 z"
         style="fill:#ff0000;stroke-width:0.26458332"
         id="path79" />
      <path
         d="m 33.402104,5.9413722 h 0.778591 v 1.5055067 q 0,0.2239312 -0.07062,0.4237467 -0.0689,0.198093 -0.218764,0.3479547 -0.148139,0.1481391 -0.311781,0.2084282 -0.227376,0.084405 -0.546047,0.084405 -0.184313,0 -0.403077,-0.025838 Q 32.413361,8.4597369 32.266945,8.3839448 32.120528,8.3064302 31.998227,8.1651813 31.877649,8.0239324 31.832863,7.8740707 31.760516,7.632914 31.760516,7.4468789 V 5.9413722 h 0.778591 v 1.5416802 q 0,0.2067057 0.113688,0.323839 0.115411,0.1154107 0.318672,0.1154107 0.201538,0 0.315226,-0.1136882 0.115411,-0.1154107 0.115411,-0.3255615 z"
         style="fill:#ff0000;stroke-width:0.26458332"
         id="path81" />
      <path
         d="m 34.520037,5.9413722 h 2.371948 V 6.5649345 H 36.096168 V 8.4666271 H 35.315854 V 6.5649345 h -0.795817 z"
         style="fill:#ff0000;stroke-width:0.26458332"
         id="path83" />
      <path
         d="m 37.241662,5.9413722 h 1.297078 q 0.423747,0 0.633898,0.2015381 0.211873,0.2015381 0.211873,0.5736084 0,0.3824056 -0.230821,0.597724 -0.229099,0.2153185 -0.701077,0.2153185 h -0.427192 v 0.9370659 h -0.783759 z m 0.783759,1.0765923 h 0.191203 q 0.225654,0 0.316949,-0.077515 0.0913,-0.079237 0.0913,-0.2015381 0,-0.1188558 -0.07924,-0.2015381 -0.07924,-0.082682 -0.298001,-0.082682 h -0.222209 z"
         style="fill:#ff0000;stroke-width:0.26458332"
         id="path85" />
      <path
         d="m 41.436066,5.9413722 h 0.778592 v 1.5055067 q 0,0.2239312 -0.07062,0.4237467 -0.0689,0.198093 -0.218763,0.3479547 -0.14814,0.1481391 -0.311782,0.2084282 -0.227376,0.084405 -0.546047,0.084405 -0.184313,0 -0.403076,-0.025838 Q 40.447324,8.4597369 40.300907,8.3839448 40.15449,8.3064302 40.03219,8.1651813 39.911611,8.0239324 39.866825,7.8740707 39.794478,7.632914 39.794478,7.4468789 V 5.9413722 h 0.778592 v 1.5416802 q 0,0.2067057 0.113688,0.323839 0.11541,0.1154107 0.318671,0.1154107 0.201538,0 0.315226,-0.1136882 0.115411,-0.1154107 0.115411,-0.3255615 z"
         style="fill:#ff0000;stroke-width:0.26458332"
         id="path87" />
      <path
         d="m 42.553999,5.9413722 h 2.371949 V 6.5649345 H 44.130131 V 8.4666271 H 43.349816 V 6.5649345 h -0.795817 z"
         style="fill:#ff0000;stroke-width:0.26458332"
         id="path89" />
      <path
         d="m 47.725087,7.5519543 v -0.525377 h 1.205784 v 1.0765923 q -0.346232,0.235989 -0.613227,0.3221164 -0.265273,0.084405 -0.630453,0.084405 -0.449585,0 -0.733805,-0.1533067 -0.282498,-0.1533068 -0.43925,-0.4564752 -0.155029,-0.3031684 -0.155029,-0.6959092 0,-0.4134115 0.170532,-0.7183024 0.170532,-0.3066135 0.499539,-0.4650879 0.25666,-0.1223009 0.690742,-0.1223009 0.418579,0 0.625284,0.075792 0.208429,0.075792 0.34451,0.235989 0.137804,0.1584744 0.206706,0.4030762 l -0.752754,0.1343587 q -0.04651,-0.1429714 -0.158474,-0.2187635 -0.110243,-0.075792 -0.282498,-0.075792 -0.256659,0 -0.409966,0.1791449 -0.151584,0.1774224 -0.151584,0.5632731 0,0.4099664 0.153306,0.5856662 0.15503,0.1756999 0.430637,0.1756999 0.130914,0 0.24977,-0.037896 0.118855,-0.037896 0.272162,-0.1291911 V 7.5519543 Z"
         style="fill:#ff0000;stroke-width:0.26458332"
         id="path91" />
      <path
         d="M 50.947975,8.0497706 H 50.05914 L 49.936839,8.4666271 H 49.1393 l 0.949124,-2.5252549 h 0.850938 l 0.949124,2.5252549 H 51.071998 Z M 50.784333,7.503723 50.50528,6.5959403 50.22795,7.503723 Z"
         style="fill:#ff0000;stroke-width:0.26458332"
         id="path93" />
      <path
         d="m 51.717953,5.9413722 h 2.371948 V 6.5649345 H 53.294084 V 8.4666271 H 52.51377 V 6.5649345 h -0.795817 z"
         style="fill:#ff0000;stroke-width:0.26458332"
         id="path95" />
      <path
         d="m 54.441301,5.9413722 h 2.091172 v 0.5391574 h -1.309136 v 0.4013536 h 1.214396 V 7.396925 h -1.214396 v 0.4978163 h 1.347032 v 0.5718858 h -2.129068 z"
         style="fill:#ff0000;stroke-width:0.26458332"
         id="path97" />
      <path
         d="m 56.854589,7.6311915 0.742418,-0.046509 q 0.02412,0.1808675 0.09819,0.2756076 0.120578,0.1533068 0.344509,0.1533068 0.167087,0 0.25666,-0.077515 0.09129,-0.079237 0.09129,-0.18259 0,-0.098185 -0.08613,-0.1756999 -0.08613,-0.077515 -0.399631,-0.1464165 -0.513319,-0.1154107 -0.732082,-0.3066135 -0.220487,-0.1912028 -0.220487,-0.487481 0,-0.1946479 0.111966,-0.3669027 0.113688,-0.1739773 0.339342,-0.2721625 0.227376,-0.099908 0.62184,-0.099908 0.484036,0 0.73725,0.1808675 0.254937,0.179145 0.303168,0.5718859 l -0.735527,0.043064 q -0.02928,-0.1705322 -0.124024,-0.2480468 -0.09302,-0.077515 -0.258382,-0.077515 -0.136081,0 -0.204983,0.058567 -0.0689,0.056844 -0.0689,0.1395263 0,0.060289 0.05684,0.1085205 0.05512,0.049954 0.261827,0.093018 0.511597,0.110243 0.732083,0.2239312 0.222209,0.1119656 0.322116,0.2790527 0.101631,0.1670871 0.101631,0.3737929 0,0.2428792 -0.134359,0.4478624 -0.134359,0.2049831 -0.375515,0.3117811 -0.241157,0.1050754 -0.60806,0.1050754 -0.644233,0 -0.892279,-0.2480469 -0.248047,-0.2480468 -0.280776,-0.6304524 z"
         style="fill:#ff0000;stroke-width:0.26458332"
         id="path99" />
    </g>
    <g
       aria-label="NOTES &amp; TRIPLES"
       style="font-style:normal;font-variant:normal;font-weight:normal;font-stretch:normal;font-size:3.52777767px;line-height:1.25;font-family:'Arial Black';-inkscape-font-specification:'Arial Black, Normal';font-variant-ligatures:normal;font-variant-caps:normal;font-variant-numeric:normal;font-feature-settings:normal;text-align:center;letter-spacing:0px;word-spacing:0px;writing-mode:lr-tb;text-anchor:middle;fill:#000000;fill-opacity:1;stroke:none;stroke-width:0.26458332"
       id="text122">
      <path
         d="m 26.394784,92.724699 h 0.728637 l 0.950847,1.396986 v -1.396986 h 0.735527 v 2.525255 h -0.735527 l -0.945679,-1.386651 v 1.386651 h -0.733805 z"
         style="fill:#0000ff;stroke-width:0.26458332"
         id="path124" />
      <path
         d="m 29.230097,93.989049 q 0,-0.618394 0.34451,-0.962904 0.344509,-0.344509 0.959459,-0.344509 0.630452,0 0.971517,0.339342 0.341064,0.337619 0.341064,0.947401 0,0.442694 -0.149862,0.726915 -0.148139,0.282498 -0.430637,0.440972 -0.280775,0.156752 -0.701077,0.156752 -0.427191,0 -0.707967,-0.136081 -0.279052,-0.136082 -0.45303,-0.430637 -0.173977,-0.294556 -0.173977,-0.737251 z m 0.780314,0.0034 q 0,0.382406 0.141249,0.549493 0.142972,0.167087 0.387573,0.167087 0.251492,0 0.389296,-0.163642 0.137804,-0.163642 0.137804,-0.587389 0,-0.356567 -0.144694,-0.520209 -0.142972,-0.165365 -0.389296,-0.165365 -0.235989,0 -0.37896,0.167088 -0.142972,0.167087 -0.142972,0.552937 z"
         style="fill:#0000ff;stroke-width:0.26458332"
         id="path126" />
      <path
         d="m 31.998231,92.724699 h 2.371949 v 0.623563 h -0.795817 v 1.901692 h -0.780315 v -1.901692 h -0.795817 z"
         style="fill:#0000ff;stroke-width:0.26458332"
         id="path128" />
      <path
         d="m 34.721579,92.724699 h 2.091173 v 0.539158 h -1.309136 v 0.401353 h 1.214396 v 0.515042 h -1.214396 v 0.497816 h 1.347032 v 0.571886 h -2.129069 z"
         style="fill:#0000ff;stroke-width:0.26458332"
         id="path130" />
      <path
         d="m 37.134869,94.414519 0.742418,-0.04651 q 0.02412,0.180867 0.09819,0.275607 0.120579,0.153307 0.34451,0.153307 0.167087,0 0.256659,-0.07751 0.09129,-0.07924 0.09129,-0.182591 0,-0.09819 -0.08613,-0.175699 -0.08613,-0.07752 -0.399631,-0.146417 -0.513319,-0.115411 -0.732083,-0.306613 -0.220486,-0.191203 -0.220486,-0.487481 0,-0.194648 0.111966,-0.366903 0.113688,-0.173977 0.339342,-0.272163 0.227376,-0.09991 0.621839,-0.09991 0.484036,0 0.737251,0.180867 0.254937,0.179145 0.303168,0.571886 l -0.735528,0.04306 q -0.02928,-0.170533 -0.124023,-0.248047 -0.09302,-0.07751 -0.258382,-0.07751 -0.136082,0 -0.204984,0.05857 -0.0689,0.05684 -0.0689,0.139526 0,0.06029 0.05684,0.108521 0.05512,0.04995 0.261827,0.09302 0.511597,0.110243 0.732083,0.223931 0.222208,0.111966 0.322116,0.279053 0.10163,0.167087 0.10163,0.373793 0,0.242879 -0.134358,0.447862 -0.134359,0.204984 -0.375516,0.311782 -0.241156,0.105075 -0.608059,0.105075 -0.644233,0 -0.89228,-0.248047 -0.248047,-0.248047 -0.280775,-0.630452 z"
         style="fill:#0000ff;stroke-width:0.26458332"
         id="path132" />
      <path
         d="m 42.988086,94.021778 0.54777,0.122301 q -0.04306,0.151584 -0.08268,0.242879 -0.03962,0.09129 -0.111966,0.215318 l 0.26355,0.180868 q 0.04823,0.03101 0.124023,0.07407 l -0.377238,0.434082 q -0.103353,-0.05512 -0.215318,-0.127468 -0.110243,-0.07235 -0.198093,-0.124024 -0.18259,0.120579 -0.36518,0.1757 -0.253215,0.07579 -0.575331,0.07579 -0.504707,0 -0.751031,-0.21015 -0.246324,-0.210151 -0.246324,-0.509875 0,-0.215318 0.144694,-0.406521 0.144694,-0.192925 0.4737,-0.325561 -0.137804,-0.167087 -0.18948,-0.289388 -0.05168,-0.124024 -0.05168,-0.251492 0,-0.268718 0.204983,-0.442695 0.204983,-0.173977 0.621839,-0.173977 0.42547,0 0.625285,0.165364 0.199816,0.165365 0.199816,0.396186 0,0.129191 -0.06201,0.248047 -0.06029,0.118856 -0.146416,0.192925 -0.08613,0.07407 -0.308336,0.220486 0.184312,0.184313 0.384128,0.342787 0.0534,-0.106797 0.0913,-0.225653 z m -0.806153,-0.442695 q 0.136082,-0.07407 0.210151,-0.160197 0.07407,-0.08785 0.07407,-0.165365 0,-0.08096 -0.06201,-0.136081 -0.06201,-0.05684 -0.170532,-0.05684 -0.106798,0 -0.173978,0.06201 -0.06718,0.06201 -0.06718,0.146416 0,0.106798 0.18948,0.310059 z m -0.249769,0.613227 q -0.144694,0.10163 -0.192925,0.173977 -0.04651,0.07235 -0.04651,0.153307 0,0.125746 0.10852,0.223931 0.108521,0.09819 0.282498,0.09819 0.187758,0 0.422024,-0.146416 -0.223931,-0.172255 -0.573608,-0.502984 z"
         style="fill:#0000ff;stroke-width:0.26458332"
         id="path134" />
      <path
         d="m 45.130935,92.724699 h 2.371948 v 0.623563 h -0.795817 v 1.901692 h -0.780314 v -1.901692 h -0.795817 z"
         style="fill:#0000ff;stroke-width:0.26458332"
         id="path136" />
      <path
         d="m 47.86634,95.249954 v -2.525255 h 1.300523 q 0.361735,0 0.552938,0.06201 0.191203,0.06201 0.308336,0.230821 0.117133,0.167088 0.117133,0.408244 0,0.210151 -0.08957,0.363458 -0.08957,0.151584 -0.246324,0.246324 -0.09991,0.06029 -0.273885,0.09991 0.139526,0.04651 0.20326,0.09302 0.04306,0.03101 0.124024,0.132637 0.08268,0.10163 0.110243,0.156751 l 0.377238,0.732083 h -0.881945 l -0.416856,-0.771701 q -0.07924,-0.149862 -0.141249,-0.194648 -0.0844,-0.05857 -0.191203,-0.05857 h -0.0689 v 1.024916 z m 0.783759,-1.502061 h 0.329007 q 0.0534,0 0.206705,-0.03445 0.07751,-0.0155 0.125746,-0.07924 0.04995,-0.06373 0.04995,-0.146416 0,-0.122301 -0.07751,-0.187758 -0.07751,-0.06546 -0.291111,-0.06546 h -0.342787 z"
         style="fill:#0000ff;stroke-width:0.26458332"
         id="path138" />
      <path
         d="m 50.631029,92.724699 h 0.782037 v 2.525255 h -0.782037 z"
         style="fill:#0000ff;stroke-width:0.26458332"
         id="path140" />
      <path
         d="m 51.969449,92.724699 h 1.297079 q 0.423747,0 0.633897,0.201538 0.211874,0.201538 0.211874,0.573609 0,0.382405 -0.230822,0.597724 -0.229098,0.215318 -0.701077,0.215318 h -0.427191 v 0.937066 h -0.78376 z m 0.78376,1.076593 h 0.191202 q 0.225654,0 0.316949,-0.07752 0.09129,-0.07924 0.09129,-0.201538 0,-0.118856 -0.07924,-0.201538 -0.07924,-0.08268 -0.298001,-0.08268 h -0.222208 z"
         style="fill:#0000ff;stroke-width:0.26458332"
         id="path142" />
      <path
         d="m 54.520542,92.724699 h 0.780314 v 1.903416 h 1.217841 v 0.621839 h -1.998155 z"
         style="fill:#0000ff;stroke-width:0.26458332"
         id="path144" />
      <path
         d="m 56.87182,92.724699 h 2.091173 v 0.539158 h -1.309136 v 0.401353 h 1.214396 v 0.515042 h -1.214396 v 0.497816 h 1.347032 v 0.571886 H 56.87182 Z"
         style="fill:#0000ff;stroke-width:0.26458332"
         id="path146" />
      <path
         d="m 59.285109,94.414519 0.742418,-0.04651 q 0.02412,0.180867 0.09819,0.275607 0.120578,0.153307 0.34451,0.153307 0.167087,0 0.256659,-0.07751 0.0913,-0.07924 0.0913,-0.182591 0,-0.09819 -0.08613,-0.175699 -0.08613,-0.07752 -0.399631,-0.146417 -0.513319,-0.115411 -0.732083,-0.306613 -0.220486,-0.191203 -0.220486,-0.487481 0,-0.194648 0.111966,-0.366903 0.113688,-0.173977 0.339342,-0.272163 0.227376,-0.09991 0.621839,-0.09991 0.484036,0 0.737251,0.180867 0.254937,0.179145 0.303168,0.571886 l -0.735528,0.04306 q -0.02928,-0.170533 -0.124023,-0.248047 -0.09302,-0.07751 -0.258382,-0.07751 -0.136082,0 -0.204984,0.05857 -0.0689,0.05684 -0.0689,0.139526 0,0.06029 0.05685,0.108521 0.05512,0.04995 0.261827,0.09302 0.511596,0.110243 0.732083,0.223931 0.222208,0.111966 0.322116,0.279053 0.10163,0.167087 0.10163,0.373793 0,0.242879 -0.134358,0.447862 -0.134359,0.204984 -0.375516,0.311782 -0.241156,0.105075 -0.608059,0.105075 -0.644233,0 -0.89228,-0.248047 -0.248047,-0.248047 -0.280775,-0.630452 z"
         style="fill:#0000ff;stroke-width:0.26458332"
         id="path148" />
    </g>
    <g
       aria-label="RST"
       style="font-style:normal;font-variant:normal;font-weight:normal;font-stretch:normal;font-size:3.52777767px;line-height:1.25;font-family:'Arial Black';-inkscape-font-specification:'Arial Black, Normal';font-variant-ligatures:normal;font-variant-caps:normal;font-variant-numeric:normal;font-feature-settings:normal;text-align:center;letter-spacing:0px;word-spacing:0px;writing-mode:lr-tb;text-anchor:middle;fill:#000000;fill-opacity:1;stroke:none;stroke-width:0.26458332"
       id="text67"
       transform="translate(2.6458334,-21.695841)">
      <path
         d="m 63.81781,64.822868 v -2.525255 h 1.300524 q 0.361735,0 0.552937,0.06201 0.191203,0.06201 0.308337,0.230822 0.117133,0.167087 0.117133,0.408243 0,0.210151 -0.08957,0.363458 -0.08957,0.151584 -0.246324,0.246324 -0.09991,0.06029 -0.273885,0.09991 0.139526,0.04651 0.203261,0.09302 0.04306,0.03101 0.124023,0.132636 0.08268,0.10163 0.110243,0.156752 l 0.377238,0.732082 H 65.41978 l -0.416857,-0.771701 q -0.07924,-0.149862 -0.141249,-0.194648 -0.0844,-0.05857 -0.191203,-0.05857 h -0.0689 v 1.024916 z m 0.783759,-1.502061 h 0.329007 q 0.0534,0 0.206706,-0.03445 0.07751,-0.0155 0.125746,-0.07924 0.04995,-0.06374 0.04995,-0.146417 0,-0.122301 -0.07752,-0.187758 -0.07752,-0.06546 -0.291111,-0.06546 H 64.60156 Z"
         style="fill:#0000ff;stroke-width:0.26458332"
         id="path80"
         inkscape:connector-curvature="0" />
      <path
         d="m 66.415412,63.987433 0.742418,-0.04651 q 0.02412,0.180867 0.09819,0.275608 0.120579,0.153306 0.34451,0.153306 0.167087,0 0.25666,-0.07751 0.0913,-0.07924 0.0913,-0.18259 0,-0.09819 -0.08613,-0.1757 -0.08613,-0.07751 -0.399631,-0.146417 -0.513319,-0.115411 -0.732083,-0.306613 -0.220486,-0.191203 -0.220486,-0.487481 0,-0.194648 0.111966,-0.366903 0.113688,-0.173977 0.339342,-0.272162 0.227376,-0.09991 0.62184,-0.09991 0.484035,0 0.73725,0.180867 0.254937,0.179145 0.303168,0.571886 l -0.735528,0.04306 q -0.02928,-0.170532 -0.124023,-0.248047 -0.09302,-0.07751 -0.258382,-0.07751 -0.136081,0 -0.204983,0.05857 -0.0689,0.05684 -0.0689,0.139526 0,0.06029 0.05684,0.108521 0.05512,0.04995 0.261827,0.09302 0.511597,0.110243 0.732083,0.223932 0.222209,0.111965 0.322116,0.279052 0.101631,0.167087 0.101631,0.373793 0,0.242879 -0.134359,0.447862 -0.134359,0.204984 -0.375516,0.311782 -0.241156,0.105075 -0.608059,0.105075 -0.644233,0 -0.89228,-0.248047 -0.248046,-0.248047 -0.280775,-0.630452 z"
         style="fill:#0000ff;stroke-width:0.26458332"
         id="path82"
         inkscape:connector-curvature="0" />
      <path
         d="m 68.921719,62.297613 h 2.371948 v 0.623563 H 70.49785 v 1.901692 h -0.780314 v -1.901692 h -0.795817 z"
         style="fill:#0000ff;stroke-width:0.26458332"
         id="path84"
         inkscape:connector-curvature="0" />
    </g>
    <g
       aria-label="RUN"
       style="font-style:normal;font-variant:normal;font-weight:normal;font-stretch:normal;font-size:3.52777767px;line-height:1.25;font-family:'Arial Black';-inkscape-font-specification:'Arial Black, Normal';font-variant-ligatures:normal;font-variant-caps:normal;font-variant-numeric:normal;font-feature-settings:normal;text-align:center;letter-spacing:0px;word-spacing:0px;writing-mode:lr-tb;text-anchor:middle;fill:#000000;fill-opacity:1;stroke:none;stroke-width:0.26458332"
       id="text71"
       transform="translate(1.5875,-19.579173)">
      <path
         d="m 75.363186,62.7062 v -2.525255 h 1.300524 q 0.361735,0 0.552938,0.06201 0.191203,0.06201 0.308336,0.230822 0.117133,0.167087 0.117133,0.408244 0,0.21015 -0.08957,0.363457 -0.08957,0.151584 -0.246325,0.246325 -0.09991,0.06029 -0.273885,0.09991 0.139527,0.04651 0.203261,0.09302 0.04306,0.03101 0.124023,0.132636 0.08268,0.10163 0.110243,0.156752 L 77.8471,62.7062 H 76.965156 L 76.548299,61.934498 Q 76.469059,61.784637 76.40705,61.73985 76.32264,61.68128 76.215848,61.68128 h -0.0689 v 1.02492 z m 0.78376,-1.502062 h 0.329006 q 0.0534,0 0.206706,-0.03445 0.07751,-0.0155 0.125746,-0.07924 0.04995,-0.06373 0.04995,-0.146417 0,-0.122301 -0.07751,-0.187757 -0.07751,-0.06546 -0.29111,-0.06546 h -0.342787 z"
         style="fill:#0000ff;stroke-width:0.26458332"
         id="path73"
         inkscape:connector-curvature="0" />
      <path
         d="m 79.679891,60.180945 h 0.778591 v 1.505506 q 0,0.223932 -0.07062,0.423747 -0.0689,0.198093 -0.218764,0.347955 -0.148139,0.148139 -0.311781,0.208428 -0.227376,0.0844 -0.546047,0.0844 -0.184313,0 -0.403077,-0.02584 -0.217041,-0.02584 -0.363457,-0.101631 -0.146417,-0.07751 -0.268718,-0.218763 -0.120578,-0.141249 -0.165364,-0.291111 -0.07235,-0.241156 -0.07235,-0.427192 v -1.505506 h 0.778591 v 1.54168 q 0,0.206706 0.113689,0.323839 0.11541,0.115411 0.318671,0.115411 0.201538,0 0.315226,-0.113689 0.115411,-0.11541 0.115411,-0.325561 z"
         style="fill:#0000ff;stroke-width:0.26458332"
         id="path75"
         inkscape:connector-curvature="0" />
      <path
         d="m 80.980414,60.180945 h 0.728638 l 0.950846,1.396986 v -1.396986 h 0.735528 V 62.7062 H 82.659898 L 81.71422,61.319549 V 62.7062 h -0.733806 z"
         style="fill:#0000ff;stroke-width:0.26458332"
         id="path77"
         inkscape:connector-curvature="0" />
    </g>
    <g
       aria-label="TEMPO"
       style="font-style:normal;font-variant:normal;font-weight:normal;font-stretch:normal;font-size:3.52777767px;line-height:1.25;font-family:'Arial Black';-inkscape-font-specification:'Arial Black, Normal';font-variant-ligatures:normal;font-variant-caps:normal;font-variant-numeric:normal;font-feature-settings:normal;text-align:center;letter-spacing:0px;word-spacing:0px;writing-mode:lr-tb;text-anchor:middle;fill:#000000;fill-opacity:1;stroke:none;stroke-width:0.26458332"
       id="text68">
      <path
         d="m 68.531562,35.310122 h 2.371948 v 0.623562 h -0.795817 v 1.901693 h -0.780314 v -1.901693 h -0.795817 z"
         style="fill:#0000ff;stroke-width:0.26458332"
         id="path70" />
      <path
         d="m 71.25491,35.310122 h 2.091173 v 0.539157 h -1.309136 v 0.401354 h 1.214396 v 0.515042 h -1.214396 v 0.497816 h 1.347032 v 0.571886 H 71.25491 Z"
         style="fill:#0000ff;stroke-width:0.26458332"
         id="path74" />
      <path
         d="m 73.795668,35.310122 h 1.026638 l 0.396186,1.536512 0.394464,-1.536512 h 1.023193 v 2.525255 h -0.637343 v -1.925809 l -0.494371,1.925809 h -0.577053 l -0.492649,-1.925809 v 1.925809 h -0.639065 z"
         style="fill:#0000ff;stroke-width:0.26458332"
         id="path76" />
      <path
         d="m 77.13052,35.310122 h 1.297078 q 0.423747,0 0.633898,0.201538 0.211873,0.201538 0.211873,0.573608 0,0.382406 -0.230821,0.597724 -0.229099,0.215319 -0.701077,0.215319 h -0.427192 v 0.937066 H 77.13052 Z m 0.783759,1.076592 h 0.191203 q 0.225653,0 0.316948,-0.07751 0.09129,-0.07924 0.09129,-0.201538 0,-0.118855 -0.07924,-0.201538 -0.07924,-0.08268 -0.298001,-0.08268 h -0.222208 z"
         style="fill:#0000ff;stroke-width:0.26458332"
         id="path78" />
      <path
         d="m 79.583428,36.574472 q 0,-0.618395 0.344509,-0.962904 0.34451,-0.34451 0.95946,-0.34451 0.630452,0 0.971516,0.339342 0.341065,0.337619 0.341065,0.947401 0,0.442695 -0.149862,0.726915 -0.148139,0.282498 -0.430637,0.440973 -0.280775,0.156751 -0.701077,0.156751 -0.427191,0 -0.707967,-0.136081 -0.279052,-0.136081 -0.45303,-0.430637 -0.173977,-0.294555 -0.173977,-0.73725 z m 0.780314,0.0034 q 0,0.382406 0.141249,0.549493 0.142971,0.167087 0.387573,0.167087 0.251492,0 0.389296,-0.163642 0.137804,-0.163642 0.137804,-0.587389 0,-0.356567 -0.144694,-0.520209 -0.142972,-0.165365 -0.389296,-0.165365 -0.235989,0 -0.37896,0.167087 -0.142972,0.167087 -0.142972,0.552938 z"
         style="fill:#0000ff;stroke-width:0.26458332"
         id="path86" />
    </g>
    <g
       aria-label="RST"
       style="font-style:normal;font-variant:normal;font-weight:normal;font-stretch:normal;font-size:3.52777767px;line-height:1.25;font-family:'Arial Black';-inkscape-font-specification:'Arial Black, Normal';font-variant-ligatures:normal;font-variant-caps:normal;font-variant-numeric:normal;font-feature-settings:normal;text-align:center;letter-spacing:0px;word-spacing:0px;writing-mode:lr-tb;text-anchor:middle;display:inline;fill:#ff0000;fill-opacity:1;stroke:none;stroke-width:0.26458332"
       id="text67-3"
       transform="translate(2.6458302,-44.450025)">
      <path
         d="m 63.81781,64.822868 v -2.525255 h 1.300524 q 0.361735,0 0.552937,0.06201 0.191203,0.06201 0.308337,0.230822 0.117133,0.167087 0.117133,0.408243 0,0.210151 -0.08957,0.363458 -0.08957,0.151584 -0.246324,0.246324 -0.09991,0.06029 -0.273885,0.09991 0.139526,0.04651 0.203261,0.09302 0.04306,0.03101 0.124023,0.132636 0.08268,0.10163 0.110243,0.156752 l 0.377238,0.732082 H 65.41978 l -0.416857,-0.771701 q -0.07924,-0.149862 -0.141249,-0.194648 -0.0844,-0.05857 -0.191203,-0.05857 h -0.0689 v 1.024916 z m 0.783759,-1.502061 h 0.329007 q 0.0534,0 0.206706,-0.03445 0.07751,-0.0155 0.125746,-0.07924 0.04995,-0.06374 0.04995,-0.146417 0,-0.122301 -0.07752,-0.187758 -0.07752,-0.06546 -0.291111,-0.06546 H 64.60156 Z"
         style="fill:#ff0000;stroke-width:0.26458332"
         id="path80-6"
         inkscape:connector-curvature="0" />
      <path
         d="m 66.415412,63.987433 0.742418,-0.04651 q 0.02412,0.180867 0.09819,0.275608 0.120579,0.153306 0.34451,0.153306 0.167087,0 0.25666,-0.07751 0.0913,-0.07924 0.0913,-0.18259 0,-0.09819 -0.08613,-0.1757 -0.08613,-0.07751 -0.399631,-0.146417 -0.513319,-0.115411 -0.732083,-0.306613 -0.220486,-0.191203 -0.220486,-0.487481 0,-0.194648 0.111966,-0.366903 0.113688,-0.173977 0.339342,-0.272162 0.227376,-0.09991 0.62184,-0.09991 0.484035,0 0.73725,0.180867 0.254937,0.179145 0.303168,0.571886 l -0.735528,0.04306 q -0.02928,-0.170532 -0.124023,-0.248047 -0.09302,-0.07751 -0.258382,-0.07751 -0.136081,0 -0.204983,0.05857 -0.0689,0.05684 -0.0689,0.139526 0,0.06029 0.05684,0.108521 0.05512,0.04995 0.261827,0.09302 0.511597,0.110243 0.732083,0.223932 0.222209,0.111965 0.322116,0.279052 0.101631,0.167087 0.101631,0.373793 0,0.242879 -0.134359,0.447862 -0.134359,0.204984 -0.375516,0.311782 -0.241156,0.105075 -0.608059,0.105075 -0.644233,0 -0.89228,-0.248047 -0.248046,-0.248047 -0.280775,-0.630452 z"
         style="fill:#ff0000;stroke-width:0.26458332"
         id="path82-7"
         inkscape:connector-curvature="0" />
      <path
         d="m 68.921719,62.297613 h 2.371948 v 0.623563 H 70.49785 v 1.901692 h -0.780314 v -1.901692 h -0.795817 z"
         style="fill:#ff0000;stroke-width:0.26458332"
         id="path84-5"
         inkscape:connector-curvature="0" />
    </g>
    <g
       aria-label="RUN"
       style="font-style:normal;font-variant:normal;font-weight:normal;font-stretch:normal;font-size:3.52777767px;line-height:1.25;font-family:'Arial Black';-inkscape-font-specification:'Arial Black, Normal';font-variant-ligatures:normal;font-variant-caps:normal;font-variant-numeric:normal;font-feature-settings:normal;text-align:center;letter-spacing:0px;word-spacing:0px;writing-mode:lr-tb;text-anchor:middle;display:inline;fill:#ff0000;fill-opacity:1;stroke:none;stroke-width:0.26458332"
       id="text71-3"
       transform="translate(1.5874978,-42.333358)">
      <path
         d="m 75.363186,62.7062 v -2.525255 h 1.300524 q 0.361735,0 0.552938,0.06201 0.191203,0.06201 0.308336,0.230822 0.117133,0.167087 0.117133,0.408244 0,0.21015 -0.08957,0.363457 -0.08957,0.151584 -0.246325,0.246325 -0.09991,0.06029 -0.273885,0.09991 0.139527,0.04651 0.203261,0.09302 0.04306,0.03101 0.124023,0.132636 0.08268,0.10163 0.110243,0.156752 L 77.8471,62.7062 H 76.965156 L 76.548299,61.934498 Q 76.469059,61.784637 76.40705,61.73985 76.32264,61.68128 76.215848,61.68128 h -0.0689 v 1.02492 z m 0.78376,-1.502062 h 0.329006 q 0.0534,0 0.206706,-0.03445 0.07751,-0.0155 0.125746,-0.07924 0.04995,-0.06373 0.04995,-0.146417 0,-0.122301 -0.07751,-0.187757 -0.07751,-0.06546 -0.29111,-0.06546 h -0.342787 z"
         style="fill:#ff0000;stroke-width:0.26458332"
         id="path73-5"
         inkscape:connector-curvature="0" />
      <path
         d="m 79.679891,60.180945 h 0.778591 v 1.505506 q 0,0.223932 -0.07062,0.423747 -0.0689,0.198093 -0.218764,0.347955 -0.148139,0.148139 -0.311781,0.208428 -0.227376,0.0844 -0.546047,0.0844 -0.184313,0 -0.403077,-0.02584 -0.217041,-0.02584 -0.363457,-0.101631 -0.146417,-0.07751 -0.268718,-0.218763 -0.120578,-0.141249 -0.165364,-0.291111 -0.07235,-0.241156 -0.07235,-0.427192 v -1.505506 h 0.778591 v 1.54168 q 0,0.206706 0.113689,0.323839 0.11541,0.115411 0.318671,0.115411 0.201538,0 0.315226,-0.113689 0.115411,-0.11541 0.115411,-0.325561 z"
         style="fill:#ff0000;stroke-width:0.26458332"
         id="path75-6"
         inkscape:connector-curvature="0" />
      <path
         d="m 80.980414,60.180945 h 0.728638 l 0.950846,1.396986 v -1.396986 h 0.735528 V 62.7062 H 82.659898 L 81.71422,61.319549 V 62.7062 h -0.733806 z"
         style="fill:#ff0000;stroke-width:0.26458332"
         id="path77-2"
         inkscape:connector-curvature="0" />
    </g>
    <g
       aria-label="CV"
       style="font-style:normal;font-variant:normal;font-weight:normal;font-stretch:normal;font-size:3.52777767px;line-height:1.25;font-family:'Arial Black';-inkscape-font-specification:'Arial Black, Normal';font-variant-ligatures:normal;font-variant-caps:normal;font-variant-numeric:normal;font-feature-settings:normal;text-align:center;letter-spacing:0px;word-spacing:0px;writing-mode:lr-tb;text-anchor:middle;fill:#000000;fill-opacity:1;stroke:none;stroke-width:0.26458332"
       id="text145"
       transform="translate(-0.52916667)">
      <path
         d="m 5.0163963,19.341071 0.6838514,0.206706 q -0.068902,0.287665 -0.217041,0.480591 -0.1481391,0.192925 -0.3686252,0.29111 -0.2187636,0.09819 -0.5581055,0.09819 -0.4116889,0 -0.6735161,-0.118855 -0.2601047,-0.120584 -0.4495849,-0.42203 -0.1894803,-0.301445 -0.1894803,-0.771701 0,-0.627007 0.3324517,-0.962904 0.3341743,-0.337619 0.9439561,-0.337619 0.4771458,0 0.7493083,0.192925 0.2738851,0.192925 0.4065212,0.592556 l -0.689019,0.153307 q -0.036174,-0.115411 -0.075792,-0.16881 -0.065457,-0.08957 -0.160197,-0.137803 -0.09474,-0.04823 -0.2118733,-0.04823 -0.2652724,0 -0.4065213,0.213596 -0.1067979,0.158474 -0.1067979,0.497816 0,0.420302 0.1274685,0.577054 0.1274685,0.155029 0.3582899,0.155029 0.2239312,0 0.3376194,-0.125746 0.1154107,-0.125746 0.1670871,-0.36518 z"
         style="fill:#00ff00;stroke-width:0.26458332"
         id="path159"
         inkscape:connector-curvature="0" />
      <path
         d="m 5.8294389,17.847622 h 0.8164876 l 0.5684407,1.817288 0.559828,-1.817288 h 0.792372 l -0.937066,2.525255 H 6.7837303 Z"
         style="fill:#00ff00;stroke-width:0.26458332"
         id="path161"
         inkscape:connector-curvature="0" />
    </g>
    <g
       aria-label="GATE"
       style="font-style:normal;font-variant:normal;font-weight:normal;font-stretch:normal;font-size:3.52777767px;line-height:1.25;font-family:'Arial Black';-inkscape-font-specification:'Arial Black, Normal';font-variant-ligatures:normal;font-variant-caps:normal;font-variant-numeric:normal;font-feature-settings:normal;text-align:center;letter-spacing:0px;word-spacing:0px;writing-mode:lr-tb;text-anchor:middle;fill:#000000;fill-opacity:1;stroke:none;stroke-width:0.26458332"
       id="text166"
       transform="translate(-0.012389,0.15227483)">
      <path
         d="m 12.664503,19.193619 v -0.525377 h 1.205783 v 1.076592 q -0.346232,0.235989 -0.613227,0.322116 -0.265272,0.08441 -0.630452,0.08441 -0.449585,0 -0.733806,-0.153306 -0.282497,-0.153307 -0.439249,-0.456476 -0.15503,-0.303168 -0.15503,-0.695909 0,-0.413411 0.170533,-0.718302 0.170532,-0.306614 0.499539,-0.465088 0.256659,-0.122301 0.690741,-0.122301 0.418579,0 0.625285,0.07579 0.208428,0.07579 0.344509,0.235989 0.137804,0.158475 0.206706,0.403076 l -0.752753,0.134359 q -0.04651,-0.142971 -0.158475,-0.218764 -0.110243,-0.07579 -0.282497,-0.07579 -0.25666,0 -0.409967,0.179145 -0.151584,0.177423 -0.151584,0.563273 0,0.409967 0.153307,0.585667 0.155029,0.1757 0.430637,0.1757 0.130913,0 0.249769,-0.0379 0.118856,-0.0379 0.272163,-0.129191 v -0.237711 z"
         style="fill:#00ff00;stroke-width:0.26458332"
         id="path180"
         inkscape:connector-curvature="0" />
      <path
         d="m 15.887389,19.691435 h -0.888834 l -0.122301,0.416857 h -0.79754 l 0.949124,-2.525255 h 0.850939 l 0.949124,2.525255 h -0.816488 z m -0.163642,-0.546048 -0.279052,-0.907782 -0.27733,0.907782 z"
         style="fill:#00ff00;stroke-width:0.26458332"
         id="path182"
         inkscape:connector-curvature="0" />
      <path
         d="m 16.657368,17.583037 h 2.371948 v 0.623562 h -0.795817 v 1.901693 h -0.780314 v -1.901693 h -0.795817 z"
         style="fill:#00ff00;stroke-width:0.26458332"
         id="path184"
         inkscape:connector-curvature="0" />
      <path
         d="m 19.380716,17.583037 h 2.091173 v 0.539157 h -1.309136 v 0.401354 h 1.214396 v 0.515042 h -1.214396 v 0.497816 h 1.347032 v 0.571886 h -2.129069 z"
         style="fill:#00ff00;stroke-width:0.26458332"
         id="path186"
         inkscape:connector-curvature="0" />
    </g>
    <g
       aria-label="PAT"
       style="font-style:normal;font-variant:normal;font-weight:normal;font-stretch:normal;font-size:3.52777767px;line-height:1.25;font-family:'Arial Black';-inkscape-font-specification:'Arial Black, Normal';font-variant-ligatures:normal;font-variant-caps:normal;font-variant-numeric:normal;font-feature-settings:normal;text-align:center;letter-spacing:0px;word-spacing:0px;writing-mode:lr-tb;text-anchor:middle;fill:#000000;fill-opacity:1;stroke:none;stroke-width:0.26458332"
       id="text85"
       transform="translate(-1.0583333,-3.7041668)">
      <path
         d="m 25.18158,14.672621 h 1.297078 q 0.423747,0 0.633898,0.201538 0.211873,0.201538 0.211873,0.573609 0,0.382405 -0.230821,0.597724 -0.229099,0.215318 -0.701077,0.215318 h -0.427192 v 0.937066 H 25.18158 Z m 0.783759,1.076592 h 0.191203 q 0.225654,0 0.316949,-0.07751 0.0913,-0.07924 0.0913,-0.201538 0,-0.118856 -0.07924,-0.201538 -0.07924,-0.08268 -0.298001,-0.08268 h -0.222209 z"
         style="fill:#0000ff;stroke-width:0.26458332"
         id="path123"
         inkscape:connector-curvature="0" />
      <path
         d="m 28.986688,16.781019 h -0.888835 l -0.122301,0.416857 h -0.797539 l 0.949124,-2.525255 h 0.850938 l 0.949124,2.525255 h -0.816488 z m -0.163642,-0.546047 -0.279053,-0.907783 -0.27733,0.907783 z"
         style="fill:#0000ff;stroke-width:0.26458332"
         id="path125"
         inkscape:connector-curvature="0" />
      <path
         d="m 29.756667,14.672621 h 2.371948 v 0.623562 h -0.795817 v 1.901693 h -0.780314 v -1.901693 h -0.795817 z"
         style="fill:#0000ff;stroke-width:0.26458332"
         id="path127"
         inkscape:connector-curvature="0" />
    </g>
    <g
       aria-label="SEQ"
       style="font-style:normal;font-variant:normal;font-weight:normal;font-stretch:normal;font-size:3.52777767px;line-height:1.25;font-family:'Arial Black';-inkscape-font-specification:'Arial Black, Normal';font-variant-ligatures:normal;font-variant-caps:normal;font-variant-numeric:normal;font-feature-settings:normal;text-align:center;letter-spacing:0px;word-spacing:0px;writing-mode:lr-tb;text-anchor:middle;fill:#000000;fill-opacity:1;stroke:none;stroke-width:0.26458332"
       id="text89"
       transform="translate(-1.0583333,-3.7041668)">
      <path
         d="m 34.469902,16.36244 0.742418,-0.04651 q 0.02412,0.180867 0.09819,0.275607 0.120578,0.153307 0.34451,0.153307 0.167087,0 0.256659,-0.07751 0.0913,-0.07924 0.0913,-0.18259 0,-0.09819 -0.08613,-0.1757 -0.08613,-0.07751 -0.399631,-0.146416 -0.513319,-0.115411 -0.732083,-0.306614 -0.220486,-0.191202 -0.220486,-0.487481 0,-0.194648 0.111965,-0.366902 0.113689,-0.173978 0.339342,-0.272163 0.227377,-0.09991 0.62184,-0.09991 0.484036,0 0.73725,0.180868 0.254938,0.179145 0.303169,0.571886 l -0.735528,0.04306 q -0.02928,-0.170532 -0.124023,-0.248046 -0.09302,-0.07752 -0.258383,-0.07752 -0.136081,0 -0.204983,0.05857 -0.0689,0.05684 -0.0689,0.139526 0,0.06029 0.05684,0.10852 0.05512,0.04995 0.261828,0.09302 0.511596,0.110243 0.732082,0.223931 0.222209,0.111966 0.322117,0.279053 0.10163,0.167087 0.10163,0.373793 0,0.242879 -0.134359,0.447862 -0.134358,0.204983 -0.375515,0.311781 -0.241157,0.105076 -0.608059,0.105076 -0.644233,0 -0.89228,-0.248047 -0.248047,-0.248047 -0.280775,-0.630453 z"
         style="fill:#0000ff;stroke-width:0.26458332"
         id="path116"
         inkscape:connector-curvature="0" />
      <path
         d="m 37.151908,14.672621 h 2.091173 v 0.539157 h -1.309136 v 0.401354 h 1.214396 v 0.515042 h -1.214396 v 0.497816 h 1.347032 v 0.571886 h -2.129069 z"
         style="fill:#0000ff;stroke-width:0.26458332"
         id="path118"
         inkscape:connector-curvature="0" />
      <path
         d="m 41.944036,16.829251 q 0.146417,0.10163 0.191203,0.127468 0.06718,0.0379 0.180867,0.08785 l -0.217041,0.437527 q -0.163642,-0.07924 -0.323839,-0.18948 -0.160197,-0.10852 -0.223931,-0.163642 -0.258382,0.111966 -0.647678,0.111966 -0.575331,0 -0.907782,-0.299724 -0.392741,-0.354844 -0.392741,-0.997355 0,-0.623562 0.342787,-0.968072 0.344509,-0.346232 0.961181,-0.346232 0.62873,0 0.969795,0.33762 0.342787,0.337619 0.342787,0.966349 0,0.559828 -0.275608,0.895725 z M 41.346312,16.42962 q 0.09302,-0.167087 0.09302,-0.499539 0,-0.382406 -0.142972,-0.546048 -0.141249,-0.163642 -0.391018,-0.163642 -0.232544,0 -0.377238,0.167087 -0.144694,0.167087 -0.144694,0.521932 0,0.413412 0.141249,0.580499 0.141249,0.167087 0.387573,0.167087 0.07924,0 0.149862,-0.0155 -0.09819,-0.09474 -0.310059,-0.179145 l 0.122301,-0.280775 q 0.103353,0.01895 0.160197,0.04651 0.05857,0.02756 0.225654,0.144694 0.03962,0.02756 0.08613,0.05684 z"
         style="fill:#0000ff;stroke-width:0.26458332"
         id="path120"
         inkscape:connector-curvature="0" />
    </g>
    <g
       aria-label="MUTE"
       style="font-style:normal;font-variant:normal;font-weight:normal;font-stretch:normal;font-size:3.52777767px;line-height:1.25;font-family:'Arial Black';-inkscape-font-specification:'Arial Black, Normal';font-variant-ligatures:normal;font-variant-caps:normal;font-variant-numeric:normal;font-feature-settings:normal;text-align:center;letter-spacing:0px;word-spacing:0px;writing-mode:lr-tb;text-anchor:middle;fill:#000000;fill-opacity:1;stroke:none;stroke-width:0.26458332"
       id="text93"
       transform="translate(-0.52916667,-3.7041668)">
      <path
         d="m 43.515864,14.672621 h 1.026638 l 0.396186,1.536513 0.394464,-1.536513 h 1.023193 v 2.525255 h -0.637343 v -1.925808 l -0.494371,1.925808 h -0.577053 l -0.492649,-1.925808 v 1.925808 h -0.639065 z"
         style="fill:#0000ff;stroke-width:0.26458332"
         id="path107"
         inkscape:connector-curvature="0" />
      <path
         d="m 48.497472,14.672621 h 0.778591 v 1.505507 q 0,0.223931 -0.07062,0.423746 -0.0689,0.198093 -0.218764,0.347955 -0.148139,0.148139 -0.311781,0.208428 -0.227376,0.08441 -0.546047,0.08441 -0.184313,0 -0.403077,-0.02584 -0.217041,-0.02584 -0.363457,-0.10163 -0.146417,-0.07751 -0.268718,-0.218764 -0.120578,-0.141249 -0.165364,-0.29111 -0.07235,-0.241157 -0.07235,-0.427192 v -1.505507 h 0.778591 v 1.54168 q 0,0.206706 0.113689,0.323839 0.11541,0.115411 0.318671,0.115411 0.201538,0 0.315226,-0.113688 0.115411,-0.115411 0.115411,-0.325562 z"
         style="fill:#0000ff;stroke-width:0.26458332"
         id="path109"
         inkscape:connector-curvature="0" />
      <path
         d="m 49.615405,14.672621 h 2.371948 v 0.623562 h -0.795817 v 1.901693 h -0.780314 v -1.901693 h -0.795817 z"
         style="fill:#0000ff;stroke-width:0.26458332"
         id="path111"
         inkscape:connector-curvature="0" />
      <path
         d="m 52.338753,14.672621 h 2.091173 v 0.539157 H 53.12079 v 0.401354 h 1.214396 v 0.515042 H 53.12079 v 0.497816 h 1.347032 v 0.571886 h -2.129069 z"
         style="fill:#0000ff;stroke-width:0.26458332"
         id="path113"
         inkscape:connector-curvature="0" />
    </g>
    <g
       aria-label="NOW"
       style="font-style:normal;font-variant:normal;font-weight:normal;font-stretch:normal;font-size:3.52777767px;line-height:1.25;font-family:'Arial Black';-inkscape-font-specification:'Arial Black, Normal';font-variant-ligatures:normal;font-variant-caps:normal;font-variant-numeric:normal;font-feature-settings:normal;text-align:center;letter-spacing:0px;word-spacing:0px;writing-mode:lr-tb;text-anchor:middle;fill:#000000;fill-opacity:1;stroke:none;stroke-width:0.26458332"
       id="text97"
       transform="translate(-0.52916667,-3.7041668)">
      <path
         d="m 55.651556,14.672621 h 0.728638 l 0.950846,1.396986 v -1.396986 h 0.735528 v 2.525255 H 57.33104 l -0.945678,-1.386651 v 1.386651 h -0.733806 z"
         style="fill:#0000ff;stroke-width:0.26458332"
         id="path100"
         inkscape:connector-curvature="0" />
      <path
         d="m 58.48687,15.936971 q 0,-0.618395 0.344509,-0.962904 0.34451,-0.34451 0.959459,-0.34451 0.630453,0 0.971517,0.339342 0.341065,0.33762 0.341065,0.947401 0,0.442695 -0.149862,0.726916 -0.148139,0.282497 -0.430637,0.440972 -0.280775,0.156752 -0.701077,0.156752 -0.427192,0 -0.707967,-0.136082 -0.279053,-0.136081 -0.45303,-0.430637 -0.173977,-0.294555 -0.173977,-0.73725 z m 0.780314,0.0034 q 0,0.382406 0.141249,0.549493 0.142971,0.167087 0.387573,0.167087 0.251492,0 0.389296,-0.163642 0.137804,-0.163642 0.137804,-0.587389 0,-0.356567 -0.144694,-0.520209 -0.142972,-0.165365 -0.389296,-0.165365 -0.235989,0 -0.378961,0.167087 -0.142971,0.167087 -0.142971,0.552938 z"
         style="fill:#0000ff;stroke-width:0.26458332"
         id="path102"
         inkscape:connector-curvature="0" />
      <path
         d="m 61.203328,14.672621 h 0.740695 l 0.266995,1.410767 0.389296,-1.410767 h 0.738973 l 0.391018,1.410767 0.266995,-1.410767 h 0.737251 l -0.556383,2.525255 h -0.764812 l -0.442694,-1.589912 -0.440972,1.589912 h -0.764812 z"
         style="fill:#0000ff;stroke-width:0.26458332"
         id="path104"
         inkscape:connector-curvature="0" />
    </g>
    <g
       aria-label="G.LEN"
       style="font-style:normal;font-variant:normal;font-weight:normal;font-stretch:normal;font-size:3.52777767px;line-height:1.25;font-family:'Arial Black';-inkscape-font-specification:'Arial Black, Normal';font-variant-ligatures:normal;font-variant-caps:normal;font-variant-numeric:normal;font-feature-settings:normal;text-align:center;letter-spacing:0px;word-spacing:0px;writing-mode:lr-tb;text-anchor:middle;fill:#000000;fill-opacity:1;stroke:none;stroke-width:0.26458332"
       id="text102"
       transform="translate(-0.52916667)">
      <path
         d="m 7.308218,36.920704 v -0.525377 h 1.2057834 v 1.076592 q -0.3462321,0.235989 -0.613227,0.322117 -0.2652723,0.0844 -0.6304524,0.0844 -0.449585,0 -0.7338053,-0.153306 Q 6.2540188,37.571827 6.097267,37.268659 5.9422377,36.96549 5.9422377,36.572749 q 0,-0.413411 0.1705322,-0.718302 0.1705323,-0.306614 0.4995389,-0.465088 0.2566596,-0.122301 0.6907416,-0.122301 0.4185791,0 0.6252848,0.07579 0.2084283,0.07579 0.3445095,0.235989 0.1378039,0.158475 0.2067058,0.403076 l -0.7527534,0.134359 q -0.046509,-0.142971 -0.1584744,-0.218763 -0.110243,-0.07579 -0.2824978,-0.07579 -0.2566596,0 -0.4099663,0.179145 -0.1515842,0.177423 -0.1515842,0.563274 0,0.409966 0.1533067,0.585666 0.1550293,0.1757 0.4306369,0.1757 0.1309137,0 0.2497694,-0.0379 0.1188558,-0.0379 0.2721626,-0.129192 v -0.237711 z"
         style="fill:#0000ff;stroke-width:0.26458332"
         id="path105"
         inkscape:connector-curvature="0" />
      <path
         d="m 8.9670315,37.132577 h 0.7493082 v 0.7028 H 8.9670315 Z"
         style="fill:#0000ff;stroke-width:0.26458332"
         id="path108"
         inkscape:connector-curvature="0" />
      <path
         d="m 10.186595,35.310122 h 0.780314 v 1.903415 h 1.217842 v 0.62184 h -1.998156 z"
         style="fill:#0000ff;stroke-width:0.26458332"
         id="path110"
         inkscape:connector-curvature="0" />
      <path
         d="m 12.537873,35.310122 h 2.091173 v 0.539157 H 13.31991 v 0.401354 h 1.214396 v 0.515042 H 13.31991 v 0.497816 h 1.347032 v 0.571886 h -2.129069 z"
         style="fill:#0000ff;stroke-width:0.26458332"
         id="path112"
         inkscape:connector-curvature="0" />
      <path
         d="m 15.092411,35.310122 h 0.728638 l 0.950846,1.396986 v -1.396986 h 0.735528 v 2.525255 h -0.735528 l -0.945679,-1.386651 v 1.386651 h -0.733805 z"
         style="fill:#0000ff;stroke-width:0.26458332"
         id="path114"
         inkscape:connector-curvature="0" />
    </g>
    <g
       aria-label="CPY"
       style="font-style:normal;font-variant:normal;font-weight:normal;font-stretch:normal;font-size:3.52777767px;line-height:1.25;font-family:'Arial Black';-inkscape-font-specification:'Arial Black, Normal';font-variant-ligatures:normal;font-variant-caps:normal;font-variant-numeric:normal;font-feature-settings:normal;text-align:center;letter-spacing:0px;word-spacing:0px;writing-mode:lr-tb;text-anchor:middle;fill:#000000;fill-opacity:1;stroke:none;stroke-width:0.26458332"
       id="text144">
      <path
         d="m 3.7425804,42.359803 0.6838514,0.206706 q -0.068902,0.287665 -0.217041,0.480591 -0.1481391,0.192925 -0.3686252,0.29111 -0.2187636,0.09819 -0.5581055,0.09819 -0.4116889,0 -0.6735161,-0.118855 Q 2.3490393,43.196961 2.159559,42.895515 1.9700788,42.59407 1.9700788,42.123814 q 0,-0.627007 0.3324517,-0.962904 0.3341743,-0.337619 0.9439561,-0.337619 0.4771457,0 0.7493083,0.192925 0.2738851,0.192925 0.4065212,0.592556 l -0.689019,0.153307 q -0.036174,-0.115411 -0.075792,-0.16881 -0.065457,-0.08957 -0.160197,-0.137803 -0.09474,-0.04823 -0.2118733,-0.04823 -0.2652724,0 -0.4065213,0.213596 -0.106798,0.158475 -0.106798,0.497816 0,0.420302 0.1274686,0.577054 0.1274685,0.155029 0.3582899,0.155029 0.2239312,0 0.3376193,-0.125746 0.1154107,-0.125746 0.1670872,-0.36518 z"
         style="fill:#0000ff;stroke-width:0.26458332"
         id="path181" />
      <path
         d="m 4.8019473,40.866354 h 1.2970784 q 0.4237467,0 0.6338975,0.201538 0.2118734,0.201538 0.2118734,0.573609 0,0.382405 -0.2308214,0.597724 -0.2290988,0.215318 -0.7010769,0.215318 H 5.5857065 v 0.937066 H 4.8019473 Z m 0.7837592,1.076593 h 0.1912028 q 0.2256537,0 0.3169488,-0.07751 0.091295,-0.07924 0.091295,-0.201538 0,-0.118856 -0.079237,-0.201538 -0.079237,-0.08268 -0.2980008,-0.08268 H 5.5857065 Z"
         style="fill:#0000ff;stroke-width:0.26458332"
         id="path183" />
      <path
         d="m 7.0981033,40.866354 h 0.8664415 l 0.5098741,0.852661 0.5098741,-0.852661 h 0.8612738 l -0.9818521,1.467611 v 1.057644 H 8.081678 v -1.057644 z"
         style="fill:#0000ff;stroke-width:0.26458332"
         id="path185" />
    </g>
    <g
       aria-label="PST"
       style="font-style:normal;font-variant:normal;font-weight:normal;font-stretch:normal;font-size:3.52777767px;line-height:1.25;font-family:'Arial Black';-inkscape-font-specification:'Arial Black, Normal';font-variant-ligatures:normal;font-variant-caps:normal;font-variant-numeric:normal;font-feature-settings:normal;text-align:center;letter-spacing:0px;word-spacing:0px;writing-mode:lr-tb;text-anchor:middle;fill:#000000;fill-opacity:1;stroke:none;stroke-width:0.26458332"
       id="text148">
      <path
         d="m 12.837634,40.866354 h 1.297078 q 0.423747,0 0.633898,0.201538 0.211873,0.201538 0.211873,0.573609 0,0.382405 -0.230821,0.597724 -0.229099,0.215318 -0.701077,0.215318 h -0.427192 v 0.937066 h -0.783759 z m 0.783759,1.076593 h 0.191203 q 0.225654,0 0.316949,-0.07751 0.0913,-0.07924 0.0913,-0.201538 0,-0.118856 -0.07924,-0.201538 -0.07924,-0.08268 -0.298001,-0.08268 h -0.222209 z"
         style="fill:#0000ff;stroke-width:0.26458332"
         id="path174" />
      <path
         d="m 15.252646,42.556174 0.742418,-0.04651 q 0.02412,0.180867 0.09819,0.275607 0.120578,0.153307 0.34451,0.153307 0.167087,0 0.256659,-0.07751 0.0913,-0.07924 0.0913,-0.182591 0,-0.09819 -0.08613,-0.175699 -0.08613,-0.07751 -0.399631,-0.146417 -0.513319,-0.115411 -0.732083,-0.306613 -0.220486,-0.191203 -0.220486,-0.487481 0,-0.194648 0.111966,-0.366903 0.113688,-0.173977 0.339341,-0.272163 0.227377,-0.09991 0.62184,-0.09991 0.484036,0 0.737251,0.180867 0.254937,0.179145 0.303168,0.571886 l -0.735528,0.04306 q -0.02928,-0.170533 -0.124023,-0.248047 -0.09302,-0.07751 -0.258382,-0.07751 -0.136082,0 -0.204984,0.05857 -0.0689,0.05684 -0.0689,0.139526 0,0.06029 0.05684,0.108521 0.05512,0.04995 0.261827,0.09302 0.511596,0.110243 0.732083,0.223931 0.222208,0.111966 0.322116,0.279053 0.10163,0.167087 0.10163,0.373793 0,0.242879 -0.134358,0.447862 -0.134359,0.204984 -0.375516,0.311781 -0.241156,0.105076 -0.608059,0.105076 -0.644233,0 -0.89228,-0.248047 -0.248047,-0.248047 -0.280775,-0.630452 z"
         style="fill:#0000ff;stroke-width:0.26458332"
         id="path176" />
      <path
         d="m 17.758953,40.866354 h 2.371948 v 0.623563 h -0.795817 v 1.901692 H 18.55477 v -1.901692 h -0.795817 z"
         style="fill:#0000ff;stroke-width:0.26458332"
         id="path178" />
    </g>
    <g
       aria-label="JAZZ"
       style="font-style:normal;font-variant:normal;font-weight:normal;font-stretch:normal;font-size:3.52777767px;line-height:1.25;font-family:'Arial Black';-inkscape-font-specification:'Arial Black, Normal';font-variant-ligatures:normal;font-variant-caps:normal;font-variant-numeric:normal;font-feature-settings:normal;text-align:center;letter-spacing:0px;word-spacing:0px;writing-mode:lr-tb;text-anchor:middle;fill:#00ff00;fill-opacity:1;stroke:none;stroke-width:0.26458332"
       id="text116"
       transform="translate(-1.0583333,0.52916667)">
      <path
         d="m 40.179475,37.691359 h 0.782037 v 1.37287 q 0,0.43236 -0.07751,0.658014 -0.07579,0.225653 -0.308336,0.382405 -0.230821,0.156752 -0.592556,0.156752 -0.382406,0 -0.592557,-0.103353 -0.21015,-0.103353 -0.325561,-0.301446 -0.113688,-0.199815 -0.134359,-0.492648 l 0.745863,-0.101631 q 0.0017,0.167087 0.02928,0.248047 0.02756,0.08096 0.09302,0.130914 0.04479,0.03273 0.127469,0.03273 0.130913,0 0.191203,-0.09646 0.06201,-0.09819 0.06201,-0.329007 z"
         style="fill:#00ff00;stroke-width:0.26458332"
         id="path119"
         inkscape:connector-curvature="0" />
      <path
         d="m 42.944164,39.799757 h -0.888835 l -0.1223,0.416857 h -0.79754 l 0.949124,-2.525255 h 0.850938 l 0.949124,2.525255 h -0.816487 z m -0.163642,-0.546047 -0.279053,-0.907783 -0.27733,0.907783 z"
         style="fill:#00ff00;stroke-width:0.26458332"
         id="path121"
         inkscape:connector-curvature="0" />
      <path
         d="m 44.07071,37.691359 h 2.208307 v 0.504706 l -1.415935,1.477946 h 1.467611 v 0.542603 h -2.396064 v -0.523655 l 1.400431,-1.462443 h -1.26435 z"
         style="fill:#00ff00;stroke-width:0.26458332"
         id="path129"
         inkscape:connector-curvature="0" />
      <path
         d="m 46.618358,37.691359 h 2.208306 v 0.504706 l -1.415934,1.477946 h 1.467611 v 0.542603 h -2.396064 v -0.523655 l 1.400431,-1.462443 h -1.26435 z"
         style="fill:#00ff00;stroke-width:0.26458332"
         id="path131"
         inkscape:connector-curvature="0" />
    </g>
    <g
       aria-label="3"
       style="font-style:normal;font-variant:normal;font-weight:normal;font-stretch:normal;font-size:3.52777767px;line-height:1.25;font-family:'Arial Black';-inkscape-font-specification:'Arial Black, Normal';font-variant-ligatures:normal;font-variant-caps:normal;font-variant-numeric:normal;font-feature-settings:normal;text-align:center;letter-spacing:0px;word-spacing:0px;writing-mode:lr-tb;text-anchor:middle;fill:#000000;fill-opacity:1;stroke:none;stroke-width:0.26458332"
       id="text121"
       transform="translate(0,0.52916667)">
      <path
         d="M 31.927771,38.421719 31.26459,38.302863 q 0.08268,-0.316948 0.316949,-0.485758 0.235989,-0.16881 0.666626,-0.16881 0.494371,0 0.714857,0.184313 0.220487,0.184312 0.220487,0.463365 0,0.163642 -0.08957,0.296278 -0.08957,0.132636 -0.27044,0.232544 0.146417,0.03617 0.223931,0.0844 0.125746,0.07751 0.194648,0.204983 0.07062,0.125746 0.07062,0.301446 0,0.220486 -0.115411,0.423747 -0.115411,0.201538 -0.332452,0.311781 -0.217041,0.10852 -0.570163,0.10852 -0.34451,0 -0.544325,-0.08096 -0.198093,-0.08096 -0.327284,-0.235989 -0.127469,-0.156752 -0.196371,-0.392741 l 0.701077,-0.09302 q 0.04134,0.211874 0.127469,0.294556 0.08785,0.08096 0.222208,0.08096 0.141249,0 0.234267,-0.103353 0.09474,-0.103353 0.09474,-0.275608 0,-0.1757 -0.09129,-0.272162 -0.08957,-0.09646 -0.244602,-0.09646 -0.08268,0 -0.227376,0.04134 l 0.03617,-0.501261 q 0.05857,0.0086 0.0913,0.0086 0.137804,0 0.229099,-0.08785 0.09302,-0.08785 0.09302,-0.208429 0,-0.11541 -0.0689,-0.184312 -0.0689,-0.0689 -0.18948,-0.0689 -0.124024,0 -0.201538,0.07579 -0.07751,0.07407 -0.105076,0.261827 z"
         style="stroke-width:0.26458332"
         id="path137"
         inkscape:connector-curvature="0" />
    </g>
    <g
       aria-label="4"
       style="font-style:normal;font-variant:normal;font-weight:normal;font-stretch:normal;font-size:3.52777767px;line-height:1.25;font-family:'Arial Black';-inkscape-font-specification:'Arial Black, Normal';font-variant-ligatures:normal;font-variant-caps:normal;font-variant-numeric:normal;font-feature-settings:normal;text-align:center;letter-spacing:0px;word-spacing:0px;writing-mode:lr-tb;text-anchor:middle;fill:#000000;fill-opacity:1;stroke:none;stroke-width:0.26458332"
       id="text125"
       transform="translate(0,0.52916667)">
      <path
         d="m 53.61982,39.744636 h -1.27813 v -0.577054 l 1.27813,-1.519287 h 0.611504 v 1.552016 h 0.316949 v 0.544325 h -0.316949 v 0.471978 H 53.61982 Z m 0,-0.544325 v -0.794095 l -0.675239,0.794095 z"
         style="stroke-width:0.26458332"
         id="path133"
         inkscape:connector-curvature="0" />
    </g>
  </g>
</svg>
